<svg width="578" height="434" viewBox="0 0 578 434" fill="none" xmlns="http://www.w3.org/2000/svg">
<rect x="0.5" y="0.5" width="518" height="391" rx="11.5" fill="white"/>
<rect x="0.5" y="0.5" width="518" height="391" rx="11.5" stroke="#EAEEF4"/>
<path d="M25.1378 46H27.9055V41.3594H29.9254L32.4055 46H35.4609L32.6804 40.9119C34.1697 40.2727 34.9943 38.9751 34.9943 37.1854C34.9943 34.5838 33.2749 32.9091 30.3026 32.9091H25.1378V46ZM27.9055 39.1349V35.1719H29.772C31.37 35.1719 32.1435 35.8814 32.1435 37.1854C32.1435 38.483 31.37 39.1349 29.7848 39.1349H27.9055ZM41.2154 46.1918C43.6444 46.1918 45.2807 45.0092 45.6642 43.1875L43.1458 43.0213C42.8709 43.7692 42.1678 44.1591 41.2601 44.1591C39.8986 44.1591 39.0357 43.2578 39.0357 41.794V41.7876H45.7218V41.0398C45.7218 37.7031 43.7019 36.054 41.1067 36.054C38.2175 36.054 36.3446 38.1058 36.3446 41.1357C36.3446 44.2486 38.1919 46.1918 41.2154 46.1918ZM39.0357 40.1001C39.0932 38.9815 39.9434 38.0866 41.1515 38.0866C42.334 38.0866 43.1522 38.9304 43.1586 40.1001H39.0357ZM51.9348 46.1918C54.5492 46.1918 56.1919 44.6577 56.3198 42.4013H53.7502C53.5904 43.4496 52.9 44.0376 51.9668 44.0376C50.6948 44.0376 49.8702 42.9702 49.8702 41.0909C49.8702 39.2372 50.7012 38.1761 51.9668 38.1761C52.964 38.1761 53.6032 38.8345 53.7502 39.8125H56.3198C56.2047 37.5433 54.4853 36.054 51.9221 36.054C48.9434 36.054 47.1025 38.1186 47.1025 41.1293C47.1025 44.1143 48.9114 46.1918 51.9348 46.1918ZM62.5376 46.1918C64.9666 46.1918 66.603 45.0092 66.9865 43.1875L64.468 43.0213C64.1932 43.7692 63.4901 44.1591 62.5824 44.1591C61.2209 44.1591 60.358 43.2578 60.358 41.794V41.7876H67.044V41.0398C67.044 37.7031 65.0241 36.054 62.429 36.054C59.5398 36.054 57.6669 38.1058 57.6669 41.1357C57.6669 44.2486 59.5142 46.1918 62.5376 46.1918ZM60.358 40.1001C60.4155 38.9815 61.2656 38.0866 62.4737 38.0866C63.6562 38.0866 64.4744 38.9304 64.4808 40.1001H60.358ZM71.544 40.3239C71.5504 39.0582 72.3047 38.3168 73.4041 38.3168C74.4972 38.3168 75.1555 39.0327 75.1491 40.2344V46H77.8722V39.7486C77.8722 37.4602 76.5298 36.054 74.4844 36.054C73.027 36.054 71.9723 36.7699 71.5312 37.9141H71.4162V36.1818H68.821V46H71.544V40.3239ZM85.2406 36.1818H83.3933V33.8295H80.6703V36.1818H79.3279V38.2273H80.6703V43.3409C80.6575 45.2649 81.9679 46.2173 83.943 46.1342C84.6461 46.1087 85.1447 45.968 85.4196 45.8786L84.9913 43.8523C84.8571 43.8778 84.5694 43.9418 84.3137 43.9418C83.7704 43.9418 83.3933 43.7372 83.3933 42.983V38.2273H85.2406V36.1818ZM95.8722 46C99.8608 46 102.277 43.5327 102.277 39.4418C102.277 35.3636 99.8608 32.9091 95.9105 32.9091H91.2315V46H95.8722ZM93.9993 43.6286V35.2805H95.7635C98.218 35.2805 99.5156 36.5334 99.5156 39.4418C99.5156 42.3629 98.218 43.6286 95.7571 43.6286H93.9993ZM108.751 46.1918C111.18 46.1918 112.816 45.0092 113.199 43.1875L110.681 43.0213C110.406 43.7692 109.703 44.1591 108.795 44.1591C107.434 44.1591 106.571 43.2578 106.571 41.794V41.7876H113.257V41.0398C113.257 37.7031 111.237 36.054 108.642 36.054C105.753 36.054 103.88 38.1058 103.88 41.1357C103.88 44.2486 105.727 46.1918 108.751 46.1918ZM106.571 40.1001C106.628 38.9815 107.479 38.0866 108.687 38.0866C109.869 38.0866 110.687 38.9304 110.694 40.1001H106.571ZM117.834 46.1854C119.285 46.1854 120.224 45.5526 120.704 44.6385H120.78V46H123.363V39.3778C123.363 37.0384 121.381 36.054 119.195 36.054C116.843 36.054 115.296 37.179 114.919 38.9688L117.437 39.1733C117.623 38.5213 118.204 38.0419 119.182 38.0419C120.109 38.0419 120.64 38.5085 120.64 39.3139V39.3523C120.64 39.9851 119.969 40.0682 118.262 40.2344C116.319 40.4134 114.574 41.0653 114.574 43.2578C114.574 45.201 115.961 46.1854 117.834 46.1854ZM118.613 44.3061C117.776 44.3061 117.175 43.9162 117.175 43.1683C117.175 42.4013 117.808 42.0241 118.767 41.8899C119.361 41.8068 120.333 41.6662 120.659 41.4489V42.4908C120.659 43.5199 119.809 44.3061 118.613 44.3061ZM128.198 32.9091H125.475V46H128.198V32.9091ZM138.549 38.9815C138.306 37.1726 136.848 36.054 134.368 36.054C131.856 36.054 130.201 37.2173 130.207 39.1094C130.201 40.5795 131.127 41.532 133.045 41.9155L134.745 42.2543C135.602 42.4268 135.992 42.7401 136.005 43.2322C135.992 43.8139 135.359 44.2294 134.407 44.2294C133.435 44.2294 132.789 43.8139 132.623 43.0149L129.945 43.1555C130.201 45.0348 131.799 46.1918 134.4 46.1918C136.944 46.1918 138.766 44.8942 138.772 42.9574C138.766 41.5384 137.839 40.6882 135.934 40.2983L134.157 39.9403C133.243 39.7422 132.904 39.429 132.911 38.956C132.904 38.3679 133.569 37.9844 134.413 37.9844C135.359 37.9844 135.922 38.5021 136.056 39.1349L138.549 38.9815Z" fill="#092C4C"/>
<path d="M443.483 33.8182L446.317 42.1108H446.431L449.265 33.8182H450.926L447.262 44H445.487L441.823 33.8182H443.483ZM452.277 44V36.3636H453.763V44H452.277ZM453.027 35.1854C452.769 35.1854 452.547 35.0992 452.361 34.9268C452.179 34.7512 452.088 34.5424 452.088 34.3004C452.088 34.0552 452.179 33.8464 452.361 33.674C452.547 33.4983 452.769 33.4105 453.027 33.4105C453.286 33.4105 453.506 33.4983 453.689 33.674C453.874 33.8464 453.967 34.0552 453.967 34.3004C453.967 34.5424 453.874 34.7512 453.689 34.9268C453.506 35.0992 453.286 35.1854 453.027 35.1854ZM459.054 44.1541C458.302 44.1541 457.654 43.9934 457.11 43.6719C456.57 43.3471 456.152 42.8913 455.857 42.3047C455.566 41.7147 455.42 41.0237 455.42 40.2315C455.42 39.4493 455.566 38.7599 455.857 38.1634C456.152 37.5668 456.563 37.1011 457.09 36.7663C457.621 36.4316 458.24 36.2642 458.95 36.2642C459.381 36.2642 459.798 36.3355 460.203 36.478C460.607 36.6205 460.97 36.8442 461.291 37.1491C461.613 37.4541 461.866 37.8501 462.052 38.3374C462.238 38.8213 462.33 39.4096 462.33 40.1023V40.6293H456.26V39.5156H460.874C460.874 39.1245 460.794 38.7782 460.635 38.4766C460.476 38.1716 460.252 37.9313 459.964 37.7557C459.679 37.58 459.344 37.4922 458.96 37.4922C458.542 37.4922 458.177 37.5949 457.866 37.8004C457.558 38.0026 457.319 38.2678 457.15 38.5959C456.984 38.9207 456.901 39.2737 456.901 39.6548V40.5249C456.901 41.0353 456.991 41.4695 457.17 41.8274C457.352 42.1854 457.606 42.4588 457.931 42.6477C458.255 42.8333 458.635 42.9261 459.069 42.9261C459.351 42.9261 459.608 42.8864 459.84 42.8068C460.072 42.724 460.272 42.6013 460.441 42.4389C460.61 42.2765 460.74 42.076 460.829 41.8374L462.236 42.0909C462.123 42.5052 461.921 42.8681 461.629 43.1797C461.341 43.4879 460.978 43.7282 460.541 43.9006C460.106 44.0696 459.611 44.1541 459.054 44.1541ZM465.622 44L463.374 36.3636H464.911L466.407 41.9716H466.482L467.983 36.3636H469.519L471.011 41.9467H471.085L472.572 36.3636H474.108L471.866 44H470.35L468.798 38.4865H468.684L467.133 44H465.622ZM480.203 44H478.573L482.237 33.8182H484.012L487.676 44H486.045L483.166 35.6676H483.087L480.203 44ZM480.477 40.0128H485.767V41.3054H480.477V40.0128ZM490.513 33.8182V44H489.027V33.8182H490.513ZM493.999 33.8182V44H492.513V33.8182H493.999Z" fill="#FF8000"/>
<g clip-path="url(#clip0_47_12863)">
<rect x="24" y="87" width="44" height="44" rx="22" fill="#EAEEF4"/>
</g>
<rect x="84" y="94.5" width="163" height="13" rx="6.5" fill="#092C4C"/>
<path d="M418.64 106.5H416.333L419.848 96.3182H422.622L426.132 106.5H423.825L421.275 98.6449H421.195L418.64 106.5ZM418.496 102.498H423.945V104.178H418.496V102.498ZM427.358 106.5V96.3182H434.218V98.093H429.51V100.519H433.865V102.294H429.51V104.725H434.238V106.5H427.358ZM439.539 106.5H435.93V96.3182H439.569C440.593 96.3182 441.475 96.522 442.214 96.9297C442.953 97.334 443.521 97.9157 443.919 98.6747C444.32 99.4337 444.521 100.342 444.521 101.399C444.521 102.46 444.32 103.371 443.919 104.134C443.521 104.896 442.95 105.481 442.204 105.888C441.462 106.296 440.573 106.5 439.539 106.5ZM438.083 104.656H439.45C440.086 104.656 440.621 104.543 441.056 104.317C441.493 104.089 441.821 103.736 442.04 103.259C442.262 102.778 442.373 102.158 442.373 101.399C442.373 100.647 442.262 100.032 442.04 99.5547C441.821 99.0774 441.495 98.7261 441.061 98.5007C440.626 98.2753 440.091 98.1626 439.455 98.1626H438.083V104.656Z" fill="#092C4C"/>
<path d="M451.255 96.3182V106.5H449.102V98.3615H449.043L446.711 99.8232V97.9141L449.232 96.3182H451.255ZM457.583 106.639C457.059 106.636 456.553 106.548 456.066 106.376C455.582 106.203 455.148 105.923 454.764 105.536C454.379 105.148 454.074 104.634 453.849 103.994C453.627 103.355 453.516 102.569 453.516 101.638C453.519 100.783 453.617 100.019 453.809 99.3459C454.005 98.6697 454.283 98.0964 454.644 97.6257C455.009 97.1551 455.445 96.7971 455.952 96.5518C456.459 96.3033 457.027 96.179 457.657 96.179C458.337 96.179 458.936 96.3116 459.457 96.5767C459.977 96.8385 460.395 97.1948 460.71 97.6456C461.028 98.0964 461.22 98.6018 461.286 99.1619H459.164C459.081 98.8073 458.907 98.5289 458.642 98.3267C458.376 98.1245 458.048 98.0234 457.657 98.0234C456.994 98.0234 456.49 98.3118 456.146 98.8885C455.804 99.4652 455.63 100.249 455.624 101.24H455.693C455.846 100.938 456.051 100.682 456.31 100.469C456.572 100.254 456.868 100.09 457.2 99.9773C457.535 99.8613 457.887 99.8033 458.259 99.8033C458.862 99.8033 459.399 99.9458 459.869 100.231C460.34 100.513 460.711 100.9 460.983 101.394C461.255 101.888 461.391 102.453 461.391 103.089C461.391 103.779 461.23 104.392 460.909 104.929C460.59 105.466 460.145 105.887 459.571 106.192C459.001 106.493 458.338 106.643 457.583 106.639ZM457.573 104.949C457.904 104.949 458.201 104.869 458.463 104.71C458.724 104.551 458.93 104.336 459.079 104.064C459.228 103.792 459.303 103.487 459.303 103.149C459.303 102.811 459.228 102.508 459.079 102.239C458.933 101.971 458.731 101.757 458.472 101.598C458.214 101.439 457.919 101.359 457.588 101.359C457.339 101.359 457.109 101.406 456.896 101.499C456.688 101.591 456.504 101.721 456.345 101.886C456.189 102.052 456.066 102.244 455.977 102.463C455.887 102.679 455.843 102.909 455.843 103.154C455.843 103.482 455.917 103.782 456.066 104.054C456.219 104.326 456.424 104.543 456.683 104.705C456.945 104.868 457.241 104.949 457.573 104.949ZM464.815 105.108L464.76 105.655C464.717 106.092 464.634 106.528 464.512 106.962C464.392 107.4 464.266 107.796 464.134 108.151C464.005 108.505 463.9 108.784 463.821 108.986H462.449C462.498 108.79 462.566 108.517 462.652 108.165C462.739 107.817 462.82 107.426 462.896 106.992C462.972 106.558 463.02 106.116 463.04 105.665L463.065 105.108H464.815ZM470.12 106.639C469.354 106.639 468.673 106.515 468.076 106.266C467.483 106.014 467.017 105.671 466.679 105.237C466.341 104.803 466.172 104.311 466.172 103.761C466.172 103.336 466.268 102.947 466.461 102.592C466.656 102.234 466.921 101.938 467.256 101.702C467.591 101.464 467.965 101.311 468.38 101.245V101.175C467.836 101.066 467.395 100.803 467.057 100.385C466.719 99.964 466.55 99.4751 466.55 98.9183C466.55 98.3913 466.704 97.9223 467.012 97.5114C467.321 97.0971 467.743 96.7723 468.28 96.5369C468.82 96.2983 469.434 96.179 470.12 96.179C470.806 96.179 471.417 96.2983 471.954 96.5369C472.494 96.7756 472.919 97.102 473.227 97.5163C473.535 97.9273 473.691 98.3946 473.694 98.9183C473.691 99.4785 473.519 99.9673 473.177 100.385C472.836 100.803 472.398 101.066 471.865 101.175V101.245C472.272 101.311 472.642 101.464 472.973 101.702C473.308 101.938 473.573 102.234 473.769 102.592C473.968 102.947 474.069 103.336 474.072 103.761C474.069 104.311 473.898 104.803 473.56 105.237C473.222 105.671 472.755 106.014 472.158 106.266C471.565 106.515 470.885 106.639 470.12 106.639ZM470.12 105.058C470.461 105.058 470.759 104.997 471.015 104.874C471.27 104.748 471.469 104.576 471.611 104.357C471.757 104.135 471.83 103.88 471.83 103.592C471.83 103.297 471.755 103.036 471.606 102.811C471.457 102.582 471.255 102.403 471 102.274C470.744 102.142 470.451 102.075 470.12 102.075C469.792 102.075 469.498 102.142 469.24 102.274C468.981 102.403 468.777 102.582 468.628 102.811C468.482 103.036 468.409 103.297 468.409 103.592C468.409 103.88 468.481 104.135 468.623 104.357C468.766 104.576 468.966 104.748 469.225 104.874C469.483 104.997 469.782 105.058 470.12 105.058ZM470.12 100.509C470.405 100.509 470.658 100.451 470.88 100.335C471.102 100.219 471.276 100.058 471.402 99.853C471.528 99.6475 471.591 99.4105 471.591 99.142C471.591 98.8769 471.528 98.6449 471.402 98.446C471.276 98.2438 471.104 98.0864 470.885 97.9737C470.667 97.8577 470.411 97.7997 470.12 97.7997C469.831 97.7997 469.576 97.8577 469.354 97.9737C469.132 98.0864 468.958 98.2438 468.832 98.446C468.709 98.6449 468.648 98.8769 468.648 99.142C468.648 99.4105 468.711 99.6475 468.837 99.853C468.963 100.058 469.137 100.219 469.359 100.335C469.581 100.451 469.835 100.509 470.12 100.509ZM479.569 106.724C478.714 106.72 477.979 106.51 477.362 106.092C476.749 105.675 476.277 105.07 475.945 104.278C475.617 103.486 475.455 102.533 475.458 101.419C475.458 100.309 475.622 99.3625 475.95 98.5803C476.282 97.7981 476.754 97.2031 477.367 96.7955C477.983 96.3845 478.718 96.179 479.569 96.179C480.421 96.179 481.154 96.3845 481.767 96.7955C482.383 97.2064 482.857 97.803 483.189 98.5852C483.52 99.3641 483.684 100.309 483.681 101.419C483.681 102.536 483.515 103.491 483.184 104.283C482.856 105.075 482.385 105.68 481.772 106.097C481.159 106.515 480.425 106.724 479.569 106.724ZM479.569 104.939C480.153 104.939 480.618 104.646 480.966 104.059C481.314 103.472 481.487 102.592 481.483 101.419C481.483 100.647 481.404 100.004 481.245 99.4901C481.089 98.9763 480.867 98.5902 480.579 98.3317C480.294 98.0732 479.957 97.9439 479.569 97.9439C478.989 97.9439 478.525 98.2339 478.177 98.8139C477.829 99.3939 477.654 100.262 477.65 101.419C477.65 102.201 477.728 102.854 477.884 103.378C478.043 103.898 478.267 104.289 478.555 104.551C478.844 104.81 479.182 104.939 479.569 104.939ZM489.208 106.724C488.353 106.72 487.617 106.51 487.001 106.092C486.388 105.675 485.915 105.07 485.584 104.278C485.256 103.486 485.093 102.533 485.097 101.419C485.097 100.309 485.261 99.3625 485.589 98.5803C485.92 97.7981 486.393 97.2031 487.006 96.7955C487.622 96.3845 488.356 96.179 489.208 96.179C490.06 96.179 490.792 96.3845 491.406 96.7955C492.022 97.2064 492.496 97.803 492.827 98.5852C493.159 99.3641 493.323 100.309 493.32 101.419C493.32 102.536 493.154 103.491 492.822 104.283C492.494 105.075 492.024 105.68 491.411 106.097C490.797 106.515 490.063 106.724 489.208 106.724ZM489.208 104.939C489.791 104.939 490.257 104.646 490.605 104.059C490.953 103.472 491.125 102.592 491.122 101.419C491.122 100.647 491.043 100.004 490.884 99.4901C490.728 98.9763 490.506 98.5902 490.217 98.3317C489.932 98.0732 489.596 97.9439 489.208 97.9439C488.628 97.9439 488.164 98.2339 487.816 98.8139C487.468 99.3939 487.292 100.262 487.289 101.419C487.289 102.201 487.367 102.854 487.523 103.378C487.682 103.898 487.906 104.289 488.194 104.551C488.482 104.81 488.82 104.939 489.208 104.939Z" fill="#092C4C"/>
<rect x="84" y="117.5" width="106" height="10" rx="5" fill="#ABBBC8"/>
<rect x="389" y="117.5" width="106" height="10" rx="5" fill="#D3E1EB"/>
<g clip-path="url(#clip1_47_12863)">
<rect x="24" y="161" width="44" height="44" rx="22" fill="#EAEEF4"/>
</g>
<rect x="84" y="168.5" width="135" height="13" rx="6.5" fill="#092C4C"/>
<path d="M427.64 180.5H425.333L428.848 170.318H431.622L435.132 180.5H432.825L430.275 172.645H430.195L427.64 180.5ZM427.496 176.498H432.945V178.178H427.496V176.498ZM436.358 180.5V170.318H443.218V172.093H438.51V174.519H442.865V176.294H438.51V178.725H443.238V180.5H436.358ZM448.539 180.5H444.93V170.318H448.569C449.593 170.318 450.475 170.522 451.214 170.93C451.953 171.334 452.521 171.916 452.919 172.675C453.32 173.434 453.521 174.342 453.521 175.399C453.521 176.46 453.32 177.371 452.919 178.134C452.521 178.896 451.95 179.481 451.204 179.888C450.462 180.296 449.573 180.5 448.539 180.5ZM447.083 178.656H448.45C449.086 178.656 449.621 178.543 450.056 178.317C450.493 178.089 450.821 177.736 451.04 177.259C451.262 176.778 451.373 176.158 451.373 175.399C451.373 174.647 451.262 174.032 451.04 173.555C450.821 173.077 450.495 172.726 450.061 172.501C449.626 172.275 449.091 172.163 448.455 172.163H447.083V178.656Z" fill="#092C4C"/>
<path d="M459.544 180.639C458.841 180.639 458.215 180.51 457.665 180.251C457.118 179.993 456.684 179.637 456.362 179.183C456.041 178.728 455.873 178.208 455.86 177.621H457.948C457.971 178.016 458.137 178.336 458.445 178.581C458.754 178.826 459.12 178.949 459.544 178.949C459.882 178.949 460.18 178.874 460.439 178.725C460.701 178.573 460.905 178.362 461.05 178.094C461.2 177.822 461.274 177.51 461.274 177.159C461.274 176.801 461.198 176.486 461.045 176.214C460.896 175.943 460.689 175.731 460.424 175.578C460.159 175.426 459.856 175.348 459.514 175.344C459.216 175.344 458.926 175.406 458.644 175.528C458.366 175.651 458.149 175.818 457.993 176.031L456.079 175.688L456.561 170.318H462.786V172.078H458.336L458.072 174.629H458.132C458.311 174.377 458.581 174.168 458.942 174.002C459.304 173.836 459.708 173.754 460.156 173.754C460.769 173.754 461.316 173.898 461.796 174.186C462.277 174.474 462.656 174.871 462.935 175.374C463.213 175.875 463.351 176.451 463.347 177.104C463.351 177.79 463.192 178.4 462.87 178.934C462.552 179.464 462.106 179.882 461.533 180.187C460.963 180.488 460.3 180.639 459.544 180.639ZM466.842 179.108L466.788 179.655C466.745 180.092 466.662 180.528 466.539 180.962C466.42 181.4 466.294 181.796 466.161 182.151C466.032 182.505 465.928 182.784 465.848 182.986H464.476C464.526 182.79 464.594 182.517 464.68 182.165C464.766 181.817 464.847 181.426 464.923 180.992C465 180.558 465.048 180.116 465.067 179.665L465.092 179.108H466.842ZM468.779 180.5L473 172.148V172.078H468.083V170.318H475.227V172.103L471.001 180.5H468.779ZM480.284 180.639C479.582 180.639 478.955 180.51 478.405 180.251C477.858 179.993 477.424 179.637 477.102 179.183C476.781 178.728 476.614 178.208 476.6 177.621H478.688C478.712 178.016 478.877 178.336 479.186 178.581C479.494 178.826 479.86 178.949 480.284 178.949C480.622 178.949 480.921 178.874 481.179 178.725C481.441 178.573 481.645 178.362 481.791 178.094C481.94 177.822 482.014 177.51 482.014 177.159C482.014 176.801 481.938 176.486 481.786 176.214C481.637 175.943 481.429 175.731 481.164 175.578C480.899 175.426 480.596 175.348 480.254 175.344C479.956 175.344 479.666 175.406 479.384 175.528C479.106 175.651 478.889 175.818 478.733 176.031L476.819 175.688L477.301 170.318H483.526V172.078H479.076L478.813 174.629H478.872C479.051 174.377 479.321 174.168 479.683 174.002C480.044 173.836 480.448 173.754 480.896 173.754C481.509 173.754 482.056 173.898 482.536 174.186C483.017 174.474 483.396 174.871 483.675 175.374C483.953 175.875 484.091 176.451 484.088 177.104C484.091 177.79 483.932 178.4 483.61 178.934C483.292 179.464 482.846 179.882 482.273 180.187C481.703 180.488 481.04 180.639 480.284 180.639ZM489.581 180.724C488.726 180.72 487.99 180.51 487.374 180.092C486.761 179.675 486.288 179.07 485.957 178.278C485.629 177.486 485.466 176.533 485.47 175.419C485.47 174.309 485.634 173.362 485.962 172.58C486.293 171.798 486.766 171.203 487.379 170.795C487.995 170.384 488.729 170.179 489.581 170.179C490.433 170.179 491.165 170.384 491.779 170.795C492.395 171.206 492.869 171.803 493.2 172.585C493.532 173.364 493.696 174.309 493.693 175.419C493.693 176.536 493.527 177.491 493.195 178.283C492.867 179.075 492.397 179.68 491.784 180.097C491.17 180.515 490.436 180.724 489.581 180.724ZM489.581 178.939C490.164 178.939 490.63 178.646 490.978 178.059C491.326 177.472 491.499 176.592 491.495 175.419C491.495 174.647 491.416 174.004 491.257 173.49C491.101 172.976 490.879 172.59 490.59 172.332C490.305 172.073 489.969 171.944 489.581 171.944C489.001 171.944 488.537 172.234 488.189 172.814C487.841 173.394 487.665 174.262 487.662 175.419C487.662 176.201 487.74 176.854 487.896 177.378C488.055 177.898 488.279 178.289 488.567 178.551C488.855 178.81 489.193 178.939 489.581 178.939Z" fill="#092C4C"/>
<rect x="84" y="191.5" width="161" height="10" rx="5" fill="#ABBBC8"/>
<rect x="389" y="191.5" width="106" height="10" rx="5" fill="#D3E1EB"/>
<g clip-path="url(#clip2_47_12863)">
<rect x="24" y="235" width="44" height="44" rx="22" fill="#EAEEF4"/>
</g>
<rect x="84" y="242.5" width="191" height="13" rx="6.5" fill="#092C4C"/>
<path d="M418.64 254.5H416.333L419.848 244.318H422.622L426.132 254.5H423.825L421.275 246.645H421.195L418.64 254.5ZM418.496 250.498H423.945V252.178H418.496V250.498ZM427.358 254.5V244.318H434.218V246.093H429.51V248.519H433.865V250.294H429.51V252.725H434.238V254.5H427.358ZM439.539 254.5H435.93V244.318H439.569C440.593 244.318 441.475 244.522 442.214 244.93C442.953 245.334 443.521 245.916 443.919 246.675C444.32 247.434 444.521 248.342 444.521 249.399C444.521 250.46 444.32 251.371 443.919 252.134C443.521 252.896 442.95 253.481 442.204 253.888C441.462 254.296 440.573 254.5 439.539 254.5ZM438.083 252.656H439.45C440.086 252.656 440.621 252.543 441.056 252.317C441.493 252.089 441.821 251.736 442.04 251.259C442.262 250.778 442.373 250.158 442.373 249.399C442.373 248.647 442.262 248.032 442.04 247.555C441.821 247.077 441.495 246.726 441.061 246.501C440.626 246.275 440.091 246.163 439.455 246.163H438.083V252.656Z" fill="#092C4C"/>
<path d="M451.255 244.318V254.5H449.102V246.362H449.043L446.711 247.823V245.914L449.232 244.318H451.255ZM453.675 254.5V252.949L457.299 249.593C457.607 249.295 457.866 249.026 458.075 248.788C458.287 248.549 458.448 248.315 458.557 248.087C458.666 247.855 458.721 247.604 458.721 247.336C458.721 247.038 458.653 246.781 458.517 246.565C458.381 246.347 458.196 246.179 457.96 246.063C457.725 245.944 457.458 245.884 457.16 245.884C456.848 245.884 456.577 245.947 456.345 246.073C456.113 246.199 455.934 246.38 455.808 246.615C455.682 246.85 455.619 247.13 455.619 247.455H453.575C453.575 246.789 453.726 246.211 454.028 245.72C454.329 245.23 454.752 244.85 455.296 244.582C455.839 244.313 456.466 244.179 457.175 244.179C457.904 244.179 458.539 244.308 459.079 244.567C459.623 244.822 460.045 245.177 460.347 245.631C460.648 246.085 460.799 246.605 460.799 247.192C460.799 247.576 460.723 247.956 460.57 248.33C460.421 248.705 460.155 249.121 459.77 249.578C459.386 250.032 458.844 250.577 458.144 251.214L456.658 252.67V252.74H460.933V254.5H453.675ZM464.815 253.108L464.76 253.655C464.717 254.092 464.634 254.528 464.512 254.962C464.392 255.4 464.266 255.796 464.134 256.151C464.005 256.505 463.9 256.784 463.821 256.986H462.449C462.498 256.79 462.566 256.517 462.652 256.165C462.739 255.817 462.82 255.426 462.896 254.992C462.972 254.558 463.02 254.116 463.04 253.665L463.065 253.108H464.815ZM470.314 254.724C469.458 254.72 468.723 254.51 468.106 254.092C467.493 253.675 467.021 253.07 466.689 252.278C466.361 251.486 466.199 250.533 466.202 249.419C466.202 248.309 466.366 247.362 466.694 246.58C467.026 245.798 467.498 245.203 468.111 244.795C468.728 244.384 469.462 244.179 470.314 244.179C471.165 244.179 471.898 244.384 472.511 244.795C473.127 245.206 473.601 245.803 473.933 246.585C474.264 247.364 474.428 248.309 474.425 249.419C474.425 250.536 474.259 251.491 473.928 252.283C473.6 253.075 473.129 253.68 472.516 254.097C471.903 254.515 471.169 254.724 470.314 254.724ZM470.314 252.939C470.897 252.939 471.363 252.646 471.711 252.059C472.059 251.472 472.231 250.592 472.228 249.419C472.228 248.647 472.148 248.004 471.989 247.49C471.833 246.976 471.611 246.59 471.323 246.332C471.038 246.073 470.701 245.944 470.314 245.944C469.734 245.944 469.27 246.234 468.922 246.814C468.574 247.394 468.398 248.262 468.395 249.419C468.395 250.201 468.472 250.854 468.628 251.378C468.787 251.898 469.011 252.289 469.299 252.551C469.588 252.81 469.926 252.939 470.314 252.939ZM475.806 252.71V251.015L480.057 244.318H481.518V246.665H480.653L477.974 250.906V250.985H484.014V252.71H475.806ZM480.693 254.5V252.193L480.733 251.442V244.318H482.751V254.5H480.693ZM489.441 254.724C488.585 254.72 487.85 254.51 487.233 254.092C486.62 253.675 486.148 253.07 485.816 252.278C485.488 251.486 485.326 250.533 485.329 249.419C485.329 248.309 485.493 247.362 485.821 246.58C486.153 245.798 486.625 245.203 487.238 244.795C487.855 244.384 488.589 244.179 489.441 244.179C490.292 244.179 491.025 244.384 491.638 244.795C492.254 245.206 492.728 245.803 493.06 246.585C493.391 247.364 493.555 248.309 493.552 249.419C493.552 250.536 493.386 251.491 493.055 252.283C492.727 253.075 492.256 253.68 491.643 254.097C491.03 254.515 490.296 254.724 489.441 254.724ZM489.441 252.939C490.024 252.939 490.49 252.646 490.838 252.059C491.186 251.472 491.358 250.592 491.355 249.419C491.355 248.647 491.275 248.004 491.116 247.49C490.96 246.976 490.738 246.59 490.45 246.332C490.165 246.073 489.828 245.944 489.441 245.944C488.86 245.944 488.396 246.234 488.048 246.814C487.7 247.394 487.525 248.262 487.521 249.419C487.521 250.201 487.599 250.854 487.755 251.378C487.914 251.898 488.138 252.289 488.426 252.551C488.715 252.81 489.053 252.939 489.441 252.939Z" fill="#092C4C"/>
<rect x="84" y="265.5" width="138" height="10" rx="5" fill="#ABBBC8"/>
<rect x="389" y="265.5" width="106" height="10" rx="5" fill="#D3E1EB"/>
<g clip-path="url(#clip3_47_12863)">
<rect x="24" y="309" width="44" height="44" rx="22" fill="#EAEEF4"/>
</g>
<rect x="84" y="316.5" width="191" height="13" rx="6.5" fill="#092C4C"/>
<path d="M426.64 328.5H424.333L427.848 318.318H430.622L434.132 328.5H431.825L429.275 320.645H429.195L426.64 328.5ZM426.496 324.498H431.945V326.178H426.496V324.498ZM435.358 328.5V318.318H442.218V320.093H437.51V322.519H441.865V324.294H437.51V326.725H442.238V328.5H435.358ZM447.539 328.5H443.93V318.318H447.569C448.593 318.318 449.475 318.522 450.214 318.93C450.953 319.334 451.521 319.916 451.919 320.675C452.32 321.434 452.521 322.342 452.521 323.399C452.521 324.46 452.32 325.371 451.919 326.134C451.521 326.896 450.95 327.481 450.204 327.888C449.462 328.296 448.573 328.5 447.539 328.5ZM446.083 326.656H447.45C448.086 326.656 448.621 326.543 449.056 326.317C449.493 326.089 449.821 325.736 450.04 325.259C450.262 324.778 450.373 324.158 450.373 323.399C450.373 322.647 450.262 322.032 450.04 321.555C449.821 321.077 449.495 320.726 449.061 320.501C448.626 320.275 448.091 320.163 447.455 320.163H446.083V326.656Z" fill="#092C4C"/>
<path d="M458.733 328.639C458.209 328.636 457.704 328.548 457.217 328.376C456.733 328.203 456.299 327.923 455.914 327.536C455.53 327.148 455.225 326.634 454.999 325.994C454.777 325.355 454.666 324.569 454.666 323.638C454.67 322.783 454.767 322.019 454.96 321.346C455.155 320.67 455.433 320.096 455.795 319.626C456.159 319.155 456.595 318.797 457.102 318.552C457.609 318.303 458.178 318.179 458.808 318.179C459.487 318.179 460.087 318.312 460.607 318.577C461.128 318.839 461.545 319.195 461.86 319.646C462.178 320.096 462.371 320.602 462.437 321.162H460.314C460.231 320.807 460.057 320.529 459.792 320.327C459.527 320.125 459.199 320.023 458.808 320.023C458.145 320.023 457.641 320.312 457.296 320.888C456.955 321.465 456.781 322.249 456.774 323.24H456.844C456.996 322.938 457.202 322.682 457.46 322.469C457.722 322.254 458.019 322.09 458.35 321.977C458.685 321.861 459.038 321.803 459.409 321.803C460.012 321.803 460.549 321.946 461.02 322.231C461.491 322.513 461.862 322.9 462.134 323.394C462.405 323.888 462.541 324.453 462.541 325.089C462.541 325.779 462.38 326.392 462.059 326.929C461.741 327.466 461.295 327.887 460.722 328.192C460.152 328.493 459.489 328.643 458.733 328.639ZM458.723 326.949C459.054 326.949 459.351 326.869 459.613 326.71C459.875 326.551 460.08 326.336 460.229 326.064C460.379 325.792 460.453 325.487 460.453 325.149C460.453 324.811 460.379 324.508 460.229 324.239C460.084 323.971 459.881 323.757 459.623 323.598C459.364 323.439 459.069 323.359 458.738 323.359C458.489 323.359 458.259 323.406 458.047 323.499C457.838 323.591 457.654 323.721 457.495 323.886C457.339 324.052 457.217 324.244 457.127 324.463C457.038 324.679 456.993 324.909 456.993 325.154C456.993 325.482 457.067 325.782 457.217 326.054C457.369 326.326 457.575 326.543 457.833 326.705C458.095 326.868 458.392 326.949 458.723 326.949ZM465.965 327.108L465.911 327.655C465.868 328.092 465.785 328.528 465.662 328.962C465.543 329.4 465.417 329.796 465.284 330.151C465.155 330.505 465.051 330.784 464.971 330.986H463.599C463.649 330.79 463.717 330.517 463.803 330.165C463.889 329.817 463.97 329.426 464.046 328.992C464.123 328.558 464.171 328.116 464.191 327.665L464.215 327.108H465.965ZM471.519 328.639C470.816 328.639 470.19 328.51 469.639 328.251C469.093 327.993 468.658 327.637 468.337 327.183C468.015 326.728 467.848 326.208 467.835 325.621H469.923C469.946 326.016 470.112 326.336 470.42 326.581C470.728 326.826 471.094 326.949 471.519 326.949C471.857 326.949 472.155 326.874 472.414 326.725C472.675 326.573 472.879 326.362 473.025 326.094C473.174 325.822 473.249 325.51 473.249 325.159C473.249 324.801 473.173 324.486 473.02 324.214C472.871 323.943 472.664 323.731 472.399 323.578C472.133 323.426 471.83 323.348 471.489 323.344C471.191 323.344 470.901 323.406 470.619 323.528C470.34 323.651 470.123 323.818 469.968 324.031L468.053 323.688L468.536 318.318H474.76V320.078H470.311L470.047 322.629H470.107C470.286 322.377 470.556 322.168 470.917 322.002C471.278 321.836 471.683 321.754 472.13 321.754C472.743 321.754 473.29 321.898 473.771 322.186C474.251 322.474 474.631 322.871 474.909 323.374C475.188 323.875 475.325 324.451 475.322 325.104C475.325 325.79 475.166 326.4 474.845 326.934C474.526 327.464 474.081 327.882 473.507 328.187C472.937 328.488 472.274 328.639 471.519 328.639ZM480.622 328.639C479.856 328.639 479.175 328.515 478.578 328.266C477.985 328.014 477.519 327.671 477.181 327.237C476.843 326.803 476.674 326.311 476.674 325.761C476.674 325.336 476.77 324.947 476.963 324.592C477.158 324.234 477.423 323.938 477.758 323.702C478.093 323.464 478.467 323.311 478.882 323.245V323.175C478.338 323.066 477.897 322.803 477.559 322.385C477.221 321.964 477.052 321.475 477.052 320.918C477.052 320.391 477.206 319.922 477.514 319.511C477.823 319.097 478.245 318.772 478.782 318.537C479.322 318.298 479.936 318.179 480.622 318.179C481.308 318.179 481.919 318.298 482.456 318.537C482.996 318.776 483.421 319.102 483.729 319.516C484.037 319.927 484.193 320.395 484.196 320.918C484.193 321.478 484.021 321.967 483.679 322.385C483.338 322.803 482.9 323.066 482.367 323.175V323.245C482.774 323.311 483.144 323.464 483.475 323.702C483.81 323.938 484.075 324.234 484.271 324.592C484.47 324.947 484.571 325.336 484.574 325.761C484.571 326.311 484.4 326.803 484.062 327.237C483.724 327.671 483.257 328.014 482.66 328.266C482.067 328.515 481.387 328.639 480.622 328.639ZM480.622 327.058C480.963 327.058 481.261 326.997 481.517 326.874C481.772 326.748 481.971 326.576 482.113 326.357C482.259 326.135 482.332 325.88 482.332 325.592C482.332 325.297 482.257 325.036 482.108 324.811C481.959 324.582 481.757 324.403 481.502 324.274C481.246 324.142 480.953 324.075 480.622 324.075C480.294 324.075 480 324.142 479.742 324.274C479.483 324.403 479.279 324.582 479.13 324.811C478.984 325.036 478.911 325.297 478.911 325.592C478.911 325.88 478.983 326.135 479.125 326.357C479.268 326.576 479.468 326.748 479.727 326.874C479.985 326.997 480.284 327.058 480.622 327.058ZM480.622 322.509C480.907 322.509 481.16 322.451 481.382 322.335C481.604 322.219 481.778 322.058 481.904 321.853C482.03 321.647 482.093 321.411 482.093 321.142C482.093 320.877 482.03 320.645 481.904 320.446C481.778 320.244 481.606 320.086 481.387 319.974C481.169 319.858 480.913 319.8 480.622 319.8C480.333 319.8 480.078 319.858 479.856 319.974C479.634 320.086 479.46 320.244 479.334 320.446C479.211 320.645 479.15 320.877 479.15 321.142C479.15 321.411 479.213 321.647 479.339 321.853C479.465 322.058 479.639 322.219 479.861 322.335C480.083 322.451 480.337 322.509 480.622 322.509ZM490.071 328.724C489.216 328.72 488.48 328.51 487.864 328.092C487.251 327.675 486.779 327.07 486.447 326.278C486.119 325.486 485.957 324.533 485.96 323.419C485.96 322.309 486.124 321.362 486.452 320.58C486.783 319.798 487.256 319.203 487.869 318.795C488.485 318.384 489.22 318.179 490.071 318.179C490.923 318.179 491.656 318.384 492.269 318.795C492.885 319.206 493.359 319.803 493.691 320.585C494.022 321.364 494.186 322.309 494.183 323.419C494.183 324.536 494.017 325.491 493.686 326.283C493.358 327.075 492.887 327.68 492.274 328.097C491.661 328.515 490.926 328.724 490.071 328.724ZM490.071 326.939C490.655 326.939 491.12 326.646 491.468 326.059C491.816 325.472 491.989 324.592 491.985 323.419C491.985 322.647 491.906 322.004 491.747 321.49C491.591 320.976 491.369 320.59 491.081 320.332C490.796 320.073 490.459 319.944 490.071 319.944C489.491 319.944 489.027 320.234 488.679 320.814C488.331 321.394 488.156 322.262 488.152 323.419C488.152 324.201 488.23 324.854 488.386 325.378C488.545 325.898 488.769 326.289 489.057 326.551C489.346 326.81 489.684 326.939 490.071 326.939Z" fill="#092C4C"/>
<rect x="84" y="339.5" width="138" height="10" rx="5" fill="#ABBBC8"/>
<rect x="389" y="339.5" width="106" height="10" rx="5" fill="#D3E1EB"/>
<rect x="300.5" y="92" width="277" height="341" rx="12.5" fill="white"/>
<rect x="300.5" y="92" width="277" height="341" rx="12.5" stroke="#EAEEF4"/>
<path d="M320.967 110.167L322 111.2L316.7 116.5L322 121.8L320.967 122.833L314.667 116.5L320.967 110.167Z" fill="#717171"/>
<path d="M407.852 121.5H404.759V112.773H407.878C408.756 112.773 409.511 112.947 410.145 113.297C410.778 113.643 411.266 114.142 411.607 114.793C411.95 115.443 412.122 116.222 412.122 117.128C412.122 118.037 411.95 118.818 411.607 119.472C411.266 120.125 410.776 120.626 410.136 120.976C409.5 121.325 408.739 121.5 407.852 121.5ZM406.604 119.919H407.776C408.321 119.919 408.78 119.822 409.152 119.629C409.527 119.433 409.808 119.131 409.996 118.722C410.186 118.31 410.281 117.778 410.281 117.128C410.281 116.483 410.186 115.956 409.996 115.547C409.808 115.138 409.528 114.837 409.156 114.643C408.784 114.45 408.325 114.354 407.78 114.354H406.604V119.919ZM416.438 121.628C415.765 121.628 415.185 121.491 414.699 121.219C414.216 120.943 413.844 120.554 413.583 120.051C413.321 119.545 413.191 118.947 413.191 118.257C413.191 117.584 413.321 116.993 413.583 116.484C413.844 115.976 414.212 115.58 414.686 115.295C415.164 115.011 415.723 114.869 416.365 114.869C416.797 114.869 417.199 114.939 417.571 115.078C417.946 115.214 418.273 115.42 418.551 115.696C418.833 115.972 419.051 116.318 419.208 116.736C419.364 117.151 419.442 117.636 419.442 118.193V118.692H413.915V117.567H417.733C417.733 117.305 417.676 117.074 417.563 116.872C417.449 116.67 417.292 116.513 417.09 116.399C416.891 116.283 416.659 116.224 416.395 116.224C416.12 116.224 415.875 116.288 415.662 116.416C415.452 116.541 415.287 116.71 415.168 116.923C415.049 117.134 414.988 117.368 414.985 117.626V118.696C414.985 119.02 415.044 119.3 415.164 119.536C415.286 119.771 415.458 119.953 415.679 120.081C415.901 120.209 416.164 120.273 416.468 120.273C416.669 120.273 416.854 120.244 417.022 120.188C417.189 120.131 417.333 120.045 417.452 119.932C417.571 119.818 417.662 119.679 417.725 119.514L419.404 119.625C419.319 120.028 419.144 120.381 418.88 120.682C418.618 120.98 418.28 121.213 417.865 121.381C417.453 121.545 416.978 121.628 416.438 121.628ZM422.493 121.624C422.076 121.624 421.703 121.551 421.377 121.406C421.05 121.259 420.792 121.041 420.601 120.754C420.414 120.464 420.32 120.104 420.32 119.672C420.32 119.308 420.387 119.003 420.52 118.756C420.654 118.509 420.836 118.31 421.066 118.159C421.296 118.009 421.557 117.895 421.85 117.818C422.145 117.741 422.455 117.688 422.779 117.656C423.159 117.616 423.466 117.58 423.699 117.545C423.932 117.509 424.101 117.455 424.206 117.384C424.311 117.312 424.364 117.207 424.364 117.068V117.043C424.364 116.773 424.279 116.564 424.108 116.416C423.941 116.268 423.702 116.195 423.392 116.195C423.066 116.195 422.806 116.267 422.613 116.412C422.419 116.554 422.292 116.733 422.229 116.949L420.55 116.812C420.635 116.415 420.803 116.071 421.053 115.781C421.303 115.489 421.625 115.264 422.02 115.108C422.418 114.949 422.878 114.869 423.401 114.869C423.765 114.869 424.113 114.912 424.445 114.997C424.78 115.082 425.077 115.214 425.336 115.393C425.597 115.572 425.803 115.803 425.953 116.084C426.104 116.362 426.179 116.696 426.179 117.085V121.5H424.458V120.592H424.407C424.301 120.797 424.161 120.977 423.985 121.134C423.809 121.287 423.597 121.408 423.35 121.496C423.103 121.581 422.817 121.624 422.493 121.624ZM423.013 120.371C423.28 120.371 423.516 120.318 423.721 120.213C423.925 120.105 424.086 119.96 424.202 119.778C424.319 119.597 424.377 119.391 424.377 119.161V118.466C424.32 118.503 424.242 118.537 424.142 118.568C424.046 118.597 423.936 118.624 423.814 118.649C423.692 118.672 423.57 118.693 423.448 118.713C423.326 118.73 423.215 118.746 423.115 118.76C422.902 118.791 422.716 118.841 422.557 118.909C422.398 118.977 422.275 119.07 422.186 119.186C422.098 119.3 422.054 119.442 422.054 119.612C422.054 119.859 422.144 120.048 422.323 120.179C422.505 120.307 422.735 120.371 423.013 120.371ZM429.403 112.773V121.5H427.588V112.773H429.403ZM438.403 115.283C438.369 114.939 438.223 114.672 437.964 114.482C437.706 114.291 437.355 114.196 436.912 114.196C436.61 114.196 436.356 114.239 436.149 114.324C435.941 114.406 435.782 114.521 435.672 114.669C435.564 114.817 435.51 114.984 435.51 115.172C435.504 115.328 435.537 115.464 435.608 115.581C435.681 115.697 435.782 115.798 435.91 115.884C436.038 115.966 436.186 116.038 436.353 116.101C436.521 116.161 436.7 116.212 436.89 116.254L437.674 116.442C438.055 116.527 438.404 116.641 438.723 116.783C439.041 116.925 439.316 117.099 439.549 117.307C439.782 117.514 439.963 117.759 440.091 118.04C440.221 118.321 440.288 118.643 440.291 119.007C440.288 119.541 440.152 120.004 439.882 120.396C439.615 120.786 439.228 121.088 438.723 121.304C438.22 121.517 437.613 121.624 436.903 121.624C436.199 121.624 435.585 121.516 435.062 121.3C434.542 121.084 434.136 120.764 433.843 120.341C433.554 119.915 433.402 119.388 433.387 118.76H435.173C435.193 119.053 435.277 119.297 435.424 119.493C435.575 119.686 435.775 119.832 436.025 119.932C436.278 120.028 436.564 120.077 436.882 120.077C437.194 120.077 437.466 120.031 437.696 119.94C437.929 119.849 438.109 119.723 438.237 119.561C438.365 119.399 438.429 119.213 438.429 119.003C438.429 118.807 438.37 118.642 438.254 118.509C438.14 118.375 437.973 118.261 437.751 118.168C437.532 118.074 437.264 117.989 436.946 117.912L435.995 117.673C435.26 117.494 434.679 117.214 434.252 116.834C433.826 116.453 433.615 115.94 433.618 115.295C433.615 114.767 433.755 114.305 434.039 113.911C434.326 113.516 434.72 113.207 435.22 112.986C435.72 112.764 436.288 112.653 436.924 112.653C437.572 112.653 438.137 112.764 438.62 112.986C439.106 113.207 439.484 113.516 439.754 113.911C440.024 114.305 440.163 114.763 440.172 115.283H438.403ZM444.979 114.955V116.318H441.038V114.955H444.979ZM441.933 113.386H443.748V119.489C443.748 119.656 443.773 119.787 443.825 119.881C443.876 119.972 443.947 120.036 444.038 120.072C444.131 120.109 444.239 120.128 444.362 120.128C444.447 120.128 444.532 120.121 444.617 120.107C444.702 120.089 444.768 120.077 444.813 120.068L445.099 121.419C445.008 121.447 444.88 121.48 444.715 121.517C444.55 121.557 444.35 121.581 444.114 121.589C443.677 121.607 443.293 121.548 442.964 121.415C442.637 121.281 442.383 121.074 442.201 120.793C442.019 120.511 441.93 120.156 441.933 119.727V113.386ZM448.028 121.624C447.611 121.624 447.239 121.551 446.912 121.406C446.585 121.259 446.327 121.041 446.136 120.754C445.949 120.464 445.855 120.104 445.855 119.672C445.855 119.308 445.922 119.003 446.055 118.756C446.189 118.509 446.371 118.31 446.601 118.159C446.831 118.009 447.092 117.895 447.385 117.818C447.68 117.741 447.99 117.688 448.314 117.656C448.695 117.616 449.001 117.58 449.234 117.545C449.467 117.509 449.636 117.455 449.741 117.384C449.847 117.312 449.899 117.207 449.899 117.068V117.043C449.899 116.773 449.814 116.564 449.643 116.416C449.476 116.268 449.237 116.195 448.928 116.195C448.601 116.195 448.341 116.267 448.148 116.412C447.955 116.554 447.827 116.733 447.764 116.949L446.085 116.812C446.17 116.415 446.338 116.071 446.588 115.781C446.838 115.489 447.161 115.264 447.555 115.108C447.953 114.949 448.413 114.869 448.936 114.869C449.3 114.869 449.648 114.912 449.98 114.997C450.315 115.082 450.612 115.214 450.871 115.393C451.132 115.572 451.338 115.803 451.489 116.084C451.639 116.362 451.714 116.696 451.714 117.085V121.5H449.993V120.592H449.942C449.837 120.797 449.696 120.977 449.52 121.134C449.344 121.287 449.132 121.408 448.885 121.496C448.638 121.581 448.352 121.624 448.028 121.624ZM448.548 120.371C448.815 120.371 449.051 120.318 449.256 120.213C449.46 120.105 449.621 119.96 449.737 119.778C449.854 119.597 449.912 119.391 449.912 119.161V118.466C449.855 118.503 449.777 118.537 449.678 118.568C449.581 118.597 449.472 118.624 449.349 118.649C449.227 118.672 449.105 118.693 448.983 118.713C448.861 118.73 448.75 118.746 448.651 118.76C448.438 118.791 448.251 118.841 448.092 118.909C447.933 118.977 447.81 119.07 447.722 119.186C447.634 119.3 447.589 119.442 447.589 119.612C447.589 119.859 447.679 120.048 447.858 120.179C448.04 120.307 448.27 120.371 448.548 120.371ZM456.072 124.091C455.484 124.091 454.979 124.01 454.559 123.848C454.141 123.689 453.809 123.472 453.562 123.196C453.315 122.92 453.154 122.611 453.08 122.267L454.759 122.041C454.81 122.172 454.891 122.294 455.002 122.408C455.113 122.521 455.259 122.612 455.441 122.68C455.626 122.751 455.85 122.787 456.114 122.787C456.509 122.787 456.835 122.69 457.09 122.497C457.349 122.307 457.478 121.987 457.478 121.538V120.341H457.401C457.322 120.523 457.202 120.695 457.043 120.857C456.884 121.018 456.68 121.151 456.43 121.253C456.18 121.355 455.881 121.406 455.535 121.406C455.043 121.406 454.596 121.293 454.192 121.065C453.792 120.835 453.472 120.484 453.234 120.013C452.998 119.538 452.88 118.939 452.88 118.214C452.88 117.473 453.001 116.854 453.242 116.357C453.484 115.859 453.805 115.487 454.205 115.24C454.609 114.993 455.05 114.869 455.531 114.869C455.897 114.869 456.204 114.932 456.451 115.057C456.698 115.179 456.897 115.332 457.048 115.517C457.201 115.699 457.319 115.878 457.401 116.054H457.469V114.955H459.272V121.564C459.272 122.121 459.136 122.587 458.863 122.962C458.59 123.337 458.212 123.618 457.729 123.805C457.249 123.996 456.697 124.091 456.072 124.091ZM456.11 120.043C456.403 120.043 456.65 119.97 456.852 119.825C457.056 119.678 457.212 119.467 457.32 119.195C457.431 118.919 457.487 118.589 457.487 118.206C457.487 117.822 457.433 117.49 457.325 117.209C457.217 116.925 457.06 116.705 456.856 116.548C456.651 116.392 456.403 116.314 456.11 116.314C455.812 116.314 455.56 116.395 455.356 116.557C455.151 116.716 454.996 116.937 454.891 117.222C454.786 117.506 454.734 117.834 454.734 118.206C454.734 118.584 454.786 118.911 454.891 119.186C454.999 119.459 455.154 119.67 455.356 119.821C455.56 119.969 455.812 120.043 456.11 120.043ZM463.7 121.628C463.026 121.628 462.447 121.491 461.961 121.219C461.478 120.943 461.106 120.554 460.844 120.051C460.583 119.545 460.452 118.947 460.452 118.257C460.452 117.584 460.583 116.993 460.844 116.484C461.106 115.976 461.474 115.58 461.948 115.295C462.425 115.011 462.985 114.869 463.627 114.869C464.059 114.869 464.461 114.939 464.833 115.078C465.208 115.214 465.535 115.42 465.813 115.696C466.094 115.972 466.313 116.318 466.469 116.736C466.626 117.151 466.704 117.636 466.704 118.193V118.692H461.177V117.567H464.995C464.995 117.305 464.938 117.074 464.825 116.872C464.711 116.67 464.553 116.513 464.352 116.399C464.153 116.283 463.921 116.224 463.657 116.224C463.381 116.224 463.137 116.288 462.924 116.416C462.714 116.541 462.549 116.71 462.43 116.923C462.31 117.134 462.249 117.368 462.246 117.626V118.696C462.246 119.02 462.306 119.3 462.425 119.536C462.548 119.771 462.719 119.953 462.941 120.081C463.163 120.209 463.425 120.273 463.729 120.273C463.931 120.273 464.116 120.244 464.283 120.188C464.451 120.131 464.594 120.045 464.714 119.932C464.833 119.818 464.924 119.679 464.987 119.514L466.665 119.625C466.58 120.028 466.406 120.381 466.141 120.682C465.88 120.98 465.542 121.213 465.127 121.381C464.715 121.545 464.239 121.628 463.7 121.628ZM473.335 116.821L471.673 116.923C471.644 116.781 471.583 116.653 471.489 116.54C471.396 116.423 471.272 116.331 471.119 116.263C470.968 116.192 470.788 116.156 470.577 116.156C470.296 116.156 470.059 116.216 469.866 116.335C469.673 116.452 469.576 116.608 469.576 116.804C469.576 116.96 469.638 117.092 469.763 117.2C469.888 117.308 470.103 117.395 470.407 117.46L471.592 117.699C472.228 117.83 472.702 118.04 473.015 118.33C473.327 118.619 473.484 119 473.484 119.472C473.484 119.901 473.357 120.277 473.104 120.601C472.854 120.925 472.511 121.178 472.073 121.359C471.638 121.538 471.137 121.628 470.569 121.628C469.702 121.628 469.012 121.447 468.498 121.087C467.987 120.723 467.687 120.229 467.599 119.604L469.384 119.51C469.438 119.774 469.569 119.976 469.776 120.115C469.984 120.251 470.249 120.32 470.573 120.32C470.891 120.32 471.147 120.259 471.34 120.136C471.536 120.011 471.636 119.851 471.638 119.655C471.636 119.49 471.566 119.355 471.43 119.25C471.293 119.142 471.083 119.06 470.799 119.003L469.665 118.777C469.026 118.649 468.55 118.428 468.238 118.112C467.928 117.797 467.773 117.395 467.773 116.906C467.773 116.486 467.887 116.124 468.114 115.82C468.344 115.516 468.667 115.281 469.082 115.116C469.499 114.952 469.988 114.869 470.548 114.869C471.374 114.869 472.025 115.044 472.499 115.393C472.977 115.743 473.255 116.219 473.335 116.821Z" fill="#2E2E30"/>
<path d="M557.033 110.167L556 111.2L561.3 116.5L556 121.8L557.033 122.833L563.333 116.5L557.033 110.167Z" fill="#717171"/>
<path d="M524.297 229.797C524.297 218.595 522.091 207.504 517.804 197.155C513.517 186.806 507.235 177.403 499.314 169.483C491.393 161.562 481.99 155.279 471.642 150.993C461.293 146.706 450.202 144.5 439 144.5L439 186.277C444.715 186.277 450.374 187.403 455.654 189.59C460.934 191.777 465.732 194.983 469.773 199.024C473.814 203.065 477.02 207.863 479.207 213.143C481.394 218.423 482.519 224.082 482.519 229.797H524.297Z" fill="#FF8000"/>
<path d="M439 144.5C419.512 144.5 400.612 151.173 385.444 163.41C370.276 175.646 359.756 192.707 355.634 211.754L396.466 220.591C398.569 210.873 403.937 202.168 411.675 195.925C419.414 189.682 429.057 186.277 439 186.277L439 144.5Z" fill="#FF9C38"/>
<path d="M524.297 229.797C524.297 241.762 521.779 253.594 516.907 264.524C512.036 275.453 504.919 285.235 496.02 293.234C487.12 301.233 476.637 307.27 465.252 310.953C453.867 314.636 441.835 315.882 429.937 314.61C418.039 313.339 406.541 309.578 396.191 303.573C385.842 297.567 376.871 289.451 369.863 279.752C362.855 270.053 357.966 258.989 355.514 247.277C353.062 235.565 353.101 223.468 355.63 211.772L396.464 220.6C395.174 226.568 395.154 232.74 396.405 238.715C397.656 244.691 400.15 250.336 403.726 255.285C407.301 260.233 411.878 264.374 417.159 267.438C422.439 270.502 428.305 272.421 434.376 273.069C440.446 273.718 446.586 273.082 452.394 271.203C458.203 269.324 463.552 266.244 468.092 262.163C472.633 258.082 476.264 253.091 478.749 247.515C481.235 241.938 482.519 235.902 482.519 229.797H524.297Z" fill="#1F2F56"/>
<rect x="488.514" y="162.069" width="30.4951" height="30.4951" rx="15.2476" fill="#ECEAF8"/>
<rect x="488.514" y="162.069" width="30.4951" height="30.4951" rx="15.2476" stroke="#EAEEF4"/>
<path d="M493.351 181.317V180.209L495.94 177.812C496.16 177.599 496.345 177.407 496.494 177.236C496.645 177.066 496.76 176.899 496.838 176.736C496.917 176.57 496.956 176.391 496.956 176.199C496.956 175.986 496.907 175.803 496.81 175.649C496.713 175.493 496.58 175.373 496.412 175.29C496.244 175.205 496.054 175.163 495.841 175.163C495.618 175.163 495.424 175.208 495.258 175.297C495.092 175.387 494.965 175.516 494.875 175.685C494.785 175.853 494.74 176.053 494.74 176.285H493.28C493.28 175.809 493.388 175.396 493.603 175.045C493.819 174.695 494.121 174.424 494.509 174.232C494.897 174.04 495.345 173.944 495.851 173.944C496.372 173.944 496.825 174.037 497.211 174.221C497.6 174.404 497.901 174.657 498.117 174.981C498.332 175.306 498.44 175.677 498.44 176.096C498.44 176.371 498.386 176.642 498.277 176.91C498.17 177.177 497.98 177.474 497.705 177.801C497.43 178.125 497.043 178.515 496.544 178.969L495.482 180.01V180.06H498.536V181.317H493.351ZM502.502 181.476C501.891 181.474 501.365 181.324 500.925 181.025C500.487 180.727 500.15 180.295 499.913 179.729C499.678 179.163 499.562 178.483 499.565 177.687C499.565 176.894 499.682 176.218 499.916 175.66C500.153 175.101 500.49 174.676 500.928 174.385C501.369 174.091 501.893 173.944 502.502 173.944C503.11 173.944 503.633 174.091 504.071 174.385C504.512 174.678 504.85 175.105 505.087 175.663C505.324 176.22 505.441 176.894 505.438 177.687C505.438 178.485 505.32 179.167 505.083 179.733C504.849 180.299 504.513 180.731 504.075 181.029C503.637 181.327 503.112 181.476 502.502 181.476ZM502.502 180.202C502.918 180.202 503.251 179.992 503.499 179.573C503.748 179.154 503.871 178.525 503.869 177.687C503.869 177.136 503.812 176.676 503.698 176.31C503.587 175.943 503.428 175.667 503.222 175.482C503.019 175.297 502.779 175.205 502.502 175.205C502.087 175.205 501.756 175.412 501.507 175.827C501.259 176.241 501.133 176.861 501.131 177.687C501.131 178.246 501.186 178.712 501.298 179.087C501.411 179.458 501.571 179.738 501.777 179.925C501.983 180.109 502.225 180.202 502.502 180.202ZM510.516 179.953V179.569C510.516 179.278 510.577 179.011 510.7 178.767C510.826 178.521 511.007 178.324 511.244 178.177C511.483 178.028 511.774 177.954 512.117 177.954C512.465 177.954 512.758 178.027 512.994 178.174C513.233 178.321 513.413 178.517 513.534 178.763C513.657 179.007 513.719 179.276 513.719 179.569V179.953C513.719 180.244 513.657 180.513 513.534 180.759C513.411 181.003 513.23 181.198 512.991 181.345C512.752 181.494 512.46 181.569 512.117 181.569C511.769 181.569 511.477 181.494 511.24 181.345C511.003 181.198 510.823 181.003 510.7 180.759C510.577 180.513 510.516 180.244 510.516 179.953ZM511.549 179.569V179.953C511.549 180.121 511.589 180.28 511.67 180.429C511.753 180.578 511.902 180.653 512.117 180.653C512.333 180.653 512.479 180.579 512.558 180.432C512.638 180.286 512.678 180.126 512.678 179.953V179.569C512.678 179.397 512.64 179.236 512.565 179.087C512.489 178.937 512.34 178.863 512.117 178.863C511.904 178.863 511.756 178.937 511.673 179.087C511.59 179.236 511.549 179.397 511.549 179.569ZM506.783 175.791V175.408C506.783 175.114 506.846 174.845 506.972 174.601C507.097 174.355 507.278 174.159 507.515 174.012C507.754 173.865 508.043 173.792 508.381 173.792C508.732 173.792 509.025 173.865 509.262 174.012C509.499 174.159 509.679 174.355 509.802 174.601C509.925 174.845 509.987 175.114 509.987 175.408V175.791C509.987 176.085 509.924 176.353 509.798 176.597C509.675 176.841 509.494 177.036 509.255 177.183C509.018 177.328 508.727 177.4 508.381 177.4C508.036 177.4 507.743 177.326 507.504 177.18C507.268 177.03 507.088 176.835 506.964 176.594C506.844 176.35 506.783 176.082 506.783 175.791ZM507.824 175.408V175.791C507.824 175.964 507.864 176.124 507.945 176.27C508.027 176.417 508.173 176.491 508.381 176.491C508.599 176.491 508.747 176.417 508.825 176.27C508.906 176.124 508.946 175.964 508.946 175.791V175.408C508.946 175.235 508.908 175.074 508.832 174.925C508.757 174.775 508.606 174.701 508.381 174.701C508.171 174.701 508.025 174.777 507.945 174.928C507.864 175.08 507.824 175.239 507.824 175.408ZM507.252 181.317L512.252 174.044H513.183L508.183 181.317H507.252Z" fill="black"/>
<rect x="366.911" y="152.65" width="30.4951" height="30.4951" rx="15.2476" fill="#ECEAF8"/>
<rect x="366.911" y="152.65" width="30.4951" height="30.4951" rx="15.2476" stroke="#EAEEF4"/>
<path d="M371.748 171.897V170.789L374.337 168.392C374.557 168.179 374.742 167.987 374.891 167.817C375.042 167.647 375.157 167.48 375.235 167.316C375.314 167.151 375.353 166.972 375.353 166.78C375.353 166.567 375.304 166.383 375.207 166.23C375.11 166.073 374.977 165.954 374.809 165.871C374.641 165.786 374.451 165.743 374.238 165.743C374.015 165.743 373.821 165.788 373.655 165.878C373.489 165.968 373.362 166.097 373.272 166.265C373.182 166.433 373.137 166.633 373.137 166.865H371.677C371.677 166.389 371.785 165.976 372 165.626C372.216 165.276 372.518 165.004 372.906 164.813C373.294 164.621 373.742 164.525 374.248 164.525C374.769 164.525 375.222 164.617 375.608 164.802C375.997 164.984 376.298 165.238 376.514 165.562C376.729 165.886 376.837 166.258 376.837 166.677C376.837 166.952 376.783 167.223 376.674 167.49C376.567 167.758 376.376 168.055 376.102 168.382C375.827 168.706 375.44 169.095 374.941 169.55L373.879 170.59V170.64H376.933V171.897H371.748ZM380.899 172.057C380.288 172.055 379.762 171.904 379.322 171.606C378.884 171.308 378.547 170.876 378.31 170.31C378.075 169.744 377.959 169.063 377.962 168.268C377.962 167.475 378.079 166.799 378.313 166.24C378.55 165.682 378.887 165.257 379.325 164.965C379.766 164.672 380.29 164.525 380.899 164.525C381.507 164.525 382.03 164.672 382.468 164.965C382.909 165.259 383.247 165.685 383.484 166.244C383.721 166.8 383.838 167.475 383.835 168.268C383.835 169.066 383.717 169.748 383.48 170.313C383.246 170.879 382.91 171.311 382.472 171.61C382.034 171.908 381.509 172.057 380.899 172.057ZM380.899 170.782C381.315 170.782 381.648 170.573 381.896 170.154C382.145 169.735 382.268 169.106 382.266 168.268C382.266 167.716 382.209 167.257 382.095 166.89C381.984 166.523 381.825 166.247 381.619 166.063C381.416 165.878 381.176 165.786 380.899 165.786C380.484 165.786 380.153 165.993 379.904 166.407C379.656 166.821 379.53 167.442 379.528 168.268C379.528 168.827 379.583 169.293 379.695 169.667C379.808 170.039 379.968 170.318 380.174 170.505C380.38 170.69 380.622 170.782 380.899 170.782ZM388.913 170.534V170.15C388.913 169.859 388.974 169.591 389.097 169.348C389.223 169.101 389.404 168.905 389.641 168.758C389.88 168.609 390.171 168.534 390.514 168.534C390.862 168.534 391.155 168.608 391.391 168.754C391.63 168.901 391.81 169.098 391.931 169.344C392.054 169.588 392.116 169.856 392.116 170.15V170.534C392.116 170.825 392.054 171.093 391.931 171.34C391.808 171.584 391.627 171.779 391.388 171.926C391.149 172.075 390.857 172.149 390.514 172.149C390.166 172.149 389.874 172.075 389.637 171.926C389.4 171.779 389.22 171.584 389.097 171.34C388.974 171.093 388.913 170.825 388.913 170.534ZM389.946 170.15V170.534C389.946 170.702 389.986 170.86 390.067 171.009C390.15 171.159 390.299 171.233 390.514 171.233C390.73 171.233 390.876 171.16 390.955 171.013C391.035 170.866 391.075 170.706 391.075 170.534V170.15C391.075 169.977 391.037 169.816 390.962 169.667C390.886 169.518 390.737 169.443 390.514 169.443C390.301 169.443 390.153 169.518 390.07 169.667C389.987 169.816 389.946 169.977 389.946 170.15ZM385.18 166.372V165.988C385.18 165.695 385.243 165.426 385.369 165.182C385.494 164.936 385.675 164.739 385.912 164.593C386.151 164.446 386.44 164.372 386.778 164.372C387.129 164.372 387.422 164.446 387.659 164.593C387.896 164.739 388.076 164.936 388.199 165.182C388.322 165.426 388.383 165.695 388.383 165.988V166.372C388.383 166.665 388.321 166.934 388.195 167.178C388.072 167.422 387.891 167.617 387.652 167.764C387.415 167.908 387.124 167.98 386.778 167.98C386.433 167.98 386.14 167.907 385.901 167.76C385.664 167.611 385.485 167.416 385.361 167.174C385.241 166.93 385.18 166.663 385.18 166.372ZM386.221 165.988V166.372C386.221 166.544 386.261 166.704 386.342 166.851C386.424 166.998 386.57 167.071 386.778 167.071C386.996 167.071 387.144 166.998 387.222 166.851C387.303 166.704 387.343 166.544 387.343 166.372V165.988C387.343 165.815 387.305 165.654 387.229 165.505C387.154 165.356 387.003 165.281 386.778 165.281C386.568 165.281 386.422 165.357 386.342 165.509C386.261 165.66 386.221 165.82 386.221 165.988ZM385.649 171.897L390.649 164.624H391.58L386.58 171.897H385.649Z" fill="black"/>
<rect x="376.417" y="281.416" width="30.4951" height="30.4951" rx="15.2476" fill="#ECEAF8"/>
<rect x="376.417" y="281.416" width="30.4951" height="30.4951" rx="15.2476" stroke="#EAEEF4"/>
<path d="M383.545 300.763C383.171 300.761 382.81 300.698 382.462 300.575C382.116 300.452 381.806 300.252 381.531 299.975C381.257 299.698 381.039 299.331 380.878 298.874C380.719 298.417 380.64 297.856 380.64 297.191C380.642 296.58 380.712 296.034 380.849 295.553C380.989 295.071 381.188 294.661 381.446 294.325C381.706 293.989 382.018 293.733 382.38 293.558C382.742 293.38 383.148 293.291 383.598 293.291C384.083 293.291 384.512 293.386 384.884 293.576C385.255 293.763 385.554 294.017 385.778 294.339C386.006 294.661 386.143 295.022 386.19 295.422H384.674C384.615 295.169 384.491 294.97 384.301 294.826C384.112 294.681 383.877 294.609 383.598 294.609C383.125 294.609 382.765 294.815 382.518 295.227C382.275 295.639 382.15 296.199 382.146 296.906H382.195C382.304 296.691 382.451 296.508 382.636 296.356C382.823 296.202 383.035 296.085 383.271 296.004C383.51 295.922 383.763 295.88 384.028 295.88C384.459 295.88 384.842 295.982 385.178 296.186C385.514 296.387 385.78 296.664 385.974 297.017C386.168 297.369 386.265 297.773 386.265 298.227C386.265 298.72 386.15 299.158 385.92 299.541C385.693 299.925 385.375 300.226 384.965 300.443C384.558 300.659 384.085 300.765 383.545 300.763ZM383.538 299.556C383.774 299.556 383.986 299.499 384.173 299.385C384.36 299.272 384.507 299.118 384.614 298.924C384.72 298.729 384.773 298.512 384.773 298.27C384.773 298.029 384.72 297.812 384.614 297.62C384.509 297.428 384.365 297.276 384.18 297.162C383.996 297.049 383.785 296.992 383.548 296.992C383.371 296.992 383.206 297.025 383.055 297.091C382.906 297.157 382.774 297.25 382.661 297.368C382.549 297.486 382.462 297.624 382.398 297.78C382.334 297.934 382.302 298.098 382.302 298.274C382.302 298.508 382.355 298.722 382.462 298.916C382.571 299.111 382.717 299.266 382.902 299.382C383.089 299.498 383.301 299.556 383.538 299.556ZM390.207 300.823C389.596 300.821 389.07 300.671 388.63 300.372C388.192 300.074 387.855 299.642 387.618 299.076C387.384 298.51 387.268 297.83 387.27 297.034C387.27 296.241 387.387 295.565 387.621 295.007C387.858 294.448 388.196 294.023 388.634 293.732C389.074 293.438 389.598 293.291 390.207 293.291C390.815 293.291 391.338 293.438 391.776 293.732C392.217 294.025 392.555 294.451 392.792 295.01C393.029 295.567 393.146 296.241 393.143 297.034C393.143 297.832 393.025 298.514 392.788 299.08C392.554 299.646 392.218 300.078 391.78 300.376C391.342 300.674 390.817 300.823 390.207 300.823ZM390.207 299.549C390.623 299.549 390.956 299.339 391.205 298.92C391.453 298.501 391.576 297.872 391.574 297.034C391.574 296.483 391.517 296.023 391.403 295.656C391.292 295.29 391.134 295.014 390.928 294.829C390.724 294.644 390.484 294.552 390.207 294.552C389.792 294.552 389.461 294.759 389.212 295.174C388.964 295.588 388.838 296.208 388.836 297.034C388.836 297.593 388.892 298.059 389.003 298.433C389.116 298.805 389.276 299.085 389.482 299.272C389.688 299.456 389.93 299.549 390.207 299.549ZM398.221 299.3V298.916C398.221 298.625 398.282 298.358 398.405 298.114C398.531 297.868 398.712 297.671 398.949 297.524C399.188 297.375 399.479 297.301 399.822 297.301C400.17 297.301 400.463 297.374 400.699 297.521C400.939 297.668 401.118 297.864 401.239 298.11C401.362 298.354 401.424 298.623 401.424 298.916V299.3C401.424 299.591 401.362 299.86 401.239 300.106C401.116 300.35 400.935 300.545 400.696 300.692C400.457 300.841 400.166 300.916 399.822 300.916C399.474 300.916 399.182 300.841 398.945 300.692C398.708 300.545 398.528 300.35 398.405 300.106C398.282 299.86 398.221 299.591 398.221 299.3ZM399.254 298.916V299.3C399.254 299.468 399.294 299.627 399.375 299.776C399.458 299.925 399.607 300 399.822 300C400.038 300 400.184 299.926 400.263 299.779C400.343 299.633 400.383 299.473 400.383 299.3V298.916C400.383 298.744 400.345 298.583 400.27 298.433C400.194 298.284 400.045 298.21 399.822 298.21C399.609 298.21 399.461 298.284 399.378 298.433C399.296 298.583 399.254 298.744 399.254 298.916ZM394.488 295.138V294.754C394.488 294.461 394.551 294.192 394.677 293.948C394.802 293.702 394.983 293.506 395.22 293.359C395.459 293.212 395.748 293.139 396.086 293.139C396.437 293.139 396.73 293.212 396.967 293.359C397.204 293.506 397.384 293.702 397.507 293.948C397.63 294.192 397.692 294.461 397.692 294.754V295.138C397.692 295.432 397.629 295.7 397.503 295.944C397.38 296.188 397.199 296.383 396.96 296.53C396.723 296.674 396.432 296.747 396.086 296.747C395.741 296.747 395.448 296.673 395.209 296.527C394.973 296.377 394.793 296.182 394.67 295.941C394.549 295.697 394.488 295.429 394.488 295.138ZM395.529 294.754V295.138C395.529 295.311 395.569 295.471 395.65 295.617C395.733 295.764 395.878 295.838 396.086 295.838C396.304 295.838 396.452 295.764 396.53 295.617C396.611 295.471 396.651 295.311 396.651 295.138V294.754C396.651 294.582 396.613 294.421 396.537 294.272C396.462 294.122 396.311 294.048 396.086 294.048C395.876 294.048 395.73 294.124 395.65 294.275C395.569 294.427 395.529 294.586 395.529 294.754ZM394.957 300.664L399.957 293.391H400.888L395.888 300.664H394.957Z" fill="black"/>
<circle cx="327.018" cy="342.593" r="5" fill="#1F2F56"/>
<path d="M340.87 347.093H337.776V338.366H340.895C341.773 338.366 342.529 338.541 343.162 338.89C343.796 339.237 344.283 339.735 344.624 340.386C344.968 341.036 345.14 341.815 345.14 342.721C345.14 343.63 344.968 344.411 344.624 345.065C344.283 345.718 343.793 346.22 343.154 346.569C342.518 346.919 341.756 347.093 340.87 347.093ZM339.621 345.512H340.793C341.339 345.512 341.797 345.416 342.17 345.223C342.545 345.027 342.826 344.724 343.013 344.315C343.204 343.903 343.299 343.372 343.299 342.721C343.299 342.076 343.204 341.549 343.013 341.14C342.826 340.731 342.546 340.43 342.174 340.237C341.802 340.044 341.343 339.947 340.797 339.947H339.621V345.512ZM349.455 347.221C348.782 347.221 348.203 347.085 347.717 346.812C347.234 346.536 346.862 346.147 346.6 345.644C346.339 345.139 346.208 344.541 346.208 343.85C346.208 343.177 346.339 342.586 346.6 342.078C346.862 341.569 347.23 341.173 347.704 340.889C348.181 340.605 348.741 340.463 349.383 340.463C349.815 340.463 350.217 340.532 350.589 340.671C350.964 340.808 351.291 341.014 351.569 341.289C351.85 341.565 352.069 341.911 352.225 342.329C352.382 342.744 352.46 343.23 352.46 343.786V344.285H346.933V343.16H350.751C350.751 342.899 350.694 342.667 350.58 342.465C350.467 342.264 350.309 342.106 350.107 341.992C349.909 341.876 349.677 341.818 349.413 341.818C349.137 341.818 348.893 341.882 348.68 342.009C348.47 342.134 348.305 342.303 348.186 342.517C348.066 342.727 348.005 342.961 348.002 343.22V344.289C348.002 344.613 348.062 344.893 348.181 345.129C348.303 345.365 348.475 345.546 348.697 345.674C348.919 345.802 349.181 345.866 349.485 345.866C349.687 345.866 349.872 345.838 350.039 345.781C350.207 345.724 350.35 345.639 350.47 345.525C350.589 345.411 350.68 345.272 350.742 345.107L352.421 345.218C352.336 345.622 352.161 345.974 351.897 346.275C351.636 346.573 351.298 346.806 350.883 346.974C350.471 347.139 349.995 347.221 349.455 347.221ZM355.511 347.217C355.093 347.217 354.721 347.144 354.394 347C354.068 346.852 353.809 346.634 353.619 346.348C353.431 346.058 353.338 345.697 353.338 345.265C353.338 344.902 353.404 344.596 353.538 344.349C353.671 344.102 353.853 343.903 354.083 343.752C354.313 343.602 354.575 343.488 354.867 343.411C355.163 343.335 355.472 343.281 355.796 343.25C356.177 343.21 356.484 343.173 356.717 343.139C356.95 343.102 357.119 343.048 357.224 342.977C357.329 342.906 357.382 342.801 357.382 342.661V342.636C357.382 342.366 357.296 342.157 357.126 342.009C356.958 341.862 356.72 341.788 356.41 341.788C356.083 341.788 355.823 341.86 355.63 342.005C355.437 342.147 355.309 342.326 355.247 342.542L353.568 342.406C353.653 342.008 353.82 341.664 354.07 341.375C354.32 341.082 354.643 340.857 355.038 340.701C355.436 340.542 355.896 340.463 356.419 340.463C356.782 340.463 357.13 340.505 357.463 340.59C357.798 340.676 358.095 340.808 358.353 340.987C358.615 341.166 358.82 341.396 358.971 341.677C359.122 341.955 359.197 342.289 359.197 342.678V347.093H357.475V346.186H357.424C357.319 346.39 357.178 346.571 357.002 346.727C356.826 346.88 356.615 347.001 356.367 347.089C356.12 347.174 355.835 347.217 355.511 347.217ZM356.031 345.964C356.298 345.964 356.534 345.911 356.738 345.806C356.943 345.698 357.103 345.553 357.22 345.372C357.336 345.19 357.394 344.984 357.394 344.754V344.059C357.338 344.096 357.259 344.13 357.16 344.161C357.063 344.19 356.954 344.217 356.832 344.242C356.71 344.265 356.588 344.286 356.465 344.306C356.343 344.323 356.232 344.339 356.133 344.353C355.92 344.384 355.734 344.434 355.575 344.502C355.416 344.571 355.292 344.663 355.204 344.779C355.116 344.893 355.072 345.035 355.072 345.205C355.072 345.453 355.161 345.642 355.34 345.772C355.522 345.9 355.752 345.964 356.031 345.964ZM362.421 338.366V347.093H360.605V338.366H362.421ZM369.321 342.414L367.659 342.517C367.631 342.375 367.569 342.247 367.476 342.133C367.382 342.017 367.258 341.924 367.105 341.856C366.954 341.785 366.774 341.75 366.564 341.75C366.282 341.75 366.045 341.809 365.852 341.928C365.659 342.045 365.562 342.201 365.562 342.397C365.562 342.553 365.625 342.686 365.75 342.794C365.875 342.902 366.089 342.988 366.393 343.053L367.578 343.292C368.214 343.423 368.689 343.633 369.001 343.923C369.314 344.213 369.47 344.593 369.47 345.065C369.47 345.494 369.344 345.87 369.091 346.194C368.841 346.518 368.497 346.771 368.059 346.953C367.625 347.132 367.123 347.221 366.555 347.221C365.689 347.221 364.998 347.041 364.484 346.68C363.973 346.316 363.673 345.822 363.585 345.197L365.371 345.103C365.425 345.367 365.555 345.569 365.763 345.708C365.97 345.845 366.236 345.913 366.559 345.913C366.878 345.913 367.133 345.852 367.327 345.73C367.523 345.605 367.622 345.444 367.625 345.248C367.622 345.083 367.552 344.948 367.416 344.843C367.28 344.735 367.069 344.653 366.785 344.596L365.652 344.37C365.013 344.242 364.537 344.021 364.224 343.705C363.915 343.39 363.76 342.988 363.76 342.5C363.76 342.079 363.873 341.717 364.101 341.413C364.331 341.109 364.653 340.875 365.068 340.71C365.486 340.545 365.974 340.463 366.534 340.463C367.361 340.463 368.011 340.637 368.486 340.987C368.963 341.336 369.241 341.812 369.321 342.414ZM375.389 347.093L372.892 338.366H374.907L376.352 344.43H376.425L378.018 338.366H379.744L381.334 344.443H381.41L382.855 338.366H384.871L382.373 347.093H380.575L378.913 341.387H378.845L377.187 347.093H375.389ZM388.078 347.221C387.416 347.221 386.844 347.08 386.361 346.799C385.881 346.515 385.51 346.12 385.249 345.615C384.987 345.106 384.857 344.517 384.857 343.846C384.857 343.17 384.987 342.579 385.249 342.073C385.51 341.565 385.881 341.17 386.361 340.889C386.844 340.605 387.416 340.463 388.078 340.463C388.74 340.463 389.311 340.605 389.791 340.889C390.274 341.17 390.646 341.565 390.908 342.073C391.169 342.579 391.3 343.17 391.3 343.846C391.3 344.517 391.169 345.106 390.908 345.615C390.646 346.12 390.274 346.515 389.791 346.799C389.311 347.08 388.74 347.221 388.078 347.221ZM388.087 345.815C388.388 345.815 388.639 345.73 388.841 345.559C389.043 345.386 389.195 345.15 389.297 344.852C389.402 344.553 389.455 344.214 389.455 343.833C389.455 343.453 389.402 343.113 389.297 342.815C389.195 342.517 389.043 342.281 388.841 342.107C388.639 341.934 388.388 341.848 388.087 341.848C387.783 341.848 387.527 341.934 387.32 342.107C387.115 342.281 386.96 342.517 386.855 342.815C386.753 343.113 386.702 343.453 386.702 343.833C386.702 344.214 386.753 344.553 386.855 344.852C386.96 345.15 387.115 345.386 387.32 345.559C387.527 345.73 387.783 345.815 388.087 345.815ZM394.296 343.309V347.093H392.48V340.548H394.21V341.703H394.287C394.432 341.322 394.675 341.021 395.016 340.799C395.357 340.575 395.77 340.463 396.256 340.463C396.71 340.463 397.107 340.562 397.445 340.761C397.783 340.96 398.046 341.244 398.233 341.613C398.421 341.98 398.514 342.417 398.514 342.926V347.093H396.699V343.25C396.702 342.849 396.6 342.536 396.392 342.312C396.185 342.085 395.899 341.971 395.536 341.971C395.291 341.971 395.075 342.024 394.888 342.129C394.703 342.234 394.558 342.387 394.453 342.589C394.351 342.788 394.298 343.028 394.296 343.309Z" fill="#767676"/>
<path d="M533.039 347.213C532.59 347.21 532.157 347.134 531.74 346.987C531.325 346.839 530.953 346.599 530.623 346.267C530.294 345.934 530.032 345.494 529.839 344.946C529.649 344.397 529.553 343.724 529.553 342.926C529.556 342.193 529.64 341.538 529.805 340.961C529.972 340.382 530.211 339.89 530.521 339.487C530.833 339.083 531.207 338.776 531.642 338.566C532.076 338.353 532.563 338.247 533.103 338.247C533.686 338.247 534.2 338.36 534.646 338.588C535.092 338.812 535.45 339.117 535.72 339.504C535.992 339.89 536.157 340.323 536.214 340.803H534.394C534.323 340.5 534.174 340.261 533.947 340.088C533.72 339.914 533.438 339.828 533.103 339.828C532.535 339.828 532.103 340.075 531.808 340.569C531.515 341.063 531.366 341.735 531.36 342.585H531.42C531.551 342.326 531.727 342.106 531.948 341.924C532.173 341.74 532.427 341.599 532.711 341.502C532.998 341.403 533.301 341.353 533.619 341.353C534.136 341.353 534.596 341.475 534.999 341.72C535.403 341.961 535.721 342.294 535.954 342.717C536.187 343.14 536.303 343.625 536.303 344.17C536.303 344.761 536.166 345.286 535.89 345.747C535.617 346.207 535.235 346.568 534.744 346.829C534.255 347.088 533.687 347.215 533.039 347.213ZM533.031 345.764C533.315 345.764 533.569 345.696 533.794 345.559C534.018 345.423 534.194 345.238 534.322 345.005C534.45 344.772 534.514 344.511 534.514 344.221C534.514 343.931 534.45 343.671 534.322 343.441C534.197 343.211 534.024 343.028 533.802 342.892C533.58 342.755 533.328 342.687 533.044 342.687C532.83 342.687 532.633 342.727 532.451 342.806C532.272 342.886 532.115 342.997 531.978 343.139C531.845 343.281 531.74 343.446 531.663 343.633C531.586 343.818 531.548 344.015 531.548 344.225C531.548 344.507 531.612 344.764 531.74 344.997C531.87 345.23 532.046 345.416 532.268 345.555C532.492 345.694 532.747 345.764 533.031 345.764ZM541.034 347.285C540.301 347.282 539.67 347.102 539.142 346.744C538.616 346.386 538.211 345.867 537.927 345.188C537.646 344.509 537.507 343.693 537.509 342.738C537.509 341.786 537.65 340.975 537.931 340.305C538.215 339.634 538.62 339.125 539.146 338.775C539.674 338.423 540.303 338.247 541.034 338.247C541.764 338.247 542.392 338.423 542.917 338.775C543.445 339.127 543.852 339.639 544.136 340.309C544.42 340.977 544.561 341.786 544.558 342.738C544.558 343.696 544.416 344.514 544.132 345.193C543.85 345.872 543.447 346.39 542.921 346.748C542.396 347.106 541.767 347.285 541.034 347.285ZM541.034 345.755C541.534 345.755 541.933 345.504 542.231 345.001C542.529 344.498 542.677 343.744 542.674 342.738C542.674 342.076 542.606 341.525 542.47 341.085C542.336 340.644 542.146 340.313 541.899 340.092C541.654 339.87 541.366 339.759 541.034 339.759C540.536 339.759 540.139 340.008 539.84 340.505C539.542 341.002 539.392 341.747 539.389 342.738C539.389 343.409 539.455 343.968 539.589 344.417C539.725 344.863 539.917 345.198 540.164 345.423C540.411 345.644 540.701 345.755 541.034 345.755ZM550.65 345.457V344.997C550.65 344.647 550.724 344.326 550.872 344.034C551.023 343.738 551.24 343.502 551.524 343.326C551.811 343.147 552.16 343.058 552.572 343.058C552.99 343.058 553.341 343.146 553.625 343.322C553.912 343.498 554.128 343.734 554.273 344.029C554.42 344.322 554.494 344.644 554.494 344.997V345.457C554.494 345.806 554.42 346.129 554.273 346.424C554.125 346.717 553.907 346.951 553.621 347.127C553.334 347.306 552.984 347.396 552.572 347.396C552.155 347.396 551.804 347.306 551.52 347.127C551.236 346.951 551.02 346.717 550.872 346.424C550.724 346.129 550.65 345.806 550.65 345.457ZM551.89 344.997V345.457C551.89 345.659 551.939 345.849 552.035 346.028C552.135 346.207 552.314 346.296 552.572 346.296C552.831 346.296 553.007 346.208 553.101 346.032C553.197 345.856 553.246 345.664 553.246 345.457V344.997C553.246 344.789 553.2 344.596 553.109 344.417C553.018 344.238 552.839 344.149 552.572 344.149C552.317 344.149 552.139 344.238 552.04 344.417C551.94 344.596 551.89 344.789 551.89 344.997ZM546.172 340.463V340.002C546.172 339.65 546.247 339.328 546.398 339.035C546.548 338.74 546.765 338.504 547.05 338.328C547.336 338.152 547.683 338.063 548.089 338.063C548.51 338.063 548.862 338.152 549.146 338.328C549.43 338.504 549.646 338.74 549.794 339.035C549.942 339.328 550.015 339.65 550.015 340.002V340.463C550.015 340.815 549.94 341.137 549.79 341.43C549.642 341.723 549.425 341.957 549.138 342.133C548.854 342.306 548.504 342.393 548.089 342.393C547.675 342.393 547.324 342.305 547.037 342.129C546.753 341.95 546.537 341.715 546.389 341.426C546.244 341.133 546.172 340.812 546.172 340.463ZM547.42 340.002V340.463C547.42 340.67 547.469 340.862 547.565 341.038C547.665 341.214 547.839 341.302 548.089 341.302C548.351 341.302 548.528 341.214 548.622 341.038C548.719 340.862 548.767 340.67 548.767 340.463V340.002C548.767 339.795 548.721 339.602 548.631 339.423C548.54 339.244 548.359 339.154 548.089 339.154C547.836 339.154 547.662 339.245 547.565 339.427C547.469 339.609 547.42 339.801 547.42 340.002ZM546.734 347.093L552.734 338.366H553.851L547.851 347.093H546.734Z" fill="#404040"/>
<circle cx="327.018" cy="372.593" r="5" fill="#FF9C38"/>
<path d="M345.076 368.366V377.093H343.482L339.685 371.6H339.621V377.093H337.776V368.366H339.395L343.162 373.855H343.239V368.366H345.076ZM349.549 377.221C348.876 377.221 348.296 377.085 347.811 376.812C347.328 376.536 346.955 376.147 346.694 375.644C346.433 375.139 346.302 374.541 346.302 373.85C346.302 373.177 346.433 372.586 346.694 372.078C346.955 371.569 347.323 371.173 347.798 370.889C348.275 370.605 348.835 370.463 349.477 370.463C349.909 370.463 350.311 370.532 350.683 370.671C351.058 370.808 351.384 371.014 351.663 371.289C351.944 371.565 352.163 371.911 352.319 372.329C352.475 372.744 352.553 373.23 352.553 373.786V374.285H347.026V373.16H350.845C350.845 372.899 350.788 372.667 350.674 372.465C350.561 372.264 350.403 372.106 350.201 371.992C350.002 371.876 349.771 371.818 349.507 371.818C349.231 371.818 348.987 371.882 348.774 372.009C348.563 372.134 348.399 372.303 348.279 372.517C348.16 372.727 348.099 372.961 348.096 373.22V374.289C348.096 374.613 348.156 374.893 348.275 375.129C348.397 375.365 348.569 375.546 348.791 375.674C349.012 375.802 349.275 375.866 349.579 375.866C349.781 375.866 349.965 375.838 350.133 375.781C350.301 375.724 350.444 375.639 350.563 375.525C350.683 375.411 350.774 375.272 350.836 375.107L352.515 375.218C352.43 375.622 352.255 375.974 351.991 376.275C351.73 376.573 351.392 376.806 350.977 376.974C350.565 377.139 350.089 377.221 349.549 377.221ZM356.687 379.684C356.099 379.684 355.595 379.603 355.174 379.441C354.757 379.282 354.424 379.065 354.177 378.789C353.93 378.514 353.769 378.204 353.695 377.86L355.374 377.634C355.426 377.765 355.507 377.887 355.617 378.001C355.728 378.115 355.874 378.205 356.056 378.274C356.241 378.345 356.465 378.38 356.73 378.38C357.124 378.38 357.45 378.284 357.705 378.09C357.964 377.9 358.093 377.58 358.093 377.132V375.934H358.017C357.937 376.116 357.818 376.288 357.659 376.45C357.499 376.612 357.295 376.744 357.045 376.846C356.795 376.948 356.497 377 356.15 377C355.659 377 355.211 376.886 354.808 376.659C354.407 376.428 354.088 376.078 353.849 375.606C353.613 375.132 353.495 374.532 353.495 373.808C353.495 373.066 353.616 372.447 353.857 371.95C354.099 371.453 354.42 371.08 354.82 370.833C355.224 370.586 355.666 370.463 356.146 370.463C356.512 370.463 356.819 370.525 357.066 370.65C357.313 370.772 357.512 370.926 357.663 371.11C357.816 371.292 357.934 371.471 358.017 371.647H358.085V370.548H359.887V377.157C359.887 377.714 359.751 378.18 359.478 378.555C359.205 378.93 358.828 379.211 358.345 379.399C357.865 379.589 357.312 379.684 356.687 379.684ZM356.725 375.636C357.018 375.636 357.265 375.563 357.467 375.419C357.671 375.271 357.828 375.061 357.936 374.788C358.046 374.512 358.102 374.183 358.102 373.799C358.102 373.416 358.048 373.083 357.94 372.802C357.832 372.518 357.676 372.298 357.471 372.142C357.267 371.985 357.018 371.907 356.725 371.907C356.427 371.907 356.176 371.988 355.971 372.15C355.767 372.309 355.612 372.531 355.507 372.815C355.401 373.099 355.349 373.427 355.349 373.799C355.349 374.177 355.401 374.504 355.507 374.779C355.615 375.052 355.769 375.264 355.971 375.414C356.176 375.562 356.427 375.636 356.725 375.636ZM364.289 377.221C363.627 377.221 363.055 377.08 362.572 376.799C362.092 376.515 361.721 376.12 361.46 375.615C361.198 375.106 361.068 374.517 361.068 373.846C361.068 373.17 361.198 372.579 361.46 372.073C361.721 371.565 362.092 371.17 362.572 370.889C363.055 370.605 363.627 370.463 364.289 370.463C364.951 370.463 365.522 370.605 366.002 370.889C366.485 371.17 366.857 371.565 367.119 372.073C367.38 372.579 367.511 373.17 367.511 373.846C367.511 374.517 367.38 375.106 367.119 375.615C366.857 376.12 366.485 376.515 366.002 376.799C365.522 377.08 364.951 377.221 364.289 377.221ZM364.298 375.815C364.599 375.815 364.85 375.73 365.052 375.559C365.254 375.386 365.406 375.15 365.508 374.852C365.613 374.553 365.666 374.214 365.666 373.833C365.666 373.453 365.613 373.113 365.508 372.815C365.406 372.517 365.254 372.281 365.052 372.107C364.85 371.934 364.599 371.848 364.298 371.848C363.994 371.848 363.738 371.934 363.531 372.107C363.326 372.281 363.171 372.517 363.066 372.815C362.964 373.113 362.913 373.453 362.913 373.833C362.913 374.214 362.964 374.553 363.066 374.852C363.171 375.15 363.326 375.386 363.531 375.559C363.738 375.73 363.994 375.815 364.298 375.815ZM372.173 370.548V371.911H368.231V370.548H372.173ZM369.126 368.98H370.941V375.082C370.941 375.25 370.967 375.38 371.018 375.474C371.069 375.565 371.14 375.629 371.231 375.666C371.325 375.703 371.433 375.721 371.555 375.721C371.64 375.721 371.725 375.714 371.811 375.7C371.896 375.683 371.961 375.67 372.007 375.661L372.292 377.012C372.201 377.041 372.073 377.073 371.909 377.11C371.744 377.15 371.544 377.174 371.308 377.183C370.87 377.2 370.487 377.142 370.157 377.008C369.83 376.875 369.576 376.667 369.394 376.386C369.213 376.105 369.123 375.75 369.126 375.321V368.98ZM373.355 377.093V370.548H375.171V377.093H373.355ZM374.267 369.704C373.997 369.704 373.766 369.615 373.573 369.436C373.382 369.254 373.287 369.036 373.287 368.784C373.287 368.534 373.382 368.319 373.573 368.14C373.766 367.958 373.997 367.867 374.267 367.867C374.537 367.867 374.767 367.958 374.958 368.14C375.151 368.319 375.247 368.534 375.247 368.784C375.247 369.036 375.151 369.254 374.958 369.436C374.767 369.615 374.537 369.704 374.267 369.704ZM378.491 377.217C378.074 377.217 377.702 377.144 377.375 377C377.048 376.852 376.79 376.634 376.599 376.348C376.412 376.058 376.318 375.697 376.318 375.265C376.318 374.902 376.385 374.596 376.518 374.349C376.652 374.102 376.834 373.903 377.064 373.752C377.294 373.602 377.555 373.488 377.848 373.411C378.143 373.335 378.453 373.281 378.777 373.25C379.157 373.21 379.464 373.173 379.697 373.139C379.93 373.102 380.099 373.048 380.204 372.977C380.309 372.906 380.362 372.801 380.362 372.661V372.636C380.362 372.366 380.277 372.157 380.106 372.009C379.939 371.862 379.7 371.788 379.39 371.788C379.064 371.788 378.804 371.86 378.611 372.005C378.417 372.147 378.29 372.326 378.227 372.542L376.548 372.406C376.633 372.008 376.801 371.664 377.051 371.375C377.301 371.082 377.623 370.857 378.018 370.701C378.416 370.542 378.876 370.463 379.399 370.463C379.763 370.463 380.111 370.505 380.443 370.59C380.778 370.676 381.075 370.808 381.334 370.987C381.595 371.166 381.801 371.396 381.952 371.677C382.102 371.955 382.177 372.289 382.177 372.678V377.093H380.456V376.186H380.405C380.3 376.39 380.159 376.571 379.983 376.727C379.807 376.88 379.595 377.001 379.348 377.089C379.101 377.174 378.815 377.217 378.491 377.217ZM379.011 375.964C379.278 375.964 379.514 375.911 379.719 375.806C379.923 375.698 380.084 375.553 380.2 375.372C380.317 375.19 380.375 374.984 380.375 374.754V374.059C380.318 374.096 380.24 374.13 380.14 374.161C380.044 374.19 379.934 374.217 379.812 374.242C379.69 374.265 379.568 374.286 379.446 374.306C379.324 374.323 379.213 374.339 379.113 374.353C378.9 374.384 378.714 374.434 378.555 374.502C378.396 374.571 378.273 374.663 378.184 374.779C378.096 374.893 378.052 375.035 378.052 375.205C378.052 375.453 378.142 375.642 378.321 375.772C378.503 375.9 378.733 375.964 379.011 375.964ZM387.067 370.548V371.911H383.126V370.548H387.067ZM384.02 368.98H385.836V375.082C385.836 375.25 385.861 375.38 385.912 375.474C385.964 375.565 386.035 375.629 386.126 375.666C386.219 375.703 386.327 375.721 386.449 375.721C386.535 375.721 386.62 375.714 386.705 375.7C386.79 375.683 386.856 375.67 386.901 375.661L387.187 377.012C387.096 377.041 386.968 377.073 386.803 377.11C386.638 377.15 386.438 377.174 386.202 377.183C385.765 377.2 385.381 377.142 385.052 377.008C384.725 376.875 384.471 376.667 384.289 376.386C384.107 376.105 384.018 375.75 384.02 375.321V368.98ZM388.25 377.093V370.548H390.065V377.093H388.25ZM389.162 369.704C388.892 369.704 388.66 369.615 388.467 369.436C388.277 369.254 388.182 369.036 388.182 368.784C388.182 368.534 388.277 368.319 388.467 368.14C388.66 367.958 388.892 367.867 389.162 367.867C389.432 367.867 389.662 367.958 389.852 368.14C390.045 368.319 390.142 368.534 390.142 368.784C390.142 369.036 390.045 369.254 389.852 369.436C389.662 369.615 389.432 369.704 389.162 369.704ZM394.477 377.221C393.815 377.221 393.242 377.08 392.759 376.799C392.279 376.515 391.909 376.12 391.647 375.615C391.386 375.106 391.255 374.517 391.255 373.846C391.255 373.17 391.386 372.579 391.647 372.073C391.909 371.565 392.279 371.17 392.759 370.889C393.242 370.605 393.815 370.463 394.477 370.463C395.139 370.463 395.71 370.605 396.19 370.889C396.673 371.17 397.045 371.565 397.306 372.073C397.568 372.579 397.698 373.17 397.698 373.846C397.698 374.517 397.568 375.106 397.306 375.615C397.045 376.12 396.673 376.515 396.19 376.799C395.71 377.08 395.139 377.221 394.477 377.221ZM394.485 375.815C394.786 375.815 395.038 375.73 395.24 375.559C395.441 375.386 395.593 375.15 395.695 374.852C395.801 374.553 395.853 374.214 395.853 373.833C395.853 373.453 395.801 373.113 395.695 372.815C395.593 372.517 395.441 372.281 395.24 372.107C395.038 371.934 394.786 371.848 394.485 371.848C394.181 371.848 393.926 371.934 393.718 372.107C393.514 372.281 393.359 372.517 393.254 372.815C393.151 373.113 393.1 373.453 393.1 373.833C393.1 374.214 393.151 374.553 393.254 374.852C393.359 375.15 393.514 375.386 393.718 375.559C393.926 375.73 394.181 375.815 394.485 375.815ZM400.694 373.309V377.093H398.879V370.548H400.609V371.703H400.686C400.83 371.322 401.073 371.021 401.414 370.799C401.755 370.575 402.169 370.463 402.654 370.463C403.109 370.463 403.505 370.562 403.843 370.761C404.181 370.96 404.444 371.244 404.632 371.613C404.819 371.98 404.913 372.417 404.913 372.926V377.093H403.097V373.25C403.1 372.849 402.998 372.536 402.791 372.312C402.583 372.085 402.298 371.971 401.934 371.971C401.69 371.971 401.474 372.024 401.286 372.129C401.102 372.234 400.957 372.387 400.852 372.589C400.749 372.788 400.697 373.028 400.694 373.309Z" fill="#767676"/>
<path d="M529.69 377.093V375.764L532.796 372.887C533.061 372.632 533.282 372.402 533.461 372.197C533.643 371.992 533.781 371.792 533.874 371.596C533.968 371.397 534.015 371.183 534.015 370.953C534.015 370.697 533.957 370.477 533.84 370.292C533.724 370.105 533.565 369.961 533.363 369.862C533.161 369.759 532.933 369.708 532.677 369.708C532.41 369.708 532.177 369.762 531.978 369.87C531.779 369.978 531.626 370.133 531.518 370.335C531.41 370.536 531.356 370.776 531.356 371.055H529.605C529.605 370.484 529.734 369.988 529.992 369.568C530.251 369.147 530.613 368.822 531.079 368.592C531.545 368.362 532.082 368.247 532.69 368.247C533.315 368.247 533.859 368.357 534.322 368.579C534.788 368.798 535.15 369.102 535.409 369.491C535.667 369.88 535.796 370.326 535.796 370.829C535.796 371.159 535.731 371.484 535.6 371.805C535.472 372.126 535.244 372.482 534.914 372.875C534.585 373.264 534.12 373.731 533.521 374.277L532.247 375.525V375.585H535.911V377.093H529.69ZM540.67 377.285C539.937 377.282 539.307 377.102 538.778 376.744C538.253 376.386 537.848 375.867 537.564 375.188C537.282 374.509 537.143 373.693 537.146 372.738C537.146 371.786 537.287 370.975 537.568 370.305C537.852 369.634 538.257 369.125 538.782 368.775C539.311 368.423 539.94 368.247 540.67 368.247C541.4 368.247 542.028 368.423 542.554 368.775C543.082 369.127 543.488 369.639 543.773 370.309C544.057 370.977 544.197 371.786 544.194 372.738C544.194 373.696 544.052 374.514 543.768 375.193C543.487 375.872 543.084 376.39 542.558 376.748C542.032 377.106 541.403 377.285 540.67 377.285ZM540.67 375.755C541.17 375.755 541.569 375.504 541.868 375.001C542.166 374.498 542.314 373.744 542.311 372.738C542.311 372.076 542.243 371.525 542.106 371.085C541.973 370.644 541.782 370.313 541.535 370.092C541.291 369.87 541.003 369.759 540.67 369.759C540.173 369.759 539.775 370.008 539.477 370.505C539.179 371.002 539.028 371.747 539.025 372.738C539.025 373.409 539.092 373.968 539.226 374.417C539.362 374.863 539.554 375.198 539.801 375.423C540.048 375.644 540.338 375.755 540.67 375.755ZM550.287 375.457V374.997C550.287 374.647 550.361 374.326 550.509 374.034C550.659 373.738 550.877 373.502 551.161 373.326C551.448 373.147 551.797 373.058 552.209 373.058C552.627 373.058 552.977 373.146 553.262 373.322C553.548 373.498 553.764 373.734 553.909 374.029C554.057 374.322 554.131 374.644 554.131 374.997V375.457C554.131 375.806 554.057 376.129 553.909 376.424C553.762 376.717 553.544 376.951 553.257 377.127C552.97 377.306 552.621 377.396 552.209 377.396C551.791 377.396 551.441 377.306 551.156 377.127C550.872 376.951 550.656 376.717 550.509 376.424C550.361 376.129 550.287 375.806 550.287 375.457ZM551.527 374.997V375.457C551.527 375.659 551.575 375.849 551.672 376.028C551.771 376.207 551.95 376.296 552.209 376.296C552.468 376.296 552.644 376.208 552.737 376.032C552.834 375.856 552.882 375.664 552.882 375.457V374.997C552.882 374.789 552.837 374.596 552.746 374.417C552.655 374.238 552.476 374.149 552.209 374.149C551.953 374.149 551.776 374.238 551.676 374.417C551.577 374.596 551.527 374.789 551.527 374.997ZM545.808 370.463V370.002C545.808 369.65 545.884 369.328 546.034 369.035C546.185 368.74 546.402 368.504 546.686 368.328C546.973 368.152 547.32 368.063 547.726 368.063C548.146 368.063 548.499 368.152 548.783 368.328C549.067 368.504 549.283 368.74 549.431 369.035C549.578 369.328 549.652 369.65 549.652 370.002V370.463C549.652 370.815 549.577 371.137 549.426 371.43C549.279 371.723 549.061 371.957 548.774 372.133C548.49 372.306 548.141 372.393 547.726 372.393C547.311 372.393 546.96 372.305 546.673 372.129C546.389 371.95 546.173 371.715 546.026 371.426C545.881 371.133 545.808 370.812 545.808 370.463ZM547.057 370.002V370.463C547.057 370.67 547.105 370.862 547.202 371.038C547.301 371.214 547.476 371.302 547.726 371.302C547.987 371.302 548.165 371.214 548.259 371.038C548.355 370.862 548.404 370.67 548.404 370.463V370.002C548.404 369.795 548.358 369.602 548.267 369.423C548.176 369.244 547.996 369.154 547.726 369.154C547.473 369.154 547.298 369.245 547.202 369.427C547.105 369.609 547.057 369.801 547.057 370.002ZM546.371 377.093L552.371 368.366H553.487L547.487 377.093H546.371Z" fill="#404040"/>
<circle cx="327.018" cy="402.593" r="5" fill="#FF8000"/>
<path d="M337.776 407.093V398.366H341.219C341.881 398.366 342.445 398.492 342.911 398.745C343.377 398.995 343.732 399.343 343.976 399.789C344.224 400.232 344.347 400.744 344.347 401.323C344.347 401.903 344.222 402.414 343.972 402.857C343.722 403.301 343.36 403.646 342.885 403.893C342.414 404.14 341.843 404.264 341.172 404.264H338.978V402.785H340.874C341.229 402.785 341.522 402.724 341.752 402.602C341.985 402.477 342.158 402.305 342.272 402.086C342.388 401.865 342.447 401.61 342.447 401.323C342.447 401.034 342.388 400.781 342.272 400.565C342.158 400.346 341.985 400.177 341.752 400.058C341.519 399.936 341.224 399.875 340.866 399.875H339.621V407.093H337.776ZM345.512 407.093V400.548H347.271V401.69H347.34C347.459 401.284 347.659 400.977 347.941 400.769C348.222 400.559 348.546 400.454 348.912 400.454C349.003 400.454 349.101 400.46 349.206 400.471C349.311 400.482 349.404 400.498 349.483 400.518V402.129C349.398 402.103 349.28 402.08 349.129 402.061C348.979 402.041 348.841 402.031 348.716 402.031C348.449 402.031 348.21 402.089 348 402.205C347.793 402.319 347.628 402.478 347.506 402.683C347.387 402.887 347.327 403.123 347.327 403.39V407.093H345.512ZM353.074 407.221C352.412 407.221 351.84 407.08 351.357 406.799C350.877 406.515 350.506 406.12 350.245 405.615C349.983 405.106 349.853 404.517 349.853 403.846C349.853 403.17 349.983 402.579 350.245 402.073C350.506 401.565 350.877 401.17 351.357 400.889C351.84 400.605 352.412 400.463 353.074 400.463C353.736 400.463 354.307 400.605 354.787 400.889C355.27 401.17 355.643 401.565 355.904 402.073C356.165 402.579 356.296 403.17 356.296 403.846C356.296 404.517 356.165 405.106 355.904 405.615C355.643 406.12 355.27 406.515 354.787 406.799C354.307 407.08 353.736 407.221 353.074 407.221ZM353.083 405.815C353.384 405.815 353.635 405.73 353.837 405.559C354.039 405.386 354.191 405.15 354.293 404.852C354.398 404.553 354.451 404.214 354.451 403.833C354.451 403.453 354.398 403.113 354.293 402.815C354.191 402.517 354.039 402.281 353.837 402.107C353.635 401.934 353.384 401.848 353.083 401.848C352.779 401.848 352.523 401.934 352.316 402.107C352.111 402.281 351.956 402.517 351.851 402.815C351.749 403.113 351.698 403.453 351.698 403.833C351.698 404.214 351.749 404.553 351.851 404.852C351.956 405.15 352.111 405.386 352.316 405.559C352.523 405.73 352.779 405.815 353.083 405.815ZM357.476 409.548V400.548H359.266V401.647H359.347C359.427 401.471 359.542 401.292 359.692 401.11C359.846 400.926 360.045 400.772 360.289 400.65C360.536 400.525 360.843 400.463 361.209 400.463C361.687 400.463 362.127 400.588 362.53 400.838C362.934 401.085 363.256 401.458 363.498 401.958C363.739 402.455 363.86 403.079 363.86 403.829C363.86 404.559 363.742 405.176 363.506 405.678C363.273 406.178 362.955 406.558 362.552 406.816C362.151 407.072 361.702 407.2 361.205 407.2C360.853 407.2 360.553 407.142 360.306 407.025C360.062 406.909 359.861 406.762 359.705 406.586C359.549 406.407 359.43 406.227 359.347 406.045H359.292V409.548H357.476ZM359.253 403.821C359.253 404.21 359.307 404.549 359.415 404.839C359.523 405.129 359.68 405.355 359.884 405.517C360.089 405.676 360.337 405.755 360.63 405.755C360.925 405.755 361.175 405.674 361.38 405.512C361.584 405.348 361.739 405.12 361.844 404.83C361.952 404.538 362.006 404.201 362.006 403.821C362.006 403.443 361.954 403.11 361.849 402.823C361.743 402.536 361.589 402.312 361.384 402.15C361.18 401.988 360.928 401.907 360.63 401.907C360.334 401.907 360.084 401.985 359.88 402.142C359.678 402.298 359.523 402.519 359.415 402.806C359.307 403.093 359.253 403.431 359.253 403.821ZM368.028 407.221C367.366 407.221 366.793 407.08 366.31 406.799C365.83 406.515 365.459 406.12 365.198 405.615C364.937 405.106 364.806 404.517 364.806 403.846C364.806 403.17 364.937 402.579 365.198 402.073C365.459 401.565 365.83 401.17 366.31 400.889C366.793 400.605 367.366 400.463 368.028 400.463C368.689 400.463 369.26 400.605 369.741 400.889C370.224 401.17 370.596 401.565 370.857 402.073C371.118 402.579 371.249 403.17 371.249 403.846C371.249 404.517 371.118 405.106 370.857 405.615C370.596 406.12 370.224 406.515 369.741 406.799C369.26 407.08 368.689 407.221 368.028 407.221ZM368.036 405.815C368.337 405.815 368.589 405.73 368.79 405.559C368.992 405.386 369.144 405.15 369.246 404.852C369.351 404.553 369.404 404.214 369.404 403.833C369.404 403.453 369.351 403.113 369.246 402.815C369.144 402.517 368.992 402.281 368.79 402.107C368.589 401.934 368.337 401.848 368.036 401.848C367.732 401.848 367.476 401.934 367.269 402.107C367.064 402.281 366.91 402.517 366.805 402.815C366.702 403.113 366.651 403.453 366.651 403.833C366.651 404.214 366.702 404.553 366.805 404.852C366.91 405.15 367.064 405.386 367.269 405.559C367.476 405.73 367.732 405.815 368.036 405.815ZM377.876 402.414L376.214 402.517C376.185 402.375 376.124 402.247 376.03 402.133C375.937 402.017 375.813 401.924 375.66 401.856C375.509 401.785 375.329 401.75 375.118 401.75C374.837 401.75 374.6 401.809 374.407 401.928C374.214 402.045 374.117 402.201 374.117 402.397C374.117 402.553 374.18 402.686 374.305 402.794C374.43 402.902 374.644 402.988 374.948 403.053L376.133 403.292C376.769 403.423 377.243 403.633 377.556 403.923C377.868 404.213 378.025 404.593 378.025 405.065C378.025 405.494 377.898 405.87 377.645 406.194C377.395 406.518 377.052 406.771 376.614 406.953C376.18 407.132 375.678 407.221 375.11 407.221C374.243 407.221 373.553 407.041 373.039 406.68C372.528 406.316 372.228 405.822 372.14 405.197L373.925 405.103C373.979 405.367 374.11 405.569 374.317 405.708C374.525 405.845 374.79 405.913 375.114 405.913C375.432 405.913 375.688 405.852 375.881 405.73C376.077 405.605 376.177 405.444 376.18 405.248C376.177 405.083 376.107 404.948 375.971 404.843C375.834 404.735 375.624 404.653 375.34 404.596L374.206 404.37C373.567 404.242 373.091 404.021 372.779 403.705C372.469 403.39 372.314 402.988 372.314 402.5C372.314 402.079 372.428 401.717 372.655 401.413C372.885 401.109 373.208 400.875 373.623 400.71C374.04 400.545 374.529 400.463 375.089 400.463C375.915 400.463 376.566 400.637 377.04 400.987C377.518 401.336 377.796 401.812 377.876 402.414ZM381.034 407.217C380.617 407.217 380.244 407.144 379.918 407C379.591 406.852 379.333 406.634 379.142 406.348C378.955 406.058 378.861 405.697 378.861 405.265C378.861 404.902 378.928 404.596 379.061 404.349C379.195 404.102 379.377 403.903 379.607 403.752C379.837 403.602 380.098 403.488 380.391 403.411C380.686 403.335 380.996 403.281 381.32 403.25C381.7 403.21 382.007 403.173 382.24 403.139C382.473 403.102 382.642 403.048 382.747 402.977C382.852 402.906 382.905 402.801 382.905 402.661V402.636C382.905 402.366 382.82 402.157 382.649 402.009C382.482 401.862 382.243 401.788 381.933 401.788C381.607 401.788 381.347 401.86 381.154 402.005C380.96 402.147 380.833 402.326 380.77 402.542L379.091 402.406C379.176 402.008 379.344 401.664 379.594 401.375C379.844 401.082 380.166 400.857 380.561 400.701C380.959 400.542 381.419 400.463 381.942 400.463C382.306 400.463 382.654 400.505 382.986 400.59C383.321 400.676 383.618 400.808 383.877 400.987C384.138 401.166 384.344 401.396 384.494 401.677C384.645 401.955 384.72 402.289 384.72 402.678V407.093H382.999V406.186H382.948C382.843 406.39 382.702 406.571 382.526 406.727C382.35 406.88 382.138 407.001 381.891 407.089C381.644 407.174 381.358 407.217 381.034 407.217ZM381.554 405.964C381.821 405.964 382.057 405.911 382.262 405.806C382.466 405.698 382.627 405.553 382.743 405.372C382.86 405.19 382.918 404.984 382.918 404.754V404.059C382.861 404.096 382.783 404.13 382.683 404.161C382.587 404.19 382.477 404.217 382.355 404.242C382.233 404.265 382.111 404.286 381.989 404.306C381.867 404.323 381.756 404.339 381.656 404.353C381.443 404.384 381.257 404.434 381.098 404.502C380.939 404.571 380.816 404.663 380.727 404.779C380.639 404.893 380.595 405.035 380.595 405.205C380.595 405.453 380.685 405.642 380.864 405.772C381.046 405.9 381.276 405.964 381.554 405.964ZM387.944 398.366V407.093H386.129V398.366H387.944Z" fill="#767676"/>
<path d="M529.69 407.093V405.764L532.796 402.887C533.061 402.632 533.282 402.402 533.461 402.197C533.643 401.992 533.781 401.792 533.874 401.596C533.968 401.397 534.015 401.183 534.015 400.953C534.015 400.697 533.957 400.477 533.84 400.292C533.724 400.105 533.565 399.961 533.363 399.862C533.161 399.759 532.933 399.708 532.677 399.708C532.41 399.708 532.177 399.762 531.978 399.87C531.779 399.978 531.626 400.133 531.518 400.335C531.41 400.536 531.356 400.776 531.356 401.055H529.605C529.605 400.484 529.734 399.988 529.992 399.568C530.251 399.147 530.613 398.822 531.079 398.592C531.545 398.362 532.082 398.247 532.69 398.247C533.315 398.247 533.859 398.357 534.322 398.579C534.788 398.798 535.15 399.102 535.409 399.491C535.667 399.88 535.796 400.326 535.796 400.829C535.796 401.159 535.731 401.484 535.6 401.805C535.472 402.126 535.244 402.482 534.914 402.875C534.585 403.264 534.12 403.731 533.521 404.277L532.247 405.525V405.585H535.911V407.093H529.69ZM540.67 407.285C539.937 407.282 539.307 407.102 538.778 406.744C538.253 406.386 537.848 405.867 537.564 405.188C537.282 404.509 537.143 403.693 537.146 402.738C537.146 401.786 537.287 400.975 537.568 400.305C537.852 399.634 538.257 399.125 538.782 398.775C539.311 398.423 539.94 398.247 540.67 398.247C541.4 398.247 542.028 398.423 542.554 398.775C543.082 399.127 543.488 399.639 543.773 400.309C544.057 400.977 544.197 401.786 544.194 402.738C544.194 403.696 544.052 404.514 543.768 405.193C543.487 405.872 543.084 406.39 542.558 406.748C542.032 407.106 541.403 407.285 540.67 407.285ZM540.67 405.755C541.17 405.755 541.569 405.504 541.868 405.001C542.166 404.498 542.314 403.744 542.311 402.738C542.311 402.076 542.243 401.525 542.106 401.085C541.973 400.644 541.782 400.313 541.535 400.092C541.291 399.87 541.003 399.759 540.67 399.759C540.173 399.759 539.775 400.008 539.477 400.505C539.179 401.002 539.028 401.747 539.025 402.738C539.025 403.409 539.092 403.968 539.226 404.417C539.362 404.863 539.554 405.198 539.801 405.423C540.048 405.644 540.338 405.755 540.67 405.755ZM550.287 405.457V404.997C550.287 404.647 550.361 404.326 550.509 404.034C550.659 403.738 550.877 403.502 551.161 403.326C551.448 403.147 551.797 403.058 552.209 403.058C552.627 403.058 552.977 403.146 553.262 403.322C553.548 403.498 553.764 403.734 553.909 404.029C554.057 404.322 554.131 404.644 554.131 404.997V405.457C554.131 405.806 554.057 406.129 553.909 406.424C553.762 406.717 553.544 406.951 553.257 407.127C552.97 407.306 552.621 407.396 552.209 407.396C551.791 407.396 551.441 407.306 551.156 407.127C550.872 406.951 550.656 406.717 550.509 406.424C550.361 406.129 550.287 405.806 550.287 405.457ZM551.527 404.997V405.457C551.527 405.659 551.575 405.849 551.672 406.028C551.771 406.207 551.95 406.296 552.209 406.296C552.468 406.296 552.644 406.208 552.737 406.032C552.834 405.856 552.882 405.664 552.882 405.457V404.997C552.882 404.789 552.837 404.596 552.746 404.417C552.655 404.238 552.476 404.149 552.209 404.149C551.953 404.149 551.776 404.238 551.676 404.417C551.577 404.596 551.527 404.789 551.527 404.997ZM545.808 400.463V400.002C545.808 399.65 545.884 399.328 546.034 399.035C546.185 398.74 546.402 398.504 546.686 398.328C546.973 398.152 547.32 398.063 547.726 398.063C548.146 398.063 548.499 398.152 548.783 398.328C549.067 398.504 549.283 398.74 549.431 399.035C549.578 399.328 549.652 399.65 549.652 400.002V400.463C549.652 400.815 549.577 401.137 549.426 401.43C549.279 401.723 549.061 401.957 548.774 402.133C548.49 402.306 548.141 402.393 547.726 402.393C547.311 402.393 546.96 402.305 546.673 402.129C546.389 401.95 546.173 401.715 546.026 401.426C545.881 401.133 545.808 400.812 545.808 400.463ZM547.057 400.002V400.463C547.057 400.67 547.105 400.862 547.202 401.038C547.301 401.214 547.476 401.302 547.726 401.302C547.987 401.302 548.165 401.214 548.259 401.038C548.355 400.862 548.404 400.67 548.404 400.463V400.002C548.404 399.795 548.358 399.602 548.267 399.423C548.176 399.244 547.996 399.154 547.726 399.154C547.473 399.154 547.298 399.245 547.202 399.427C547.105 399.609 547.057 399.801 547.057 400.002ZM546.371 407.093L552.371 398.366H553.487L547.487 407.093H546.371Z" fill="#404040"/>
<defs>
<clipPath id="clip0_47_12863">
<rect x="24" y="87" width="44" height="44" rx="22" fill="white"/>
</clipPath>
<clipPath id="clip1_47_12863">
<rect x="24" y="161" width="44" height="44" rx="22" fill="white"/>
</clipPath>
<clipPath id="clip2_47_12863">
<rect x="24" y="235" width="44" height="44" rx="22" fill="white"/>
</clipPath>
<clipPath id="clip3_47_12863">
<rect x="24" y="309" width="44" height="44" rx="22" fill="white"/>
</clipPath>
</defs>
</svg>
