<svg width="323" height="186" viewBox="0 0 323 186" fill="none" xmlns="http://www.w3.org/2000/svg">
<rect x="0.601881" y="1.33699" width="321.404" height="183.116" rx="13.8433" fill="white"/>
<rect x="0.601881" y="1.33699" width="321.404" height="183.116" rx="13.8433" stroke="#EAEEF4" stroke-width="1.20376"/>
<path d="M32.2491 55.6254V53.3503H36.236C37.276 53.3503 38.1861 53.1264 38.9661 52.6786C39.7606 52.2308 40.3745 51.6096 40.8079 50.8151C41.2557 50.0062 41.4796 49.0745 41.4796 48.02C41.4796 46.9799 41.2557 46.0627 40.8079 45.2682C40.3601 44.4737 39.7389 43.8526 38.9444 43.4048C38.1644 42.957 37.2616 42.7331 36.236 42.7331H32.2491V40.458H36.301C37.3988 40.458 38.4172 40.653 39.3561 41.043C40.2951 41.4186 41.1112 41.953 41.8046 42.6464C42.5124 43.3253 43.0613 44.127 43.4513 45.0515C43.8413 45.9616 44.0364 46.9583 44.0364 48.0417C44.0364 49.1106 43.8413 50.1073 43.4513 51.0318C43.0613 51.9563 42.5196 52.7652 41.8262 53.4586C41.1329 54.1375 40.3167 54.672 39.3778 55.062C38.4389 55.4376 37.4277 55.6254 36.3443 55.6254H32.2491ZM30.5374 55.6254V40.458H33.0292V55.6254H30.5374ZM51.0834 55.842C50.0434 55.842 49.1045 55.6109 48.2666 55.1487C47.4433 54.672 46.786 54.022 46.2949 53.1986C45.8182 52.3752 45.5798 51.4507 45.5798 50.4251C45.5798 49.3995 45.8182 48.4822 46.2949 47.6733C46.7716 46.8499 47.4144 46.1999 48.2233 45.7232C49.0467 45.2465 49.9567 45.0082 50.9534 45.0082C51.9213 45.0082 52.7735 45.2321 53.5102 45.6799C54.2614 46.1277 54.8464 46.7416 55.2653 47.5216C55.6987 48.3017 55.9153 49.1901 55.9153 50.1868C55.9153 50.3601 55.9009 50.5407 55.872 50.7285C55.8576 50.9018 55.8287 51.0968 55.7853 51.3135H47.2483V49.3634H54.5503L53.6619 50.1434C53.633 49.5078 53.5102 48.9734 53.2935 48.54C53.0769 48.1067 52.7663 47.7744 52.3618 47.5433C51.9718 47.3122 51.4879 47.1966 50.9101 47.1966C50.3034 47.1966 49.7762 47.3266 49.3284 47.5866C48.8806 47.8467 48.5339 48.215 48.2883 48.6917C48.0427 49.1539 47.92 49.7101 47.92 50.3601C47.92 51.0101 48.05 51.5807 48.31 52.0719C48.57 52.563 48.9383 52.9458 49.415 53.2203C49.8917 53.4803 50.4406 53.6103 51.0618 53.6103C51.5962 53.6103 52.0874 53.5164 52.5352 53.3286C52.9974 53.1408 53.3874 52.8663 53.7052 52.5052L55.222 54.0436C54.7164 54.6359 54.1025 55.0837 53.3802 55.387C52.658 55.6904 51.8924 55.842 51.0834 55.842ZM62.1812 55.842C61.2423 55.842 60.39 55.6037 59.6244 55.127C58.8733 54.6503 58.2738 54.0075 57.826 53.1986C57.3926 52.3752 57.176 51.4579 57.176 50.4468C57.176 49.4212 57.3926 48.5039 57.826 47.695C58.2738 46.8716 58.8733 46.2216 59.6244 45.7449C60.39 45.2538 61.2423 45.0082 62.1812 45.0082C62.9757 45.0082 63.6763 45.1815 64.283 45.5282C64.9041 45.8605 65.3952 46.3227 65.7564 46.9149C66.1175 47.5072 66.2981 48.1789 66.2981 48.93V51.9202C66.2981 52.6713 66.1175 53.343 65.7564 53.9353C65.4097 54.5275 64.9258 54.997 64.3046 55.3437C63.6835 55.6759 62.9757 55.842 62.1812 55.842ZM62.5712 53.5886C63.4524 53.5886 64.1602 53.2925 64.6947 52.7002C65.2436 52.108 65.518 51.3496 65.518 50.4251C65.518 49.804 65.3952 49.2551 65.1497 48.7784C64.9041 48.3017 64.5574 47.9333 64.1096 47.6733C63.6763 47.3989 63.1635 47.2616 62.5712 47.2616C61.9934 47.2616 61.4806 47.3989 61.0328 47.6733C60.5995 47.9333 60.2528 48.3017 59.9928 48.7784C59.7472 49.2551 59.6244 49.804 59.6244 50.4251C59.6244 51.0463 59.7472 51.5952 59.9928 52.0719C60.2528 52.5486 60.5995 52.9241 61.0328 53.1986C61.4806 53.4586 61.9934 53.5886 62.5712 53.5886ZM65.3664 55.6254V52.8302L65.778 50.2951L65.3664 47.7817V45.2249H67.7498V55.6254H65.3664ZM70.395 55.6254V40.0246H72.7784V55.6254H70.395ZM78.8328 55.842C78.255 55.842 77.6989 55.7698 77.1644 55.6254C76.63 55.4665 76.1388 55.2498 75.691 54.9753C75.2432 54.6864 74.8532 54.3397 74.521 53.9353L76.0377 52.4185C76.3988 52.8375 76.8105 53.1552 77.2728 53.3719C77.7495 53.5742 78.2839 53.6753 78.8762 53.6753C79.4106 53.6753 79.8151 53.5958 80.0896 53.4369C80.364 53.278 80.5013 53.0469 80.5013 52.7436C80.5013 52.4258 80.3712 52.1802 80.1112 52.0069C79.8512 51.8335 79.5118 51.6891 79.0928 51.5735C78.6884 51.4435 78.255 51.3135 77.7928 51.1835C77.345 51.0535 76.9116 50.8801 76.4927 50.6635C76.0883 50.4323 75.756 50.1218 75.496 49.7317C75.236 49.3417 75.106 48.8361 75.106 48.215C75.106 47.5505 75.2577 46.9799 75.561 46.5033C75.8788 46.0266 76.3194 45.6582 76.8827 45.3982C77.4605 45.1382 78.1467 45.0082 78.9412 45.0082C79.779 45.0082 80.5157 45.1599 81.1513 45.4632C81.8013 45.7521 82.343 46.1927 82.7764 46.7849L81.2596 48.3017C80.9563 47.9261 80.6096 47.6444 80.2196 47.4566C79.8296 47.2689 79.3818 47.175 78.8762 47.175C78.3995 47.175 78.0311 47.2472 77.7711 47.3916C77.5111 47.5361 77.3811 47.7455 77.3811 48.02C77.3811 48.3089 77.5111 48.5328 77.7711 48.6917C78.0311 48.8506 78.3634 48.9878 78.7678 49.1034C79.1867 49.2189 79.6201 49.349 80.0679 49.4934C80.5301 49.6234 80.9635 49.8112 81.368 50.0568C81.7869 50.2879 82.1263 50.6057 82.3863 51.0101C82.6464 51.4002 82.7764 51.913 82.7764 52.5486C82.7764 53.5597 82.4225 54.3614 81.7146 54.9537C81.0068 55.5459 80.0462 55.842 78.8328 55.842Z" fill="#7E92A2"/>
<path d="M45.1029 110.064V142.776H39.1771V115.83H38.9854L31.3345 120.718V115.287L39.4646 110.064H45.1029ZM65.1487 143.223C62.8486 143.223 60.8041 142.829 59.0152 142.041C57.2369 141.253 55.8313 140.156 54.7984 138.751C53.7655 137.345 53.2171 135.721 53.1532 133.879H59.1589C59.2122 134.763 59.505 135.535 60.0374 136.195C60.5699 136.845 61.278 137.35 62.1618 137.713C63.0456 138.075 64.0359 138.256 65.1327 138.256C66.3041 138.256 67.3423 138.053 68.2474 137.649C69.1525 137.233 69.8607 136.658 70.3718 135.924C70.8829 135.189 71.1332 134.342 71.1225 133.384C71.1332 132.394 70.8776 131.52 70.3558 130.764C69.834 130.008 69.078 129.417 68.0877 128.991C67.108 128.565 65.9261 128.353 64.5418 128.353H61.6507V123.784H64.5418C65.6811 123.784 66.6768 123.587 67.5287 123.193C68.3912 122.799 69.0674 122.246 69.5572 121.532C70.047 120.808 70.2866 119.972 70.276 119.024C70.2866 118.098 70.079 117.294 69.653 116.613C69.2377 115.92 68.6467 115.383 67.8801 114.999C67.124 114.616 66.2349 114.424 65.2126 114.424C64.2116 114.424 63.2852 114.605 62.4334 114.967C61.5815 115.329 60.8946 115.846 60.3729 116.517C59.8511 117.177 59.5742 117.965 59.5423 118.881H53.84C53.8826 117.049 54.4097 115.441 55.4213 114.057C56.4436 112.662 57.8066 111.576 59.5103 110.798C61.2141 110.01 63.1255 109.616 65.2446 109.616C67.4275 109.616 69.3229 110.026 70.9308 110.846C72.5494 111.656 73.8006 112.747 74.6844 114.121C75.5683 115.494 76.0102 117.012 76.0102 118.673C76.0208 120.515 75.4777 122.059 74.381 123.305C73.2948 124.551 71.8679 125.366 70.1003 125.749V126.005C72.4003 126.324 74.1627 127.176 75.3872 128.56C76.6225 129.934 77.2347 131.643 77.2241 133.687C77.2241 135.519 76.7023 137.159 75.6588 138.607C74.6259 140.045 73.199 141.173 71.3781 141.993C69.5678 142.813 67.4914 143.223 65.1487 143.223ZM94.6863 143.223C93.121 143.212 91.5929 142.941 90.1021 142.409C88.6113 141.865 87.2696 140.987 86.077 139.773C84.8843 138.548 83.9366 136.925 83.2338 134.901C82.531 132.867 82.185 130.349 82.1956 127.346C82.1956 124.546 82.4938 122.049 83.0901 119.855C83.6864 117.661 84.5436 115.809 85.6617 114.297C86.7798 112.774 88.1268 111.613 89.7028 110.814C91.2894 110.016 93.0624 109.616 95.0217 109.616C97.0769 109.616 98.8978 110.021 100.484 110.83C102.082 111.64 103.37 112.747 104.35 114.153C105.329 115.548 105.936 117.124 106.171 118.881H100.341C100.042 117.624 99.4302 116.623 98.5038 115.878C97.588 115.122 96.4273 114.744 95.0217 114.744C92.7536 114.744 91.0072 115.729 89.7827 117.699C88.5687 119.669 87.9564 122.373 87.9458 125.813H88.1694C88.6912 124.876 89.3674 124.072 90.1979 123.401C91.0285 122.73 91.9656 122.214 93.0091 121.852C94.0633 121.479 95.1761 121.293 96.3474 121.293C98.2642 121.293 99.9839 121.75 101.507 122.666C103.04 123.582 104.254 124.844 105.148 126.452C106.043 128.049 106.485 129.881 106.474 131.946C106.485 134.097 105.995 136.03 105.005 137.744C104.014 139.448 102.635 140.79 100.868 141.77C99.1001 142.749 97.0396 143.234 94.6863 143.223ZM94.6543 138.431C95.815 138.431 96.8532 138.149 97.769 137.585C98.6848 137.02 99.4089 136.259 99.9413 135.301C100.474 134.342 100.735 133.267 100.724 132.074C100.735 130.903 100.479 129.843 99.9573 128.896C99.4462 127.948 98.738 127.197 97.8329 126.643C96.9278 126.09 95.8949 125.813 94.7342 125.813C93.8717 125.813 93.0677 125.978 92.3223 126.308C91.5769 126.638 90.9274 127.096 90.3736 127.682C89.8199 128.257 89.3833 128.928 89.0639 129.694C88.7551 130.45 88.5953 131.26 88.5847 132.122C88.5953 133.261 88.8616 134.31 89.3833 135.269C89.9051 136.227 90.6239 136.994 91.5397 137.569C92.4554 138.144 93.4936 138.431 94.6543 138.431Z" fill="#1F2F56"/>
<rect x="197.417" y="53.7007" width="96.3009" height="96.3009" rx="48.1505" fill="url(#paint0_linear_110_18931)"/>
<path d="M260.157 93.794C258.792 92.2853 256.513 91.5309 253.207 91.5309H252.822V91.4667C252.822 88.7703 252.822 85.4319 246.787 85.4319H244.347C238.312 85.4319 238.312 88.7864 238.312 91.4667V91.547H237.927C234.605 91.547 232.342 92.3014 230.977 93.8101C229.388 95.5756 229.437 97.951 229.597 99.5721L229.613 99.6844L229.737 100.99C229.76 101.23 229.89 101.447 230.092 101.58C230.477 101.831 231.121 102.247 231.507 102.461C231.732 102.606 231.973 102.734 232.213 102.862C234.958 104.371 237.975 105.382 241.041 105.88C241.185 107.388 241.843 109.154 245.358 109.154C248.873 109.154 249.563 107.405 249.676 105.848C252.95 105.318 256.112 104.178 258.969 102.509C259.065 102.461 259.129 102.413 259.21 102.365C259.846 102.005 260.507 101.561 261.109 101.127C261.29 100.996 261.406 100.794 261.431 100.572L261.457 100.342L261.537 99.5881C261.553 99.4918 261.553 99.4116 261.569 99.2992C261.697 97.6782 261.665 95.4632 260.157 93.794ZM247.316 104.788C247.316 106.49 247.316 106.746 245.342 106.746C243.368 106.746 243.368 106.442 243.368 104.804V102.782H247.316V104.788ZM240.607 91.4667C240.607 88.7382 240.607 87.7271 244.347 87.7271H246.787C250.526 87.7271 250.526 88.7543 250.526 91.4667V91.547H240.607V91.4667Z" fill="#6494E4"/>
<path d="M259.809 104.635C260.377 104.365 261.03 104.814 260.973 105.44L260.397 111.786C260.06 114.996 258.744 118.271 251.682 118.271H239.452C232.39 118.271 231.074 114.996 230.737 111.802L230.19 105.787C230.134 105.168 230.772 104.719 231.338 104.975C233.167 105.802 236.543 107.27 238.628 107.817C238.892 107.886 239.105 108.074 239.22 108.321C240.195 110.405 242.307 111.513 245.358 111.513C248.379 111.513 250.519 110.362 251.496 108.273C251.612 108.026 251.825 107.838 252.089 107.768C254.303 107.186 257.896 105.545 259.809 104.635Z" fill="#6494E4"/>
<defs>
<linearGradient id="paint0_linear_110_18931" x1="245.568" y1="53.7007" x2="245.568" y2="150.002" gradientUnits="userSpaceOnUse">
<stop stop-color="#6494E4" stop-opacity="0.5"/>
<stop offset="1" stop-color="white" stop-opacity="0"/>
</linearGradient>
</defs>
</svg>
