<svg width="323" height="185" viewBox="0 0 323 185" fill="none" xmlns="http://www.w3.org/2000/svg">
<rect x="0.601881" y="1.12678" width="321.404" height="183.116" rx="13.8433" fill="white"/>
<rect x="0.601881" y="1.12678" width="321.404" height="183.116" rx="13.8433" stroke="#EAEEF4" stroke-width="1.20376"/>
<path d="M37.4277 55.6318C36.3299 55.6318 35.3115 55.4368 34.3726 55.0468C33.4481 54.6423 32.6391 54.0862 31.9458 53.3784C31.2524 52.6561 30.7179 51.8255 30.3424 50.8866C29.9668 49.9332 29.779 48.9148 29.779 47.8315C29.779 46.7481 29.9668 45.7369 30.3424 44.798C30.7179 43.8446 31.2524 43.014 31.9458 42.3062C32.6391 41.5984 33.4481 41.0422 34.3726 40.6378C35.3115 40.2333 36.3299 40.0311 37.4277 40.0311C38.6555 40.0311 39.7173 40.2333 40.6129 40.6378C41.5085 41.0422 42.3029 41.5912 42.9963 42.2845L41.3062 43.9746C40.8584 43.4835 40.3095 43.1007 39.6595 42.8262C39.0239 42.5518 38.28 42.4145 37.4277 42.4145C36.6766 42.4145 35.9904 42.5445 35.3693 42.8046C34.7481 43.0646 34.2064 43.4401 33.7442 43.9313C33.2964 44.408 32.9497 44.9785 32.7041 45.643C32.4586 46.3075 32.3358 47.037 32.3358 47.8315C32.3358 48.6259 32.4586 49.3554 32.7041 50.0199C32.9497 50.6844 33.2964 51.2622 33.7442 51.7533C34.2064 52.23 34.7481 52.5984 35.3693 52.8584C35.9904 53.1184 36.6766 53.2484 37.4277 53.2484C38.3522 53.2484 39.1322 53.1112 39.7678 52.8367C40.4178 52.5478 40.9668 52.1578 41.4146 51.6666L43.1046 53.3567C42.4113 54.0645 41.5951 54.6207 40.6562 55.0251C39.7173 55.4296 38.6411 55.6318 37.4277 55.6318ZM49.2716 55.6318C48.3905 55.6318 47.6032 55.4368 46.9099 55.0468C46.2309 54.6568 45.6965 54.1223 45.3065 53.4434C44.9309 52.75 44.7431 51.9555 44.7431 51.06V45.0147H47.1265V50.9516C47.1265 51.4572 47.206 51.8905 47.3649 52.2517C47.5382 52.5984 47.7838 52.8656 48.1016 53.0534C48.4338 53.2412 48.8238 53.3351 49.2716 53.3351C49.965 53.3351 50.4923 53.1328 50.8534 52.7284C51.229 52.3095 51.4168 51.7172 51.4168 50.9516V45.0147H53.8002V51.06C53.8002 51.97 53.6052 52.7717 53.2152 53.4651C52.8396 54.144 52.3123 54.6785 51.6334 55.0685C50.9545 55.4441 50.1672 55.6318 49.2716 55.6318ZM59.5985 55.6318C59.0207 55.6318 58.4646 55.5596 57.9301 55.4152C57.3956 55.2563 56.9045 55.0396 56.4567 54.7651C56.0089 54.4762 55.6189 54.1295 55.2866 53.7251L56.8034 52.2083C57.1645 52.6272 57.5762 52.945 58.0384 53.1617C58.5151 53.364 59.0496 53.4651 59.6418 53.4651C60.1763 53.4651 60.5808 53.3856 60.8552 53.2267C61.1297 53.0678 61.2669 52.8367 61.2669 52.5334C61.2669 52.2156 61.1369 51.97 60.8769 51.7967C60.6169 51.6233 60.2774 51.4789 59.8585 51.3633C59.4541 51.2333 59.0207 51.1033 58.5585 50.9733C58.1107 50.8433 57.6773 50.6699 57.2584 50.4533C56.8539 50.2221 56.5217 49.9116 56.2617 49.5215C56.0017 49.1315 55.8717 48.6259 55.8717 48.0048C55.8717 47.3403 56.0233 46.7697 56.3267 46.2931C56.6445 45.8164 57.0851 45.448 57.6484 45.188C58.2262 44.928 58.9124 44.798 59.7069 44.798C60.5447 44.798 61.2814 44.9497 61.917 45.253C62.567 45.5419 63.1087 45.9825 63.542 46.5747L62.0253 48.0915C61.7219 47.7159 61.3753 47.4342 60.9852 47.2464C60.5952 47.0586 60.1474 46.9648 59.6418 46.9648C59.1652 46.9648 58.7968 47.037 58.5368 47.1814C58.2768 47.3259 58.1468 47.5353 58.1468 47.8098C58.1468 48.0987 58.2768 48.3226 58.5368 48.4815C58.7968 48.6404 59.129 48.7776 59.5335 48.8932C59.9524 49.0087 60.3858 49.1387 60.8336 49.2832C61.2958 49.4132 61.7292 49.601 62.1336 49.8466C62.5525 50.0777 62.892 50.3955 63.152 50.7999C63.412 51.19 63.542 51.7028 63.542 52.3383C63.542 53.3495 63.1881 54.1512 62.4803 54.7435C61.7725 55.3357 60.8119 55.6318 59.5985 55.6318ZM67.0888 55.4152V40.6811H69.4722V55.4152H67.0888ZM64.597 47.1814V45.0147H71.964V47.1814H64.597ZM78.1666 55.6318C77.1554 55.6318 76.2381 55.3935 75.4148 54.9168C74.5914 54.4257 73.9341 53.7684 73.443 52.945C72.9663 52.1217 72.728 51.2044 72.728 50.1932C72.728 49.1821 72.9663 48.272 73.443 47.4631C73.9341 46.6542 74.5914 46.0114 75.4148 45.5347C76.2381 45.0435 77.1554 44.798 78.1666 44.798C79.1922 44.798 80.1167 45.0363 80.94 45.513C81.7634 45.9897 82.4134 46.6397 82.8901 47.4631C83.3813 48.272 83.6268 49.1821 83.6268 50.1932C83.6268 51.2044 83.3813 52.1217 82.8901 52.945C82.4134 53.7684 81.7634 54.4257 80.94 54.9168C80.1167 55.3935 79.1922 55.6318 78.1666 55.6318ZM78.1666 53.3351C78.7588 53.3351 79.2788 53.2051 79.7266 52.945C80.1889 52.6706 80.5428 52.295 80.7884 51.8183C81.0484 51.3416 81.1784 50.7999 81.1784 50.1932C81.1784 49.5865 81.0484 49.0521 80.7884 48.5898C80.5283 48.1276 80.1744 47.7665 79.7266 47.5064C79.2788 47.232 78.7588 47.0948 78.1666 47.0948C77.5888 47.0948 77.0687 47.232 76.6065 47.5064C76.1587 47.7665 75.8048 48.1276 75.5448 48.5898C75.2992 49.0521 75.1764 49.5865 75.1764 50.1932C75.1764 50.7999 75.2992 51.3416 75.5448 51.8183C75.8048 52.295 76.1587 52.6706 76.6065 52.945C77.0687 53.2051 77.5888 53.3351 78.1666 53.3351ZM85.6089 55.4152V45.0147H87.9924V55.4152H85.6089ZM92.5209 55.4152V49.2182C92.5209 48.5248 92.3042 47.9904 91.8709 47.6148C91.4375 47.2248 90.9031 47.0298 90.2675 47.0298C89.8341 47.0298 89.4441 47.1164 89.0974 47.2898C88.7652 47.4631 88.4979 47.7159 88.2957 48.0481C88.0935 48.3659 87.9924 48.756 87.9924 49.2182L87.0606 48.6982C87.0606 47.9037 87.234 47.2175 87.5807 46.6397C87.9274 46.0619 88.3968 45.6141 88.9891 45.2963C89.5813 44.9641 90.2458 44.798 90.9825 44.798C91.7192 44.798 92.3837 44.9569 92.9759 45.2747C93.5682 45.5925 94.0376 46.0403 94.3843 46.6181C94.731 47.1959 94.9044 47.8892 94.9044 48.6982V55.4152H92.5209ZM99.4329 55.4152V49.2182C99.4329 48.5248 99.2162 47.9904 98.7829 47.6148C98.3495 47.2248 97.8151 47.0298 97.1795 47.0298C96.7606 47.0298 96.3778 47.1164 96.0311 47.2898C95.6844 47.4631 95.4099 47.7159 95.2077 48.0481C95.0055 48.3659 94.9044 48.756 94.9044 49.2182L93.561 48.6982C93.6332 47.9037 93.8643 47.2175 94.2543 46.6397C94.6443 46.0619 95.1427 45.6141 95.7494 45.2963C96.3705 44.9641 97.0495 44.798 97.7862 44.798C98.5373 44.798 99.2162 44.9569 99.8229 45.2747C100.43 45.5925 100.914 46.0403 101.275 46.6181C101.636 47.1959 101.816 47.8892 101.816 48.6982V55.4152H99.4329ZM109.104 55.6318C108.064 55.6318 107.125 55.4007 106.287 54.9385C105.464 54.4618 104.806 53.8118 104.315 52.9884C103.839 52.165 103.6 51.2405 103.6 50.2149C103.6 49.1893 103.839 48.272 104.315 47.4631C104.792 46.6397 105.435 45.9897 106.244 45.513C107.067 45.0363 107.977 44.798 108.974 44.798C109.942 44.798 110.794 45.0219 111.531 45.4697C112.282 45.9175 112.867 46.5314 113.286 47.3114C113.719 48.0915 113.936 48.9799 113.936 49.9766C113.936 50.1499 113.921 50.3305 113.892 50.5183C113.878 50.6916 113.849 50.8866 113.806 51.1033H105.269V49.1532H112.571L111.682 49.9332C111.653 49.2976 111.531 48.7632 111.314 48.3298C111.097 47.8965 110.787 47.5642 110.382 47.3331C109.992 47.102 109.508 46.9864 108.93 46.9864C108.324 46.9864 107.797 47.1164 107.349 47.3764C106.901 47.6365 106.554 48.0048 106.309 48.4815C106.063 48.9437 105.94 49.4999 105.94 50.1499C105.94 50.7999 106.07 51.3705 106.33 51.8617C106.59 52.3528 106.959 52.7356 107.435 53.01C107.912 53.2701 108.461 53.4001 109.082 53.4001C109.617 53.4001 110.108 53.3062 110.556 53.1184C111.018 52.9306 111.408 52.6561 111.726 52.295L113.242 53.8334C112.737 54.4257 112.123 54.8735 111.401 55.1768C110.678 55.4802 109.913 55.6318 109.104 55.6318ZM115.846 55.4152V45.0147H118.23V55.4152H115.846ZM118.23 49.6299L117.406 49.2182C117.406 47.9037 117.695 46.842 118.273 46.033C118.865 45.2097 119.754 44.798 120.938 44.798C121.458 44.798 121.928 44.8919 122.347 45.0797C122.766 45.2674 123.156 45.5708 123.517 45.9897L121.957 47.5931C121.769 47.3909 121.559 47.2464 121.328 47.1598C121.097 47.0731 120.83 47.0298 120.527 47.0298C119.862 47.0298 119.313 47.2392 118.88 47.6581C118.446 48.077 118.23 48.7343 118.23 49.6299ZM127.839 55.6318C127.261 55.6318 126.705 55.5596 126.171 55.4152C125.636 55.2563 125.145 55.0396 124.697 54.7651C124.249 54.4762 123.859 54.1295 123.527 53.7251L125.044 52.2083C125.405 52.6272 125.817 52.945 126.279 53.1617C126.756 53.364 127.29 53.4651 127.882 53.4651C128.417 53.4651 128.821 53.3856 129.096 53.2267C129.37 53.0678 129.508 52.8367 129.508 52.5334C129.508 52.2156 129.378 51.97 129.118 51.7967C128.857 51.6233 128.518 51.4789 128.099 51.3633C127.695 51.2333 127.261 51.1033 126.799 50.9733C126.351 50.8433 125.918 50.6699 125.499 50.4533C125.095 50.2221 124.762 49.9116 124.502 49.5215C124.242 49.1315 124.112 48.6259 124.112 48.0048C124.112 47.3403 124.264 46.7697 124.567 46.2931C124.885 45.8164 125.326 45.448 125.889 45.188C126.467 44.928 127.153 44.798 127.947 44.798C128.785 44.798 129.522 44.9497 130.158 45.253C130.808 45.5419 131.349 45.9825 131.783 46.5747L130.266 48.0915C129.963 47.7159 129.616 47.4342 129.226 47.2464C128.836 47.0586 128.388 46.9648 127.882 46.9648C127.406 46.9648 127.037 47.037 126.777 47.1814C126.517 47.3259 126.387 47.5353 126.387 47.8098C126.387 48.0987 126.517 48.3226 126.777 48.4815C127.037 48.6404 127.37 48.7776 127.774 48.8932C128.193 49.0087 128.626 49.1387 129.074 49.2832C129.536 49.4132 129.97 49.601 130.374 49.8466C130.793 50.0777 131.133 50.3955 131.393 50.7999C131.653 51.19 131.783 51.7028 131.783 52.3383C131.783 53.3495 131.429 54.1512 130.721 54.7435C130.013 55.3357 129.053 55.6318 127.839 55.6318Z" fill="#7E92A2"/>
<path d="M32.9956 142.566L46.9079 115.029V114.805H30.7594V109.854H53.0414V114.917L39.1451 142.566H32.9956ZM69.1659 143.013C66.7912 143.013 64.6828 142.614 62.8407 141.815C61.0091 141.016 59.5716 139.925 58.528 138.541C57.4951 137.146 56.984 135.564 56.9946 133.797C56.984 132.423 57.2821 131.161 57.8891 130.011C58.4961 128.861 59.316 127.903 60.3489 127.136C61.3925 126.359 62.5531 125.864 63.831 125.651V125.427C62.1485 125.054 60.7855 124.197 59.7419 122.855C58.709 121.503 58.1979 119.943 58.2086 118.175C58.1979 116.493 58.6665 114.991 59.6142 113.671C60.5619 112.351 61.861 111.312 63.5115 110.556C65.162 109.79 67.0468 109.406 69.1659 109.406C71.2636 109.406 73.1324 109.79 74.7723 110.556C76.4228 111.312 77.7219 112.351 78.6696 113.671C79.628 114.991 80.1072 116.493 80.1072 118.175C80.1072 119.943 79.5801 121.503 78.5259 122.855C77.4823 124.197 76.1353 125.054 74.4848 125.427V125.651C75.7626 125.864 76.9126 126.359 77.9349 127.136C78.9678 127.903 79.7877 128.861 80.3947 130.011C81.0123 131.161 81.3211 132.423 81.3211 133.797C81.3211 135.564 80.7993 137.146 79.7558 138.541C78.7122 139.925 77.2747 141.016 75.4431 141.815C73.6222 142.614 71.5298 143.013 69.1659 143.013ZM69.1659 138.445C70.3904 138.445 71.4553 138.237 72.3604 137.822C73.2655 137.396 73.9683 136.8 74.4688 136.033C74.9693 135.266 75.2248 134.382 75.2355 133.381C75.2248 132.338 74.9533 131.417 74.4209 130.618C73.8991 129.809 73.1803 129.175 72.2646 128.717C71.3594 128.259 70.3265 128.03 69.1659 128.03C67.9945 128.03 66.951 128.259 66.0352 128.717C65.1194 129.175 64.3953 129.809 63.8629 130.618C63.3411 131.417 63.0856 132.338 63.0962 133.381C63.0856 134.382 63.3305 135.266 63.831 136.033C64.3314 136.789 65.0342 137.38 65.9394 137.806C66.8551 138.232 67.9306 138.445 69.1659 138.445ZM69.1659 123.542C70.1668 123.542 71.0506 123.34 71.8173 122.935C72.5947 122.531 73.207 121.966 73.6542 121.242C74.1014 120.518 74.3304 119.682 74.341 118.734C74.3304 117.797 74.1068 116.977 73.6702 116.275C73.2336 115.561 72.6266 115.013 71.8493 114.629C71.0719 114.235 70.1775 114.038 69.1659 114.038C68.133 114.038 67.2225 114.235 66.4345 114.629C65.6572 115.013 65.0502 115.561 64.6136 116.275C64.1877 116.977 63.98 117.797 63.9907 118.734C63.98 119.682 64.193 120.518 64.6296 121.242C65.0768 121.956 65.6891 122.52 66.4665 122.935C67.2545 123.34 68.1542 123.542 69.1659 123.542Z" fill="#1F2F56"/>
<rect x="197.417" y="53.4904" width="96.3009" height="96.3009" rx="48.1505" fill="url(#paint0_linear_110_18925)"/>
<path d="M240.752 85.5906C236.547 85.5906 233.129 89.0093 233.129 93.2144C233.129 97.3393 236.355 100.678 240.56 100.822C240.688 100.806 240.817 100.806 240.913 100.822C240.945 100.822 240.961 100.822 240.993 100.822C241.009 100.822 241.009 100.822 241.025 100.822C245.134 100.678 248.36 97.3393 248.376 93.2144C248.376 89.0093 244.958 85.5906 240.752 85.5906Z" fill="#FF8000"/>
<path d="M248.906 105.092C244.428 102.106 237.125 102.106 232.615 105.092C230.577 106.456 229.453 108.302 229.453 110.276C229.453 112.25 230.577 114.08 232.599 115.428C234.846 116.937 237.799 117.691 240.752 117.691C243.706 117.691 246.659 116.937 248.906 115.428C250.928 114.064 252.052 112.234 252.052 110.244C252.036 108.269 250.928 106.44 248.906 105.092Z" fill="#FF8000"/>
<path d="M258.392 94.1614C258.648 97.2751 256.433 100.004 253.368 100.373C253.352 100.373 253.352 100.373 253.336 100.373H253.288C253.191 100.373 253.095 100.373 253.015 100.405C251.458 100.485 250.029 99.9876 248.954 99.0727C250.607 97.5961 251.554 95.3812 251.362 92.9736C251.249 91.6736 250.8 90.4859 250.126 89.4747C250.736 89.1698 251.442 88.9772 252.164 88.913C255.31 88.6401 258.119 90.9834 258.392 94.1614Z" fill="#FF8000"/>
<path d="M261.602 109.008C261.473 110.565 260.478 111.913 258.809 112.828C257.204 113.71 255.182 114.128 253.175 114.08C254.331 113.036 255.005 111.736 255.133 110.356C255.294 108.366 254.347 106.456 252.453 104.931C251.378 104.08 250.126 103.406 248.761 102.909C252.309 101.881 256.77 102.572 259.515 104.787C260.992 105.974 261.746 107.467 261.602 109.008Z" fill="#FF8000"/>
<defs>
<linearGradient id="paint0_linear_110_18925" x1="245.568" y1="53.4904" x2="245.568" y2="149.791" gradientUnits="userSpaceOnUse">
<stop stop-color="#FF8000" stop-opacity="0.5"/>
<stop offset="1" stop-color="white" stop-opacity="0"/>
</linearGradient>
</defs>
</svg>
