<svg width="626" height="398" viewBox="0 0 626 398" fill="none" xmlns="http://www.w3.org/2000/svg">
<rect x="1.10042" y="1.12678" width="623.436" height="395.596" rx="13.8433" fill="white"/>
<rect x="1.10042" y="1.12678" width="623.436" height="395.596" rx="13.8433" stroke="#EAEEF4" stroke-width="1.20376"/>
<path d="M26.3511 342.651L33.1644 325.726H35.8368L42.626 342.651H39.1351L33.8867 328.759H35.0904L29.7698 342.651H26.3511ZM29.9624 339.497V336.752H39.0629V339.497H29.9624ZM44.625 342.651V325.726H47.8992V342.651H44.625ZM47.0325 342.651V339.762H56.3978V342.651H47.0325ZM47.0325 335.404V332.612H55.5551V335.404H47.0325ZM47.0325 328.615V325.726H56.2774V328.615H47.0325ZM61.3467 342.651V339.738H65.6562C66.7476 339.738 67.7026 339.513 68.5212 339.064C69.3397 338.598 69.9737 337.948 70.4231 337.114C70.8886 336.279 71.1213 335.292 71.1213 334.152C71.1213 333.045 70.8886 332.082 70.4231 331.263C69.9577 330.429 69.3156 329.787 68.4971 329.337C67.6785 328.872 66.7316 328.639 65.6562 328.639H61.2745V325.726H65.7044C66.9563 325.726 68.1119 325.935 69.1712 326.352C70.2466 326.769 71.1775 327.363 71.9639 328.134C72.7664 328.888 73.3844 329.779 73.8177 330.806C74.2671 331.833 74.4918 332.957 74.4918 334.176C74.4918 335.396 74.2671 336.528 73.8177 337.571C73.3844 338.598 72.7745 339.497 71.988 340.267C71.2015 341.022 70.2706 341.608 69.1953 342.025C68.136 342.442 66.9884 342.651 65.7525 342.651H61.3467ZM59.1077 342.651V325.726H62.382V342.651H59.1077ZM83.9385 342.651V325.726H87.1646V342.651H83.9385ZM80.6161 328.567V325.726H86.9239V328.567H80.6161ZM96.8955 342.892C95.5634 342.892 94.3596 342.531 93.2842 341.808C92.2089 341.086 91.3502 340.067 90.7082 338.751C90.0822 337.435 89.7692 335.902 89.7692 334.152C89.7692 332.403 90.0822 330.878 90.7082 329.578C91.3341 328.278 92.1768 327.267 93.2361 326.545C94.3114 325.822 95.5072 325.461 96.8233 325.461C98.1715 325.461 99.3753 325.822 100.435 326.545C101.51 327.267 102.361 328.286 102.987 329.602C103.613 330.902 103.925 332.435 103.925 334.2C103.925 335.95 103.613 337.483 102.987 338.799C102.361 340.099 101.518 341.11 100.459 341.832C99.3993 342.539 98.2116 342.892 96.8955 342.892ZM96.8474 339.93C97.6178 339.93 98.2839 339.714 98.8456 339.28C99.4074 338.847 99.8407 338.205 100.146 337.354C100.467 336.504 100.627 335.444 100.627 334.176C100.627 332.908 100.467 331.849 100.146 330.998C99.8407 330.148 99.3993 329.514 98.8215 329.097C98.2598 328.663 97.5937 328.446 96.8233 328.446C96.0689 328.446 95.4109 328.663 94.8491 329.097C94.2874 329.514 93.846 330.148 93.525 330.998C93.22 331.833 93.0676 332.884 93.0676 334.152C93.0676 335.436 93.22 336.504 93.525 337.354C93.846 338.205 94.2874 338.847 94.8491 339.28C95.4109 339.714 96.077 339.93 96.8474 339.93ZM111.489 342.892C110.285 342.892 109.242 342.683 108.359 342.266C107.492 341.848 106.81 341.263 106.313 340.508C105.831 339.754 105.59 338.903 105.59 337.956C105.59 337.17 105.743 336.456 106.048 335.814C106.353 335.172 106.786 334.634 107.348 334.2C107.926 333.751 108.6 333.438 109.37 333.262L109.298 334.056C108.656 333.896 108.11 333.615 107.661 333.213C107.212 332.812 106.874 332.339 106.65 331.793C106.425 331.231 106.313 330.653 106.313 330.06C106.313 329.145 106.529 328.342 106.963 327.652C107.412 326.962 108.022 326.424 108.792 326.039C109.579 325.654 110.478 325.461 111.489 325.461C112.5 325.461 113.391 325.654 114.161 326.039C114.932 326.424 115.534 326.962 115.967 327.652C116.416 328.342 116.641 329.145 116.641 330.06C116.641 330.653 116.529 331.231 116.304 331.793C116.079 332.339 115.742 332.812 115.293 333.213C114.859 333.615 114.314 333.896 113.656 334.056L113.583 333.262C114.37 333.438 115.044 333.751 115.606 334.2C116.167 334.634 116.601 335.172 116.906 335.814C117.211 336.456 117.363 337.17 117.363 337.956C117.363 338.903 117.122 339.754 116.641 340.508C116.159 341.263 115.477 341.848 114.595 342.266C113.712 342.683 112.677 342.892 111.489 342.892ZM111.489 340.027C112.019 340.027 112.492 339.922 112.909 339.714C113.327 339.489 113.648 339.184 113.872 338.799C114.113 338.414 114.233 337.98 114.233 337.499C114.233 337.001 114.113 336.568 113.872 336.199C113.648 335.814 113.327 335.517 112.909 335.308C112.492 335.083 112.019 334.971 111.489 334.971C110.943 334.971 110.462 335.083 110.044 335.308C109.643 335.517 109.322 335.814 109.081 336.199C108.841 336.568 108.72 337.001 108.72 337.499C108.72 337.98 108.841 338.414 109.081 338.799C109.322 339.184 109.643 339.489 110.044 339.714C110.462 339.922 110.943 340.027 111.489 340.027ZM111.489 332.491C112.115 332.491 112.628 332.291 113.03 331.889C113.431 331.488 113.632 330.974 113.632 330.348C113.632 329.706 113.431 329.185 113.03 328.784C112.628 328.382 112.115 328.182 111.489 328.182C110.863 328.182 110.341 328.382 109.924 328.784C109.523 329.185 109.322 329.698 109.322 330.324C109.322 330.966 109.523 331.488 109.924 331.889C110.341 332.291 110.863 332.491 111.489 332.491ZM119.522 345.516L121.232 342.338L122.219 342.073C122.107 342.282 121.978 342.458 121.834 342.603C121.689 342.747 121.521 342.819 121.328 342.819C120.927 342.819 120.55 342.643 120.197 342.29C119.843 341.937 119.667 341.495 119.667 340.966C119.667 340.388 119.86 339.898 120.245 339.497C120.63 339.096 121.111 338.895 121.689 338.895C122.219 338.895 122.684 339.096 123.086 339.497C123.487 339.898 123.687 340.388 123.687 340.966C123.687 341.19 123.639 341.463 123.543 341.784C123.447 342.089 123.27 342.482 123.013 342.964L121.16 346.383L119.522 345.516ZM130.917 342.892C129.745 342.892 128.678 342.691 127.715 342.29C126.752 341.872 125.949 341.279 125.307 340.508L127.474 338.365C127.795 338.847 128.252 339.232 128.846 339.521C129.456 339.81 130.122 339.954 130.844 339.954C131.502 339.954 132.072 339.834 132.554 339.593C133.051 339.353 133.437 339.016 133.709 338.582C133.998 338.133 134.143 337.611 134.143 337.017C134.143 336.391 133.998 335.862 133.709 335.428C133.437 334.995 133.067 334.666 132.602 334.441C132.136 334.217 131.615 334.104 131.037 334.104C130.427 334.104 129.873 334.184 129.376 334.345C128.894 334.489 128.429 334.73 127.979 335.067L128.172 332.997C128.477 332.676 128.798 332.419 129.135 332.226C129.472 332.018 129.849 331.865 130.267 331.769C130.7 331.657 131.206 331.6 131.783 331.6C133.019 331.6 134.046 331.857 134.865 332.371C135.7 332.868 136.334 333.542 136.767 334.393C137.2 335.228 137.417 336.151 137.417 337.162C137.417 338.269 137.144 339.256 136.598 340.123C136.053 340.99 135.29 341.672 134.311 342.169C133.348 342.651 132.217 342.892 130.917 342.892ZM127.979 335.067L126.415 333.526L127.185 325.726H130.146L129.28 333.647L127.979 335.067ZM127.691 328.567L127.185 325.726H136.478V328.567H127.691ZM138.831 340.773L145.211 334.104C145.66 333.623 146.021 333.197 146.294 332.828C146.583 332.443 146.792 332.082 146.92 331.745C147.049 331.392 147.113 331.039 147.113 330.685C147.113 329.979 146.88 329.426 146.415 329.024C145.965 328.623 145.379 328.422 144.657 328.422C143.919 328.422 143.261 328.615 142.683 329C142.121 329.385 141.592 329.995 141.094 330.83L138.855 328.928C139.529 327.788 140.364 326.93 141.359 326.352C142.37 325.758 143.526 325.461 144.826 325.461C145.933 325.461 146.896 325.678 147.715 326.111C148.549 326.545 149.191 327.146 149.641 327.917C150.09 328.687 150.315 329.586 150.315 330.613C150.315 331.303 150.227 331.929 150.05 332.491C149.89 333.053 149.609 333.615 149.207 334.176C148.822 334.722 148.285 335.34 147.594 336.03L142.948 340.773H138.831ZM138.831 342.651V340.773L141.624 339.81H150.676V342.651H138.831ZM159.505 342.892C158.173 342.892 156.969 342.531 155.894 341.808C154.819 341.086 153.96 340.067 153.318 338.751C152.692 337.435 152.379 335.902 152.379 334.152C152.379 332.403 152.692 330.878 153.318 329.578C153.944 328.278 154.786 327.267 155.846 326.545C156.921 325.822 158.117 325.461 159.433 325.461C160.781 325.461 161.985 325.822 163.044 326.545C164.12 327.267 164.97 328.286 165.596 329.602C166.222 330.902 166.535 332.435 166.535 334.2C166.535 335.95 166.222 337.483 165.596 338.799C164.97 340.099 164.128 341.11 163.068 341.832C162.009 342.539 160.821 342.892 159.505 342.892ZM159.457 339.93C160.227 339.93 160.894 339.714 161.455 339.28C162.017 338.847 162.45 338.205 162.755 337.354C163.076 336.504 163.237 335.444 163.237 334.176C163.237 332.908 163.076 331.849 162.755 330.998C162.45 330.148 162.009 329.514 161.431 329.097C160.869 328.663 160.203 328.446 159.433 328.446C158.679 328.446 158.021 328.663 157.459 329.097C156.897 329.514 156.456 330.148 156.135 330.998C155.83 331.833 155.677 332.884 155.677 334.152C155.677 335.436 155.83 336.504 156.135 337.354C156.456 338.205 156.897 338.847 157.459 339.28C158.021 339.714 158.687 339.93 159.457 339.93ZM170.452 342.892C169.874 342.892 169.4 342.699 169.031 342.314C168.662 341.929 168.477 341.455 168.477 340.893C168.477 340.332 168.662 339.858 169.031 339.473C169.4 339.088 169.874 338.895 170.452 338.895C171.013 338.895 171.479 339.088 171.848 339.473C172.217 339.858 172.402 340.332 172.402 340.893C172.402 341.455 172.217 341.929 171.848 342.314C171.479 342.699 171.013 342.892 170.452 342.892ZM174.05 336.68L179.828 325.726H183.439L177.517 336.68H174.05ZM174.05 338.606V336.68L175.254 335.741H187.388V338.606H174.05ZM182.043 342.651V331.865H185.269V342.651H182.043ZM195.971 342.892C194.639 342.892 193.435 342.531 192.359 341.808C191.284 341.086 190.425 340.067 189.783 338.751C189.157 337.435 188.844 335.902 188.844 334.152C188.844 332.403 189.157 330.878 189.783 329.578C190.409 328.278 191.252 327.267 192.311 326.545C193.387 325.822 194.582 325.461 195.899 325.461C197.247 325.461 198.45 325.822 199.51 326.545C200.585 327.267 201.436 328.286 202.062 329.602C202.688 330.902 203.001 332.435 203.001 334.2C203.001 335.95 202.688 337.483 202.062 338.799C201.436 340.099 200.593 341.11 199.534 341.832C198.475 342.539 197.287 342.892 195.971 342.892ZM195.923 339.93C196.693 339.93 197.359 339.714 197.921 339.28C198.483 338.847 198.916 338.205 199.221 337.354C199.542 336.504 199.702 335.444 199.702 334.176C199.702 332.908 199.542 331.849 199.221 330.998C198.916 330.148 198.475 329.514 197.897 329.097C197.335 328.663 196.669 328.446 195.899 328.446C195.144 328.446 194.486 328.663 193.924 329.097C193.363 329.514 192.921 330.148 192.6 330.998C192.295 331.833 192.143 332.884 192.143 334.152C192.143 335.436 192.295 336.504 192.6 337.354C192.921 338.205 193.363 338.847 193.924 339.28C194.486 339.714 195.152 339.93 195.923 339.93Z" fill="#1F2F56"/>
<path d="M26.7912 367.67V358.671H28.532V367.67H26.7912ZM28.0712 367.67V366.121H32.6536V367.67H28.0712ZM36.1476 367.798C35.5844 367.798 35.0767 367.657 34.6244 367.375C34.1722 367.094 33.818 366.71 33.562 366.223C33.306 365.737 33.178 365.191 33.178 364.585C33.178 363.97 33.306 363.42 33.562 362.934C33.818 362.447 34.1722 362.063 34.6244 361.782C35.0767 361.5 35.5844 361.359 36.1476 361.359C36.5914 361.359 36.9882 361.449 37.338 361.628C37.6879 361.807 37.9652 362.059 38.17 362.383C38.3834 362.699 38.4986 363.057 38.5156 363.458V365.686C38.4986 366.095 38.3834 366.458 38.17 366.774C37.9652 367.089 37.6879 367.341 37.338 367.529C36.9882 367.708 36.5914 367.798 36.1476 367.798ZM36.4548 366.249C36.9242 366.249 37.3039 366.095 37.594 365.788C37.8842 365.472 38.0292 365.067 38.0292 364.572C38.0292 364.248 37.961 363.962 37.8244 363.714C37.6964 363.458 37.513 363.262 37.274 363.126C37.0436 362.981 36.7706 362.908 36.4548 362.908C36.1476 362.908 35.8746 362.981 35.6356 363.126C35.4052 363.262 35.2218 363.458 35.0852 363.714C34.9572 363.962 34.8932 364.248 34.8932 364.572C34.8932 364.905 34.9572 365.199 35.0852 365.455C35.2218 365.703 35.4052 365.899 35.6356 366.044C35.8746 366.181 36.1476 366.249 36.4548 366.249ZM37.9396 367.67V366.006L38.2084 364.495L37.9396 363.01V361.487H39.6036V367.67H37.9396ZM43.2118 367.81C42.862 367.81 42.5164 367.764 42.175 367.67C41.8422 367.576 41.535 367.448 41.2534 367.286C40.9718 367.115 40.7286 366.91 40.5238 366.671L41.5222 365.66C41.7356 365.899 41.983 366.078 42.2646 366.198C42.5462 366.317 42.8577 366.377 43.199 366.377C43.4721 366.377 43.6769 366.338 43.8134 366.262C43.9585 366.185 44.031 366.07 44.031 365.916C44.031 365.745 43.9542 365.613 43.8006 365.519C43.6556 365.425 43.4636 365.349 43.2246 365.289C42.9857 365.221 42.734 365.148 42.4694 365.071C42.2134 364.986 41.966 364.879 41.727 364.751C41.4881 364.615 41.2918 364.431 41.1382 364.201C40.9932 363.962 40.9206 363.655 40.9206 363.279C40.9206 362.887 41.0145 362.545 41.2022 362.255C41.3985 361.965 41.6758 361.739 42.0342 361.577C42.3926 361.415 42.815 361.334 43.3014 361.334C43.8134 361.334 44.2742 361.423 44.6838 361.602C45.102 361.782 45.4476 362.05 45.7206 362.409L44.7094 363.42C44.5217 363.19 44.3084 363.023 44.0694 362.921C43.839 362.818 43.5873 362.767 43.3142 362.767C43.0668 362.767 42.8748 362.806 42.7382 362.882C42.6102 362.959 42.5462 363.066 42.5462 363.202C42.5462 363.356 42.6188 363.476 42.7638 363.561C42.9174 363.646 43.1137 363.723 43.3526 363.791C43.5916 363.851 43.839 363.924 44.095 364.009C44.3596 364.086 44.607 364.197 44.8374 364.342C45.0764 364.487 45.2684 364.679 45.4134 364.918C45.567 365.157 45.6438 365.464 45.6438 365.839C45.6438 366.445 45.4262 366.927 44.991 367.286C44.5558 367.636 43.9628 367.81 43.2118 367.81ZM47.6833 367.67V358.914H49.3601V367.67H47.6833ZM46.2369 362.959V361.487H50.8065V362.959H46.2369ZM56.8566 364.201L53.375 358.671H55.3846L58.0854 363.1H56.9334L59.6342 358.671H61.6182L58.0982 364.201H56.8566ZM56.6262 367.67V363.266H58.3798V367.67H56.6262ZM63.6813 367.798C63.0328 367.798 62.4568 367.661 61.9533 367.388C61.4499 367.106 61.0488 366.722 60.7501 366.236C60.46 365.75 60.3149 365.195 60.3149 364.572C60.3149 363.958 60.4557 363.412 60.7373 362.934C61.0275 362.447 61.42 362.063 61.9149 361.782C62.4099 361.492 62.9603 361.346 63.5661 361.346C64.1635 361.346 64.6883 361.483 65.1405 361.756C65.6013 362.021 65.9597 362.388 66.2157 362.857C66.4803 363.318 66.6125 363.842 66.6125 364.431C66.6125 364.542 66.604 364.657 66.5869 364.777C66.5784 364.888 66.5571 365.016 66.5229 365.161L61.3261 365.174V363.919L65.7421 363.906L65.0637 364.431C65.0467 364.064 64.9784 363.757 64.8589 363.51C64.748 363.262 64.5816 363.074 64.3597 362.946C64.1464 362.81 63.8819 362.742 63.5661 362.742C63.2333 362.742 62.9432 362.818 62.6957 362.972C62.4483 363.117 62.2563 363.326 62.1197 363.599C61.9917 363.864 61.9277 364.18 61.9277 364.546C61.9277 364.922 61.996 365.25 62.1325 365.532C62.2776 365.805 62.4824 366.018 62.7469 366.172C63.0115 366.317 63.3187 366.39 63.6685 366.39C63.9843 366.39 64.2701 366.338 64.5261 366.236C64.7821 366.125 65.004 365.963 65.1917 365.75L66.1773 366.735C65.8787 367.085 65.5117 367.35 65.0765 367.529C64.6499 367.708 64.1848 367.798 63.6813 367.798ZM70.2351 367.798C69.6719 367.798 69.1642 367.657 68.7119 367.375C68.2597 367.094 67.9055 366.71 67.6495 366.223C67.3935 365.737 67.2655 365.191 67.2655 364.585C67.2655 363.97 67.3935 363.42 67.6495 362.934C67.9055 362.447 68.2597 362.063 68.7119 361.782C69.1642 361.5 69.6719 361.359 70.2351 361.359C70.6789 361.359 71.0757 361.449 71.4255 361.628C71.7754 361.807 72.0527 362.059 72.2575 362.383C72.4709 362.699 72.5861 363.057 72.6031 363.458V365.686C72.5861 366.095 72.4709 366.458 72.2575 366.774C72.0527 367.089 71.7754 367.341 71.4255 367.529C71.0757 367.708 70.6789 367.798 70.2351 367.798ZM70.5423 366.249C71.0117 366.249 71.3914 366.095 71.6815 365.788C71.9717 365.472 72.1167 365.067 72.1167 364.572C72.1167 364.248 72.0485 363.962 71.9119 363.714C71.7839 363.458 71.6005 363.262 71.3615 363.126C71.1311 362.981 70.8581 362.908 70.5423 362.908C70.2351 362.908 69.9621 362.981 69.7231 363.126C69.4927 363.262 69.3093 363.458 69.1727 363.714C69.0447 363.962 68.9807 364.248 68.9807 364.572C68.9807 364.905 69.0447 365.199 69.1727 365.455C69.3093 365.703 69.4927 365.899 69.7231 366.044C69.9621 366.181 70.2351 366.249 70.5423 366.249ZM72.0271 367.67V366.006L72.2959 364.495L72.0271 363.01V361.487H73.6911V367.67H72.0271ZM75.1745 367.67V361.487H76.8513V367.67H75.1745ZM76.8513 364.252L76.1985 363.817C76.2753 363.057 76.4972 362.46 76.8641 362.025C77.2311 361.581 77.7601 361.359 78.4513 361.359C78.75 361.359 79.0188 361.41 79.2577 361.513C79.4967 361.607 79.7143 361.765 79.9105 361.986L78.8609 363.19C78.7671 363.087 78.6519 363.01 78.5153 362.959C78.3873 362.908 78.238 362.882 78.0673 362.882C77.7089 362.882 77.4145 362.998 77.1841 363.228C76.9623 363.45 76.8513 363.791 76.8513 364.252Z" fill="#727B93"/>
<path d="M87.9544 367.17H85.971L88.9932 358.415H91.3785L94.3965 367.17H92.413L90.2201 360.416H90.1517L87.9544 367.17ZM87.8305 363.729H92.5156V365.173H87.8305V363.729ZM95.4502 367.17V358.415H101.349V359.941H97.3011V362.027H101.046V363.553H97.3011V365.644H101.366V367.17H95.4502ZM105.924 367.17H102.821V358.415H105.95C106.831 358.415 107.589 358.59 108.224 358.941C108.86 359.289 109.348 359.789 109.69 360.441C110.035 361.094 110.208 361.875 110.208 362.784C110.208 363.696 110.035 364.479 109.69 365.135C109.348 365.79 108.857 366.293 108.216 366.644C107.577 366.994 106.813 367.17 105.924 367.17ZM104.672 365.584H105.847C106.395 365.584 106.855 365.487 107.228 365.293C107.604 365.096 107.886 364.793 108.074 364.383C108.265 363.969 108.361 363.436 108.361 362.784C108.361 362.137 108.265 361.608 108.074 361.198C107.886 360.788 107.606 360.485 107.232 360.292C106.859 360.098 106.399 360.001 105.852 360.001H104.672V365.584ZM114.181 365.631V364.173L117.836 358.415H119.093V360.433H118.349L116.045 364.079V364.147H121.239V365.631H114.181ZM118.383 367.17V365.186L118.417 364.541V358.415H120.153V367.17H118.383ZM122.818 367.17L126.447 359.988V359.928H122.22V358.415H128.362V359.95L124.729 367.17H122.818ZM130.122 365.973L130.075 366.443C130.038 366.819 129.967 367.194 129.862 367.567C129.759 367.943 129.651 368.284 129.537 368.589C129.426 368.894 129.336 369.133 129.267 369.307H128.088C128.13 369.139 128.189 368.904 128.263 368.602C128.337 368.302 128.407 367.966 128.472 367.593C128.538 367.22 128.579 366.839 128.596 366.452L128.618 365.973H130.122ZM137.313 358.295C137.763 358.295 138.196 358.371 138.612 358.522C139.031 358.673 139.404 358.914 139.732 359.244C140.063 359.575 140.323 360.014 140.514 360.561C140.708 361.105 140.806 361.774 140.809 362.566C140.809 363.31 140.725 363.974 140.557 364.558C140.392 365.139 140.154 365.634 139.843 366.041C139.533 366.449 139.158 366.759 138.719 366.973C138.28 367.184 137.79 367.289 137.248 367.289C136.664 367.289 136.148 367.177 135.701 366.952C135.254 366.724 134.893 366.414 134.619 366.024C134.349 365.631 134.185 365.189 134.128 364.699H135.953C136.024 365.018 136.174 365.266 136.402 365.443C136.63 365.617 136.912 365.703 137.248 365.703C137.818 365.703 138.252 365.456 138.548 364.96C138.844 364.461 138.994 363.778 138.997 362.912H138.937C138.806 363.169 138.629 363.389 138.407 363.575C138.185 363.757 137.93 363.898 137.642 363.998C137.357 364.098 137.053 364.147 136.731 364.147C136.215 364.147 135.755 364.026 135.35 363.784C134.946 363.542 134.627 363.208 134.393 362.784C134.159 362.359 134.042 361.875 134.042 361.33C134.04 360.743 134.175 360.22 134.448 359.762C134.722 359.303 135.104 358.944 135.594 358.684C136.087 358.422 136.66 358.293 137.313 358.295ZM137.325 359.749C137.038 359.749 136.781 359.817 136.556 359.954C136.334 360.091 136.157 360.275 136.026 360.505C135.898 360.736 135.835 360.994 135.838 361.279C135.838 361.567 135.9 361.826 136.026 362.057C136.154 362.285 136.328 362.467 136.547 362.604C136.77 362.738 137.023 362.805 137.308 362.805C137.522 362.805 137.72 362.765 137.902 362.685C138.085 362.606 138.243 362.496 138.377 362.356C138.514 362.214 138.621 362.05 138.698 361.865C138.774 361.68 138.813 361.483 138.813 361.275C138.81 360.998 138.745 360.745 138.616 360.514C138.488 360.283 138.311 360.098 138.086 359.958C137.861 359.819 137.607 359.749 137.325 359.749ZM145.358 367.289C144.699 367.289 144.114 367.183 143.601 366.969C143.091 366.752 142.69 366.457 142.399 366.084C142.109 365.711 141.963 365.287 141.963 364.814C141.963 364.45 142.046 364.115 142.211 363.81C142.379 363.502 142.607 363.247 142.895 363.045C143.183 362.839 143.505 362.708 143.861 362.651V362.591C143.394 362.497 143.015 362.271 142.724 361.912C142.434 361.55 142.288 361.129 142.288 360.651C142.288 360.198 142.421 359.794 142.686 359.441C142.951 359.085 143.314 358.805 143.776 358.603C144.24 358.398 144.768 358.295 145.358 358.295C145.947 358.295 146.473 358.398 146.935 358.603C147.399 358.808 147.764 359.089 148.029 359.445C148.294 359.799 148.428 360.2 148.431 360.651C148.428 361.132 148.28 361.553 147.987 361.912C147.693 362.271 147.317 362.497 146.858 362.591V362.651C147.209 362.708 147.526 362.839 147.811 363.045C148.099 363.247 148.327 363.502 148.495 363.81C148.666 364.115 148.753 364.45 148.756 364.814C148.753 365.287 148.606 365.711 148.316 366.084C148.025 366.457 147.623 366.752 147.11 366.969C146.6 367.183 146.016 367.289 145.358 367.289ZM145.358 365.93C145.651 365.93 145.908 365.877 146.127 365.772C146.346 365.664 146.517 365.515 146.64 365.327C146.765 365.136 146.828 364.917 146.828 364.669C146.828 364.415 146.764 364.192 146.636 363.998C146.507 363.801 146.334 363.647 146.114 363.536C145.895 363.422 145.643 363.365 145.358 363.365C145.075 363.365 144.823 363.422 144.601 363.536C144.379 363.647 144.203 363.801 144.075 363.998C143.95 364.192 143.887 364.415 143.887 364.669C143.887 364.917 143.948 365.136 144.071 365.327C144.193 365.515 144.366 365.664 144.588 365.772C144.81 365.877 145.067 365.93 145.358 365.93ZM145.358 362.019C145.603 362.019 145.821 361.969 146.012 361.869C146.203 361.769 146.352 361.631 146.46 361.454C146.569 361.278 146.623 361.074 146.623 360.843C146.623 360.615 146.569 360.416 146.46 360.245C146.352 360.071 146.204 359.935 146.016 359.839C145.828 359.739 145.608 359.689 145.358 359.689C145.11 359.689 144.89 359.739 144.699 359.839C144.508 359.935 144.359 360.071 144.25 360.245C144.145 360.416 144.092 360.615 144.092 360.843C144.092 361.074 144.146 361.278 144.255 361.454C144.363 361.631 144.513 361.769 144.704 361.869C144.894 361.969 145.112 362.019 145.358 362.019ZM150.05 367.17V365.836L153.166 362.951C153.431 362.694 153.654 362.463 153.833 362.258C154.016 362.053 154.154 361.852 154.248 361.655C154.342 361.456 154.389 361.241 154.389 361.01C154.389 360.753 154.331 360.532 154.214 360.347C154.097 360.159 153.937 360.015 153.735 359.915C153.533 359.813 153.303 359.762 153.047 359.762C152.779 359.762 152.545 359.816 152.346 359.924C152.146 360.032 151.992 360.188 151.884 360.39C151.776 360.592 151.722 360.833 151.722 361.112H149.965C149.965 360.54 150.094 360.042 150.354 359.621C150.613 359.199 150.976 358.872 151.444 358.642C151.911 358.411 152.45 358.295 153.06 358.295C153.686 358.295 154.232 358.406 154.697 358.629C155.164 358.848 155.527 359.153 155.787 359.544C156.046 359.934 156.176 360.381 156.176 360.886C156.176 361.216 156.11 361.543 155.979 361.865C155.851 362.187 155.622 362.544 155.291 362.938C154.96 363.328 154.494 363.797 153.893 364.344L152.615 365.597V365.656H156.291V367.17H150.05ZM158.714 367.281C158.432 367.281 158.19 367.181 157.987 366.982C157.788 366.779 157.688 366.537 157.688 366.255C157.688 365.976 157.788 365.736 157.987 365.537C158.19 365.337 158.432 365.238 158.714 365.238C158.988 365.238 159.227 365.337 159.432 365.537C159.637 365.736 159.74 365.976 159.74 366.255C159.74 366.443 159.691 366.615 159.595 366.772C159.5 366.926 159.377 367.05 159.223 367.144C159.069 367.235 158.899 367.281 158.714 367.281ZM164.298 367.362C163.563 367.359 162.93 367.178 162.4 366.819C161.873 366.46 161.466 365.94 161.182 365.259C160.899 364.578 160.76 363.758 160.763 362.801C160.763 361.846 160.904 361.033 161.186 360.36C161.471 359.687 161.877 359.176 162.404 358.825C162.934 358.472 163.565 358.295 164.298 358.295C165.03 358.295 165.66 358.472 166.187 358.825C166.717 359.179 167.125 359.692 167.41 360.364C167.695 361.034 167.836 361.846 167.833 362.801C167.833 363.761 167.69 364.582 167.405 365.263C167.123 365.944 166.719 366.464 166.191 366.823C165.664 367.183 165.033 367.362 164.298 367.362ZM164.298 365.827C164.799 365.827 165.2 365.575 165.499 365.071C165.798 364.566 165.946 363.81 165.944 362.801C165.944 362.137 165.875 361.584 165.738 361.142C165.604 360.701 165.413 360.369 165.166 360.146C164.92 359.924 164.631 359.813 164.298 359.813C163.799 359.813 163.4 360.062 163.101 360.561C162.802 361.06 162.651 361.806 162.648 362.801C162.648 363.473 162.715 364.035 162.849 364.485C162.985 364.933 163.178 365.269 163.426 365.494C163.674 365.716 163.964 365.827 164.298 365.827ZM172.585 367.362C171.85 367.359 171.217 367.178 170.687 366.819C170.16 366.46 169.754 365.94 169.469 365.259C169.187 364.578 169.047 363.758 169.05 362.801C169.05 361.846 169.191 361.033 169.473 360.36C169.758 359.687 170.164 359.176 170.692 358.825C171.222 358.472 171.853 358.295 172.585 358.295C173.318 358.295 173.948 358.472 174.475 358.825C175.005 359.179 175.412 359.692 175.697 360.364C175.982 361.034 176.123 361.846 176.121 362.801C176.121 363.761 175.978 364.582 175.693 365.263C175.411 365.944 175.006 366.464 174.479 366.823C173.952 367.183 173.321 367.362 172.585 367.362ZM172.585 365.827C173.087 365.827 173.487 365.575 173.787 365.071C174.086 364.566 174.234 363.81 174.231 362.801C174.231 362.137 174.163 361.584 174.026 361.142C173.892 360.701 173.701 360.369 173.453 360.146C173.208 359.924 172.919 359.813 172.585 359.813C172.087 359.813 171.688 360.062 171.388 360.561C171.089 361.06 170.938 361.806 170.935 362.801C170.935 363.473 171.002 364.035 171.136 364.485C171.273 364.933 171.465 365.269 171.713 365.494C171.961 365.716 172.252 365.827 172.585 365.827Z" fill="#1F2F56"/>
<path d="M34.58 47.2031C33.4678 47.2031 32.4277 47.0008 31.4599 46.5964C30.5065 46.1919 29.6687 45.6358 28.9464 44.928C28.2242 44.2057 27.6608 43.3679 27.2564 42.4145C26.8663 41.4467 26.6713 40.4139 26.6713 39.316C26.6713 38.2182 26.8663 37.1998 27.2564 36.2609C27.6608 35.3075 28.217 34.4769 28.9248 33.7691C29.647 33.0468 30.4849 32.4907 31.4382 32.1007C32.3916 31.6962 33.4244 31.494 34.5367 31.494C35.649 31.494 36.6818 31.6962 37.6352 32.1007C38.5886 32.4907 39.4264 33.0468 40.1487 33.7691C40.8709 34.4769 41.427 35.3075 41.8171 36.2609C42.2215 37.2143 42.4238 38.2399 42.4238 39.3377C42.4238 40.4355 42.2215 41.4611 41.8171 42.4145C41.427 43.3679 40.8709 44.2057 40.1487 44.928C39.4408 45.6358 38.6102 46.1919 37.6569 46.5964C36.7035 47.0008 35.6779 47.2031 34.58 47.2031ZM41.4487 48.0914L34.4717 41.1144L36.2485 39.316L43.2471 46.3147L41.4487 48.0914ZM34.5367 44.4513C35.5045 44.4513 36.3496 44.2346 37.0718 43.8012C37.8085 43.3679 38.3791 42.7684 38.7836 42.0028C39.2025 41.2372 39.4119 40.3416 39.4119 39.316C39.4119 38.5649 39.2892 37.8787 39.0436 37.2576C38.8125 36.6364 38.4802 36.102 38.0469 35.6542C37.6135 35.1919 37.1007 34.838 36.5085 34.5925C35.9162 34.3469 35.259 34.2241 34.5367 34.2241C33.5833 34.2241 32.7383 34.4408 32.0016 34.8741C31.2793 35.293 30.7088 35.8853 30.2898 36.6509C29.8854 37.4165 29.6831 38.3049 29.6831 39.316C29.6831 40.0816 29.7987 40.7822 30.0298 41.4178C30.2754 42.0534 30.6076 42.5951 31.0265 43.0429C31.4599 43.4907 31.9727 43.8373 32.565 44.0829C33.1716 44.3285 33.8289 44.4513 34.5367 44.4513ZM47.1324 46.9647V31.7323H50.0359V46.9647H47.1324ZM44.1423 34.2891V31.7323H49.8192V34.2891H44.1423ZM55.6517 46.9647L61.7837 31.7323H64.1888L70.2991 46.9647H67.1573L62.4337 34.4625H63.5171L58.7285 46.9647H55.6517ZM58.9019 44.1263V41.6561H67.0923V44.1263H58.9019ZM76.3331 47.1814C75.2641 47.1814 74.3035 46.9431 73.4512 46.4664C72.599 45.9897 71.9273 45.3396 71.4361 44.5163C70.945 43.6929 70.6994 42.7684 70.6994 41.7428C70.6994 40.7028 70.945 39.771 71.4361 38.9477C71.9273 38.1243 72.599 37.4743 73.4512 36.9976C74.318 36.5064 75.2786 36.2609 76.3331 36.2609C77.1564 36.2609 77.9148 36.4125 78.6082 36.7159C79.3015 37.0192 79.901 37.4526 80.4066 38.016L78.5865 39.8577C78.312 39.5544 77.9798 39.3232 77.5898 39.1643C77.2142 39.0054 76.7953 38.926 76.3331 38.926C75.813 38.926 75.3436 39.0488 74.9247 39.2944C74.5202 39.5255 74.1952 39.8505 73.9496 40.2694C73.7185 40.6739 73.6029 41.1578 73.6029 41.7211C73.6029 42.2701 73.7185 42.7612 73.9496 43.1945C74.1952 43.6134 74.5202 43.9457 74.9247 44.1913C75.3436 44.4224 75.813 44.5379 76.3331 44.5379C76.8097 44.5379 77.2359 44.4585 77.6114 44.2996C78.0015 44.1263 78.3337 43.8807 78.6082 43.5629L80.4499 45.4046C79.9154 45.9825 79.3015 46.423 78.6082 46.7264C77.9148 47.0297 77.1564 47.1814 76.3331 47.1814ZM83.4265 46.9647V32.144H86.265V46.9647H83.4265ZM80.9781 38.991V36.4992H88.7134V38.991H80.9781ZM94.7733 47.1814C93.8488 47.1814 93.0254 46.9864 92.3032 46.5964C91.5954 46.2064 91.0392 45.6647 90.6348 44.9713C90.2303 44.2779 90.0281 43.4762 90.0281 42.5662V36.4992H92.8882V42.5012C92.8882 42.9345 92.9604 43.3101 93.1049 43.6279C93.2493 43.9312 93.466 44.1624 93.7549 44.3213C94.0438 44.4802 94.3833 44.5596 94.7733 44.5596C95.3655 44.5596 95.8278 44.379 96.16 44.0179C96.4923 43.6568 96.6584 43.1512 96.6584 42.5012V36.4992H99.4969V42.5662C99.4969 43.4907 99.2946 44.2996 98.8902 44.993C98.5001 45.6863 97.944 46.228 97.2217 46.618C96.5139 46.9936 95.6978 47.1814 94.7733 47.1814ZM106.134 47.1814C105.181 47.1814 104.321 46.9431 103.556 46.4664C102.79 45.9897 102.191 45.3396 101.757 44.5163C101.324 43.6929 101.107 42.7684 101.107 41.7428C101.107 40.7028 101.324 39.771 101.757 38.9477C102.191 38.1243 102.79 37.4743 103.556 36.9976C104.321 36.5209 105.181 36.2825 106.134 36.2825C106.885 36.2825 107.557 36.4342 108.149 36.7376C108.741 37.0409 109.211 37.467 109.558 38.016C109.919 38.5504 110.114 39.1571 110.143 39.836V43.6062C110.114 44.2996 109.919 44.9135 109.558 45.448C109.211 45.9825 108.741 46.4086 108.149 46.7264C107.557 47.0297 106.885 47.1814 106.134 47.1814ZM106.654 44.5596C107.449 44.5596 108.091 44.2996 108.583 43.7796C109.074 43.2451 109.319 42.559 109.319 41.7211C109.319 41.1722 109.204 40.6883 108.973 40.2694C108.756 39.836 108.445 39.5038 108.041 39.2727C107.651 39.0271 107.189 38.9043 106.654 38.9043C106.134 38.9043 105.672 39.0271 105.267 39.2727C104.877 39.5038 104.567 39.836 104.336 40.2694C104.119 40.6883 104.011 41.1722 104.011 41.7211C104.011 42.2845 104.119 42.7829 104.336 43.2162C104.567 43.6351 104.877 43.9674 105.267 44.2129C105.672 44.444 106.134 44.5596 106.654 44.5596ZM109.168 46.9647V44.1479L109.623 41.5911L109.168 39.0777V36.4992H111.984V46.9647H109.168ZM114.495 46.9647V31.299H117.334V46.9647H114.495ZM125.619 46.9647V32.144H128.458V46.9647H125.619ZM123.171 38.991V36.4992H130.906V38.991H123.171ZM137.167 47.1814C136.113 47.1814 135.159 46.9431 134.307 46.4664C133.469 45.9752 132.798 45.318 132.292 44.4946C131.801 43.6568 131.555 42.7251 131.555 41.6995C131.555 40.6739 131.801 39.7566 132.292 38.9477C132.783 38.1243 133.455 37.4743 134.307 36.9976C135.159 36.5064 136.105 36.2609 137.146 36.2609C138.214 36.2609 139.168 36.5064 140.006 36.9976C140.858 37.4743 141.53 38.1243 142.021 38.9477C142.512 39.7566 142.757 40.6739 142.757 41.6995C142.757 42.7251 142.512 43.6568 142.021 44.4946C141.53 45.318 140.858 45.9752 140.006 46.4664C139.168 46.9431 138.222 47.1814 137.167 47.1814ZM137.146 44.5379C137.68 44.5379 138.149 44.4224 138.554 44.1913C138.973 43.9457 139.291 43.6134 139.507 43.1945C139.738 42.7612 139.854 42.2701 139.854 41.7211C139.854 41.1722 139.738 40.6883 139.507 40.2694C139.276 39.8505 138.958 39.5255 138.554 39.2944C138.149 39.0488 137.68 38.926 137.146 38.926C136.625 38.926 136.163 39.0488 135.759 39.2944C135.354 39.5255 135.037 39.8505 134.805 40.2694C134.574 40.6883 134.459 41.1722 134.459 41.7211C134.459 42.2701 134.574 42.7612 134.805 43.1945C135.037 43.6134 135.354 43.9457 135.759 44.1913C136.163 44.4224 136.625 44.5379 137.146 44.5379ZM151.135 46.9647V44.3429H155.014C155.996 44.3429 156.856 44.1407 157.592 43.7362C158.329 43.3173 158.9 42.7323 159.304 41.9811C159.723 41.23 159.932 40.3416 159.932 39.316C159.932 38.3193 159.723 37.4526 159.304 36.7159C158.885 35.9647 158.307 35.3869 157.571 34.9825C156.834 34.5636 155.982 34.3541 155.014 34.3541H151.07V31.7323H155.057C156.184 31.7323 157.224 31.9201 158.177 32.2957C159.145 32.6713 159.983 33.2057 160.691 33.8991C161.413 34.578 161.969 35.3797 162.359 36.3042C162.764 37.2287 162.966 38.2399 162.966 39.3377C162.966 40.4355 162.764 41.4539 162.359 42.3928C161.969 43.3173 161.42 44.1263 160.712 44.8196C160.005 45.4985 159.167 46.0258 158.199 46.4014C157.246 46.7769 156.213 46.9647 155.1 46.9647H151.135ZM149.12 46.9647V31.7323H152.067V46.9647H149.12ZM169.381 47.1814C168.428 47.1814 167.568 46.9431 166.803 46.4664C166.037 45.9897 165.437 45.3396 165.004 44.5163C164.571 43.6929 164.354 42.7684 164.354 41.7428C164.354 40.7028 164.571 39.771 165.004 38.9477C165.437 38.1243 166.037 37.4743 166.803 36.9976C167.568 36.5209 168.428 36.2825 169.381 36.2825C170.132 36.2825 170.804 36.4342 171.396 36.7376C171.988 37.0409 172.458 37.467 172.804 38.016C173.166 38.5504 173.361 39.1571 173.39 39.836V43.6062C173.361 44.2996 173.166 44.9135 172.804 45.448C172.458 45.9825 171.988 46.4086 171.396 46.7264C170.804 47.0297 170.132 47.1814 169.381 47.1814ZM169.901 44.5596C170.695 44.5596 171.338 44.2996 171.829 43.7796C172.321 43.2451 172.566 42.559 172.566 41.7211C172.566 41.1722 172.451 40.6883 172.219 40.2694C172.003 39.836 171.692 39.5038 171.288 39.2727C170.898 39.0271 170.435 38.9043 169.901 38.9043C169.381 38.9043 168.919 39.0271 168.514 39.2727C168.124 39.5038 167.814 39.836 167.583 40.2694C167.366 40.6883 167.258 41.1722 167.258 41.7211C167.258 42.2845 167.366 42.7829 167.583 43.2162C167.814 43.6351 168.124 43.9674 168.514 44.2129C168.919 44.444 169.381 44.5596 169.901 44.5596ZM172.414 46.9647V44.1479L172.869 41.5911L172.414 39.0777V36.4992H175.231V46.9647H172.414ZM179.281 46.9647V32.144H182.119V46.9647H179.281ZM176.832 38.991V36.4992H184.568V38.991H176.832ZM190.915 47.1814C189.817 47.1814 188.842 46.9503 187.99 46.488C187.138 46.0113 186.459 45.3613 185.953 44.5379C185.462 43.7146 185.217 42.7756 185.217 41.7211C185.217 40.6811 185.455 39.7566 185.932 38.9477C186.423 38.1243 187.087 37.4743 187.925 36.9976C188.763 36.5064 189.695 36.2609 190.72 36.2609C191.731 36.2609 192.62 36.492 193.385 36.9542C194.165 37.402 194.772 38.0232 195.205 38.8177C195.653 39.5977 195.877 40.4861 195.877 41.4828C195.877 41.6706 195.863 41.8656 195.834 42.0678C195.819 42.2556 195.783 42.4723 195.726 42.7179L186.928 42.7395V40.6161L194.404 40.5944L193.255 41.4828C193.227 40.8616 193.111 40.3416 192.909 39.9227C192.721 39.5038 192.439 39.186 192.064 38.9693C191.703 38.7382 191.255 38.6227 190.72 38.6227C190.157 38.6227 189.666 38.7527 189.247 39.0127C188.828 39.2582 188.503 39.6121 188.272 40.0744C188.055 40.5222 187.947 41.0567 187.947 41.6778C187.947 42.3134 188.062 42.8695 188.293 43.3462C188.539 43.8085 188.886 44.1696 189.334 44.4296C189.781 44.6752 190.301 44.798 190.894 44.798C191.428 44.798 191.912 44.7113 192.345 44.5379C192.779 44.3502 193.154 44.0757 193.472 43.7146L195.14 45.383C194.635 45.9752 194.014 46.423 193.277 46.7264C192.555 47.0297 191.768 47.1814 190.915 47.1814Z" fill="#1F2F56"/>
<line opacity="0.5" x1="24.8382" y1="303.002" x2="24.8382" y2="73.0074" stroke="#DEE1EA" stroke-width="0.64"/>
<line opacity="0.5" x1="82.0394" y1="303.002" x2="82.0394" y2="73.0074" stroke="#DEE1EA" stroke-width="0.64"/>
<line opacity="0.5" x1="139.241" y1="303.002" x2="139.241" y2="73.0074" stroke="#DEE1EA" stroke-width="0.64"/>
<line opacity="0.5" x1="196.442" y1="303.002" x2="196.442" y2="73.0074" stroke="#DEE1EA" stroke-width="0.64"/>
<line opacity="0.5" x1="253.643" y1="303.002" x2="253.643" y2="73.0074" stroke="#DEE1EA" stroke-width="0.64"/>
<line opacity="0.5" x1="310.844" y1="303.002" x2="310.844" y2="73.0074" stroke="#DEE1EA" stroke-width="0.64"/>
<line opacity="0.5" x1="368.045" y1="303.002" x2="368.045" y2="73.0074" stroke="#DEE1EA" stroke-width="0.64"/>
<line opacity="0.5" x1="425.246" y1="303.002" x2="425.246" y2="73.0074" stroke="#DEE1EA" stroke-width="0.64"/>
<line opacity="0.5" x1="482.448" y1="303.002" x2="482.448" y2="73.0074" stroke="#DEE1EA" stroke-width="0.64"/>
<line opacity="0.5" x1="539.649" y1="303.002" x2="539.649" y2="73.0074" stroke="#DEE1EA" stroke-width="0.64"/>
<line opacity="0.5" x1="596.85" y1="303.002" x2="596.85" y2="73.0074" stroke="#DEE1EA" stroke-width="0.64"/>
<path d="M25.8696 113.652V299.007H599.018V152.915C586.583 139.827 558.66 111.93 546.451 105.041C531.189 96.4297 526.102 118.635 500.667 152.915C480.318 180.339 457.144 164.341 448.1 152.915L404.012 132.524C394.968 143.379 374.167 160.232 363.315 140.798C352.462 121.365 326.009 114.603 314.139 113.652C299.65 121.814 265.817 141.094 246.403 152.915C222.136 167.691 214.352 151.437 193.29 132.524C172.228 113.611 149.334 136.366 135.14 140.798C120.946 145.231 106.752 123.658 103.547 118.635C100.342 113.611 81.569 120.112 71.9537 118.635C64.2614 117.452 61.4334 102.453 50.6455 103.226L25.8696 113.652Z" fill="url(#paint0_linear_110_18937)"/>
<path d="M599.018 182.737V294.671H25.8695V204.31C38.3047 197.119 66.2273 181.791 78.4364 178.006C93.6977 173.274 98.7848 185.475 124.22 204.31C144.569 219.378 167.743 210.588 176.787 204.31L220.876 193.106C229.919 199.071 250.72 208.33 261.572 197.653C272.425 186.975 298.878 183.26 310.748 182.737C325.238 187.222 359.071 197.815 378.484 204.31C402.752 212.429 410.535 203.498 431.598 193.106C452.66 182.714 475.553 195.217 489.747 197.653C503.941 200.088 518.135 188.235 521.34 185.475C524.546 182.714 543.318 186.287 552.934 185.475C560.626 184.825 563.454 176.584 574.242 177.009L599.018 182.737Z" fill="url(#paint1_linear_110_18937)"/>
<path d="M25.8696 113.78L50.6455 103.227C61.4334 102.444 64.2614 117.628 71.9537 118.825C81.569 120.32 100.342 113.739 103.547 118.825C106.752 123.91 120.946 145.748 135.14 141.261C149.334 136.774 172.228 113.739 193.29 132.885C214.352 152.03 222.136 168.484 246.403 153.526C265.817 141.56 299.65 122.043 314.139 113.78C326.009 114.744 352.462 121.589 363.315 141.261C374.167 160.933 394.968 143.874 404.012 132.885L448.1 153.526C457.144 165.093 480.318 181.287 500.667 153.526C526.102 118.825 531.189 96.3467 546.451 105.064C558.66 112.037 586.583 140.278 599.018 153.526" stroke="#1F2F56" stroke-width="2.38812"/>
<path d="M599.018 182.994L574.242 177.238C563.454 176.811 560.626 185.093 552.934 185.746C543.318 186.562 524.545 182.972 521.34 185.746C518.135 188.52 503.941 200.431 489.747 197.984C475.553 195.536 452.66 182.972 431.597 193.415C410.535 203.858 402.752 212.832 378.484 204.674C359.071 198.147 325.238 187.501 310.748 182.994C298.878 183.52 272.425 187.253 261.572 197.984C250.72 208.714 229.919 199.409 220.876 193.415L176.787 204.674C167.743 210.983 144.569 219.816 124.22 204.674C98.7848 185.746 93.6977 173.485 78.4364 178.24C66.2273 182.043 38.3047 197.447 25.8695 204.674" stroke="#FF8000" stroke-width="2.38812"/>
<defs>
<linearGradient id="paint0_linear_110_18937" x1="312.444" y1="103.181" x2="312.444" y2="320.5" gradientUnits="userSpaceOnUse">
<stop stop-color="#A9B7D7"/>
<stop offset="0.461538" stop-color="#B1B9F8" stop-opacity="0"/>
</linearGradient>
<linearGradient id="paint1_linear_110_18937" x1="312.444" y1="176.984" x2="312.444" y2="323.256" gradientUnits="userSpaceOnUse">
<stop stop-color="#FFCA94"/>
<stop offset="0.778846" stop-color="#FFCA94" stop-opacity="0"/>
</linearGradient>
</defs>
</svg>
