<svg width="333" height="473" viewBox="0 0 333 473" fill="none" xmlns="http://www.w3.org/2000/svg">
<rect x="0.614576" y="1.36189" width="331.034" height="470.671" rx="13.8433" fill="white"/>
<rect x="0.614576" y="1.36189" width="331.034" height="470.671" rx="13.8433" stroke="#EAEEF4" stroke-width="1.20376"/>
<path d="M52.5186 42.6315V29.0916H55.138V42.6315H52.5186ZM54.4446 42.6315V40.301H61.3397V42.6315H54.4446ZM67.1557 42.8241C66.1799 42.8241 65.3132 42.6186 64.5556 42.2077C63.798 41.784 63.1945 41.2062 62.7451 40.4743C62.3086 39.7424 62.0903 38.9078 62.0903 37.9705C62.0903 37.046 62.3021 36.2242 62.7259 35.5052C63.1624 34.7733 63.7531 34.1955 64.4978 33.7718C65.2425 33.3352 66.0707 33.1169 66.9824 33.1169C67.8812 33.1169 68.6708 33.3224 69.3514 33.7333C70.0447 34.1313 70.584 34.6834 70.9692 35.3896C71.3673 36.083 71.5663 36.8727 71.5663 37.7586C71.5663 37.9256 71.5535 38.0989 71.5278 38.2787C71.5149 38.4456 71.4828 38.6382 71.4315 38.8565L63.6118 38.8757V36.9882L70.2566 36.969L69.2358 37.7586C69.2101 37.2065 69.1074 36.7443 68.9276 36.3719C68.7607 35.9995 68.5103 35.7171 68.1765 35.5245C67.8555 35.319 67.4575 35.2163 66.9824 35.2163C66.4816 35.2163 66.045 35.3319 65.6727 35.563C65.3003 35.7813 65.0114 36.0958 64.806 36.5067C64.6134 36.9048 64.5171 37.3799 64.5171 37.932C64.5171 38.4969 64.6198 38.9913 64.8252 39.415C65.0435 39.8259 65.3517 40.1469 65.7497 40.378C66.1478 40.5963 66.61 40.7055 67.1364 40.7055C67.6115 40.7055 68.0417 40.6284 68.4269 40.4743C68.8121 40.3074 69.1459 40.0634 69.4284 39.7424L70.9114 41.2255C70.462 41.7519 69.9099 42.15 69.2551 42.4196C68.6131 42.6893 67.9133 42.8241 67.1557 42.8241ZM77.0172 42.8241C76.1698 42.8241 75.4058 42.6122 74.7253 42.1885C74.0447 41.7648 73.5119 41.187 73.1267 40.4551C72.7415 39.7232 72.5489 38.9014 72.5489 37.9898C72.5489 37.0653 72.7415 36.2371 73.1267 35.5052C73.5119 34.7733 74.0447 34.1955 74.7253 33.7718C75.4058 33.3481 76.1698 33.1362 77.0172 33.1362C77.6849 33.1362 78.282 33.271 78.8084 33.5407C79.3349 33.8103 79.7522 34.1891 80.0603 34.677C80.3813 35.1521 80.5547 35.6914 80.5804 36.2949V39.6461C80.5547 40.2625 80.3813 40.8082 80.0603 41.2833C79.7522 41.7583 79.3349 42.1371 78.8084 42.4196C78.282 42.6893 77.6849 42.8241 77.0172 42.8241ZM77.4795 40.4936C78.1857 40.4936 78.7571 40.2625 79.1936 39.8002C79.6302 39.3251 79.8485 38.7152 79.8485 37.9705C79.8485 37.4826 79.7458 37.0524 79.5403 36.6801C79.3477 36.2949 79.0716 35.9995 78.7121 35.7941C78.3654 35.5758 77.9546 35.4667 77.4795 35.4667C77.0172 35.4667 76.6063 35.5758 76.2468 35.7941C75.9001 35.9995 75.6241 36.2949 75.4186 36.6801C75.226 37.0524 75.1297 37.4826 75.1297 37.9705C75.1297 38.4713 75.226 38.9143 75.4186 39.2995C75.6241 39.6718 75.9001 39.9671 76.2468 40.1854C76.6063 40.3909 77.0172 40.4936 77.4795 40.4936ZM79.7137 42.6315V40.1276L80.1181 37.8549L79.7137 35.6208V33.3288H82.2175V42.6315H79.7137ZM88.3786 42.8241C87.5183 42.8241 86.7479 42.6122 86.0674 42.1885C85.3869 41.7648 84.8476 41.187 84.4496 40.4551C84.0643 39.7232 83.8717 38.9014 83.8717 37.9898C83.8717 37.0653 84.0643 36.2371 84.4496 35.5052C84.8476 34.7733 85.3805 34.1955 86.0481 33.7718C86.7287 33.3481 87.5055 33.1362 88.3786 33.1362C89.0463 33.1362 89.6434 33.271 90.1698 33.5407C90.7091 33.8103 91.1393 34.1891 91.4603 34.677C91.7941 35.1521 91.9739 35.6914 91.9995 36.2949V39.6076C91.9739 40.2111 91.8005 40.7568 91.4795 41.2447C91.1585 41.7327 90.7284 42.1179 90.1891 42.4003C89.6498 42.6828 89.0463 42.8241 88.3786 42.8241ZM88.8024 40.4936C89.2774 40.4936 89.6883 40.3909 90.035 40.1854C90.3945 39.9671 90.6706 39.6718 90.8632 39.2995C91.0686 38.9143 91.1714 38.4713 91.1714 37.9705C91.1714 37.4826 91.0686 37.0524 90.8632 36.6801C90.6706 36.2949 90.3945 35.9995 90.035 35.7941C89.6883 35.5758 89.2839 35.4667 88.8216 35.4667C88.3465 35.4667 87.9292 35.5758 87.5697 35.7941C87.223 36.0124 86.947 36.3077 86.7415 36.6801C86.5489 37.0524 86.4526 37.4826 86.4526 37.9705C86.4526 38.4713 86.5489 38.9143 86.7415 39.2995C86.947 39.6718 87.2294 39.9671 87.589 40.1854C87.9485 40.3909 88.353 40.4936 88.8024 40.4936ZM93.5404 42.6315H91.0365V40.1276L91.441 37.8549L91.0173 35.6208V28.7064H93.5404V42.6315ZM106.083 42.8241C105.094 42.8241 104.176 42.6507 103.328 42.304C102.481 41.9445 101.736 41.4502 101.094 40.821C100.465 40.179 99.9772 39.4343 99.6305 38.5868C99.2966 37.7394 99.1297 36.8277 99.1297 35.8519C99.1297 34.876 99.2966 33.9644 99.6305 33.1169C99.9772 32.2695 100.465 31.5312 101.094 30.902C101.736 30.2728 102.475 29.7785 103.309 29.419C104.157 29.0595 105.081 28.8797 106.083 28.8797C107.161 28.8797 108.111 29.0595 108.933 29.419C109.755 29.7657 110.48 30.2472 111.11 30.8635L109.338 32.6354C108.965 32.2245 108.509 31.9035 107.97 31.6724C107.431 31.4413 106.802 31.3257 106.083 31.3257C105.453 31.3257 104.876 31.4349 104.349 31.6532C103.836 31.8586 103.386 32.1668 103.001 32.5777C102.616 32.9757 102.32 33.4572 102.115 34.0222C101.91 34.5743 101.807 35.1842 101.807 35.8519C101.807 36.5324 101.91 37.1487 102.115 37.7009C102.32 38.253 102.616 38.7345 103.001 39.1454C103.386 39.5434 103.836 39.8516 104.349 40.0699C104.876 40.2881 105.453 40.3973 106.083 40.3973C106.84 40.3973 107.489 40.2817 108.028 40.0506C108.58 39.8195 109.042 39.4921 109.415 39.0683L111.187 40.8403C110.557 41.4694 109.826 41.9574 108.991 42.304C108.156 42.6507 107.187 42.8241 106.083 42.8241ZM116.866 42.8241C115.928 42.8241 115.081 42.6122 114.323 42.1885C113.578 41.7519 112.981 41.1677 112.532 40.4358C112.095 39.6911 111.877 38.8629 111.877 37.9512C111.877 37.0396 112.095 36.2242 112.532 35.5052C112.969 34.7733 113.566 34.1955 114.323 33.7718C115.081 33.3352 115.922 33.1169 116.846 33.1169C117.796 33.1169 118.644 33.3352 119.389 33.7718C120.146 34.1955 120.743 34.7733 121.18 35.5052C121.616 36.2242 121.835 37.0396 121.835 37.9512C121.835 38.8629 121.616 39.6911 121.18 40.4358C120.743 41.1677 120.146 41.7519 119.389 42.1885C118.644 42.6122 117.803 42.8241 116.866 42.8241ZM116.846 40.4743C117.321 40.4743 117.739 40.3716 118.098 40.1662C118.471 39.9479 118.753 39.6526 118.946 39.2802C119.151 38.895 119.254 38.4584 119.254 37.9705C119.254 37.4826 119.151 37.0524 118.946 36.6801C118.74 36.3077 118.458 36.0188 118.098 35.8134C117.739 35.5951 117.321 35.4859 116.846 35.4859C116.384 35.4859 115.973 35.5951 115.614 35.8134C115.254 36.0188 114.972 36.3077 114.766 36.6801C114.561 37.0524 114.458 37.4826 114.458 37.9705C114.458 38.4584 114.561 38.895 114.766 39.2802C114.972 39.6526 115.254 39.9479 115.614 40.1662C115.973 40.3716 116.384 40.4743 116.846 40.4743ZM129.719 42.6315V37.2964C129.719 36.7443 129.545 36.2949 129.198 35.9482C128.852 35.6015 128.402 35.4282 127.85 35.4282C127.491 35.4282 127.17 35.5052 126.887 35.6593C126.605 35.8134 126.38 36.0316 126.213 36.3141C126.059 36.5966 125.982 36.924 125.982 37.2964L125 36.7956C125 36.0637 125.154 35.4282 125.462 34.8889C125.783 34.3367 126.22 33.9066 126.772 33.5984C127.337 33.2903 127.972 33.1362 128.678 33.1362C129.359 33.1362 129.969 33.3095 130.508 33.6562C131.047 33.9901 131.471 34.433 131.779 34.9852C132.088 35.5245 132.242 36.1087 132.242 36.7379V42.6315H129.719ZM123.459 42.6315V33.3288H125.982V42.6315H123.459ZM137.298 42.6315L133.195 33.3288H135.969L138.916 40.9944H137.548L140.514 33.3288H143.191L139.108 42.6315H137.298ZM148.522 42.8241C147.547 42.8241 146.68 42.6186 145.922 42.2077C145.165 41.784 144.561 41.2062 144.112 40.4743C143.675 39.7424 143.457 38.9078 143.457 37.9705C143.457 37.046 143.669 36.2242 144.093 35.5052C144.529 34.7733 145.12 34.1955 145.865 33.7718C146.609 33.3352 147.437 33.1169 148.349 33.1169C149.248 33.1169 150.038 33.3224 150.718 33.7333C151.412 34.1313 151.951 34.6834 152.336 35.3896C152.734 36.083 152.933 36.8727 152.933 37.7586C152.933 37.9256 152.92 38.0989 152.895 38.2787C152.882 38.4456 152.85 38.6382 152.798 38.8565L144.979 38.8757V36.9882L151.623 36.969L150.603 37.7586C150.577 37.2065 150.474 36.7443 150.294 36.3719C150.127 35.9995 149.877 35.7171 149.543 35.5245C149.222 35.319 148.824 35.2163 148.349 35.2163C147.848 35.2163 147.412 35.3319 147.039 35.563C146.667 35.7813 146.378 36.0958 146.173 36.5067C145.98 36.9048 145.884 37.3799 145.884 37.932C145.884 38.4969 145.987 38.9913 146.192 39.415C146.41 39.8259 146.718 40.1469 147.116 40.378C147.515 40.5963 147.977 40.7055 148.503 40.7055C148.978 40.7055 149.408 40.6284 149.794 40.4743C150.179 40.3074 150.513 40.0634 150.795 39.7424L152.278 41.2255C151.829 41.7519 151.277 42.15 150.622 42.4196C149.98 42.6893 149.28 42.8241 148.522 42.8241ZM154.493 42.6315V33.3288H157.017V42.6315H154.493ZM157.017 37.489L156.034 36.8342C156.15 35.6914 156.484 34.7926 157.036 34.1377C157.588 33.47 158.384 33.1362 159.424 33.1362C159.873 33.1362 160.278 33.2132 160.637 33.3673C160.997 33.5086 161.324 33.7461 161.62 34.0799L160.04 35.8904C159.899 35.7363 159.726 35.6208 159.52 35.5437C159.328 35.4667 159.103 35.4282 158.846 35.4282C158.307 35.4282 157.864 35.6015 157.517 35.9482C157.183 36.282 157.017 36.7956 157.017 37.489ZM165.496 42.8433C164.97 42.8433 164.45 42.7727 163.936 42.6315C163.435 42.4902 162.973 42.2976 162.549 42.0537C162.126 41.7969 161.76 41.4887 161.452 41.1292L162.954 39.6076C163.275 39.9671 163.647 40.2368 164.071 40.4165C164.495 40.5963 164.963 40.6862 165.477 40.6862C165.888 40.6862 166.196 40.6284 166.401 40.5128C166.62 40.3973 166.729 40.2239 166.729 39.9928C166.729 39.736 166.613 39.537 166.382 39.3958C166.164 39.2545 165.875 39.139 165.516 39.0491C165.156 38.9464 164.777 38.8372 164.379 38.7217C163.994 38.5933 163.622 38.4327 163.262 38.2401C162.903 38.0347 162.607 37.7586 162.376 37.412C162.158 37.0524 162.049 36.5902 162.049 36.0252C162.049 35.4346 162.19 34.921 162.472 34.4844C162.768 34.0478 163.185 33.7076 163.724 33.4636C164.264 33.2197 164.899 33.0977 165.631 33.0977C166.401 33.0977 167.095 33.2325 167.711 33.5021C168.34 33.7718 168.86 34.1762 169.271 34.7155L167.75 36.2371C167.467 35.8904 167.146 35.64 166.787 35.4859C166.44 35.3319 166.061 35.2548 165.65 35.2548C165.278 35.2548 164.989 35.3126 164.784 35.4282C164.591 35.5437 164.495 35.7042 164.495 35.9097C164.495 36.1408 164.604 36.3205 164.822 36.4489C165.053 36.5774 165.349 36.6929 165.708 36.7956C166.068 36.8855 166.44 36.9947 166.825 37.1231C167.223 37.2386 167.596 37.4055 167.942 37.6238C168.302 37.8421 168.591 38.131 168.809 38.4905C169.04 38.8501 169.156 39.3123 169.156 39.8773C169.156 40.7889 168.828 41.5144 168.173 42.0537C167.519 42.5801 166.626 42.8433 165.496 42.8433ZM170.857 42.6315V33.3288H173.399V42.6315H170.857ZM172.128 31.8265C171.717 31.8265 171.377 31.6917 171.107 31.422C170.838 31.1396 170.703 30.7929 170.703 30.382C170.703 29.9839 170.838 29.6437 171.107 29.3612C171.377 29.0787 171.717 28.9375 172.128 28.9375C172.552 28.9375 172.892 29.0787 173.149 29.3612C173.419 29.6437 173.553 29.9839 173.553 30.382C173.553 30.7929 173.419 31.1396 173.149 31.422C172.892 31.6917 172.552 31.8265 172.128 31.8265ZM180.007 42.8241C179.069 42.8241 178.222 42.6122 177.464 42.1885C176.719 41.7519 176.122 41.1677 175.673 40.4358C175.236 39.6911 175.018 38.8629 175.018 37.9512C175.018 37.0396 175.236 36.2242 175.673 35.5052C176.11 34.7733 176.707 34.1955 177.464 33.7718C178.222 33.3352 179.063 33.1169 179.987 33.1169C180.937 33.1169 181.785 33.3352 182.53 33.7718C183.287 34.1955 183.884 34.7733 184.321 35.5052C184.757 36.2242 184.976 37.0396 184.976 37.9512C184.976 38.8629 184.757 39.6911 184.321 40.4358C183.884 41.1677 183.287 41.7519 182.53 42.1885C181.785 42.6122 180.944 42.8241 180.007 42.8241ZM179.987 40.4743C180.462 40.4743 180.88 40.3716 181.239 40.1662C181.612 39.9479 181.894 39.6526 182.087 39.2802C182.292 38.895 182.395 38.4584 182.395 37.9705C182.395 37.4826 182.292 37.0524 182.087 36.6801C181.881 36.3077 181.599 36.0188 181.239 35.8134C180.88 35.5951 180.462 35.4859 179.987 35.4859C179.525 35.4859 179.114 35.5951 178.755 35.8134C178.395 36.0188 178.113 36.3077 177.907 36.6801C177.702 37.0524 177.599 37.4826 177.599 37.9705C177.599 38.4584 177.702 38.895 177.907 39.2802C178.113 39.6526 178.395 39.9479 178.755 40.1662C179.114 40.3716 179.525 40.4743 179.987 40.4743ZM192.86 42.6315V37.2964C192.86 36.7443 192.686 36.2949 192.34 35.9482C191.993 35.6015 191.543 35.4282 190.991 35.4282C190.632 35.4282 190.311 35.5052 190.028 35.6593C189.746 35.8134 189.521 36.0316 189.354 36.3141C189.2 36.5966 189.123 36.924 189.123 37.2964L188.141 36.7956C188.141 36.0637 188.295 35.4282 188.603 34.8889C188.924 34.3367 189.361 33.9066 189.913 33.5984C190.478 33.2903 191.113 33.1362 191.82 33.1362C192.5 33.1362 193.11 33.3095 193.649 33.6562C194.189 33.9901 194.612 34.433 194.92 34.9852C195.229 35.5245 195.383 36.1087 195.383 36.7379V42.6315H192.86ZM186.6 42.6315V33.3288H189.123V42.6315H186.6ZM199.899 42.6315L205.35 29.0916H207.488L212.919 42.6315H210.127L205.928 31.5183H206.891L202.634 42.6315H199.899ZM202.788 40.1084V37.9127H210.069V40.1084H202.788ZM220.659 42.6315V37.2964C220.659 36.7443 220.486 36.2949 220.139 35.9482C219.792 35.6015 219.343 35.4282 218.791 35.4282C218.431 35.4282 218.11 35.5052 217.828 35.6593C217.545 35.8134 217.321 36.0316 217.154 36.3141C217 36.5966 216.922 36.924 216.922 37.2964L215.94 36.7956C215.94 36.0637 216.094 35.4282 216.402 34.8889C216.723 34.3367 217.16 33.9066 217.712 33.5984C218.277 33.2903 218.913 33.1362 219.619 33.1362C220.299 33.1362 220.909 33.3095 221.449 33.6562C221.988 33.9901 222.412 34.433 222.72 34.9852C223.028 35.5245 223.182 36.1087 223.182 36.7379V42.6315H220.659ZM214.399 42.6315V33.3288H216.922V42.6315H214.399ZM229.105 42.8241C228.258 42.8241 227.494 42.6122 226.813 42.1885C226.133 41.7648 225.6 41.187 225.214 40.4551C224.829 39.7232 224.637 38.9014 224.637 37.9898C224.637 37.0653 224.829 36.2371 225.214 35.5052C225.6 34.7733 226.133 34.1955 226.813 33.7718C227.494 33.3481 228.258 33.1362 229.105 33.1362C229.773 33.1362 230.37 33.271 230.896 33.5407C231.423 33.8103 231.84 34.1891 232.148 34.677C232.469 35.1521 232.642 35.6914 232.668 36.2949V39.6461C232.642 40.2625 232.469 40.8082 232.148 41.2833C231.84 41.7583 231.423 42.1371 230.896 42.4196C230.37 42.6893 229.773 42.8241 229.105 42.8241ZM229.567 40.4936C230.273 40.4936 230.845 40.2625 231.281 39.8002C231.718 39.3251 231.936 38.7152 231.936 37.9705C231.936 37.4826 231.834 37.0524 231.628 36.6801C231.435 36.2949 231.159 35.9995 230.8 35.7941C230.453 35.5758 230.042 35.4667 229.567 35.4667C229.105 35.4667 228.694 35.5758 228.335 35.7941C227.988 35.9995 227.712 36.2949 227.506 36.6801C227.314 37.0524 227.218 37.4826 227.218 37.9705C227.218 38.4713 227.314 38.9143 227.506 39.2995C227.712 39.6718 227.988 39.9671 228.335 40.1854C228.694 40.3909 229.105 40.4936 229.567 40.4936ZM231.801 42.6315V40.1276L232.206 37.8549L231.801 35.6208V33.3288H234.305V42.6315H231.801ZM236.537 42.6315V28.7064H239.06V42.6315H236.537ZM244.223 42.7085L240.333 33.3288H243.068L245.649 40.4936H244.724L247.401 33.3288H250.156L246.015 42.7085H244.223ZM241.643 46.522L244.474 40.5321L246.015 42.7085L244.32 46.522H241.643ZM252.651 42.6315V29.4575H255.174V42.6315H252.651ZM250.474 35.5437V33.3288H257.35V35.5437H250.474ZM258.769 42.6315V33.3288H261.312V42.6315H258.769ZM260.04 31.8265C259.63 31.8265 259.289 31.6917 259.02 31.422C258.75 31.1396 258.615 30.7929 258.615 30.382C258.615 29.9839 258.75 29.6437 259.02 29.3612C259.289 29.0787 259.63 28.9375 260.04 28.9375C260.464 28.9375 260.804 29.0787 261.061 29.3612C261.331 29.6437 261.466 29.9839 261.466 30.382C261.466 30.7929 261.331 31.1396 261.061 31.422C260.804 31.6917 260.464 31.8265 260.04 31.8265ZM267.938 42.8241C266.988 42.8241 266.134 42.6122 265.376 42.1885C264.619 41.7648 264.022 41.187 263.585 40.4551C263.149 39.7232 262.93 38.9014 262.93 37.9898C262.93 37.0653 263.149 36.2371 263.585 35.5052C264.022 34.7733 264.619 34.1955 265.376 33.7718C266.147 33.3352 267.001 33.1169 267.938 33.1169C268.67 33.1169 269.344 33.2518 269.96 33.5214C270.577 33.791 271.11 34.1762 271.559 34.677L269.941 36.3141C269.697 36.0445 269.402 35.839 269.055 35.6978C268.721 35.5566 268.349 35.4859 267.938 35.4859C267.476 35.4859 267.058 35.5951 266.686 35.8134C266.327 36.0188 266.038 36.3077 265.819 36.6801C265.614 37.0396 265.511 37.4697 265.511 37.9705C265.511 38.4584 265.614 38.895 265.819 39.2802C266.038 39.6526 266.327 39.9479 266.686 40.1662C267.058 40.3716 267.476 40.4743 267.938 40.4743C268.362 40.4743 268.741 40.4037 269.074 40.2625C269.421 40.1084 269.716 39.8901 269.96 39.6076L271.597 41.2447C271.122 41.7583 270.577 42.15 269.96 42.4196C269.344 42.6893 268.67 42.8241 267.938 42.8241ZM276.224 42.8433C275.697 42.8433 275.177 42.7727 274.663 42.6315C274.163 42.4902 273.7 42.2976 273.277 42.0537C272.853 41.7969 272.487 41.4887 272.179 41.1292L273.681 39.6076C274.002 39.9671 274.375 40.2368 274.798 40.4165C275.222 40.5963 275.691 40.6862 276.204 40.6862C276.615 40.6862 276.923 40.6284 277.129 40.5128C277.347 40.3973 277.456 40.2239 277.456 39.9928C277.456 39.736 277.341 39.537 277.11 39.3958C276.891 39.2545 276.602 39.139 276.243 39.0491C275.883 38.9464 275.504 38.8372 275.106 38.7217C274.721 38.5933 274.349 38.4327 273.989 38.2401C273.63 38.0347 273.335 37.7586 273.103 37.412C272.885 37.0524 272.776 36.5902 272.776 36.0252C272.776 35.4346 272.917 34.921 273.2 34.4844C273.495 34.0478 273.912 33.7076 274.452 33.4636C274.991 33.2197 275.626 33.0977 276.358 33.0977C277.129 33.0977 277.822 33.2325 278.438 33.5021C279.068 33.7718 279.588 34.1762 279.999 34.7155L278.477 36.2371C278.194 35.8904 277.873 35.64 277.514 35.4859C277.167 35.3319 276.789 35.2548 276.378 35.2548C276.005 35.2548 275.716 35.3126 275.511 35.4282C275.318 35.5437 275.222 35.7042 275.222 35.9097C275.222 36.1408 275.331 36.3205 275.549 36.4489C275.781 36.5774 276.076 36.6929 276.435 36.7956C276.795 36.8855 277.167 36.9947 277.552 37.1231C277.951 37.2386 278.323 37.4055 278.67 37.6238C279.029 37.8421 279.318 38.131 279.536 38.4905C279.767 38.8501 279.883 39.3123 279.883 39.8773C279.883 40.7889 279.556 41.5144 278.901 42.0537C278.246 42.5801 277.353 42.8433 276.224 42.8433Z" fill="#2E2E30"/>
<path d="M272.446 200.784C272.446 186.797 269.588 172.957 264.048 160.114L217.871 180.034C220.698 186.586 222.156 193.648 222.156 200.784H272.446Z" fill="#FF8000"/>
<path d="M264.096 160.225C254.737 138.46 238.14 120.601 217.118 109.676L193.927 154.3C204.653 159.874 213.121 168.986 217.896 180.09L264.096 160.225Z" fill="#FF8000"/>
<path d="M169.77 98.1074C186.249 98.1074 202.487 102.074 217.11 109.672L193.923 154.298C186.462 150.421 178.178 148.398 169.77 148.398L169.77 98.1074Z" fill="#FF8000"/>
<path d="M169.77 98.1074C146.225 98.1074 123.396 106.199 105.107 121.026C86.8185 135.854 74.181 156.516 69.3122 179.551L118.515 189.951C120.999 178.198 127.447 167.656 136.778 160.091C146.109 152.526 157.757 148.398 169.77 148.398L169.77 98.1074Z" fill="#FF8000"/>
<path d="M272.446 200.784C272.446 222.26 265.712 243.195 253.192 260.644C240.672 278.092 222.996 291.176 202.652 298.053L186.546 250.412C196.926 246.903 205.945 240.227 212.333 231.325C218.721 222.423 222.156 211.741 222.156 200.784H272.446Z" fill="#1F2F56"/>
<path d="M202.708 298.034C186.256 303.607 168.659 304.914 151.565 301.834C134.47 298.754 118.436 291.388 104.963 280.425L136.705 241.418C143.579 247.011 151.759 250.77 160.481 252.341C169.203 253.912 178.181 253.245 186.575 250.402L202.708 298.034Z" fill="#83A0D0"/>
<path d="M105.016 280.468C90.345 268.546 79.2503 252.805 72.9544 234.98C66.6585 217.155 65.4058 197.938 69.3344 179.446L118.527 189.897C116.522 199.332 117.161 209.137 120.374 218.231C123.586 227.326 129.246 235.357 136.732 241.44L105.016 280.468Z" fill="#FF9C38"/>
<rect x="147.43" y="86.7919" width="36.6326" height="36.6326" rx="18.3163" fill="white"/>
<rect x="147.43" y="86.7919" width="36.6326" height="36.6326" rx="18.3163" stroke="#EAEEF4" stroke-width="1.28"/>
<path d="M152.823 108.069V106.612L156.478 100.854H157.735V102.871H156.991L154.687 106.518V106.586H159.881V108.069H152.823ZM157.025 109.608V107.625L157.059 106.979V100.854H158.795V109.608H157.025ZM164.38 109.728C163.722 109.728 163.136 109.621 162.623 109.407C162.113 109.191 161.712 108.896 161.422 108.522C161.131 108.149 160.986 107.726 160.986 107.253C160.986 106.888 161.068 106.553 161.234 106.248C161.402 105.94 161.63 105.685 161.918 105.483C162.205 105.278 162.528 105.147 162.884 105.09V105.03C162.416 104.936 162.037 104.709 161.747 104.35C161.456 103.988 161.311 103.568 161.311 103.089C161.311 102.636 161.443 102.233 161.708 101.879C161.973 101.523 162.337 101.244 162.798 101.042C163.263 100.836 163.79 100.734 164.38 100.734C164.97 100.734 165.496 100.836 165.957 101.042C166.422 101.247 166.787 101.528 167.052 101.884C167.317 102.237 167.451 102.639 167.453 103.089C167.451 103.571 167.302 103.991 167.009 104.35C166.715 104.709 166.339 104.936 165.88 105.03V105.09C166.231 105.147 166.549 105.278 166.834 105.483C167.121 105.685 167.349 105.94 167.518 106.248C167.689 106.553 167.775 106.888 167.778 107.253C167.775 107.726 167.629 108.149 167.338 108.522C167.047 108.896 166.645 109.191 166.133 109.407C165.622 109.621 165.038 109.728 164.38 109.728ZM164.38 108.368C164.673 108.368 164.93 108.316 165.149 108.21C165.369 108.102 165.54 107.954 165.662 107.766C165.788 107.575 165.85 107.355 165.85 107.107C165.85 106.854 165.786 106.63 165.658 106.436C165.53 106.24 165.356 106.086 165.137 105.975C164.917 105.861 164.665 105.804 164.38 105.804C164.098 105.804 163.846 105.861 163.623 105.975C163.401 106.086 163.226 106.24 163.097 106.436C162.972 106.63 162.909 106.854 162.909 107.107C162.909 107.355 162.971 107.575 163.093 107.766C163.216 107.954 163.388 108.102 163.61 108.21C163.833 108.316 164.089 108.368 164.38 108.368ZM164.38 104.457C164.625 104.457 164.843 104.407 165.034 104.307C165.225 104.208 165.374 104.07 165.483 103.893C165.591 103.716 165.645 103.512 165.645 103.282C165.645 103.054 165.591 102.854 165.483 102.683C165.374 102.509 165.226 102.374 165.038 102.277C164.85 102.177 164.631 102.127 164.38 102.127C164.132 102.127 163.913 102.177 163.722 102.277C163.531 102.374 163.381 102.509 163.273 102.683C163.167 102.854 163.115 103.054 163.115 103.282C163.115 103.512 163.169 103.716 163.277 103.893C163.385 104.07 163.535 104.208 163.726 104.307C163.917 104.407 164.135 104.457 164.38 104.457ZM173.864 107.967V107.505C173.864 107.154 173.939 106.832 174.087 106.539C174.238 106.243 174.456 106.006 174.741 105.829C175.029 105.65 175.379 105.56 175.792 105.56C176.211 105.56 176.563 105.648 176.848 105.825C177.136 106.002 177.353 106.238 177.498 106.535C177.646 106.828 177.72 107.152 177.72 107.505V107.967C177.72 108.317 177.646 108.641 177.498 108.937C177.35 109.231 177.132 109.466 176.844 109.642C176.556 109.822 176.206 109.912 175.792 109.912C175.373 109.912 175.021 109.822 174.736 109.642C174.451 109.466 174.235 109.231 174.087 108.937C173.939 108.641 173.864 108.317 173.864 107.967ZM175.108 107.505V107.967C175.108 108.169 175.157 108.36 175.254 108.539C175.353 108.719 175.533 108.809 175.792 108.809C176.052 108.809 176.228 108.72 176.322 108.544C176.419 108.367 176.468 108.175 176.468 107.967V107.505C176.468 107.297 176.422 107.103 176.331 106.924C176.24 106.744 176.06 106.654 175.792 106.654C175.536 106.654 175.358 106.744 175.258 106.924C175.158 107.103 175.108 107.297 175.108 107.505ZM169.372 102.957V102.495C169.372 102.142 169.447 101.818 169.598 101.525C169.749 101.228 169.967 100.992 170.252 100.815C170.54 100.638 170.888 100.55 171.295 100.55C171.717 100.55 172.07 100.638 172.355 100.815C172.64 100.992 172.857 101.228 173.005 101.525C173.153 101.818 173.227 102.142 173.227 102.495V102.957C173.227 103.31 173.152 103.634 173.001 103.927C172.853 104.221 172.635 104.456 172.347 104.632C172.062 104.806 171.711 104.893 171.295 104.893C170.879 104.893 170.527 104.805 170.239 104.628C169.954 104.449 169.738 104.213 169.59 103.923C169.444 103.629 169.372 103.307 169.372 102.957ZM170.624 102.495V102.957C170.624 103.165 170.673 103.357 170.77 103.534C170.869 103.71 171.045 103.799 171.295 103.799C171.558 103.799 171.736 103.71 171.83 103.534C171.927 103.357 171.975 103.165 171.975 102.957V102.495C171.975 102.287 171.929 102.093 171.838 101.914C171.747 101.734 171.566 101.644 171.295 101.644C171.042 101.644 170.866 101.736 170.77 101.918C170.673 102.1 170.624 102.293 170.624 102.495ZM169.936 109.608L175.955 100.854H177.075L171.056 109.608H169.936Z" fill="black"/>
<rect x="60.4574" y="217.954" width="36.6326" height="36.6326" rx="18.3163" fill="white"/>
<rect x="60.4574" y="217.954" width="36.6326" height="36.6326" rx="18.3163" stroke="#EAEEF4" stroke-width="1.28"/>
<path d="M71.2918 232.015V240.77H69.4409V233.772H69.3896L67.3847 235.029V233.388L69.552 232.015H71.2918ZM76.57 240.89C75.9659 240.89 75.4273 240.779 74.9542 240.556C74.484 240.334 74.1106 240.028 73.8342 239.637C73.5578 239.247 73.4139 238.799 73.4025 238.295H75.1978C75.2178 238.634 75.3603 238.909 75.6253 239.12C75.8904 239.331 76.2053 239.436 76.57 239.436C76.8607 239.436 77.1172 239.372 77.3395 239.244C77.5646 239.113 77.7399 238.932 77.8653 238.701C77.9935 238.467 78.0576 238.199 78.0576 237.897C78.0576 237.59 77.9921 237.319 77.861 237.085C77.7328 236.852 77.5546 236.669 77.3267 236.538C77.0987 236.407 76.8379 236.34 76.5444 236.337C76.2879 236.337 76.0385 236.39 75.7963 236.495C75.5569 236.601 75.3703 236.745 75.2363 236.927L73.5906 236.632L74.0052 232.015H79.3572V233.529H75.5313L75.3047 235.722H75.356C75.5099 235.505 75.7422 235.325 76.0528 235.183C76.3634 235.04 76.7111 234.969 77.0958 234.969C77.623 234.969 78.0933 235.093 78.5065 235.341C78.9197 235.589 79.246 235.93 79.4854 236.363C79.7248 236.793 79.843 237.289 79.8402 237.85C79.843 238.44 79.7063 238.965 79.4298 239.423C79.1562 239.879 78.7729 240.239 78.2799 240.501C77.7898 240.76 77.2198 240.89 76.57 240.89ZM85.9231 239.129V238.667C85.9231 238.316 85.9972 237.994 86.1454 237.701C86.2964 237.404 86.5145 237.168 86.7994 236.991C87.0873 236.812 87.4378 236.722 87.851 236.722C88.2699 236.722 88.6219 236.81 88.9069 236.987C89.1947 237.164 89.4113 237.4 89.5566 237.696C89.7048 237.99 89.7789 238.313 89.7789 238.667V239.129C89.7789 239.479 89.7048 239.803 89.5566 240.099C89.4084 240.392 89.1904 240.628 88.9026 240.804C88.6148 240.984 88.2642 241.074 87.851 241.074C87.4321 241.074 87.0801 240.984 86.7952 240.804C86.5102 240.628 86.2936 240.392 86.1454 240.099C85.9972 239.803 85.9231 239.479 85.9231 239.129ZM87.1671 238.667V239.129C87.1671 239.331 87.2155 239.522 87.3124 239.701C87.4122 239.881 87.5917 239.971 87.851 239.971C88.1104 239.971 88.287 239.882 88.3811 239.706C88.478 239.529 88.5264 239.337 88.5264 239.129V238.667C88.5264 238.459 88.4808 238.265 88.3896 238.085C88.2984 237.906 88.1189 237.816 87.851 237.816C87.5945 237.816 87.4164 237.906 87.3167 238.085C87.2169 238.265 87.1671 238.459 87.1671 238.667ZM81.4304 234.119V233.657C81.4304 233.304 81.5059 232.98 81.657 232.687C81.808 232.39 82.026 232.154 82.311 231.977C82.5988 231.8 82.9465 231.712 83.354 231.712C83.7758 231.712 84.1292 231.8 84.4141 231.977C84.6991 232.154 84.9157 232.39 85.0639 232.687C85.2121 232.98 85.2862 233.304 85.2862 233.657V234.119C85.2862 234.472 85.2107 234.795 85.0596 235.089C84.9114 235.382 84.6934 235.618 84.4056 235.794C84.1206 235.968 83.7701 236.055 83.354 236.055C82.9379 236.055 82.586 235.967 82.2982 235.79C82.0132 235.61 81.7966 235.375 81.6484 235.085C81.5031 234.791 81.4304 234.469 81.4304 234.119ZM82.6829 233.657V234.119C82.6829 234.327 82.7313 234.519 82.8282 234.696C82.928 234.872 83.1032 234.961 83.354 234.961C83.6162 234.961 83.7943 234.872 83.8884 234.696C83.9852 234.519 84.0337 234.327 84.0337 234.119V233.657C84.0337 233.449 83.9881 233.255 83.8969 233.076C83.8057 232.896 83.6247 232.806 83.354 232.806C83.1004 232.806 82.9251 232.897 82.8282 233.08C82.7313 233.262 82.6829 233.455 82.6829 233.657ZM81.9947 240.77L88.0135 232.015H89.1334L83.1146 240.77H81.9947Z" fill="black"/>
<rect x="132.497" y="280.127" width="36.6326" height="36.6326" rx="18.3163" fill="white"/>
<rect x="132.497" y="280.127" width="36.6326" height="36.6326" rx="18.3163" stroke="#EAEEF4" stroke-width="1.28"/>
<path d="M143.332 294.189V302.943H141.481V295.946H141.43L139.425 297.202V295.561L141.592 294.189H143.332ZM148.61 303.063C148.006 303.063 147.467 302.952 146.994 302.73C146.524 302.507 146.151 302.201 145.874 301.81C145.598 301.42 145.454 300.973 145.443 300.468H147.238C147.258 300.807 147.4 301.082 147.665 301.293C147.93 301.504 148.245 301.61 148.61 301.61C148.901 301.61 149.157 301.545 149.38 301.417C149.605 301.286 149.78 301.105 149.905 300.874C150.034 300.641 150.098 300.373 150.098 300.071C150.098 299.763 150.032 299.492 149.901 299.258C149.773 299.025 149.595 298.842 149.367 298.711C149.139 298.58 148.878 298.513 148.584 298.51C148.328 298.51 148.079 298.563 147.836 298.669C147.597 298.774 147.41 298.918 147.276 299.1L145.631 298.805L146.045 294.189H151.397V295.702H147.571L147.345 297.895H147.396C147.55 297.678 147.782 297.499 148.093 297.356C148.403 297.214 148.751 297.142 149.136 297.142C149.663 297.142 150.133 297.266 150.547 297.514C150.96 297.762 151.286 298.103 151.525 298.536C151.765 298.966 151.883 299.462 151.88 300.024C151.883 300.614 151.746 301.138 151.47 301.597C151.196 302.053 150.813 302.412 150.32 302.674C149.83 302.933 149.26 303.063 148.61 303.063ZM157.963 301.302V300.84C157.963 300.49 158.037 300.168 158.185 299.874C158.336 299.578 158.554 299.341 158.839 299.164C159.127 298.985 159.478 298.895 159.891 298.895C160.31 298.895 160.662 298.983 160.947 299.16C161.235 299.337 161.451 299.573 161.597 299.87C161.745 300.163 161.819 300.487 161.819 300.84V301.302C161.819 301.652 161.745 301.976 161.597 302.272C161.448 302.566 161.23 302.801 160.943 302.977C160.655 303.157 160.304 303.247 159.891 303.247C159.472 303.247 159.12 303.157 158.835 302.977C158.55 302.801 158.334 302.566 158.185 302.272C158.037 301.976 157.963 301.652 157.963 301.302ZM159.207 300.84V301.302C159.207 301.504 159.256 301.695 159.352 301.875C159.452 302.054 159.632 302.144 159.891 302.144C160.15 302.144 160.327 302.056 160.421 301.879C160.518 301.702 160.566 301.51 160.566 301.302V300.84C160.566 300.632 160.521 300.438 160.43 300.259C160.338 300.079 160.159 299.989 159.891 299.989C159.635 299.989 159.456 300.079 159.357 300.259C159.257 300.438 159.207 300.632 159.207 300.84ZM153.47 296.292V295.83C153.47 295.477 153.546 295.153 153.697 294.86C153.848 294.563 154.066 294.327 154.351 294.15C154.639 293.973 154.987 293.885 155.394 293.885C155.816 293.885 156.169 293.973 156.454 294.15C156.739 294.327 156.956 294.563 157.104 294.86C157.252 295.153 157.326 295.477 157.326 295.83V296.292C157.326 296.645 157.251 296.969 157.1 297.262C156.951 297.556 156.733 297.791 156.446 297.967C156.161 298.141 155.81 298.228 155.394 298.228C154.978 298.228 154.626 298.14 154.338 297.963C154.053 297.784 153.837 297.549 153.688 297.258C153.543 296.964 153.47 296.642 153.47 296.292ZM154.723 295.83V296.292C154.723 296.5 154.771 296.692 154.868 296.869C154.968 297.046 155.143 297.134 155.394 297.134C155.656 297.134 155.834 297.046 155.928 296.869C156.025 296.692 156.074 296.5 156.074 296.292V295.83C156.074 295.622 156.028 295.428 155.937 295.249C155.846 295.069 155.665 294.979 155.394 294.979C155.14 294.979 154.965 295.071 154.868 295.253C154.771 295.435 154.723 295.628 154.723 295.83ZM154.035 302.943L160.054 294.189H161.173L155.155 302.943H154.035Z" fill="black"/>
<rect x="229.411" y="240.521" width="36.6326" height="36.6326" rx="18.3163" fill="white"/>
<rect x="229.411" y="240.521" width="36.6326" height="36.6326" rx="18.3163" stroke="#EAEEF4" stroke-width="1.28"/>
<path d="M238.673 263.457C238.035 263.457 237.466 263.348 236.967 263.128C236.472 262.906 236.08 262.601 235.792 262.213C235.507 261.823 235.36 261.373 235.352 260.863H237.215C237.227 261.076 237.297 261.264 237.425 261.427C237.556 261.586 237.73 261.71 237.946 261.799C238.163 261.887 238.407 261.931 238.677 261.931C238.96 261.931 239.209 261.881 239.425 261.782C239.642 261.682 239.812 261.544 239.934 261.367C240.057 261.19 240.118 260.987 240.118 260.756C240.118 260.522 240.052 260.315 239.921 260.136C239.793 259.953 239.608 259.811 239.366 259.708C239.126 259.606 238.841 259.555 238.511 259.555H237.694V258.195H238.511C238.79 258.195 239.036 258.147 239.25 258.05C239.467 257.953 239.635 257.819 239.755 257.648C239.874 257.474 239.934 257.272 239.934 257.041C239.934 256.822 239.881 256.629 239.776 256.464C239.673 256.296 239.528 256.165 239.34 256.071C239.155 255.977 238.938 255.93 238.69 255.93C238.439 255.93 238.21 255.975 238.002 256.066C237.794 256.155 237.627 256.282 237.502 256.447C237.376 256.612 237.309 256.806 237.301 257.028H235.527C235.535 256.524 235.679 256.079 235.959 255.694C236.238 255.31 236.614 255.009 237.087 254.792C237.563 254.573 238.1 254.463 238.699 254.463C239.303 254.463 239.832 254.573 240.285 254.792C240.738 255.012 241.09 255.308 241.341 255.682C241.594 256.052 241.72 256.468 241.717 256.93C241.72 257.42 241.567 257.829 241.259 258.157C240.954 258.484 240.557 258.692 240.067 258.781V258.849C240.711 258.932 241.201 259.156 241.537 259.52C241.876 259.882 242.044 260.335 242.042 260.88C242.044 261.378 241.901 261.822 241.61 262.209C241.322 262.597 240.924 262.902 240.417 263.124C239.91 263.346 239.329 263.457 238.673 263.457ZM243.372 263.338V262.004L246.488 259.118C246.753 258.862 246.976 258.631 247.155 258.426C247.338 258.221 247.476 258.02 247.57 257.823C247.664 257.624 247.711 257.409 247.711 257.178C247.711 256.921 247.653 256.7 247.536 256.515C247.419 256.327 247.259 256.183 247.057 256.083C246.855 255.981 246.625 255.93 246.369 255.93C246.101 255.93 245.867 255.984 245.668 256.092C245.468 256.2 245.314 256.356 245.206 256.558C245.098 256.76 245.044 257.001 245.044 257.28H243.287C243.287 256.708 243.416 256.21 243.676 255.788C243.935 255.367 244.298 255.04 244.766 254.81C245.233 254.579 245.772 254.463 246.381 254.463C247.008 254.463 247.554 254.574 248.019 254.797C248.486 255.016 248.849 255.321 249.109 255.712C249.368 256.102 249.498 256.549 249.498 257.054C249.498 257.384 249.432 257.711 249.301 258.033C249.173 258.355 248.943 258.712 248.613 259.106C248.282 259.496 247.816 259.965 247.215 260.512L245.937 261.765V261.824H249.613V263.338H243.372ZM255.746 261.696V261.234C255.746 260.884 255.82 260.562 255.969 260.268C256.12 259.972 256.338 259.735 256.623 259.559C256.91 259.379 257.261 259.289 257.674 259.289C258.093 259.289 258.445 259.378 258.73 259.555C259.018 259.731 259.235 259.968 259.38 260.264C259.528 260.558 259.602 260.881 259.602 261.234V261.696C259.602 262.047 259.528 262.37 259.38 262.667C259.232 262.96 259.014 263.195 258.726 263.372C258.438 263.551 258.087 263.641 257.674 263.641C257.255 263.641 256.903 263.551 256.618 263.372C256.333 263.195 256.117 262.96 255.969 262.667C255.82 262.37 255.746 262.047 255.746 261.696ZM256.99 261.234V261.696C256.99 261.898 257.039 262.089 257.136 262.269C257.235 262.449 257.415 262.538 257.674 262.538C257.934 262.538 258.11 262.45 258.204 262.273C258.301 262.097 258.35 261.904 258.35 261.696V261.234C258.35 261.026 258.304 260.833 258.213 260.653C258.122 260.474 257.942 260.384 257.674 260.384C257.418 260.384 257.24 260.474 257.14 260.653C257.04 260.833 256.99 261.026 256.99 261.234ZM251.254 256.686V256.225C251.254 255.871 251.329 255.548 251.48 255.254C251.631 254.958 251.849 254.721 252.134 254.545C252.422 254.368 252.77 254.28 253.177 254.28C253.599 254.28 253.952 254.368 254.237 254.545C254.522 254.721 254.739 254.958 254.887 255.254C255.035 255.548 255.109 255.871 255.109 256.225V256.686C255.109 257.04 255.034 257.363 254.883 257.657C254.735 257.95 254.517 258.185 254.229 258.362C253.944 258.536 253.593 258.623 253.177 258.623C252.761 258.623 252.409 258.534 252.121 258.358C251.836 258.178 251.62 257.943 251.472 257.652C251.326 257.359 251.254 257.037 251.254 256.686ZM252.506 256.225V256.686C252.506 256.894 252.555 257.087 252.651 257.263C252.751 257.44 252.926 257.528 253.177 257.528C253.439 257.528 253.618 257.44 253.712 257.263C253.808 257.087 253.857 256.894 253.857 256.686V256.225C253.857 256.016 253.811 255.823 253.72 255.643C253.629 255.464 253.448 255.374 253.177 255.374C252.924 255.374 252.748 255.465 252.651 255.647C252.555 255.83 252.506 256.022 252.506 256.225ZM251.818 263.338L257.837 254.583H258.957L252.938 263.338H251.818Z" fill="black"/>
<circle cx="38.1497" cy="400.532" r="6.01881" fill="#83A0D0"/>
<path d="M52.5709 405.532V403.784H55.1566C55.8115 403.784 56.3845 403.649 56.8756 403.38C57.3667 403.101 57.7471 402.71 58.0168 402.21C58.296 401.709 58.4357 401.117 58.4357 400.433C58.4357 399.768 58.296 399.191 58.0168 398.7C57.7375 398.199 57.3523 397.814 56.8612 397.544C56.37 397.265 55.8018 397.125 55.1566 397.125H52.5276V395.377H55.1855C55.9367 395.377 56.63 395.502 57.2656 395.753C57.9108 396.003 58.4694 396.359 58.9413 396.822C59.4228 397.274 59.7935 397.809 60.0535 398.425C60.3232 399.041 60.458 399.716 60.458 400.447C60.458 401.179 60.3232 401.858 60.0535 402.484C59.7935 403.101 59.4276 403.64 58.9557 404.102C58.4838 404.555 57.9253 404.906 57.2801 405.157C56.6445 405.407 55.9559 405.532 55.2144 405.532H52.5709ZM51.2276 405.532V395.377H53.1921V405.532H51.2276ZM65.1537 405.677C64.4218 405.677 63.7718 405.522 63.2036 405.214C62.6354 404.897 62.1828 404.463 61.8457 403.914C61.5183 403.365 61.3546 402.739 61.3546 402.036C61.3546 401.343 61.5135 400.727 61.8313 400.187C62.1587 399.638 62.6017 399.205 63.1603 398.887C63.7188 398.56 64.3399 398.396 65.0237 398.396C65.6978 398.396 66.29 398.55 66.8004 398.858C67.3205 399.157 67.7249 399.571 68.0138 400.101C68.3124 400.621 68.4616 401.213 68.4616 401.877C68.4616 402.003 68.452 402.133 68.4327 402.268C68.4231 402.393 68.399 402.537 68.3605 402.701L62.4958 402.715V401.3L67.4793 401.285L66.7138 401.877C66.6945 401.463 66.6175 401.117 66.4826 400.837C66.3574 400.558 66.1697 400.346 65.9193 400.202C65.6785 400.048 65.38 399.971 65.0237 399.971C64.6481 399.971 64.3207 400.057 64.0414 400.231C63.7621 400.394 63.5455 400.63 63.3914 400.939C63.2469 401.237 63.1747 401.593 63.1747 402.007C63.1747 402.431 63.2517 402.802 63.4058 403.12C63.5695 403.428 63.8007 403.669 64.0992 403.842C64.3977 404.006 64.7444 404.088 65.1392 404.088C65.4956 404.088 65.8182 404.03 66.1071 403.914C66.396 403.789 66.6463 403.606 66.8582 403.365L67.9705 404.478C67.6334 404.872 67.2193 405.171 66.7282 405.373C66.2467 405.575 65.7219 405.677 65.1537 405.677ZM72.5498 405.677C71.9142 405.677 71.3412 405.518 70.8308 405.2C70.3205 404.882 69.9208 404.449 69.6319 403.9C69.343 403.351 69.1985 402.735 69.1985 402.051C69.1985 401.357 69.343 400.736 69.6319 400.187C69.9208 399.638 70.3205 399.205 70.8308 398.887C71.3412 398.57 71.9142 398.411 72.5498 398.411C73.0506 398.411 73.4984 398.512 73.8932 398.714C74.2881 398.916 74.601 399.2 74.8322 399.566C75.0729 399.923 75.2029 400.327 75.2222 400.78V403.293C75.2029 403.755 75.0729 404.165 74.8322 404.521C74.601 404.877 74.2881 405.161 73.8932 405.373C73.4984 405.575 73.0506 405.677 72.5498 405.677ZM72.8965 403.929C73.4262 403.929 73.8547 403.755 74.1821 403.409C74.5095 403.052 74.6733 402.595 74.6733 402.036C74.6733 401.67 74.5962 401.348 74.4421 401.069C74.2977 400.78 74.0906 400.558 73.821 400.404C73.561 400.24 73.2528 400.159 72.8965 400.159C72.5498 400.159 72.2417 400.24 71.972 400.404C71.712 400.558 71.505 400.78 71.3509 401.069C71.2064 401.348 71.1342 401.67 71.1342 402.036C71.1342 402.412 71.2064 402.744 71.3509 403.033C71.505 403.312 71.712 403.534 71.972 403.698C72.2417 403.852 72.5498 403.929 72.8965 403.929ZM74.5721 405.532V403.654L74.8755 401.95L74.5721 400.274V398.555H76.45V405.532H74.5721ZM78.1241 405.532V395.088H80.0164V405.532H78.1241ZM84.0909 405.691C83.6961 405.691 83.3061 405.638 82.9209 405.532C82.5453 405.426 82.1986 405.282 81.8808 405.099C81.563 404.906 81.2886 404.675 81.0574 404.405L82.1842 403.264C82.4249 403.534 82.7042 403.736 83.022 403.871C83.3398 404.006 83.6913 404.073 84.0765 404.073C84.3846 404.073 84.6158 404.03 84.7698 403.943C84.9336 403.856 85.0154 403.726 85.0154 403.553C85.0154 403.361 84.9287 403.211 84.7554 403.105C84.5917 402.999 84.375 402.913 84.1054 402.845C83.8357 402.768 83.5516 402.686 83.2531 402.6C82.9642 402.503 82.6849 402.383 82.4153 402.239C82.1456 402.085 81.9242 401.877 81.7508 401.617C81.5871 401.348 81.5052 401.001 81.5052 400.577C81.5052 400.134 81.6112 399.749 81.823 399.422C82.0445 399.094 82.3575 398.839 82.762 398.656C83.1664 398.473 83.6431 398.382 84.192 398.382C84.7698 398.382 85.2899 398.483 85.7521 398.685C86.224 398.887 86.614 399.191 86.9222 399.595L85.781 400.736C85.5691 400.476 85.3284 400.289 85.0587 400.173C84.7987 400.057 84.5146 400 84.2065 400C83.9272 400 83.7105 400.043 83.5565 400.13C83.412 400.216 83.3398 400.337 83.3398 400.491C83.3398 400.664 83.4216 400.799 83.5853 400.895C83.7587 400.992 83.9802 401.078 84.2498 401.155C84.5195 401.223 84.7987 401.304 85.0876 401.401C85.3862 401.487 85.6654 401.613 85.9255 401.776C86.1951 401.94 86.4118 402.157 86.5755 402.426C86.7488 402.696 86.8355 403.043 86.8355 403.466C86.8355 404.15 86.5899 404.694 86.0988 405.099C85.6077 405.494 84.9384 405.691 84.0909 405.691ZM95.8442 405.677C95.1027 405.677 94.4141 405.547 93.7785 405.287C93.1429 405.017 92.5844 404.646 92.1029 404.174C91.631 403.693 91.2651 403.134 91.0051 402.499C90.7547 401.863 90.6295 401.179 90.6295 400.447C90.6295 399.716 90.7547 399.032 91.0051 398.396C91.2651 397.761 91.631 397.207 92.1029 396.735C92.5844 396.263 93.1381 395.892 93.7641 395.623C94.3997 395.353 95.093 395.218 95.8442 395.218C96.6531 395.218 97.3657 395.353 97.9821 395.623C98.5984 395.883 99.1425 396.244 99.6144 396.706L98.2854 398.035C98.0061 397.727 97.6643 397.486 97.2598 397.313C96.8554 397.139 96.3835 397.053 95.8442 397.053C95.3723 397.053 94.939 397.135 94.5441 397.298C94.1589 397.452 93.8219 397.684 93.533 397.992C93.2441 398.29 93.0226 398.651 92.8685 399.075C92.7144 399.489 92.6374 399.947 92.6374 400.447C92.6374 400.958 92.7144 401.42 92.8685 401.834C93.0226 402.248 93.2441 402.609 93.533 402.918C93.8219 403.216 94.1589 403.447 94.5441 403.611C94.939 403.775 95.3723 403.856 95.8442 403.856C96.4124 403.856 96.8987 403.77 97.3031 403.596C97.7172 403.423 98.0639 403.178 98.3432 402.86L99.6722 404.189C99.2003 404.661 98.6514 405.027 98.0254 405.287C97.3995 405.547 96.6724 405.677 95.8442 405.677ZM100.836 405.532V398.555H102.728V405.532H100.836ZM102.728 401.675L101.991 401.184C102.078 400.327 102.328 399.653 102.742 399.162C103.157 398.661 103.754 398.411 104.534 398.411C104.871 398.411 105.174 398.468 105.444 398.584C105.713 398.69 105.959 398.868 106.18 399.118L104.996 400.476C104.89 400.361 104.76 400.274 104.606 400.216C104.461 400.159 104.293 400.13 104.1 400.13C103.696 400.13 103.364 400.26 103.104 400.52C102.853 400.77 102.728 401.155 102.728 401.675ZM109.984 405.677C109.253 405.677 108.602 405.522 108.034 405.214C107.466 404.897 107.014 404.463 106.676 403.914C106.349 403.365 106.185 402.739 106.185 402.036C106.185 401.343 106.344 400.727 106.662 400.187C106.989 399.638 107.432 399.205 107.991 398.887C108.55 398.56 109.171 398.396 109.854 398.396C110.529 398.396 111.121 398.55 111.631 398.858C112.151 399.157 112.556 399.571 112.845 400.101C113.143 400.621 113.292 401.213 113.292 401.877C113.292 402.003 113.283 402.133 113.263 402.268C113.254 402.393 113.23 402.537 113.191 402.701L107.326 402.715V401.3L112.31 401.285L111.544 401.877C111.525 401.463 111.448 401.117 111.313 400.837C111.188 400.558 111 400.346 110.75 400.202C110.509 400.048 110.211 399.971 109.854 399.971C109.479 399.971 109.151 400.057 108.872 400.231C108.593 400.394 108.376 400.63 108.222 400.939C108.078 401.237 108.005 401.593 108.005 402.007C108.005 402.431 108.082 402.802 108.237 403.12C108.4 403.428 108.631 403.669 108.93 403.842C109.228 404.006 109.575 404.088 109.97 404.088C110.326 404.088 110.649 404.03 110.938 403.914C111.227 403.789 111.477 403.606 111.689 403.365L112.801 404.478C112.464 404.872 112.05 405.171 111.559 405.373C111.077 405.575 110.553 405.677 109.984 405.677ZM117.381 405.677C116.745 405.677 116.172 405.518 115.662 405.2C115.151 404.882 114.752 404.449 114.463 403.9C114.174 403.351 114.029 402.735 114.029 402.051C114.029 401.357 114.174 400.736 114.463 400.187C114.752 399.638 115.151 399.205 115.662 398.887C116.172 398.57 116.745 398.411 117.381 398.411C117.881 398.411 118.329 398.512 118.724 398.714C119.119 398.916 119.432 399.2 119.663 399.566C119.904 399.923 120.034 400.327 120.053 400.78V403.293C120.034 403.755 119.904 404.165 119.663 404.521C119.432 404.877 119.119 405.161 118.724 405.373C118.329 405.575 117.881 405.677 117.381 405.677ZM117.727 403.929C118.257 403.929 118.685 403.755 119.013 403.409C119.34 403.052 119.504 402.595 119.504 402.036C119.504 401.67 119.427 401.348 119.273 401.069C119.128 400.78 118.921 400.558 118.652 400.404C118.392 400.24 118.084 400.159 117.727 400.159C117.381 400.159 117.072 400.24 116.803 400.404C116.543 400.558 116.336 400.78 116.182 401.069C116.037 401.348 115.965 401.67 115.965 402.036C115.965 402.412 116.037 402.744 116.182 403.033C116.336 403.312 116.543 403.534 116.803 403.698C117.072 403.852 117.381 403.929 117.727 403.929ZM119.403 405.532V403.654L119.706 401.95L119.403 400.274V398.555H121.281V405.532H119.403ZM123.98 405.532V395.652H125.873V405.532H123.98ZM122.348 400.216V398.555H127.505V400.216H122.348ZM131.737 405.677C131.005 405.677 130.355 405.522 129.787 405.214C129.218 404.897 128.766 404.463 128.429 403.914C128.101 403.365 127.938 402.739 127.938 402.036C127.938 401.343 128.097 400.727 128.414 400.187C128.742 399.638 129.185 399.205 129.743 398.887C130.302 398.56 130.923 398.396 131.607 398.396C132.281 398.396 132.873 398.55 133.383 398.858C133.904 399.157 134.308 399.571 134.597 400.101C134.895 400.621 135.045 401.213 135.045 401.877C135.045 402.003 135.035 402.133 135.016 402.268C135.006 402.393 134.982 402.537 134.944 402.701L129.079 402.715V401.3L134.062 401.285L133.297 401.877C133.278 401.463 133.201 401.117 133.066 400.837C132.941 400.558 132.753 400.346 132.502 400.202C132.262 400.048 131.963 399.971 131.607 399.971C131.231 399.971 130.904 400.057 130.624 400.231C130.345 400.394 130.129 400.63 129.974 400.939C129.83 401.237 129.758 401.593 129.758 402.007C129.758 402.431 129.835 402.802 129.989 403.12C130.153 403.428 130.384 403.669 130.682 403.842C130.981 404.006 131.327 404.088 131.722 404.088C132.079 404.088 132.401 404.03 132.69 403.914C132.979 403.789 133.229 403.606 133.441 403.365L134.554 404.478C134.216 404.872 133.802 405.171 133.311 405.373C132.83 405.575 132.305 405.677 131.737 405.677ZM139.162 405.677C138.517 405.677 137.939 405.518 137.428 405.2C136.918 404.882 136.514 404.449 136.215 403.9C135.926 403.351 135.782 402.735 135.782 402.051C135.782 401.357 135.926 400.736 136.215 400.187C136.514 399.638 136.913 399.205 137.414 398.887C137.924 398.57 138.507 398.411 139.162 398.411C139.663 398.411 140.11 398.512 140.505 398.714C140.91 398.916 141.232 399.2 141.473 399.566C141.723 399.923 141.858 400.327 141.877 400.78V403.264C141.858 403.717 141.728 404.126 141.487 404.492C141.247 404.858 140.924 405.147 140.52 405.359C140.115 405.571 139.663 405.677 139.162 405.677ZM139.48 403.929C139.836 403.929 140.144 403.852 140.404 403.698C140.674 403.534 140.881 403.312 141.025 403.033C141.179 402.744 141.256 402.412 141.256 402.036C141.256 401.67 141.179 401.348 141.025 401.069C140.881 400.78 140.674 400.558 140.404 400.404C140.144 400.24 139.841 400.159 139.494 400.159C139.138 400.159 138.825 400.24 138.555 400.404C138.295 400.568 138.088 400.789 137.934 401.069C137.789 401.348 137.717 401.67 137.717 402.036C137.717 402.412 137.789 402.744 137.934 403.033C138.088 403.312 138.3 403.534 138.57 403.698C138.839 403.852 139.143 403.929 139.48 403.929ZM143.033 405.532H141.155V403.654L141.459 401.95L141.141 400.274V395.088H143.033V405.532Z" fill="#767676"/>
<circle cx="178.848" cy="400.532" r="6.01881" fill="#1F2F56"/>
<path d="M193.269 405.532V403.784H195.855C196.51 403.784 197.083 403.649 197.574 403.38C198.065 403.101 198.445 402.71 198.715 402.21C198.994 401.709 199.134 401.117 199.134 400.433C199.134 399.768 198.994 399.191 198.715 398.7C198.436 398.199 198.051 397.814 197.559 397.544C197.068 397.265 196.5 397.125 195.855 397.125H193.226V395.377H195.884C196.635 395.377 197.328 395.502 197.964 395.753C198.609 396.003 199.168 396.359 199.639 396.822C200.121 397.274 200.492 397.809 200.752 398.425C201.021 399.041 201.156 399.716 201.156 400.447C201.156 401.179 201.021 401.858 200.752 402.484C200.492 403.101 200.126 403.64 199.654 404.102C199.182 404.555 198.624 404.906 197.978 405.157C197.343 405.407 196.654 405.532 195.913 405.532H193.269ZM191.926 405.532V395.377H193.89V405.532H191.926ZM205.852 405.677C205.12 405.677 204.47 405.522 203.902 405.214C203.334 404.897 202.881 404.463 202.544 403.914C202.217 403.365 202.053 402.739 202.053 402.036C202.053 401.343 202.212 400.727 202.53 400.187C202.857 399.638 203.3 399.205 203.858 398.887C204.417 398.56 205.038 398.396 205.722 398.396C206.396 398.396 206.988 398.55 207.499 398.858C208.019 399.157 208.423 399.571 208.712 400.101C209.011 400.621 209.16 401.213 209.16 401.877C209.16 402.003 209.15 402.133 209.131 402.268C209.121 402.393 209.097 402.537 209.059 402.701L203.194 402.715V401.3L208.178 401.285L207.412 401.877C207.393 401.463 207.316 401.117 207.181 400.837C207.056 400.558 206.868 400.346 206.618 400.202C206.377 400.048 206.078 399.971 205.722 399.971C205.346 399.971 205.019 400.057 204.74 400.231C204.46 400.394 204.244 400.63 204.09 400.939C203.945 401.237 203.873 401.593 203.873 402.007C203.873 402.431 203.95 402.802 204.104 403.12C204.268 403.428 204.499 403.669 204.797 403.842C205.096 404.006 205.443 404.088 205.837 404.088C206.194 404.088 206.516 404.03 206.805 403.914C207.094 403.789 207.345 403.606 207.556 403.365L208.669 404.478C208.332 404.872 207.918 405.171 207.426 405.373C206.945 405.575 206.42 405.677 205.852 405.677ZM213.248 405.677C212.612 405.677 212.039 405.518 211.529 405.2C211.019 404.882 210.619 404.449 210.33 403.9C210.041 403.351 209.897 402.735 209.897 402.051C209.897 401.357 210.041 400.736 210.33 400.187C210.619 399.638 211.019 399.205 211.529 398.887C212.039 398.57 212.612 398.411 213.248 398.411C213.749 398.411 214.197 398.512 214.591 398.714C214.986 398.916 215.299 399.2 215.53 399.566C215.771 399.923 215.901 400.327 215.92 400.78V403.293C215.901 403.755 215.771 404.165 215.53 404.521C215.299 404.877 214.986 405.161 214.591 405.373C214.197 405.575 213.749 405.677 213.248 405.677ZM213.595 403.929C214.124 403.929 214.553 403.755 214.88 403.409C215.208 403.052 215.371 402.595 215.371 402.036C215.371 401.67 215.294 401.348 215.14 401.069C214.996 400.78 214.789 400.558 214.519 400.404C214.259 400.24 213.951 400.159 213.595 400.159C213.248 400.159 212.94 400.24 212.67 400.404C212.41 400.558 212.203 400.78 212.049 401.069C211.905 401.348 211.832 401.67 211.832 402.036C211.832 402.412 211.905 402.744 212.049 403.033C212.203 403.312 212.41 403.534 212.67 403.698C212.94 403.852 213.248 403.929 213.595 403.929ZM215.27 405.532V403.654L215.574 401.95L215.27 400.274V398.555H217.148V405.532H215.27ZM218.822 405.532V395.088H220.715V405.532H218.822ZM224.789 405.691C224.394 405.691 224.004 405.638 223.619 405.532C223.244 405.426 222.897 405.282 222.579 405.099C222.261 404.906 221.987 404.675 221.756 404.405L222.882 403.264C223.123 403.534 223.402 403.736 223.72 403.871C224.038 404.006 224.39 404.073 224.775 404.073C225.083 404.073 225.314 404.03 225.468 403.943C225.632 403.856 225.714 403.726 225.714 403.553C225.714 403.361 225.627 403.211 225.454 403.105C225.29 402.999 225.073 402.913 224.804 402.845C224.534 402.768 224.25 402.686 223.951 402.6C223.662 402.503 223.383 402.383 223.114 402.239C222.844 402.085 222.622 401.877 222.449 401.617C222.285 401.348 222.203 401.001 222.203 400.577C222.203 400.134 222.309 399.749 222.521 399.422C222.743 399.094 223.056 398.839 223.46 398.656C223.865 398.473 224.341 398.382 224.89 398.382C225.468 398.382 225.988 398.483 226.45 398.685C226.922 398.887 227.312 399.191 227.62 399.595L226.479 400.736C226.267 400.476 226.027 400.289 225.757 400.173C225.497 400.057 225.213 400 224.905 400C224.625 400 224.409 400.043 224.255 400.13C224.11 400.216 224.038 400.337 224.038 400.491C224.038 400.664 224.12 400.799 224.284 400.895C224.457 400.992 224.678 401.078 224.948 401.155C225.218 401.223 225.497 401.304 225.786 401.401C226.084 401.487 226.364 401.613 226.624 401.776C226.893 401.94 227.11 402.157 227.274 402.426C227.447 402.696 227.534 403.043 227.534 403.466C227.534 404.15 227.288 404.694 226.797 405.099C226.306 405.494 225.637 405.691 224.789 405.691ZM234.405 405.532L231.111 395.377H233.047L235.488 403.192H234.838L237.236 395.377H238.695L241.093 403.192H240.428L242.884 395.377H244.819L241.512 405.532H240.053L237.64 397.732H238.276L235.878 405.532H234.405ZM248.283 405.677C247.58 405.677 246.945 405.518 246.376 405.2C245.818 404.872 245.37 404.434 245.033 403.885C244.706 403.327 244.542 402.706 244.542 402.022C244.542 401.338 244.706 400.727 245.033 400.187C245.36 399.638 245.808 399.205 246.376 398.887C246.945 398.56 247.575 398.396 248.269 398.396C248.981 398.396 249.617 398.56 250.175 398.887C250.744 399.205 251.191 399.638 251.519 400.187C251.846 400.727 252.01 401.338 252.01 402.022C252.01 402.706 251.846 403.327 251.519 403.885C251.191 404.434 250.744 404.872 250.175 405.2C249.617 405.518 248.986 405.677 248.283 405.677ZM248.269 403.914C248.625 403.914 248.938 403.837 249.208 403.683C249.487 403.519 249.699 403.298 249.843 403.019C249.997 402.73 250.074 402.402 250.074 402.036C250.074 401.67 249.997 401.348 249.843 401.069C249.689 400.789 249.477 400.573 249.208 400.419C248.938 400.255 248.625 400.173 248.269 400.173C247.922 400.173 247.614 400.255 247.344 400.419C247.075 400.573 246.863 400.789 246.709 401.069C246.555 401.348 246.478 401.67 246.478 402.036C246.478 402.402 246.555 402.73 246.709 403.019C246.863 403.298 247.075 403.519 247.344 403.683C247.614 403.837 247.922 403.914 248.269 403.914ZM257.923 405.532V401.531C257.923 401.117 257.793 400.78 257.533 400.52C257.273 400.26 256.936 400.13 256.522 400.13C256.252 400.13 256.011 400.187 255.799 400.303C255.588 400.419 255.419 400.582 255.294 400.794C255.178 401.006 255.121 401.252 255.121 401.531L254.384 401.155C254.384 400.606 254.499 400.13 254.731 399.725C254.971 399.311 255.299 398.988 255.713 398.757C256.137 398.526 256.613 398.411 257.143 398.411C257.653 398.411 258.111 398.541 258.515 398.801C258.92 399.051 259.237 399.383 259.469 399.797C259.7 400.202 259.815 400.64 259.815 401.112V405.532H257.923ZM253.228 405.532V398.555H255.121V405.532H253.228Z" fill="#767676"/>
<circle cx="36.3967" cy="364.92" r="6.01881" fill="#FF8000"/>
<path d="M49.4746 369.92V359.765H51.4392V369.92H49.4746ZM50.9191 369.92V368.172H56.0905V369.92H50.9191ZM60.4525 370.064C59.7206 370.064 59.0706 369.91 58.5024 369.602C57.9342 369.284 57.4816 368.851 57.1445 368.302C56.8171 367.753 56.6534 367.127 56.6534 366.424C56.6534 365.731 56.8123 365.115 57.1301 364.575C57.4575 364.026 57.9005 363.593 58.459 363.275C59.0176 362.948 59.6387 362.784 60.3225 362.784C60.9966 362.784 61.5888 362.938 62.0992 363.246C62.6192 363.545 63.0237 363.959 63.3126 364.489C63.6111 365.009 63.7604 365.601 63.7604 366.265C63.7604 366.39 63.7508 366.52 63.7315 366.655C63.7219 366.781 63.6978 366.925 63.6593 367.089L57.7946 367.103V365.687L62.7781 365.673L62.0126 366.265C61.9933 365.851 61.9163 365.505 61.7814 365.225C61.6562 364.946 61.4685 364.734 61.2181 364.59C60.9773 364.436 60.6788 364.359 60.3225 364.359C59.9469 364.359 59.6195 364.445 59.3402 364.619C59.0609 364.782 58.8443 365.018 58.6902 365.326C58.5457 365.625 58.4735 365.981 58.4735 366.395C58.4735 366.819 58.5505 367.19 58.7046 367.508C58.8683 367.816 59.0994 368.056 59.398 368.23C59.6965 368.394 60.0432 368.475 60.438 368.475C60.7943 368.475 61.117 368.418 61.4059 368.302C61.6948 368.177 61.9451 367.994 62.157 367.753L63.2693 368.865C62.9322 369.26 62.5181 369.559 62.027 369.761C61.5455 369.963 61.0207 370.064 60.4525 370.064ZM67.8486 370.064C67.213 370.064 66.64 369.905 66.1296 369.588C65.6192 369.27 65.2196 368.837 64.9307 368.288C64.6418 367.739 64.4973 367.122 64.4973 366.439C64.4973 365.745 64.6418 365.124 64.9307 364.575C65.2196 364.026 65.6192 363.593 66.1296 363.275C66.64 362.957 67.213 362.798 67.8486 362.798C68.3494 362.798 68.7972 362.9 69.192 363.102C69.5868 363.304 69.8998 363.588 70.1309 363.954C70.3717 364.31 70.5017 364.715 70.521 365.167V367.681C70.5017 368.143 70.3717 368.552 70.1309 368.909C69.8998 369.265 69.5868 369.549 69.192 369.761C68.7972 369.963 68.3494 370.064 67.8486 370.064ZM68.1953 368.317C68.725 368.317 69.1535 368.143 69.4809 367.796C69.8083 367.44 69.972 366.983 69.972 366.424C69.972 366.058 69.895 365.736 69.7409 365.456C69.5965 365.167 69.3894 364.946 69.1198 364.792C68.8598 364.628 68.5516 364.546 68.1953 364.546C67.8486 364.546 67.5405 364.628 67.2708 364.792C67.0108 364.946 66.8037 365.167 66.6497 365.456C66.5052 365.736 66.433 366.058 66.433 366.424C66.433 366.8 66.5052 367.132 66.6497 367.421C66.8037 367.7 67.0108 367.922 67.2708 368.085C67.5405 368.239 67.8486 368.317 68.1953 368.317ZM69.8709 369.92V368.042L70.1743 366.338L69.8709 364.662V362.943H71.7488V369.92H69.8709ZM76.3697 370.064C75.7245 370.064 75.1466 369.905 74.6363 369.588C74.1259 369.27 73.7214 368.837 73.4229 368.288C73.134 367.739 72.9895 367.122 72.9895 366.439C72.9895 365.745 73.134 365.124 73.4229 364.575C73.7214 364.026 74.121 363.593 74.6218 363.275C75.1322 362.957 75.7148 362.798 76.3697 362.798C76.8704 362.798 77.3182 362.9 77.7131 363.102C78.1175 363.304 78.4401 363.588 78.6809 363.954C78.9313 364.31 79.0661 364.715 79.0854 365.167V367.652C79.0661 368.105 78.9361 368.514 78.6953 368.88C78.4546 369.246 78.132 369.535 77.7275 369.747C77.323 369.958 76.8704 370.064 76.3697 370.064ZM76.6875 368.317C77.0438 368.317 77.3519 368.239 77.612 368.085C77.8816 367.922 78.0886 367.7 78.2331 367.421C78.3872 367.132 78.4642 366.8 78.4642 366.424C78.4642 366.058 78.3872 365.736 78.2331 365.456C78.0886 365.167 77.8816 364.946 77.612 364.792C77.3519 364.628 77.0486 364.546 76.7019 364.546C76.3456 364.546 76.0326 364.628 75.763 364.792C75.503 364.956 75.2959 365.177 75.1418 365.456C74.9974 365.736 74.9252 366.058 74.9252 366.424C74.9252 366.8 74.9974 367.132 75.1418 367.421C75.2959 367.7 75.5078 367.922 75.7774 368.085C76.0471 368.239 76.3504 368.317 76.6875 368.317ZM80.241 369.92H78.3631V368.042L78.6664 366.338L78.3487 364.662V359.476H80.241V369.92ZM89.6477 370.064C88.9062 370.064 88.2176 369.934 87.582 369.674C86.9464 369.405 86.3879 369.034 85.9064 368.562C85.4345 368.081 85.0686 367.522 84.8086 366.886C84.5582 366.251 84.433 365.567 84.433 364.835C84.433 364.103 84.5582 363.42 84.8086 362.784C85.0686 362.148 85.4345 361.595 85.9064 361.123C86.3879 360.651 86.9416 360.28 87.5676 360.011C88.2032 359.741 88.8965 359.606 89.6477 359.606C90.4566 359.606 91.1692 359.741 91.7856 360.011C92.4019 360.271 92.946 360.632 93.4179 361.094L92.0889 362.423C91.8096 362.115 91.4678 361.874 91.0633 361.701C90.6588 361.527 90.187 361.441 89.6477 361.441C89.1758 361.441 88.7425 361.522 88.3476 361.686C87.9624 361.84 87.6254 362.071 87.3365 362.38C87.0476 362.678 86.8261 363.039 86.672 363.463C86.5179 363.877 86.4409 364.334 86.4409 364.835C86.4409 365.346 86.5179 365.808 86.672 366.222C86.8261 366.636 87.0476 366.997 87.3365 367.305C87.6254 367.604 87.9624 367.835 88.3476 367.999C88.7425 368.162 89.1758 368.244 89.6477 368.244C90.2159 368.244 90.7022 368.158 91.1066 367.984C91.5207 367.811 91.8674 367.565 92.1467 367.248L93.4756 368.577C93.0038 369.048 92.4549 369.414 91.8289 369.674C91.2029 369.934 90.4759 370.064 89.6477 370.064ZM94.6392 369.92V362.943H96.5315V369.92H94.6392ZM96.5315 366.063L95.7948 365.572C95.8814 364.715 96.1318 364.041 96.5459 363.55C96.96 363.049 97.5571 362.798 98.3371 362.798C98.6742 362.798 98.9775 362.856 99.2472 362.972C99.5168 363.078 99.7624 363.256 99.9839 363.506L98.7994 364.864C98.6934 364.749 98.5634 364.662 98.4093 364.604C98.2649 364.546 98.0964 364.517 97.9038 364.517C97.4993 364.517 97.1671 364.647 96.907 364.907C96.6567 365.158 96.5315 365.543 96.5315 366.063ZM103.788 370.064C103.056 370.064 102.406 369.91 101.838 369.602C101.27 369.284 100.817 368.851 100.48 368.302C100.153 367.753 99.9888 367.127 99.9888 366.424C99.9888 365.731 100.148 365.115 100.466 364.575C100.793 364.026 101.236 363.593 101.794 363.275C102.353 362.948 102.974 362.784 103.658 362.784C104.332 362.784 104.924 362.938 105.435 363.246C105.955 363.545 106.359 363.959 106.648 364.489C106.947 365.009 107.096 365.601 107.096 366.265C107.096 366.39 107.086 366.52 107.067 366.655C107.057 366.781 107.033 366.925 106.995 367.089L101.13 367.103V365.687L106.114 365.673L105.348 366.265C105.329 365.851 105.252 365.505 105.117 365.225C104.992 364.946 104.804 364.734 104.553 364.59C104.313 364.436 104.014 364.359 103.658 364.359C103.282 364.359 102.955 364.445 102.676 364.619C102.396 364.782 102.18 365.018 102.026 365.326C101.881 365.625 101.809 365.981 101.809 366.395C101.809 366.819 101.886 367.19 102.04 367.508C102.204 367.816 102.435 368.056 102.733 368.23C103.032 368.394 103.379 368.475 103.773 368.475C104.13 368.475 104.452 368.418 104.741 368.302C105.03 368.177 105.281 367.994 105.492 367.753L106.605 368.865C106.268 369.26 105.854 369.559 105.362 369.761C104.881 369.963 104.356 370.064 103.788 370.064ZM111.184 370.064C110.548 370.064 109.975 369.905 109.465 369.588C108.955 369.27 108.555 368.837 108.266 368.288C107.977 367.739 107.833 367.122 107.833 366.439C107.833 365.745 107.977 365.124 108.266 364.575C108.555 364.026 108.955 363.593 109.465 363.275C109.975 362.957 110.548 362.798 111.184 362.798C111.685 362.798 112.133 362.9 112.527 363.102C112.922 363.304 113.235 363.588 113.466 363.954C113.707 364.31 113.837 364.715 113.856 365.167V367.681C113.837 368.143 113.707 368.552 113.466 368.909C113.235 369.265 112.922 369.549 112.527 369.761C112.133 369.963 111.685 370.064 111.184 370.064ZM111.531 368.317C112.06 368.317 112.489 368.143 112.816 367.796C113.144 367.44 113.307 366.983 113.307 366.424C113.307 366.058 113.23 365.736 113.076 365.456C112.932 365.167 112.725 364.946 112.455 364.792C112.195 364.628 111.887 364.546 111.531 364.546C111.184 364.546 110.876 364.628 110.606 364.792C110.346 364.946 110.139 365.167 109.985 365.456C109.841 365.736 109.768 366.058 109.768 366.424C109.768 366.8 109.841 367.132 109.985 367.421C110.139 367.7 110.346 367.922 110.606 368.085C110.876 368.239 111.184 368.317 111.531 368.317ZM113.206 369.92V368.042L113.51 366.338L113.206 364.662V362.943H115.084V369.92H113.206ZM117.784 369.92V360.039H119.676V369.92H117.784ZM116.152 364.604V362.943H121.309V364.604H116.152ZM125.54 370.064C124.808 370.064 124.158 369.91 123.59 369.602C123.022 369.284 122.569 368.851 122.232 368.302C121.905 367.753 121.741 367.127 121.741 366.424C121.741 365.731 121.9 365.115 122.218 364.575C122.545 364.026 122.988 363.593 123.547 363.275C124.105 362.948 124.727 362.784 125.41 362.784C126.084 362.784 126.677 362.938 127.187 363.246C127.707 363.545 128.111 363.959 128.4 364.489C128.699 365.009 128.848 365.601 128.848 366.265C128.848 366.39 128.839 366.52 128.819 366.655C128.81 366.781 128.786 366.925 128.747 367.089L122.882 367.103V365.687L127.866 365.673L127.1 366.265C127.081 365.851 127.004 365.505 126.869 365.225C126.744 364.946 126.556 364.734 126.306 364.59C126.065 364.436 125.767 364.359 125.41 364.359C125.035 364.359 124.707 364.445 124.428 364.619C124.149 364.782 123.932 365.018 123.778 365.326C123.633 365.625 123.561 365.981 123.561 366.395C123.561 366.819 123.638 367.19 123.792 367.508C123.956 367.816 124.187 368.056 124.486 368.23C124.784 368.394 125.131 368.475 125.526 368.475C125.882 368.475 126.205 368.418 126.494 368.302C126.783 368.177 127.033 367.994 127.245 367.753L128.357 368.865C128.02 369.26 127.606 369.559 127.115 369.761C126.633 369.963 126.108 370.064 125.54 370.064ZM132.965 370.064C132.32 370.064 131.742 369.905 131.232 369.588C130.721 369.27 130.317 368.837 130.018 368.288C129.73 367.739 129.585 367.122 129.585 366.439C129.585 365.745 129.73 365.124 130.018 364.575C130.317 364.026 130.717 363.593 131.217 363.275C131.728 362.957 132.31 362.798 132.965 362.798C133.466 362.798 133.914 362.9 134.309 363.102C134.713 363.304 135.036 363.588 135.276 363.954C135.527 364.31 135.662 364.715 135.681 365.167V367.652C135.662 368.105 135.532 368.514 135.291 368.88C135.05 369.246 134.728 369.535 134.323 369.747C133.919 369.958 133.466 370.064 132.965 370.064ZM133.283 368.317C133.639 368.317 133.948 368.239 134.208 368.085C134.477 367.922 134.684 367.7 134.829 367.421C134.983 367.132 135.06 366.8 135.06 366.424C135.06 366.058 134.983 365.736 134.829 365.456C134.684 365.167 134.477 364.946 134.208 364.792C133.948 364.628 133.644 364.546 133.298 364.546C132.941 364.546 132.628 364.628 132.359 364.792C132.099 364.956 131.892 365.177 131.737 365.456C131.593 365.736 131.521 366.058 131.521 366.424C131.521 366.8 131.593 367.132 131.737 367.421C131.892 367.7 132.103 367.922 132.373 368.085C132.643 368.239 132.946 368.317 133.283 368.317ZM136.837 369.92H134.959V368.042L135.262 366.338L134.944 364.662V359.476H136.837V369.92Z" fill="#767676"/>
<circle cx="178.848" cy="364.92" r="6.01881" fill="#FF9C38"/>
<path d="M191.926 369.92V359.765H193.89V369.92H191.926ZM193.37 369.92V368.172H198.542V369.92H193.37ZM202.904 370.064C202.172 370.064 201.522 369.91 200.954 369.602C200.385 369.284 199.933 368.851 199.596 368.302C199.268 367.753 199.105 367.127 199.105 366.424C199.105 365.731 199.263 365.115 199.581 364.575C199.909 364.026 200.352 363.593 200.91 363.275C201.469 362.948 202.09 362.784 202.774 362.784C203.448 362.784 204.04 362.938 204.55 363.246C205.07 363.545 205.475 363.959 205.764 364.489C206.062 365.009 206.212 365.601 206.212 366.265C206.212 366.39 206.202 366.52 206.183 366.655C206.173 366.781 206.149 366.925 206.11 367.089L200.246 367.103V365.687L205.229 365.673L204.464 366.265C204.444 365.851 204.367 365.505 204.233 365.225C204.107 364.946 203.92 364.734 203.669 364.59C203.428 364.436 203.13 364.359 202.774 364.359C202.398 364.359 202.071 364.445 201.791 364.619C201.512 364.782 201.295 365.018 201.141 365.326C200.997 365.625 200.925 365.981 200.925 366.395C200.925 366.819 201.002 367.19 201.156 367.508C201.319 367.816 201.551 368.056 201.849 368.23C202.148 368.394 202.494 368.475 202.889 368.475C203.246 368.475 203.568 368.418 203.857 368.302C204.146 368.177 204.396 367.994 204.608 367.753L205.72 368.865C205.383 369.26 204.969 369.559 204.478 369.761C203.997 369.963 203.472 370.064 202.904 370.064ZM210.3 370.064C209.664 370.064 209.091 369.905 208.581 369.588C208.07 369.27 207.671 368.837 207.382 368.288C207.093 367.739 206.949 367.122 206.949 366.439C206.949 365.745 207.093 365.124 207.382 364.575C207.671 364.026 208.07 363.593 208.581 363.275C209.091 362.957 209.664 362.798 210.3 362.798C210.801 362.798 211.248 362.9 211.643 363.102C212.038 363.304 212.351 363.588 212.582 363.954C212.823 364.31 212.953 364.715 212.972 365.167V367.681C212.953 368.143 212.823 368.552 212.582 368.909C212.351 369.265 212.038 369.549 211.643 369.761C211.248 369.963 210.801 370.064 210.3 370.064ZM210.646 368.317C211.176 368.317 211.605 368.143 211.932 367.796C212.26 367.44 212.423 366.983 212.423 366.424C212.423 366.058 212.346 365.736 212.192 365.456C212.048 365.167 211.841 364.946 211.571 364.792C211.311 364.628 211.003 364.546 210.646 364.546C210.3 364.546 209.992 364.628 209.722 364.792C209.462 364.946 209.255 365.167 209.101 365.456C208.956 365.736 208.884 366.058 208.884 366.424C208.884 366.8 208.956 367.132 209.101 367.421C209.255 367.7 209.462 367.922 209.722 368.085C209.992 368.239 210.3 368.317 210.646 368.317ZM212.322 369.92V368.042L212.625 366.338L212.322 364.662V362.943H214.2V369.92H212.322ZM218.821 370.064C218.176 370.064 217.598 369.905 217.087 369.588C216.577 369.27 216.173 368.837 215.874 368.288C215.585 367.739 215.441 367.122 215.441 366.439C215.441 365.745 215.585 365.124 215.874 364.575C216.173 364.026 216.572 363.593 217.073 363.275C217.583 362.957 218.166 362.798 218.821 362.798C219.322 362.798 219.769 362.9 220.164 363.102C220.569 363.304 220.891 363.588 221.132 363.954C221.382 364.31 221.517 364.715 221.537 365.167V367.652C221.517 368.105 221.387 368.514 221.147 368.88C220.906 369.246 220.583 369.535 220.179 369.747C219.774 369.958 219.322 370.064 218.821 370.064ZM219.139 368.317C219.495 368.317 219.803 368.239 220.063 368.085C220.333 367.922 220.54 367.7 220.684 367.421C220.838 367.132 220.915 366.8 220.915 366.424C220.915 366.058 220.838 365.736 220.684 365.456C220.54 365.167 220.333 364.946 220.063 364.792C219.803 364.628 219.5 364.546 219.153 364.546C218.797 364.546 218.484 364.628 218.214 364.792C217.954 364.956 217.747 365.177 217.593 365.456C217.449 365.736 217.376 366.058 217.376 366.424C217.376 366.8 217.449 367.132 217.593 367.421C217.747 367.7 217.959 367.922 218.229 368.085C218.498 368.239 218.802 368.317 219.139 368.317ZM222.692 369.92H220.814V368.042L221.118 366.338L220.8 364.662V359.476H222.692V369.92ZM226.764 370.079C226.369 370.079 225.979 370.026 225.594 369.92C225.218 369.814 224.872 369.67 224.554 369.487C224.236 369.294 223.962 369.063 223.731 368.793L224.857 367.652C225.098 367.922 225.377 368.124 225.695 368.259C226.013 368.394 226.364 368.461 226.75 368.461C227.058 368.461 227.289 368.418 227.443 368.331C227.607 368.244 227.689 368.114 227.689 367.941C227.689 367.748 227.602 367.599 227.429 367.493C227.265 367.387 227.048 367.301 226.779 367.233C226.509 367.156 226.225 367.074 225.926 366.988C225.637 366.891 225.358 366.771 225.088 366.626C224.819 366.472 224.597 366.265 224.424 366.005C224.26 365.736 224.178 365.389 224.178 364.965C224.178 364.522 224.284 364.137 224.496 363.81C224.718 363.482 225.031 363.227 225.435 363.044C225.84 362.861 226.316 362.77 226.865 362.77C227.443 362.77 227.963 362.871 228.425 363.073C228.897 363.275 229.287 363.579 229.595 363.983L228.454 365.124C228.242 364.864 228.002 364.676 227.732 364.561C227.472 364.445 227.188 364.387 226.88 364.387C226.6 364.387 226.384 364.431 226.23 364.517C226.085 364.604 226.013 364.724 226.013 364.879C226.013 365.052 226.095 365.187 226.259 365.283C226.432 365.379 226.653 365.466 226.923 365.543C227.193 365.61 227.472 365.692 227.761 365.789C228.059 365.875 228.339 366 228.599 366.164C228.868 366.328 229.085 366.545 229.249 366.814C229.422 367.084 229.509 367.431 229.509 367.854C229.509 368.538 229.263 369.082 228.772 369.487C228.281 369.881 227.612 370.079 226.764 370.079ZM238.517 370.064C237.776 370.064 237.087 369.934 236.452 369.674C235.816 369.405 235.258 369.034 234.776 368.562C234.304 368.081 233.938 367.522 233.678 366.886C233.428 366.251 233.303 365.567 233.303 364.835C233.303 364.103 233.428 363.42 233.678 362.784C233.938 362.148 234.304 361.595 234.776 361.123C235.258 360.651 235.811 360.28 236.437 360.011C237.073 359.741 237.766 359.606 238.517 359.606C239.326 359.606 240.039 359.741 240.655 360.011C241.272 360.271 241.816 360.632 242.288 361.094L240.959 362.423C240.679 362.115 240.337 361.874 239.933 361.701C239.529 361.527 239.057 361.441 238.517 361.441C238.045 361.441 237.612 361.522 237.217 361.686C236.832 361.84 236.495 362.071 236.206 362.38C235.917 362.678 235.696 363.039 235.542 363.463C235.388 363.877 235.311 364.334 235.311 364.835C235.311 365.346 235.388 365.808 235.542 366.222C235.696 366.636 235.917 366.997 236.206 367.305C236.495 367.604 236.832 367.835 237.217 367.999C237.612 368.162 238.045 368.244 238.517 368.244C239.086 368.244 239.572 368.158 239.976 367.984C240.39 367.811 240.737 367.565 241.016 367.248L242.345 368.577C241.873 369.048 241.325 369.414 240.699 369.674C240.073 369.934 239.346 370.064 238.517 370.064ZM246.604 370.064C245.901 370.064 245.266 369.905 244.698 369.588C244.139 369.26 243.691 368.822 243.354 368.273C243.027 367.715 242.863 367.093 242.863 366.41C242.863 365.726 243.027 365.115 243.354 364.575C243.682 364.026 244.13 363.593 244.698 363.275C245.266 362.948 245.897 362.784 246.59 362.784C247.303 362.784 247.938 362.948 248.497 363.275C249.065 363.593 249.513 364.026 249.84 364.575C250.168 365.115 250.331 365.726 250.331 366.41C250.331 367.093 250.168 367.715 249.84 368.273C249.513 368.822 249.065 369.26 248.497 369.588C247.938 369.905 247.307 370.064 246.604 370.064ZM246.59 368.302C246.946 368.302 247.259 368.225 247.529 368.071C247.808 367.907 248.02 367.686 248.165 367.406C248.319 367.118 248.396 366.79 248.396 366.424C248.396 366.058 248.319 365.736 248.165 365.456C248.01 365.177 247.799 364.96 247.529 364.806C247.259 364.643 246.946 364.561 246.59 364.561C246.243 364.561 245.935 364.643 245.666 364.806C245.396 364.96 245.184 365.177 245.03 365.456C244.876 365.736 244.799 366.058 244.799 366.424C244.799 366.79 244.876 367.118 245.03 367.406C245.184 367.686 245.396 367.907 245.666 368.071C245.935 368.225 246.243 368.302 246.59 368.302ZM256.244 369.92V365.919C256.244 365.505 256.114 365.167 255.854 364.907C255.594 364.647 255.257 364.517 254.843 364.517C254.573 364.517 254.333 364.575 254.121 364.691C253.909 364.806 253.74 364.97 253.615 365.182C253.5 365.394 253.442 365.639 253.442 365.919L252.705 365.543C252.705 364.994 252.821 364.517 253.052 364.113C253.293 363.699 253.62 363.376 254.034 363.145C254.458 362.914 254.935 362.798 255.464 362.798C255.975 362.798 256.432 362.928 256.837 363.188C257.241 363.439 257.559 363.771 257.79 364.185C258.021 364.59 258.137 365.028 258.137 365.5V369.92H256.244ZM251.55 369.92V362.943H253.442V369.92H251.55ZM261.929 369.92L258.852 362.943H260.932L263.142 368.692H262.117L264.341 362.943H266.349L263.287 369.92H261.929ZM270.347 370.064C269.615 370.064 268.965 369.91 268.397 369.602C267.829 369.284 267.376 368.851 267.039 368.302C266.712 367.753 266.548 367.127 266.548 366.424C266.548 365.731 266.707 365.115 267.025 364.575C267.352 364.026 267.795 363.593 268.354 363.275C268.912 362.948 269.533 362.784 270.217 362.784C270.891 362.784 271.484 362.938 271.994 363.246C272.514 363.545 272.918 363.959 273.207 364.489C273.506 365.009 273.655 365.601 273.655 366.265C273.655 366.39 273.646 366.52 273.626 366.655C273.617 366.781 273.593 366.925 273.554 367.089L267.689 367.103V365.687L272.673 365.673L271.907 366.265C271.888 365.851 271.811 365.505 271.676 365.225C271.551 364.946 271.363 364.734 271.113 364.59C270.872 364.436 270.574 364.359 270.217 364.359C269.842 364.359 269.514 364.445 269.235 364.619C268.956 364.782 268.739 365.018 268.585 365.326C268.44 365.625 268.368 365.981 268.368 366.395C268.368 366.819 268.445 367.19 268.599 367.508C268.763 367.816 268.994 368.056 269.293 368.23C269.591 368.394 269.938 368.475 270.333 368.475C270.689 368.475 271.012 368.418 271.301 368.302C271.59 368.177 271.84 367.994 272.052 367.753L273.164 368.865C272.827 369.26 272.413 369.559 271.922 369.761C271.44 369.963 270.915 370.064 270.347 370.064ZM274.825 369.92V362.943H276.718V369.92H274.825ZM276.718 366.063L275.981 365.572C276.068 364.715 276.318 364.041 276.732 363.55C277.146 363.049 277.743 362.798 278.523 362.798C278.86 362.798 279.164 362.856 279.433 362.972C279.703 363.078 279.949 363.256 280.17 363.506L278.986 364.864C278.88 364.749 278.75 364.662 278.596 364.604C278.451 364.546 278.283 364.517 278.09 364.517C277.686 364.517 277.353 364.647 277.093 364.907C276.843 365.158 276.718 365.543 276.718 366.063ZM281.903 369.92V360.039H283.795V369.92H281.903ZM280.27 364.604V362.943H285.427V364.604H280.27ZM289.659 370.064C288.927 370.064 288.277 369.91 287.709 369.602C287.141 369.284 286.688 368.851 286.351 368.302C286.024 367.753 285.86 367.127 285.86 366.424C285.86 365.731 286.019 365.115 286.337 364.575C286.664 364.026 287.107 363.593 287.666 363.275C288.224 362.948 288.845 362.784 289.529 362.784C290.203 362.784 290.795 362.938 291.306 363.246C291.826 363.545 292.23 363.959 292.519 364.489C292.818 365.009 292.967 365.601 292.967 366.265C292.967 366.39 292.957 366.52 292.938 366.655C292.929 366.781 292.904 366.925 292.866 367.089L287.001 367.103V365.687L291.985 365.673L291.219 366.265C291.2 365.851 291.123 365.505 290.988 365.225C290.863 364.946 290.675 364.734 290.425 364.59C290.184 364.436 289.885 364.359 289.529 364.359C289.154 364.359 288.826 364.445 288.547 364.619C288.268 364.782 288.051 365.018 287.897 365.326C287.752 365.625 287.68 365.981 287.68 366.395C287.68 366.819 287.757 367.19 287.911 367.508C288.075 367.816 288.306 368.056 288.605 368.23C288.903 368.394 289.25 368.475 289.645 368.475C290.001 368.475 290.324 368.418 290.613 368.302C290.901 368.177 291.152 367.994 291.364 367.753L292.476 368.865C292.139 369.26 291.725 369.559 291.234 369.761C290.752 369.963 290.227 370.064 289.659 370.064ZM297.084 370.064C296.439 370.064 295.861 369.905 295.351 369.588C294.84 369.27 294.436 368.837 294.137 368.288C293.848 367.739 293.704 367.122 293.704 366.439C293.704 365.745 293.848 365.124 294.137 364.575C294.436 364.026 294.836 363.593 295.336 363.275C295.847 362.957 296.429 362.798 297.084 362.798C297.585 362.798 298.033 362.9 298.428 363.102C298.832 363.304 299.155 363.588 299.395 363.954C299.646 364.31 299.781 364.715 299.8 365.167V367.652C299.781 368.105 299.651 368.514 299.41 368.88C299.169 369.246 298.846 369.535 298.442 369.747C298.038 369.958 297.585 370.064 297.084 370.064ZM297.402 368.317C297.758 368.317 298.066 368.239 298.326 368.085C298.596 367.922 298.803 367.7 298.948 367.421C299.102 367.132 299.179 366.8 299.179 366.424C299.179 366.058 299.102 365.736 298.948 365.456C298.803 365.167 298.596 364.946 298.326 364.792C298.066 364.628 297.763 364.546 297.416 364.546C297.06 364.546 296.747 364.628 296.477 364.792C296.217 364.956 296.01 365.177 295.856 365.456C295.712 365.736 295.64 366.058 295.64 366.424C295.64 366.8 295.712 367.132 295.856 367.421C296.01 367.7 296.222 367.922 296.492 368.085C296.762 368.239 297.065 368.317 297.402 368.317ZM300.955 369.92H299.078V368.042L299.381 366.338L299.063 364.662V359.476H300.955V369.92Z" fill="#767676"/>
</svg>
