<svg width="503" height="943" viewBox="0 0 503 943" fill="none" xmlns="http://www.w3.org/2000/svg">
<rect width="501.76" height="942.08" transform="translate(0.0800781)" fill="#EEF6FB"/>
<path d="M37.5935 55.1069C36.4812 55.1069 35.4484 54.9119 34.495 54.5219C33.5416 54.1174 32.7038 53.5613 31.9815 52.8535C31.2737 52.1312 30.7248 51.2934 30.3348 50.34C29.9592 49.3867 29.7714 48.3611 29.7714 47.2632C29.7714 46.1654 29.9592 45.1398 30.3348 44.1864C30.7248 43.233 31.2737 42.4024 31.9815 41.6946C32.7038 40.9868 33.5344 40.4307 34.4733 40.0262C35.4267 39.6217 36.4668 39.4195 37.5935 39.4195C38.8069 39.4195 39.8758 39.6217 40.8003 40.0262C41.7248 40.4162 42.5409 40.9579 43.2487 41.6513L41.2553 43.6447C40.8364 43.1825 40.3236 42.8213 39.7169 42.5613C39.1102 42.3013 38.4024 42.1713 37.5935 42.1713C36.8857 42.1713 36.2356 42.2941 35.6434 42.5397C35.0656 42.7708 34.56 43.1175 34.1266 43.5797C33.6933 44.0275 33.361 44.5692 33.1299 45.2048C32.8988 45.8259 32.7832 46.5121 32.7832 47.2632C32.7832 48.0288 32.8988 48.7222 33.1299 49.3433C33.361 49.9645 33.6933 50.5062 34.1266 50.9684C34.56 51.4162 35.0656 51.7629 35.6434 52.0085C36.2356 52.254 36.8857 52.3768 37.5935 52.3768C38.4457 52.3768 39.1752 52.2468 39.7819 51.9868C40.4031 51.7268 40.9231 51.3584 41.342 50.8817L43.3354 52.8752C42.6276 53.583 41.8042 54.1319 40.8653 54.5219C39.9264 54.9119 38.8358 55.1069 37.5935 55.1069ZM49.5442 55.1069C48.6197 55.1069 47.7964 54.9119 47.0741 54.5219C46.3663 54.1319 45.8102 53.5902 45.4057 52.8968C45.0012 52.2035 44.799 51.4018 44.799 50.4917V44.4248H47.6591V50.4267C47.6591 50.8601 47.7314 51.2356 47.8758 51.5534C48.0203 51.8568 48.2369 52.0879 48.5259 52.2468C48.8148 52.4057 49.1542 52.4851 49.5442 52.4851C50.1365 52.4851 50.5987 52.3046 50.931 51.9434C51.2632 51.5823 51.4293 51.0767 51.4293 50.4267V44.4248H54.2678V50.4917C54.2678 51.4162 54.0656 52.2251 53.6611 52.9185C53.2711 53.6119 52.7149 54.1536 51.9927 54.5436C51.2849 54.9191 50.4687 55.1069 49.5442 55.1069ZM60.125 55.1286C59.5328 55.1286 58.9477 55.0492 58.3699 54.8903C57.8066 54.7314 57.2865 54.5147 56.8099 54.2402C56.3332 53.9513 55.9215 53.6046 55.5748 53.2002L57.2649 51.4884C57.626 51.8929 58.0449 52.1962 58.5216 52.3985C58.9983 52.6007 59.5255 52.7018 60.1033 52.7018C60.5656 52.7018 60.9123 52.6368 61.1434 52.5068C61.389 52.3768 61.5118 52.1818 61.5118 51.9218C61.5118 51.6329 61.3817 51.409 61.1217 51.2501C60.8762 51.0912 60.5511 50.9612 60.1467 50.8601C59.7422 50.7445 59.3161 50.6217 58.8683 50.4917C58.4349 50.3473 58.016 50.1667 57.6116 49.95C57.2071 49.7189 56.8749 49.4083 56.6148 49.0183C56.3693 48.6138 56.2465 48.0938 56.2465 47.4582C56.2465 46.7938 56.4054 46.216 56.7232 45.7248C57.0554 45.2337 57.5249 44.8509 58.1316 44.5764C58.7383 44.302 59.4533 44.1647 60.2767 44.1647C61.1434 44.1647 61.9234 44.3164 62.6168 44.6198C63.3246 44.9231 63.9096 45.3781 64.3719 45.9848L62.6601 47.6966C62.3423 47.3066 61.9812 47.0249 61.5768 46.8515C61.1867 46.6782 60.7606 46.5915 60.2984 46.5915C59.8795 46.5915 59.5544 46.6565 59.3233 46.7865C59.1066 46.9165 58.9983 47.0971 58.9983 47.3282C58.9983 47.5882 59.1211 47.7905 59.3666 47.9349C59.6267 48.0794 59.9589 48.2094 60.3634 48.3249C60.7678 48.4261 61.1867 48.5488 61.6201 48.6933C62.0679 48.8233 62.4868 49.0111 62.8768 49.2567C63.2813 49.5022 63.6063 49.8272 63.8519 50.2317C64.1119 50.6362 64.2419 51.1562 64.2419 51.7918C64.2419 52.8174 63.8735 53.6335 63.1368 54.2402C62.4001 54.8325 61.3962 55.1286 60.125 55.1286ZM67.6943 54.8903V40.0695H70.5328V54.8903H67.6943ZM65.2459 46.9165V44.4248H72.9812V46.9165H65.2459ZM79.2422 55.1069C78.1877 55.1069 77.2343 54.8686 76.3821 54.3919C75.5442 53.9008 74.8725 53.2435 74.367 52.4201C73.8758 51.5823 73.6303 50.6506 73.6303 49.625C73.6303 48.5994 73.8758 47.6821 74.367 46.8732C74.8581 46.0498 75.5298 45.3998 76.3821 44.9231C77.2343 44.432 78.1805 44.1864 79.2205 44.1864C80.2895 44.1864 81.2429 44.432 82.0807 44.9231C82.9329 45.3998 83.6046 46.0498 84.0958 46.8732C84.5869 47.6821 84.8325 48.5994 84.8325 49.625C84.8325 50.6506 84.5869 51.5823 84.0958 52.4201C83.6046 53.2435 82.9329 53.9008 82.0807 54.3919C81.2429 54.8686 80.2967 55.1069 79.2422 55.1069ZM79.2205 52.4635C79.755 52.4635 80.2245 52.3479 80.6289 52.1168C81.0478 51.8712 81.3656 51.539 81.5823 51.1201C81.8134 50.6867 81.929 50.1956 81.929 49.6467C81.929 49.0978 81.8134 48.6138 81.5823 48.1949C81.3512 47.776 81.0334 47.451 80.6289 47.2199C80.2245 46.9743 79.755 46.8515 79.2205 46.8515C78.7005 46.8515 78.2383 46.9743 77.8338 47.2199C77.4293 47.451 77.1115 47.776 76.8804 48.1949C76.6493 48.6138 76.5337 49.0978 76.5337 49.6467C76.5337 50.1956 76.6493 50.6867 76.8804 51.1201C77.1115 51.539 77.4293 51.8712 77.8338 52.1168C78.2383 52.3479 78.7005 52.4635 79.2205 52.4635ZM86.6598 54.8903V44.4248H89.4983V54.8903H86.6598ZM93.4852 54.8903V48.715C93.4852 48.1083 93.2902 47.6388 92.9001 47.3066C92.5246 46.9599 92.0551 46.7865 91.4917 46.7865C91.1162 46.7865 90.7767 46.866 90.4734 47.0249C90.17 47.1693 89.9317 47.386 89.7583 47.6749C89.585 47.9638 89.4983 48.3105 89.4983 48.715L88.3933 48.1733C88.3933 47.3643 88.5666 46.6638 88.9133 46.0715C89.2744 45.4792 89.7583 45.0242 90.365 44.7064C90.9717 44.3742 91.6579 44.2081 92.4234 44.2081C93.1457 44.2081 93.803 44.3742 94.3952 44.7064C94.9875 45.0242 95.4569 45.4792 95.8036 46.0715C96.1503 46.6493 96.3236 47.3499 96.3236 48.1733V54.8903H93.4852ZM100.31 54.8903V48.715C100.31 48.1083 100.115 47.6388 99.7255 47.3066C99.3499 46.9599 98.8804 46.7865 98.3171 46.7865C97.9559 46.7865 97.6165 46.866 97.2987 47.0249C96.9953 47.1693 96.757 47.386 96.5837 47.6749C96.4103 47.9638 96.3236 48.3105 96.3236 48.715L94.6986 48.3249C94.7563 47.4871 94.9802 46.7649 95.3703 46.1582C95.7603 45.537 96.2731 45.0603 96.9087 44.7281C97.5443 44.3814 98.2521 44.2081 99.0321 44.2081C99.8121 44.2081 100.513 44.3742 101.134 44.7064C101.755 45.0242 102.246 45.4865 102.607 46.0932C102.968 46.6999 103.149 47.4221 103.149 48.2599V54.8903H100.31ZM110.455 55.1069C109.357 55.1069 108.382 54.8758 107.53 54.4136C106.678 53.9369 105.999 53.2868 105.493 52.4635C105.002 51.6401 104.756 50.7012 104.756 49.6467C104.756 48.6066 104.995 47.6821 105.471 46.8732C105.963 46.0498 106.627 45.3998 107.465 44.9231C108.303 44.432 109.234 44.1864 110.26 44.1864C111.271 44.1864 112.16 44.4175 112.925 44.8798C113.705 45.3276 114.312 45.9487 114.745 46.7432C115.193 47.5232 115.417 48.4116 115.417 49.4083C115.417 49.5961 115.403 49.7911 115.374 49.9934C115.359 50.1811 115.323 50.3978 115.265 50.6434L106.468 50.6651V48.5416L113.944 48.52L112.795 49.4083C112.766 48.7872 112.651 48.2672 112.448 47.8483C112.261 47.4293 111.979 47.1116 111.603 46.8949C111.242 46.6638 110.795 46.5482 110.26 46.5482C109.697 46.5482 109.206 46.6782 108.787 46.9382C108.368 47.1838 108.043 47.5377 107.812 47.9999C107.595 48.4477 107.487 48.9822 107.487 49.6033C107.487 50.2389 107.602 50.7951 107.833 51.2718C108.079 51.734 108.426 52.0951 108.873 52.3551C109.321 52.6007 109.841 52.7235 110.433 52.7235C110.968 52.7235 111.452 52.6368 111.885 52.4635C112.318 52.2757 112.694 52.0012 113.012 51.6401L114.68 53.3085C114.175 53.9008 113.554 54.3486 112.817 54.6519C112.095 54.9553 111.307 55.1069 110.455 55.1069ZM117.172 54.8903V44.4248H120.011V54.8903H117.172ZM120.011 49.105L118.906 48.3683C119.036 47.0827 119.411 46.0715 120.033 45.3348C120.654 44.5837 121.549 44.2081 122.719 44.2081C123.225 44.2081 123.68 44.2947 124.084 44.4681C124.489 44.627 124.857 44.8942 125.189 45.2698L123.413 47.3066C123.254 47.1332 123.059 47.0032 122.828 46.9165C122.611 46.8299 122.358 46.7865 122.069 46.7865C121.463 46.7865 120.964 46.9815 120.574 47.3716C120.199 47.7471 120.011 48.3249 120.011 49.105ZM129.551 55.1286C128.958 55.1286 128.373 55.0492 127.795 54.8903C127.232 54.7314 126.712 54.5147 126.235 54.2402C125.759 53.9513 125.347 53.6046 125 53.2002L126.69 51.4884C127.052 51.8929 127.47 52.1962 127.947 52.3985C128.424 52.6007 128.951 52.7018 129.529 52.7018C129.991 52.7018 130.338 52.6368 130.569 52.5068C130.815 52.3768 130.937 52.1818 130.937 51.9218C130.937 51.6329 130.807 51.409 130.547 51.2501C130.302 51.0912 129.977 50.9612 129.572 50.8601C129.168 50.7445 128.742 50.6217 128.294 50.4917C127.86 50.3473 127.442 50.1667 127.037 49.95C126.633 49.7189 126.3 49.4083 126.04 49.0183C125.795 48.6138 125.672 48.0938 125.672 47.4582C125.672 46.7938 125.831 46.216 126.149 45.7248C126.481 45.2337 126.95 44.8509 127.557 44.5764C128.164 44.302 128.879 44.1647 129.702 44.1647C130.569 44.1647 131.349 44.3164 132.042 44.6198C132.75 44.9231 133.335 45.3781 133.797 45.9848L132.086 47.6966C131.768 47.3066 131.407 47.0249 131.002 46.8515C130.612 46.6782 130.186 46.5915 129.724 46.5915C129.305 46.5915 128.98 46.6565 128.749 46.7865C128.532 46.9165 128.424 47.0971 128.424 47.3282C128.424 47.5882 128.547 47.7905 128.792 47.9349C129.052 48.0794 129.384 48.2094 129.789 48.3249C130.193 48.4261 130.612 48.5488 131.046 48.6933C131.493 48.8233 131.912 49.0111 132.302 49.2567C132.707 49.5022 133.032 49.8272 133.277 50.2317C133.537 50.6362 133.667 51.1562 133.667 51.7918C133.667 52.8174 133.299 53.6335 132.562 54.2402C131.826 54.8325 130.822 55.1286 129.551 55.1286Z" fill="#092C4C"/>
<path d="M417.778 52.8903L413.11 41.0428H415.587L419.193 50.632H418.233L421.873 41.0428H424.317L419.598 52.8903H417.778ZM425.632 52.8903V44.7504H427.857V52.8903H425.632ZM426.745 43.4359C426.385 43.4359 426.087 43.3179 425.852 43.082C425.616 42.8348 425.498 42.5315 425.498 42.172C425.498 41.8237 425.616 41.5259 425.852 41.2788C426.087 41.0316 426.385 40.908 426.745 40.908C427.115 40.908 427.413 41.0316 427.638 41.2788C427.874 41.5259 427.992 41.8237 427.992 42.172C427.992 42.5315 427.874 42.8348 427.638 43.082C427.413 43.3179 427.115 43.4359 426.745 43.4359ZM433.706 53.0588C432.852 53.0588 432.093 52.879 431.431 52.5195C430.768 52.1487 430.24 51.6432 429.846 51.0028C429.464 50.3624 429.273 49.6321 429.273 48.8119C429.273 48.003 429.459 47.2839 429.83 46.6548C430.212 46.0144 430.728 45.5088 431.38 45.138C432.032 44.756 432.756 44.565 433.554 44.565C434.34 44.565 435.031 44.7448 435.627 45.1043C436.234 45.4526 436.705 45.9357 437.042 46.5537C437.391 47.1604 437.565 47.8513 437.565 48.6265C437.565 48.7726 437.554 48.9243 437.531 49.0816C437.52 49.2276 437.492 49.3961 437.447 49.5871L430.605 49.604V47.9524L436.419 47.9356L435.526 48.6265C435.503 48.1434 435.413 47.739 435.256 47.4131C435.11 47.0873 434.891 46.8402 434.599 46.6716C434.318 46.4919 433.97 46.402 433.554 46.402C433.116 46.402 432.734 46.5031 432.408 46.7053C432.082 46.8963 431.829 47.1716 431.65 47.5311C431.481 47.8794 431.397 48.2951 431.397 48.7782C431.397 49.2726 431.487 49.7051 431.666 50.0759C431.857 50.4354 432.127 50.7163 432.475 50.9185C432.824 51.1095 433.228 51.205 433.689 51.205C434.105 51.205 434.481 51.1376 434.818 51.0028C435.155 50.8567 435.447 50.6432 435.694 50.3624L436.992 51.66C436.599 52.1207 436.116 52.4689 435.543 52.7049C434.981 52.9408 434.369 53.0588 433.706 53.0588ZM441.005 52.8903L437.955 44.7504H440.18L442.168 50.6657L441.494 50.6826L443.533 44.7504H445.134L447.174 50.6826L446.499 50.6657L448.488 44.7504H450.713L447.679 52.8903H446.078L444.022 47.2615H444.646L442.59 52.8903H441.005ZM453.958 52.8903L458.727 41.0428H460.598L465.35 52.8903H462.906L459.232 43.1663H460.075L456.351 52.8903H453.958ZM456.485 50.6826V48.7614H462.856V50.6826H456.485ZM466.645 52.8903V40.7058H468.853V52.8903H466.645ZM470.809 52.8903V40.7058H473.016V52.8903H470.809Z" fill="#FF8000"/>
<g clip-path="url(#clip0_110_18701)">
<g clip-path="url(#clip1_110_18701)">
<rect x="28.9707" y="108.339" width="52.9655" height="52.9655" rx="26.4828" fill="#D6E1E6"/>
</g>
<rect x="101.196" y="116.163" width="96.3009" height="14.4451" rx="7.22257" fill="#7F9CB5"/>
<rect x="203.516" y="116.163" width="132.414" height="14.4451" rx="7.22257" fill="#7F9CB5"/>
<rect x="101.196" y="141.442" width="204.639" height="12.0376" rx="6.01881" fill="#CADDEC"/>
<path d="M448.528 142.271C447.916 142.271 447.344 142.06 446.933 141.669C446.411 141.178 446.16 140.435 446.251 139.633L446.622 136.383C446.692 135.771 447.063 134.958 447.495 134.517L455.73 125.8C457.787 123.623 459.933 123.563 462.11 125.619C464.287 127.675 464.347 129.822 462.291 131.999L454.055 140.716C453.634 141.168 452.851 141.589 452.239 141.689L449.009 142.241C448.839 142.251 448.688 142.271 448.528 142.271ZM458.95 125.609C458.178 125.609 457.506 126.09 456.824 126.813L448.588 135.54C448.387 135.751 448.157 136.252 448.117 136.543L447.745 139.793C447.705 140.124 447.786 140.395 447.966 140.566C448.147 140.736 448.418 140.796 448.749 140.746L451.979 140.194C452.27 140.144 452.751 139.884 452.952 139.673L461.187 130.956C462.431 129.631 462.883 128.408 461.067 126.702C460.265 125.93 459.572 125.609 458.95 125.609Z" fill="#7E92A2"/>
<path d="M460.365 133.674C460.345 133.674 460.315 133.674 460.295 133.674C457.165 133.363 454.647 130.986 454.165 127.876C454.105 127.465 454.386 127.084 454.797 127.013C455.209 126.953 455.59 127.234 455.66 127.645C456.041 130.073 458.007 131.939 460.455 132.179C460.866 132.22 461.167 132.591 461.127 133.002C461.077 133.383 460.746 133.674 460.365 133.674Z" fill="#7E92A2"/>
<path d="M464.036 145.511H445.98C445.569 145.511 445.228 145.17 445.228 144.759C445.228 144.347 445.569 144.006 445.98 144.006H464.036C464.448 144.006 464.789 144.347 464.789 144.759C464.789 145.17 464.448 145.511 464.036 145.511Z" fill="#7E92A2"/>
<g clip-path="url(#clip2_110_18701)">
<rect x="28.9707" y="193.806" width="52.9655" height="52.9655" rx="26.4828" fill="black" fill-opacity="0.2"/>
</g>
<rect x="101.196" y="202.415" width="131.84" height="14.08" rx="7.04" fill="#7F9CB5"/>
<rect x="239.055" y="202.415" width="94.72" height="14.08" rx="7.04" fill="#7F9CB5"/>
<rect x="101.196" y="226.125" width="204.639" height="12.0376" rx="6.01881" fill="#CADDEC"/>
<path d="M448.528 227.738C447.916 227.738 447.344 227.527 446.933 227.136C446.411 226.645 446.16 225.902 446.251 225.1L446.622 221.85C446.692 221.238 447.063 220.425 447.495 219.984L455.73 211.267C457.787 209.09 459.933 209.03 462.11 211.086C464.287 213.142 464.347 215.289 462.291 217.466L454.055 226.183C453.634 226.635 452.851 227.056 452.239 227.156L449.009 227.708C448.839 227.718 448.688 227.738 448.528 227.738ZM458.95 211.076C458.178 211.076 457.506 211.557 456.824 212.28L448.588 221.007C448.387 221.218 448.157 221.719 448.117 222.01L447.745 225.26C447.705 225.591 447.786 225.862 447.966 226.033C448.147 226.203 448.418 226.263 448.749 226.213L451.979 225.662C452.27 225.611 452.751 225.351 452.952 225.14L461.187 216.423C462.431 215.099 462.883 213.875 461.067 212.169C460.265 211.397 459.572 211.076 458.95 211.076Z" fill="#7E92A2"/>
<path d="M460.365 219.141C460.345 219.141 460.315 219.141 460.295 219.141C457.165 218.83 454.647 216.453 454.165 213.343C454.105 212.932 454.386 212.551 454.797 212.48C455.209 212.42 455.59 212.701 455.66 213.112C456.041 215.54 458.007 217.406 460.455 217.646C460.866 217.687 461.167 218.058 461.127 218.469C461.077 218.85 460.746 219.141 460.365 219.141Z" fill="#7E92A2"/>
<path d="M464.036 230.978H445.98C445.569 230.978 445.228 230.637 445.228 230.226C445.228 229.815 445.569 229.473 445.98 229.473H464.036C464.448 229.473 464.789 229.815 464.789 230.226C464.789 230.637 464.448 230.978 464.036 230.978Z" fill="#7E92A2"/>
<g clip-path="url(#clip3_110_18701)">
<rect x="28.9707" y="279.273" width="52.9655" height="52.9655" rx="26.4828" fill="#D9D9D9"/>
</g>
<rect x="101.196" y="287.699" width="96.3009" height="14.4451" rx="7.22257" fill="#7F9CB5"/>
<rect x="203.516" y="287.699" width="158.72" height="14.08" rx="7.04" fill="#7F9CB5"/>
<rect x="101.196" y="311.774" width="204.639" height="12.0376" rx="6.01881" fill="#CADDEC"/>
<path d="M448.528 313.205C447.916 313.205 447.344 312.995 446.933 312.603C446.411 312.112 446.16 311.369 446.251 310.567L446.622 307.317C446.692 306.705 447.063 305.892 447.495 305.451L455.73 296.734C457.787 294.557 459.933 294.497 462.11 296.553C464.287 298.61 464.347 300.756 462.291 302.933L454.055 311.65C453.634 312.102 452.851 312.523 452.239 312.623L449.009 313.175C448.839 313.185 448.688 313.205 448.528 313.205ZM458.95 296.543C458.178 296.543 457.506 297.025 456.824 297.747L448.588 306.474C448.387 306.685 448.157 307.186 448.117 307.477L447.745 310.727C447.705 311.058 447.786 311.329 447.966 311.5C448.147 311.67 448.418 311.731 448.749 311.68L451.979 311.129C452.27 311.079 452.751 310.818 452.952 310.607L461.187 301.89C462.431 300.566 462.883 299.342 461.067 297.637C460.265 296.864 459.572 296.543 458.95 296.543Z" fill="#7E92A2"/>
<path d="M460.365 304.608C460.345 304.608 460.315 304.608 460.295 304.608C457.165 304.297 454.647 301.92 454.165 298.81C454.105 298.399 454.386 298.018 454.797 297.948C455.209 297.887 455.59 298.168 455.66 298.579C456.041 301.007 458.007 302.873 460.455 303.114C460.866 303.154 461.167 303.525 461.127 303.936C461.077 304.317 460.746 304.608 460.365 304.608Z" fill="#7E92A2"/>
<path d="M464.036 316.445H445.98C445.569 316.445 445.228 316.104 445.228 315.693C445.228 315.282 445.569 314.941 445.98 314.941H464.036C464.448 314.941 464.789 315.282 464.789 315.693C464.789 316.104 464.448 316.445 464.036 316.445Z" fill="#7E92A2"/>
</g>
<g clip-path="url(#clip4_110_18701)">
<rect x="29.5195" y="409.6" width="444.16" height="532.48" rx="14.4451" fill="#F6FAFD"/>
<rect width="444.16" height="93.8934" transform="translate(29.5195 409.6)" fill="#F6FAFD"/>
<path d="M63.7404 464.49V449.583H66.7089V464.49H63.7404ZM58.8868 451.88V449.258H71.5625V451.88H58.8868ZM71.1355 464.49V454.025H73.974V464.49H71.1355ZM73.974 458.705L72.869 457.968C72.999 456.683 73.3745 455.672 73.9957 454.935C74.6168 454.184 75.5124 453.808 76.6825 453.808C77.188 453.808 77.6431 453.895 78.0475 454.068C78.452 454.227 78.8204 454.494 79.1526 454.87L77.3758 456.907C77.2169 456.733 77.0219 456.603 76.7908 456.517C76.5741 456.43 76.3213 456.387 76.0324 456.387C75.4257 456.387 74.9274 456.582 74.5374 456.972C74.1618 457.347 73.974 457.925 73.974 458.705ZM84.2303 464.707C83.2769 464.707 82.4174 464.469 81.6518 463.992C80.8862 463.515 80.2868 462.865 79.8534 462.042C79.42 461.219 79.2034 460.294 79.2034 459.268C79.2034 458.228 79.42 457.297 79.8534 456.473C80.2868 455.65 80.8862 455 81.6518 454.523C82.4174 454.047 83.2769 453.808 84.2303 453.808C84.9814 453.808 85.6531 453.96 86.2454 454.263C86.8376 454.567 87.3071 454.993 87.6538 455.542C88.0149 456.076 88.2099 456.683 88.2388 457.362V461.132C88.2099 461.825 88.0149 462.439 87.6538 462.974C87.3071 463.508 86.8376 463.934 86.2454 464.252C85.6531 464.555 84.9814 464.707 84.2303 464.707ZM84.7503 462.085C85.5448 462.085 86.1876 461.825 86.6787 461.305C87.1699 460.771 87.4154 460.085 87.4154 459.247C87.4154 458.698 87.2999 458.214 87.0688 457.795C86.8521 457.362 86.5415 457.029 86.137 456.798C85.747 456.553 85.2848 456.43 84.7503 456.43C84.2303 456.43 83.768 456.553 83.3636 456.798C82.9736 457.029 82.663 457.362 82.4319 457.795C82.2152 458.214 82.1068 458.698 82.1068 459.247C82.1068 459.81 82.2152 460.308 82.4319 460.742C82.663 461.161 82.9736 461.493 83.3636 461.739C83.768 461.97 84.2303 462.085 84.7503 462.085ZM87.2638 464.49V461.674L87.7188 459.117L87.2638 456.603V454.025H90.0806V464.49H87.2638ZM99.6337 464.49V458.488C99.6337 457.867 99.4386 457.362 99.0486 456.972C98.6586 456.582 98.153 456.387 97.5319 456.387C97.1274 456.387 96.7663 456.473 96.4485 456.647C96.1307 456.82 95.8779 457.066 95.6901 457.383C95.5168 457.701 95.4301 458.069 95.4301 458.488L94.3251 457.925C94.3251 457.102 94.4984 456.387 94.8451 455.78C95.2062 455.159 95.6974 454.675 96.3185 454.328C96.9541 453.982 97.6691 453.808 98.4636 453.808C99.2292 453.808 99.9153 454.003 100.522 454.393C101.129 454.769 101.605 455.267 101.952 455.888C102.299 456.495 102.472 457.152 102.472 457.86V464.49H99.6337ZM92.5916 464.49V454.025H95.4301V464.49H92.5916ZM108.355 464.729C107.763 464.729 107.178 464.649 106.6 464.49C106.037 464.331 105.517 464.115 105.04 463.84C104.564 463.551 104.152 463.205 103.805 462.8L105.495 461.089C105.856 461.493 106.275 461.796 106.752 461.999C107.229 462.201 107.756 462.302 108.334 462.302C108.796 462.302 109.143 462.237 109.374 462.107C109.619 461.977 109.742 461.782 109.742 461.522C109.742 461.233 109.612 461.009 109.352 460.85C109.107 460.691 108.782 460.561 108.377 460.46C107.973 460.345 107.546 460.222 107.099 460.092C106.665 459.947 106.246 459.767 105.842 459.55C105.437 459.319 105.105 459.008 104.845 458.618C104.6 458.214 104.477 457.694 104.477 457.058C104.477 456.394 104.636 455.816 104.954 455.325C105.286 454.834 105.755 454.451 106.362 454.177C106.969 453.902 107.684 453.765 108.507 453.765C109.374 453.765 110.154 453.917 110.847 454.22C111.555 454.523 112.14 454.978 112.602 455.585L110.891 457.297C110.573 456.907 110.212 456.625 109.807 456.452C109.417 456.278 108.991 456.192 108.529 456.192C108.11 456.192 107.785 456.257 107.554 456.387C107.337 456.517 107.229 456.697 107.229 456.928C107.229 457.188 107.351 457.391 107.597 457.535C107.857 457.679 108.189 457.809 108.594 457.925C108.998 458.026 109.417 458.149 109.85 458.293C110.298 458.423 110.717 458.611 111.107 458.857C111.512 459.102 111.837 459.427 112.082 459.832C112.342 460.236 112.472 460.756 112.472 461.392C112.472 462.417 112.104 463.234 111.367 463.84C110.631 464.433 109.627 464.729 108.355 464.729ZM118.763 464.707C117.81 464.707 116.95 464.469 116.185 463.992C115.419 463.515 114.82 462.865 114.386 462.042C113.953 461.219 113.736 460.294 113.736 459.268C113.736 458.228 113.953 457.297 114.386 456.473C114.82 455.65 115.419 455 116.185 454.523C116.95 454.047 117.81 453.808 118.763 453.808C119.514 453.808 120.186 453.96 120.778 454.263C121.371 454.567 121.84 454.993 122.187 455.542C122.548 456.076 122.743 456.683 122.772 457.362V461.132C122.743 461.825 122.548 462.439 122.187 462.974C121.84 463.508 121.371 463.934 120.778 464.252C120.186 464.555 119.514 464.707 118.763 464.707ZM119.283 462.085C120.078 462.085 120.721 461.825 121.212 461.305C121.703 460.771 121.948 460.085 121.948 459.247C121.948 458.698 121.833 458.214 121.602 457.795C121.385 457.362 121.074 457.029 120.67 456.798C120.28 456.553 119.818 456.43 119.283 456.43C118.763 456.43 118.301 456.553 117.896 456.798C117.506 457.029 117.196 457.362 116.965 457.795C116.748 458.214 116.64 458.698 116.64 459.247C116.64 459.81 116.748 460.308 116.965 460.742C117.196 461.161 117.506 461.493 117.896 461.739C118.301 461.97 118.763 462.085 119.283 462.085ZM121.797 464.49V461.674L122.252 459.117L121.797 456.603V454.025H124.613V464.49H121.797ZM132.065 464.707C130.996 464.707 130.035 464.469 129.183 463.992C128.331 463.515 127.659 462.865 127.168 462.042C126.677 461.219 126.431 460.294 126.431 459.268C126.431 458.228 126.677 457.297 127.168 456.473C127.659 455.65 128.331 455 129.183 454.523C130.05 454.032 131.01 453.787 132.065 453.787C132.888 453.787 133.647 453.938 134.34 454.242C135.033 454.545 135.633 454.978 136.138 455.542L134.318 457.383C134.044 457.08 133.712 456.849 133.322 456.69C132.946 456.531 132.527 456.452 132.065 456.452C131.545 456.452 131.075 456.574 130.656 456.82C130.252 457.051 129.927 457.376 129.681 457.795C129.45 458.199 129.335 458.683 129.335 459.247C129.335 459.796 129.45 460.287 129.681 460.72C129.927 461.139 130.252 461.471 130.656 461.717C131.075 461.948 131.545 462.064 132.065 462.064C132.541 462.064 132.968 461.984 133.343 461.825C133.733 461.652 134.065 461.406 134.34 461.089L136.182 462.93C135.647 463.508 135.033 463.949 134.34 464.252C133.647 464.555 132.888 464.707 132.065 464.707ZM139.158 464.49V449.67H141.997V464.49H139.158ZM136.71 456.517V454.025H144.445V456.517H136.71ZM146.041 464.49V454.025H148.902V464.49H146.041ZM147.472 452.335C147.009 452.335 146.627 452.183 146.323 451.88C146.02 451.562 145.868 451.172 145.868 450.71C145.868 450.262 146.02 449.879 146.323 449.561C146.627 449.244 147.009 449.085 147.472 449.085C147.948 449.085 148.331 449.244 148.62 449.561C148.923 449.879 149.075 450.262 149.075 450.71C149.075 451.172 148.923 451.562 148.62 451.88C148.331 452.183 147.948 452.335 147.472 452.335ZM156.335 464.707C155.28 464.707 154.327 464.469 153.475 463.992C152.637 463.501 151.965 462.844 151.459 462.02C150.968 461.182 150.723 460.251 150.723 459.225C150.723 458.199 150.968 457.282 151.459 456.473C151.951 455.65 152.622 455 153.475 454.523C154.327 454.032 155.273 453.787 156.313 453.787C157.382 453.787 158.335 454.032 159.173 454.523C160.025 455 160.697 455.65 161.188 456.473C161.679 457.282 161.925 458.199 161.925 459.225C161.925 460.251 161.679 461.182 161.188 462.02C160.697 462.844 160.025 463.501 159.173 463.992C158.335 464.469 157.389 464.707 156.335 464.707ZM156.313 462.064C156.847 462.064 157.317 461.948 157.721 461.717C158.14 461.471 158.458 461.139 158.675 460.72C158.906 460.287 159.021 459.796 159.021 459.247C159.021 458.698 158.906 458.214 158.675 457.795C158.444 457.376 158.126 457.051 157.721 456.82C157.317 456.574 156.847 456.452 156.313 456.452C155.793 456.452 155.331 456.574 154.926 456.82C154.522 457.051 154.204 457.376 153.973 457.795C153.742 458.214 153.626 458.698 153.626 459.247C153.626 459.796 153.742 460.287 153.973 460.72C154.204 461.139 154.522 461.471 154.926 461.717C155.331 461.948 155.793 462.064 156.313 462.064ZM170.794 464.49V458.488C170.794 457.867 170.599 457.362 170.209 456.972C169.819 456.582 169.314 456.387 168.693 456.387C168.288 456.387 167.927 456.473 167.609 456.647C167.291 456.82 167.039 457.066 166.851 457.383C166.677 457.701 166.591 458.069 166.591 458.488L165.486 457.925C165.486 457.102 165.659 456.387 166.006 455.78C166.367 455.159 166.858 454.675 167.479 454.328C168.115 453.982 168.83 453.808 169.624 453.808C170.39 453.808 171.076 454.003 171.683 454.393C172.289 454.769 172.766 455.267 173.113 455.888C173.459 456.495 173.633 457.152 173.633 457.86V464.49H170.794ZM163.752 464.49V454.025H166.591V464.49H163.752ZM179.516 464.729C178.924 464.729 178.339 464.649 177.761 464.49C177.198 464.331 176.678 464.115 176.201 463.84C175.724 463.551 175.313 463.205 174.966 462.8L176.656 461.089C177.017 461.493 177.436 461.796 177.913 461.999C178.389 462.201 178.917 462.302 179.494 462.302C179.957 462.302 180.303 462.237 180.534 462.107C180.78 461.977 180.903 461.782 180.903 461.522C180.903 461.233 180.773 461.009 180.513 460.85C180.267 460.691 179.942 460.561 179.538 460.46C179.133 460.345 178.707 460.222 178.259 460.092C177.826 459.947 177.407 459.767 177.003 459.55C176.598 459.319 176.266 459.008 176.006 458.618C175.76 458.214 175.638 457.694 175.638 457.058C175.638 456.394 175.796 455.816 176.114 455.325C176.446 454.834 176.916 454.451 177.523 454.177C178.129 453.902 178.844 453.765 179.668 453.765C180.534 453.765 181.314 453.917 182.008 454.22C182.716 454.523 183.301 454.978 183.763 455.585L182.051 457.297C181.733 456.907 181.372 456.625 180.968 456.452C180.578 456.278 180.152 456.192 179.689 456.192C179.271 456.192 178.945 456.257 178.714 456.387C178.498 456.517 178.389 456.697 178.389 456.928C178.389 457.188 178.512 457.391 178.758 457.535C179.018 457.679 179.35 457.809 179.754 457.925C180.159 458.026 180.578 458.149 181.011 458.293C181.459 458.423 181.878 458.611 182.268 458.857C182.672 459.102 182.997 459.427 183.243 459.832C183.503 460.236 183.633 460.756 183.633 461.392C183.633 462.417 183.265 463.234 182.528 463.84C181.791 464.433 180.787 464.729 179.516 464.729Z" fill="#092C4C"/>
<path d="M389.438 462.49L384.77 450.643H387.247L390.854 460.232H389.893L393.533 450.643H395.977L391.258 462.49H389.438ZM397.293 462.49V454.351H399.517V462.49H397.293ZM398.405 453.036C398.045 453.036 397.748 452.918 397.512 452.682C397.276 452.435 397.158 452.132 397.158 451.772C397.158 451.424 397.276 451.126 397.512 450.879C397.748 450.632 398.045 450.508 398.405 450.508C398.776 450.508 399.073 450.632 399.298 450.879C399.534 451.126 399.652 451.424 399.652 451.772C399.652 452.132 399.534 452.435 399.298 452.682C399.073 452.918 398.776 453.036 398.405 453.036ZM405.366 462.659C404.512 462.659 403.754 462.479 403.091 462.12C402.428 461.749 401.9 461.243 401.507 460.603C401.125 459.962 400.934 459.232 400.934 458.412C400.934 457.603 401.119 456.884 401.49 456.255C401.872 455.614 402.389 455.109 403.04 454.738C403.692 454.356 404.416 454.165 405.214 454.165C406.001 454.165 406.692 454.345 407.287 454.704C407.894 455.053 408.366 455.536 408.703 456.154C409.051 456.76 409.225 457.451 409.225 458.227C409.225 458.373 409.214 458.524 409.191 458.682C409.18 458.828 409.152 458.996 409.107 459.187L402.265 459.204V457.553L408.079 457.536L407.186 458.227C407.163 457.744 407.074 457.339 406.916 457.013C406.77 456.687 406.551 456.44 406.259 456.272C405.978 456.092 405.63 456.002 405.214 456.002C404.776 456.002 404.394 456.103 404.068 456.305C403.742 456.496 403.49 456.772 403.31 457.131C403.141 457.479 403.057 457.895 403.057 458.378C403.057 458.873 403.147 459.305 403.327 459.676C403.518 460.035 403.787 460.316 404.136 460.519C404.484 460.71 404.888 460.805 405.349 460.805C405.765 460.805 406.141 460.738 406.478 460.603C406.815 460.457 407.107 460.243 407.354 459.962L408.652 461.26C408.259 461.721 407.776 462.069 407.203 462.305C406.641 462.541 406.029 462.659 405.366 462.659ZM412.666 462.49L409.615 454.351H411.84L413.828 460.266L413.154 460.283L415.194 454.351H416.795L418.834 460.283L418.16 460.266L420.148 454.351H422.373L419.339 462.49H417.738L415.682 456.862H416.306L414.25 462.49H412.666ZM425.618 462.49L430.387 450.643H432.258L437.01 462.49H434.566L430.893 452.766H431.735L428.011 462.49H425.618ZM428.146 460.283V458.361H434.516V460.283H428.146ZM438.305 462.49V450.306H440.513V462.49H438.305ZM442.469 462.49V450.306H444.677V462.49H442.469Z" fill="#FF8000"/>
<g clip-path="url(#clip5_110_18701)">
<g clip-path="url(#clip6_110_18701)">
<path d="M62.8364 541.118C62.024 541.118 61.2833 540.968 60.6143 540.67C59.9572 540.359 59.4017 539.911 58.9478 539.326L60.0946 538.179C60.3694 538.597 60.7457 538.932 61.2236 539.182C61.7015 539.421 62.2331 539.541 62.8185 539.541C63.368 539.541 63.8399 539.439 64.2342 539.236C64.6403 539.021 64.9569 538.722 65.1839 538.34C65.4229 537.958 65.5423 537.516 65.5423 537.014C65.5423 536.5 65.4229 536.058 65.1839 535.688C64.9569 535.306 64.6344 535.013 64.2162 534.81C63.7981 534.607 63.3023 534.505 62.7289 534.505C62.5138 534.505 62.2988 534.523 62.0838 534.559C61.8687 534.583 61.6596 534.625 61.4566 534.685L62.1734 533.717C62.4003 533.609 62.6452 533.526 62.9081 533.466C63.1709 533.406 63.4337 533.376 63.6966 533.376C64.3656 533.376 64.9629 533.532 65.4886 533.842C66.0262 534.153 66.4503 534.589 66.7609 535.15C67.0834 535.712 67.2447 536.363 67.2447 537.104C67.2447 537.892 67.0536 538.591 66.6713 539.2C66.3009 539.798 65.7872 540.27 65.1302 540.616C64.4731 540.951 63.7085 541.118 62.8364 541.118ZM61.4566 534.685V533.663L65.0943 529.524L67.1014 529.506L63.3561 533.753L61.4566 534.685ZM59.5391 530.007V528.502H67.1014V529.506L65.6319 530.007H59.5391ZM73.9663 541.118C73.0344 541.118 72.1802 540.855 71.4037 540.329C70.6391 539.804 70.0298 539.063 69.5759 538.107C69.1219 537.14 68.8949 536.005 68.8949 534.702C68.8949 533.4 69.1159 532.271 69.5579 531.316C70.0119 530.36 70.6212 529.625 71.3858 529.111C72.1504 528.586 72.9926 528.323 73.9125 528.323C74.8563 528.323 75.7105 528.586 76.4751 529.111C77.2396 529.625 77.843 530.36 78.285 531.316C78.739 532.271 78.9659 533.406 78.9659 534.72C78.9659 536.023 78.739 537.157 78.285 538.125C77.843 539.081 77.2396 539.822 76.4751 540.347C75.7224 540.861 74.8861 541.118 73.9663 541.118ZM73.9304 539.523C74.5875 539.523 75.1609 539.344 75.6507 538.985C76.1525 538.615 76.5467 538.071 76.8335 537.355C77.1202 536.638 77.2635 535.754 77.2635 534.702C77.2635 533.651 77.1202 532.773 76.8335 532.068C76.5467 531.351 76.1525 530.814 75.6507 530.455C75.149 530.085 74.5696 529.9 73.9125 529.9C73.2674 529.9 72.6939 530.085 72.1922 530.455C71.6904 530.814 71.2962 531.351 71.0095 532.068C70.7347 532.773 70.5973 533.651 70.5973 534.702C70.5973 535.754 70.7347 536.638 71.0095 537.355C71.2962 538.071 71.6904 538.615 72.1922 538.985C72.6939 539.344 73.2733 539.523 73.9304 539.523ZM83.5882 540.939L88.6775 528.502H89.896L94.9674 540.939H93.1395L88.9642 530.42H89.5914L85.3802 540.939H83.5882ZM86.0074 538.125V536.656H92.5482V538.125H86.0074ZM101.173 541.118C100.528 541.118 99.9424 540.986 99.4167 540.724C98.903 540.449 98.4908 540.072 98.1802 539.595C97.8696 539.117 97.6964 538.573 97.6606 537.964V535.401C97.6964 534.78 97.8696 534.237 98.1802 533.771C98.5028 533.293 98.9209 532.922 99.4346 532.66C99.9603 532.385 100.54 532.247 101.173 532.247C101.949 532.247 102.648 532.445 103.27 532.839C103.903 533.233 104.398 533.765 104.757 534.434C105.115 535.103 105.294 535.855 105.294 536.692C105.294 537.528 105.115 538.28 104.757 538.949C104.398 539.618 103.903 540.15 103.27 540.544C102.648 540.927 101.949 541.118 101.173 541.118ZM96.6929 544.505V532.427H98.3057V534.667L98.001 536.727L98.3057 538.806V544.505H96.6929ZM100.904 539.595C101.442 539.595 101.914 539.469 102.32 539.218C102.726 538.967 103.049 538.627 103.287 538.197C103.526 537.755 103.646 537.247 103.646 536.674C103.646 536.112 103.526 535.61 103.287 535.168C103.049 534.726 102.726 534.386 102.32 534.147C101.914 533.896 101.448 533.771 100.922 533.771C100.384 533.771 99.9125 533.896 99.5063 534.147C99.1001 534.386 98.7835 534.726 98.5566 535.168C98.3296 535.61 98.2161 536.118 98.2161 536.692C98.2161 537.253 98.3236 537.755 98.5386 538.197C98.7656 538.627 99.0822 538.967 99.4884 539.218C99.9065 539.469 100.378 539.595 100.904 539.595ZM107.123 540.939V532.427H108.736V540.939H107.123ZM108.736 536.082L108.126 535.813C108.126 534.726 108.377 533.86 108.879 533.215C109.381 532.57 110.104 532.247 111.047 532.247C111.477 532.247 111.866 532.325 112.212 532.48C112.559 532.624 112.881 532.869 113.18 533.215L112.123 534.308C111.943 534.117 111.746 533.98 111.531 533.896C111.316 533.812 111.065 533.771 110.779 533.771C110.181 533.771 109.691 533.962 109.309 534.344C108.927 534.726 108.736 535.306 108.736 536.082ZM117.767 539.917L122.354 535.079C122.82 534.601 123.184 534.189 123.447 533.842C123.71 533.484 123.895 533.155 124.003 532.857C124.122 532.558 124.182 532.247 124.182 531.925C124.182 531.292 123.979 530.796 123.573 530.437C123.166 530.079 122.641 529.9 121.996 529.9C121.362 529.9 120.807 530.055 120.329 530.366C119.851 530.664 119.427 531.13 119.057 531.764L117.874 530.778C118.364 529.966 118.955 529.356 119.648 528.95C120.341 528.532 121.141 528.323 122.049 528.323C122.814 528.323 123.477 528.472 124.039 528.771C124.612 529.07 125.054 529.488 125.365 530.025C125.675 530.563 125.831 531.19 125.831 531.907C125.831 532.421 125.765 532.881 125.633 533.287C125.514 533.693 125.293 534.111 124.97 534.541C124.66 534.959 124.224 535.461 123.662 536.046L119.953 539.863L117.767 539.917ZM117.767 540.939V539.917L119.2 539.433H126.117V540.939H117.767ZM132.784 541.118C131.852 541.118 130.998 540.855 130.221 540.329C129.457 539.804 128.847 539.063 128.393 538.107C127.939 537.14 127.712 536.005 127.712 534.702C127.712 533.4 127.933 532.271 128.375 531.316C128.829 530.36 129.439 529.625 130.203 529.111C130.968 528.586 131.81 528.323 132.73 528.323C133.674 528.323 134.528 528.586 135.293 529.111C136.057 529.625 136.66 530.36 137.102 531.316C137.556 532.271 137.783 533.406 137.783 534.72C137.783 536.023 137.556 537.157 137.102 538.125C136.66 539.081 136.057 539.822 135.293 540.347C134.54 540.861 133.704 541.118 132.784 541.118ZM132.748 539.523C133.405 539.523 133.978 539.344 134.468 538.985C134.97 538.615 135.364 538.071 135.651 537.355C135.938 536.638 136.081 535.754 136.081 534.702C136.081 533.651 135.938 532.773 135.651 532.068C135.364 531.351 134.97 530.814 134.468 530.455C133.966 530.085 133.387 529.9 132.73 529.9C132.085 529.9 131.511 530.085 131.01 530.455C130.508 530.814 130.114 531.351 129.827 532.068C129.552 532.773 129.415 533.651 129.415 534.702C129.415 535.754 129.552 536.638 129.827 537.355C130.114 538.071 130.508 538.615 131.01 538.985C131.511 539.344 132.091 539.523 132.748 539.523ZM139.187 539.917L143.774 535.079C144.24 534.601 144.604 534.189 144.867 533.842C145.13 533.484 145.315 533.155 145.423 532.857C145.542 532.558 145.602 532.247 145.602 531.925C145.602 531.292 145.399 530.796 144.993 530.437C144.586 530.079 144.061 529.9 143.416 529.9C142.782 529.9 142.227 530.055 141.749 530.366C141.271 530.664 140.847 531.13 140.477 531.764L139.294 530.778C139.784 529.966 140.375 529.356 141.068 528.95C141.761 528.532 142.561 528.323 143.469 528.323C144.234 528.323 144.897 528.472 145.459 528.771C146.032 529.07 146.474 529.488 146.785 530.025C147.095 530.563 147.251 531.19 147.251 531.907C147.251 532.421 147.185 532.881 147.053 533.287C146.934 533.693 146.713 534.111 146.39 534.541C146.08 534.959 145.644 535.461 145.082 536.046L141.373 539.863L139.187 539.917ZM139.187 540.939V539.917L140.62 539.433H147.537V540.939H139.187ZM152.734 541.118C151.886 541.118 151.127 540.968 150.458 540.67C149.801 540.359 149.246 539.911 148.792 539.326L149.939 538.179C150.214 538.597 150.59 538.932 151.068 539.182C151.558 539.421 152.101 539.541 152.698 539.541C153.26 539.541 153.75 539.433 154.168 539.218C154.598 539.003 154.933 538.705 155.171 538.322C155.422 537.928 155.548 537.462 155.548 536.925C155.548 536.375 155.428 535.909 155.189 535.527C154.95 535.144 154.628 534.858 154.222 534.667C153.827 534.464 153.391 534.362 152.914 534.362C152.424 534.362 151.976 534.422 151.57 534.541C151.175 534.661 150.799 534.864 150.441 535.15L150.458 534.075C150.662 533.824 150.895 533.621 151.157 533.466C151.42 533.311 151.719 533.191 152.053 533.108C152.388 533.024 152.776 532.982 153.218 532.982C154.078 532.982 154.807 533.161 155.404 533.52C156.002 533.878 156.456 534.362 156.766 534.971C157.089 535.581 157.25 536.261 157.25 537.014C157.25 537.803 157.053 538.507 156.659 539.129C156.277 539.75 155.745 540.24 155.064 540.598C154.383 540.945 153.606 541.118 152.734 541.118ZM150.441 535.15L149.527 534.237L150.082 528.502H151.623L150.996 534.398L150.441 535.15ZM150.423 530.007L150.082 528.502H156.623V530.007H150.423Z" fill="#FF8000"/>
<path d="M187.22 529.856L182.453 527.103C181.675 526.654 180.712 526.654 179.925 527.103L175.166 529.856C174.388 530.305 173.906 531.14 173.906 532.047V537.536C173.906 538.435 174.388 539.269 175.166 539.727L179.933 542.479C180.712 542.929 181.675 542.929 182.461 542.479L187.228 539.727C188.006 539.277 188.488 538.443 188.488 537.536V532.047C188.48 531.14 187.998 530.313 187.22 529.856ZM180.591 531.381C180.591 531.052 180.864 530.779 181.193 530.779C181.522 530.779 181.795 531.052 181.795 531.381V535.594C181.795 535.923 181.522 536.196 181.193 536.196C180.864 536.196 180.591 535.923 180.591 535.594V531.381ZM181.931 538.507C181.891 538.603 181.835 538.692 181.763 538.772C181.61 538.924 181.41 539.004 181.193 539.004C181.089 539.004 180.984 538.98 180.888 538.94C180.784 538.9 180.703 538.844 180.623 538.772C180.551 538.692 180.495 538.603 180.447 538.507C180.407 538.411 180.391 538.306 180.391 538.202C180.391 537.993 180.471 537.785 180.623 537.632C180.703 537.56 180.784 537.504 180.888 537.464C181.185 537.335 181.538 537.407 181.763 537.632C181.835 537.712 181.891 537.793 181.931 537.897C181.971 537.993 181.996 538.098 181.996 538.202C181.996 538.306 181.971 538.411 181.931 538.507Z" fill="#FF8000"/>
</g>
<g clip-path="url(#clip7_110_18701)">
<rect x="202.861" y="528.772" width="169.73" height="12.0376" rx="6.01881" fill="#CADDEC"/>
</g>
<g clip-path="url(#clip8_110_18701)">
<path d="M59.0015 601.309L63.589 596.47C64.055 595.993 64.4193 595.58 64.6822 595.234C64.945 594.876 65.1302 594.547 65.2377 594.248C65.3571 593.95 65.4169 593.639 65.4169 593.317C65.4169 592.683 65.2138 592.188 64.8076 591.829C64.4014 591.471 63.8758 591.292 63.2306 591.292C62.5975 591.292 62.0419 591.447 61.5641 591.758C61.0862 592.056 60.6621 592.522 60.2918 593.155L59.109 592.17C59.5988 591.357 60.1902 590.748 60.8831 590.342C61.576 589.924 62.3764 589.715 63.2844 589.715C64.049 589.715 64.712 589.864 65.2735 590.163C65.847 590.461 66.289 590.879 66.5996 591.417C66.9102 591.955 67.0655 592.582 67.0655 593.299C67.0655 593.812 66.9998 594.272 66.8684 594.678C66.7489 595.085 66.5279 595.503 66.2054 595.933C65.8947 596.351 65.4587 596.853 64.8972 597.438L61.1878 601.255L59.0015 601.309ZM59.0015 602.33V601.309L60.4351 600.825H67.3522V602.33H59.0015ZM68.6965 598.047L73.2303 589.894H75.1298L70.5064 598.047H68.6965ZM68.6965 599.087V598.047L69.4133 597.582H78.23V599.087H68.6965ZM74.7714 602.33V594.105H76.438V602.33H74.7714ZM82.5907 602.33L87.68 589.894H88.8985L93.9699 602.33H92.142L87.9667 591.811H88.5939L84.3827 602.33H82.5907ZM85.0099 599.517V598.047H91.5507V599.517H85.0099ZM100.175 602.51C99.5303 602.51 98.9449 602.378 98.4192 602.115C97.9055 601.841 97.4934 601.464 97.1827 600.986C96.8721 600.508 96.6989 599.965 96.6631 599.356V596.793C96.6989 596.172 96.8721 595.628 97.1827 595.162C97.5053 594.684 97.9234 594.314 98.4371 594.051C98.9628 593.777 99.5422 593.639 100.175 593.639C100.952 593.639 101.651 593.836 102.272 594.23C102.905 594.625 103.401 595.156 103.759 595.825C104.118 596.494 104.297 597.247 104.297 598.083C104.297 598.92 104.118 599.672 103.759 600.341C103.401 601.01 102.905 601.542 102.272 601.936C101.651 602.318 100.952 602.51 100.175 602.51ZM95.6954 605.896V593.818H97.3082V596.058L97.0035 598.119L97.3082 600.198V605.896H95.6954ZM99.9066 600.986C100.444 600.986 100.916 600.861 101.322 600.61C101.728 600.359 102.051 600.019 102.29 599.589C102.529 599.147 102.648 598.639 102.648 598.065C102.648 597.504 102.529 597.002 102.29 596.56C102.051 596.118 101.728 595.778 101.322 595.539C100.916 595.288 100.45 595.162 99.9245 595.162C99.3869 595.162 98.915 595.288 98.5088 595.539C98.1026 595.778 97.786 596.118 97.5591 596.56C97.3321 597.002 97.2186 597.51 97.2186 598.083C97.2186 598.645 97.3261 599.147 97.5411 599.589C97.7681 600.019 98.0847 600.359 98.4909 600.61C98.909 600.861 99.3809 600.986 99.9066 600.986ZM106.125 602.33V593.818H107.738V602.33H106.125ZM107.738 597.474L107.129 597.205C107.129 596.118 107.38 595.252 107.882 594.607C108.383 593.962 109.106 593.639 110.05 593.639C110.48 593.639 110.868 593.717 111.215 593.872C111.561 594.015 111.884 594.26 112.182 594.607L111.125 595.7C110.946 595.509 110.749 595.371 110.534 595.288C110.319 595.204 110.068 595.162 109.781 595.162C109.184 595.162 108.694 595.353 108.312 595.736C107.929 596.118 107.738 596.697 107.738 597.474ZM116.769 601.309L121.357 596.47C121.822 595.993 122.187 595.58 122.45 595.234C122.712 594.876 122.898 594.547 123.005 594.248C123.125 593.95 123.184 593.639 123.184 593.317C123.184 592.683 122.981 592.188 122.575 591.829C122.169 591.471 121.643 591.292 120.998 591.292C120.365 591.292 119.809 591.447 119.332 591.758C118.854 592.056 118.43 592.522 118.059 593.155L116.877 592.17C117.366 591.357 117.958 590.748 118.651 590.342C119.344 589.924 120.144 589.715 121.052 589.715C121.816 589.715 122.48 589.864 123.041 590.163C123.614 590.461 124.056 590.879 124.367 591.417C124.678 591.955 124.833 592.582 124.833 593.299C124.833 593.812 124.767 594.272 124.636 594.678C124.516 595.085 124.295 595.503 123.973 595.933C123.662 596.351 123.226 596.853 122.665 597.438L118.955 601.255L116.769 601.309ZM116.769 602.33V601.309L118.203 600.825H125.12V602.33H116.769ZM131.786 602.51C130.854 602.51 130 602.247 129.224 601.721C128.459 601.195 127.85 600.455 127.396 599.499C126.942 598.531 126.715 597.396 126.715 596.094C126.715 594.792 126.936 593.663 127.378 592.707C127.832 591.752 128.441 591.017 129.206 590.503C129.97 589.977 130.813 589.715 131.732 589.715C132.676 589.715 133.53 589.977 134.295 590.503C135.06 591.017 135.663 591.752 136.105 592.707C136.559 593.663 136.786 594.798 136.786 596.112C136.786 597.414 136.559 598.549 136.105 599.517C135.663 600.473 135.06 601.213 134.295 601.739C133.542 602.253 132.706 602.51 131.786 602.51ZM131.75 600.915C132.407 600.915 132.981 600.735 133.471 600.377C133.972 600.007 134.367 599.463 134.653 598.746C134.94 598.03 135.084 597.145 135.084 596.094C135.084 595.043 134.94 594.165 134.653 593.46C134.367 592.743 133.972 592.206 133.471 591.847C132.969 591.477 132.39 591.292 131.732 591.292C131.087 591.292 130.514 591.477 130.012 591.847C129.51 592.206 129.116 592.743 128.829 593.46C128.555 594.165 128.417 595.043 128.417 596.094C128.417 597.145 128.555 598.03 128.829 598.746C129.116 599.463 129.51 600.007 130.012 600.377C130.514 600.735 131.093 600.915 131.75 600.915ZM138.189 601.309L142.777 596.47C143.242 595.993 143.607 595.58 143.87 595.234C144.132 594.876 144.318 594.547 144.425 594.248C144.545 593.95 144.604 593.639 144.604 593.317C144.604 592.683 144.401 592.188 143.995 591.829C143.589 591.471 143.063 591.292 142.418 591.292C141.785 591.292 141.229 591.447 140.752 591.758C140.274 592.056 139.85 592.522 139.479 593.155L138.297 592.17C138.786 591.357 139.378 590.748 140.071 590.342C140.764 589.924 141.564 589.715 142.472 589.715C143.236 589.715 143.9 589.864 144.461 590.163C145.034 590.461 145.476 590.879 145.787 591.417C146.098 591.955 146.253 592.582 146.253 593.299C146.253 593.812 146.187 594.272 146.056 594.678C145.936 595.085 145.715 595.503 145.393 595.933C145.082 596.351 144.646 596.853 144.085 597.438L140.375 601.255L138.189 601.309ZM138.189 602.33V601.309L139.623 600.825H146.54V602.33H138.189ZM151.737 602.51C150.889 602.51 150.13 602.36 149.461 602.062C148.804 601.751 148.248 601.303 147.794 600.718L148.941 599.571C149.216 599.989 149.592 600.323 150.07 600.574C150.56 600.813 151.104 600.933 151.701 600.933C152.262 600.933 152.752 600.825 153.17 600.61C153.6 600.395 153.935 600.096 154.174 599.714C154.425 599.32 154.55 598.854 154.55 598.316C154.55 597.767 154.431 597.301 154.192 596.918C153.953 596.536 153.63 596.249 153.224 596.058C152.83 595.855 152.394 595.754 151.916 595.754C151.426 595.754 150.978 595.813 150.572 595.933C150.178 596.052 149.801 596.255 149.443 596.542L149.461 595.467C149.664 595.216 149.897 595.013 150.16 594.858C150.423 594.702 150.721 594.583 151.056 594.499C151.39 594.416 151.779 594.374 152.221 594.374C153.081 594.374 153.81 594.553 154.407 594.911C155.004 595.27 155.458 595.754 155.769 596.363C156.091 596.972 156.253 597.653 156.253 598.406C156.253 599.194 156.056 599.899 155.661 600.52C155.279 601.142 154.747 601.631 154.066 601.99C153.385 602.336 152.609 602.51 151.737 602.51ZM149.443 596.542L148.529 595.628L149.085 589.894H150.626L149.999 595.79L149.443 596.542ZM149.425 591.399L149.085 589.894H155.625V591.399H149.425Z" fill="#FF8000"/>
<path d="M187.22 591.248L182.453 588.495C181.675 588.046 180.712 588.046 179.925 588.495L175.166 591.248C174.388 591.697 173.906 592.532 173.906 593.438V598.928C173.906 599.826 174.388 600.661 175.166 601.118L179.933 603.871C180.712 604.32 181.675 604.32 182.461 603.871L187.228 601.118C188.006 600.669 188.488 599.834 188.488 598.928V593.438C188.48 592.532 187.998 591.705 187.22 591.248ZM180.591 592.772C180.591 592.443 180.864 592.17 181.193 592.17C181.522 592.17 181.795 592.443 181.795 592.772V596.986C181.795 597.315 181.522 597.587 181.193 597.587C180.864 597.587 180.591 597.315 180.591 596.986V592.772ZM181.931 599.899C181.891 599.995 181.835 600.083 181.763 600.163C181.61 600.316 181.41 600.396 181.193 600.396C181.089 600.396 180.984 600.372 180.888 600.332C180.784 600.292 180.703 600.236 180.623 600.163C180.551 600.083 180.495 599.995 180.447 599.899C180.407 599.802 180.391 599.698 180.391 599.594C180.391 599.385 180.471 599.176 180.623 599.024C180.703 598.952 180.784 598.896 180.888 598.855C181.185 598.727 181.538 598.799 181.763 599.024C181.835 599.104 181.891 599.184 181.931 599.289C181.971 599.385 181.996 599.489 181.996 599.594C181.996 599.698 181.971 599.802 181.931 599.899Z" fill="#FF8000"/>
</g>
<g clip-path="url(#clip9_110_18701)">
<rect x="202.861" y="590.164" width="231.122" height="12.0376" rx="6.01881" fill="#CADDEC"/>
</g>
<g clip-path="url(#clip10_110_18701)">
<path d="M59.0015 662.701L63.589 657.862C64.055 657.385 64.4193 656.972 64.6822 656.626C64.945 656.268 65.1302 655.939 65.2377 655.64C65.3571 655.342 65.4169 655.031 65.4169 654.709C65.4169 654.075 65.2138 653.58 64.8076 653.221C64.4014 652.863 63.8758 652.684 63.2306 652.684C62.5975 652.684 62.0419 652.839 61.5641 653.149C61.0862 653.448 60.6621 653.914 60.2918 654.547L59.109 653.562C59.5988 652.749 60.1902 652.14 60.8831 651.734C61.576 651.316 62.3764 651.107 63.2844 651.107C64.049 651.107 64.712 651.256 65.2735 651.555C65.847 651.853 66.289 652.271 66.5996 652.809C66.9102 653.347 67.0655 653.974 67.0655 654.691C67.0655 655.204 66.9998 655.664 66.8684 656.07C66.7489 656.477 66.5279 656.895 66.2054 657.325C65.8947 657.743 65.4587 658.245 64.8972 658.83L61.1878 662.647L59.0015 662.701ZM59.0015 663.722V662.701L60.4351 662.217H67.3522V663.722H59.0015ZM68.6965 659.439L73.2303 651.286H75.1298L70.5064 659.439H68.6965ZM68.6965 660.479V659.439L69.4133 658.973H78.23V660.479H68.6965ZM74.7714 663.722V655.497H76.438V663.722H74.7714ZM84.0121 663.722V651.286H85.1948L90.4633 659.941H89.6569L94.9254 651.286H96.1081V663.722H94.4236V654.243L94.8179 654.35L90.6604 661.178H89.4777L85.3203 654.35L85.6966 654.243V663.722H84.0121ZM102.378 663.901C101.601 663.901 100.896 663.71 100.263 663.328C99.63 662.934 99.1282 662.402 98.7579 661.733C98.3995 661.064 98.2203 660.312 98.2203 659.475C98.2203 658.639 98.3995 657.886 98.7579 657.217C99.1282 656.548 99.624 656.017 100.245 655.622C100.878 655.228 101.589 655.031 102.378 655.031C103.023 655.031 103.596 655.168 104.098 655.443C104.612 655.706 105.024 656.076 105.335 656.554C105.645 657.02 105.818 657.564 105.854 658.185V660.748C105.818 661.357 105.645 661.9 105.335 662.378C105.036 662.856 104.63 663.232 104.116 663.507C103.614 663.77 103.035 663.901 102.378 663.901ZM102.647 662.378C103.447 662.378 104.092 662.109 104.582 661.572C105.072 661.022 105.317 660.323 105.317 659.475C105.317 658.89 105.203 658.382 104.976 657.952C104.761 657.51 104.45 657.17 104.044 656.931C103.638 656.68 103.166 656.554 102.629 656.554C102.091 656.554 101.613 656.68 101.195 656.931C100.789 657.181 100.466 657.528 100.227 657.97C100 658.4 99.8868 658.896 99.8868 659.457C99.8868 660.031 100 660.539 100.227 660.981C100.466 661.411 100.795 661.751 101.213 662.002C101.631 662.253 102.109 662.378 102.647 662.378ZM105.209 663.722V661.429L105.514 659.35L105.209 657.289V655.21H106.84V663.722H105.209ZM109.188 663.722V655.21H110.801V663.722H109.188ZM110.801 658.866L110.191 658.597C110.191 657.51 110.442 656.644 110.944 655.999C111.446 655.354 112.169 655.031 113.112 655.031C113.542 655.031 113.931 655.109 114.277 655.264C114.624 655.407 114.946 655.652 115.245 655.999L114.188 657.092C114.008 656.901 113.811 656.763 113.596 656.68C113.381 656.596 113.13 656.554 112.844 656.554C112.246 656.554 111.756 656.745 111.374 657.128C110.992 657.51 110.801 658.089 110.801 658.866ZM119.832 662.701L124.419 657.862C124.885 657.385 125.249 656.972 125.512 656.626C125.775 656.268 125.96 655.939 126.068 655.64C126.187 655.342 126.247 655.031 126.247 654.709C126.247 654.075 126.044 653.58 125.638 653.221C125.231 652.863 124.706 652.684 124.061 652.684C123.427 652.684 122.872 652.839 122.394 653.149C121.916 653.448 121.492 653.914 121.122 654.547L119.939 653.562C120.429 652.749 121.02 652.14 121.713 651.734C122.406 651.316 123.206 651.107 124.114 651.107C124.879 651.107 125.542 651.256 126.104 651.555C126.677 651.853 127.119 652.271 127.43 652.809C127.74 653.347 127.896 653.974 127.896 654.691C127.896 655.204 127.83 655.664 127.698 656.07C127.579 656.477 127.358 656.895 127.035 657.325C126.725 657.743 126.289 658.245 125.727 658.83L122.018 662.647L119.832 662.701ZM119.832 663.722V662.701L121.265 662.217H128.182V663.722H119.832ZM134.849 663.901C133.917 663.901 133.063 663.639 132.286 663.113C131.522 662.587 130.912 661.847 130.458 660.891C130.004 659.923 129.777 658.788 129.777 657.486C129.777 656.184 129.998 655.055 130.44 654.099C130.894 653.144 131.504 652.409 132.268 651.895C133.033 651.369 133.875 651.107 134.795 651.107C135.739 651.107 136.593 651.369 137.358 651.895C138.122 652.409 138.725 653.144 139.167 654.099C139.621 655.055 139.848 656.19 139.848 657.504C139.848 658.806 139.621 659.941 139.167 660.909C138.725 661.865 138.122 662.605 137.358 663.131C136.605 663.645 135.769 663.901 134.849 663.901ZM134.813 662.307C135.47 662.307 136.043 662.127 136.533 661.769C137.035 661.399 137.429 660.855 137.716 660.138C138.003 659.421 138.146 658.537 138.146 657.486C138.146 656.435 138.003 655.557 137.716 654.852C137.429 654.135 137.035 653.597 136.533 653.239C136.031 652.869 135.452 652.684 134.795 652.684C134.15 652.684 133.576 652.869 133.075 653.239C132.573 653.597 132.179 654.135 131.892 654.852C131.617 655.557 131.48 656.435 131.48 657.486C131.48 658.537 131.617 659.421 131.892 660.138C132.179 660.855 132.573 661.399 133.075 661.769C133.576 662.127 134.156 662.307 134.813 662.307ZM141.252 662.701L145.839 657.862C146.305 657.385 146.669 656.972 146.932 656.626C147.195 656.268 147.38 655.939 147.488 655.64C147.607 655.342 147.667 655.031 147.667 654.709C147.667 654.075 147.464 653.58 147.058 653.221C146.651 652.863 146.126 652.684 145.481 652.684C144.847 652.684 144.292 652.839 143.814 653.149C143.336 653.448 142.912 653.914 142.542 654.547L141.359 653.562C141.849 652.749 142.44 652.14 143.133 651.734C143.826 651.316 144.626 651.107 145.534 651.107C146.299 651.107 146.962 651.256 147.524 651.555C148.097 651.853 148.539 652.271 148.85 652.809C149.16 653.347 149.316 653.974 149.316 654.691C149.316 655.204 149.25 655.664 149.118 656.07C148.999 656.477 148.778 656.895 148.455 657.325C148.145 657.743 147.709 658.245 147.147 658.83L143.438 662.647L141.252 662.701ZM141.252 663.722V662.701L142.685 662.217H149.602V663.722H141.252ZM154.799 663.901C153.951 663.901 153.192 663.752 152.523 663.453C151.866 663.143 151.311 662.695 150.857 662.109L152.004 660.963C152.279 661.381 152.655 661.715 153.133 661.966C153.623 662.205 154.166 662.325 154.763 662.325C155.325 662.325 155.815 662.217 156.233 662.002C156.663 661.787 156.998 661.488 157.236 661.106C157.487 660.712 157.613 660.246 157.613 659.708C157.613 659.159 157.493 658.693 157.254 658.31C157.015 657.928 156.693 657.641 156.287 657.45C155.892 657.247 155.456 657.146 154.979 657.146C154.489 657.146 154.041 657.205 153.635 657.325C153.24 657.444 152.864 657.647 152.506 657.934L152.523 656.859C152.727 656.608 152.96 656.405 153.222 656.25C153.485 656.094 153.784 655.975 154.118 655.891C154.453 655.808 154.841 655.766 155.283 655.766C156.143 655.766 156.872 655.945 157.469 656.303C158.067 656.662 158.521 657.146 158.831 657.755C159.154 658.364 159.315 659.045 159.315 659.798C159.315 660.586 159.118 661.291 158.724 661.912C158.342 662.534 157.81 663.023 157.129 663.382C156.448 663.728 155.671 663.901 154.799 663.901ZM152.506 657.934L151.592 657.02L152.147 651.286H153.688L153.061 657.181L152.506 657.934ZM152.488 652.791L152.147 651.286H158.688V652.791H152.488Z" fill="#7E92A2"/>
</g>
<g clip-path="url(#clip11_110_18701)">
<rect x="202.861" y="651.556" width="169.73" height="12.0376" rx="6.01881" fill="#CADDEC"/>
</g>
<g clip-path="url(#clip12_110_18701)">
<path d="M61.5103 725.114V712.678H63.1769V725.114H61.5103ZM58.9657 714.183V712.678H62.9977V714.183H58.9657ZM69.5507 725.293C68.7263 725.293 67.9976 725.138 67.3644 724.827C66.7432 724.517 66.2593 724.087 65.9129 723.537C65.5664 722.988 65.3932 722.366 65.3932 721.673C65.3932 721.112 65.5007 720.598 65.7158 720.132C65.9308 719.666 66.2474 719.272 66.6655 718.95C67.0837 718.615 67.5735 718.376 68.135 718.233L68.1887 718.717C67.7109 718.585 67.3047 718.376 66.9702 718.089C66.6357 717.791 66.3788 717.444 66.1996 717.05C66.0324 716.644 65.9487 716.214 65.9487 715.76C65.9487 715.115 66.104 714.547 66.4147 714.057C66.7253 713.568 67.1494 713.185 67.687 712.911C68.2365 712.624 68.8577 712.481 69.5507 712.481C70.2555 712.481 70.8767 712.624 71.4143 712.911C71.9519 713.185 72.376 713.568 72.6867 714.057C72.9973 714.547 73.1526 715.115 73.1526 715.76C73.1526 716.214 73.063 716.644 72.8838 717.05C72.7165 717.444 72.4656 717.791 72.1311 718.089C71.8086 718.376 71.4084 718.585 70.9305 718.717L70.9663 718.233C71.5398 718.376 72.0296 718.615 72.4358 718.95C72.8539 719.272 73.1705 719.666 73.3855 720.132C73.6125 720.598 73.726 721.112 73.726 721.673C73.726 722.366 73.5528 722.988 73.2063 723.537C72.8599 724.087 72.3701 724.517 71.7369 724.827C71.1157 725.138 70.3869 725.293 69.5507 725.293ZM69.5507 723.77C70.0524 723.77 70.4885 723.675 70.8588 723.483C71.2411 723.28 71.5398 723.006 71.7548 722.659C71.9818 722.313 72.0953 721.912 72.0953 721.458C72.0953 721.016 71.9818 720.622 71.7548 720.276C71.5398 719.929 71.2411 719.66 70.8588 719.469C70.4885 719.266 70.0524 719.165 69.5507 719.165C69.0608 719.165 68.6248 719.266 68.2425 719.469C67.8602 719.66 67.5556 719.929 67.3286 720.276C67.1135 720.622 67.006 721.016 67.006 721.458C67.006 721.912 67.1135 722.313 67.3286 722.659C67.5556 723.006 67.8602 723.28 68.2425 723.483C68.6248 723.675 69.0608 723.77 69.5507 723.77ZM69.5507 717.857C70.148 717.857 70.6378 717.671 71.0201 717.301C71.4024 716.931 71.5935 716.453 71.5935 715.867C71.5935 715.294 71.4024 714.828 71.0201 714.47C70.6378 714.099 70.148 713.914 69.5507 713.914C68.9653 713.914 68.4814 714.099 68.0991 714.47C67.7168 714.828 67.5257 715.294 67.5257 715.867C67.5257 716.453 67.7168 716.931 68.0991 717.301C68.4814 717.671 68.9653 717.857 69.5507 717.857ZM79.6721 725.114V712.678H80.8548L86.1233 721.333H85.3169L90.5854 712.678H91.7681V725.114H90.0836V715.634L90.4779 715.742L86.3204 722.569H85.1377L80.9803 715.742L81.3566 715.634V725.114H79.6721ZM98.0377 725.293C97.2612 725.293 96.5563 725.102 95.9232 724.72C95.29 724.326 94.7882 723.794 94.4179 723.125C94.0595 722.456 93.8803 721.703 93.8803 720.867C93.8803 720.031 94.0595 719.278 94.4179 718.609C94.7882 717.94 95.284 717.409 95.9052 717.014C96.5384 716.62 97.2492 716.423 98.0377 716.423C98.6828 716.423 99.2563 716.56 99.758 716.835C100.272 717.098 100.684 717.468 100.995 717.946C101.305 718.412 101.478 718.956 101.514 719.577V722.139C101.478 722.749 101.305 723.292 100.995 723.77C100.696 724.248 100.29 724.624 99.776 724.899C99.2742 725.162 98.6948 725.293 98.0377 725.293ZM98.3065 723.77C99.1069 723.77 99.7521 723.501 100.242 722.964C100.732 722.414 100.977 721.715 100.977 720.867C100.977 720.282 100.863 719.774 100.636 719.344C100.421 718.902 100.11 718.561 99.7043 718.322C99.2981 718.072 98.8262 717.946 98.2886 717.946C97.751 717.946 97.2731 718.072 96.855 718.322C96.4488 718.573 96.1263 718.92 95.8873 719.362C95.6603 719.792 95.5468 720.288 95.5468 720.849C95.5468 721.423 95.6603 721.93 95.8873 722.372C96.1263 722.802 96.4548 723.143 96.8729 723.394C97.2911 723.645 97.7689 723.77 98.3065 723.77ZM100.869 725.114V722.82L101.174 720.742L100.869 718.681V716.602H102.5V725.114H100.869ZM104.848 725.114V716.602H106.461V725.114H104.848ZM106.461 720.258L105.851 719.989C105.851 718.902 106.102 718.036 106.604 717.391C107.106 716.745 107.829 716.423 108.772 716.423C109.202 716.423 109.591 716.501 109.937 716.656C110.284 716.799 110.606 717.044 110.905 717.391L109.848 718.484C109.668 718.293 109.471 718.155 109.256 718.072C109.041 717.988 108.79 717.946 108.504 717.946C107.906 717.946 107.416 718.137 107.034 718.52C106.652 718.902 106.461 719.481 106.461 720.258ZM115.492 724.093L120.079 719.254C120.545 718.776 120.909 718.364 121.172 718.018C121.435 717.659 121.62 717.331 121.728 717.032C121.847 716.734 121.907 716.423 121.907 716.1C121.907 715.467 121.704 714.971 121.298 714.613C120.891 714.255 120.366 714.075 119.721 714.075C119.087 714.075 118.532 714.231 118.054 714.541C117.576 714.84 117.152 715.306 116.782 715.939L115.599 714.953C116.089 714.141 116.68 713.532 117.373 713.126C118.066 712.708 118.866 712.498 119.774 712.498C120.539 712.498 121.202 712.648 121.764 712.946C122.337 713.245 122.779 713.663 123.09 714.201C123.4 714.738 123.556 715.366 123.556 716.082C123.556 716.596 123.49 717.056 123.358 717.462C123.239 717.868 123.018 718.287 122.695 718.717C122.385 719.135 121.949 719.637 121.387 720.222L117.678 724.039L115.492 724.093ZM115.492 725.114V724.093L116.925 723.609H123.842V725.114H115.492ZM130.509 725.293C129.577 725.293 128.723 725.031 127.946 724.505C127.182 723.979 126.572 723.239 126.118 722.283C125.664 721.315 125.437 720.18 125.437 718.878C125.437 717.576 125.658 716.447 126.1 715.491C126.554 714.535 127.164 713.801 127.928 713.287C128.693 712.761 129.535 712.498 130.455 712.498C131.399 712.498 132.253 712.761 133.018 713.287C133.782 713.801 134.385 714.535 134.827 715.491C135.281 716.447 135.508 717.582 135.508 718.896C135.508 720.198 135.281 721.333 134.827 722.301C134.385 723.256 133.782 723.997 133.018 724.523C132.265 725.036 131.429 725.293 130.509 725.293ZM130.473 723.698C131.13 723.698 131.703 723.519 132.193 723.161C132.695 722.791 133.089 722.247 133.376 721.53C133.663 720.813 133.806 719.929 133.806 718.878C133.806 717.827 133.663 716.949 133.376 716.244C133.089 715.527 132.695 714.989 132.193 714.631C131.691 714.261 131.112 714.075 130.455 714.075C129.81 714.075 129.236 714.261 128.735 714.631C128.233 714.989 127.839 715.527 127.552 716.244C127.277 716.949 127.14 717.827 127.14 718.878C127.14 719.929 127.277 720.813 127.552 721.53C127.839 722.247 128.233 722.791 128.735 723.161C129.236 723.519 129.816 723.698 130.473 723.698ZM136.912 724.093L141.499 719.254C141.965 718.776 142.329 718.364 142.592 718.018C142.855 717.659 143.04 717.331 143.148 717.032C143.267 716.734 143.327 716.423 143.327 716.1C143.327 715.467 143.124 714.971 142.718 714.613C142.311 714.255 141.786 714.075 141.141 714.075C140.507 714.075 139.952 714.231 139.474 714.541C138.996 714.84 138.572 715.306 138.202 715.939L137.019 714.953C137.509 714.141 138.1 713.532 138.793 713.126C139.486 712.708 140.286 712.498 141.194 712.498C141.959 712.498 142.622 712.648 143.184 712.946C143.757 713.245 144.199 713.663 144.51 714.201C144.82 714.738 144.976 715.366 144.976 716.082C144.976 716.596 144.91 717.056 144.778 717.462C144.659 717.868 144.438 718.287 144.115 718.717C143.805 719.135 143.369 719.637 142.807 720.222L139.098 724.039L136.912 724.093ZM136.912 725.114V724.093L138.345 723.609H145.262V725.114H136.912ZM150.459 725.293C149.611 725.293 148.852 725.144 148.183 724.845C147.526 724.535 146.971 724.087 146.517 723.501L147.664 722.354C147.939 722.773 148.315 723.107 148.793 723.358C149.283 723.597 149.826 723.716 150.423 723.716C150.985 723.716 151.475 723.609 151.893 723.394C152.323 723.179 152.658 722.88 152.896 722.498C153.147 722.104 153.273 721.638 153.273 721.1C153.273 720.551 153.153 720.085 152.914 719.702C152.675 719.32 152.353 719.033 151.947 718.842C151.552 718.639 151.116 718.537 150.639 718.537C150.149 718.537 149.701 718.597 149.295 718.717C148.9 718.836 148.524 719.039 148.166 719.326L148.183 718.251C148.387 718 148.62 717.797 148.882 717.641C149.145 717.486 149.444 717.367 149.778 717.283C150.113 717.199 150.501 717.158 150.943 717.158C151.803 717.158 152.532 717.337 153.129 717.695C153.727 718.054 154.181 718.537 154.491 719.147C154.814 719.756 154.975 720.437 154.975 721.19C154.975 721.978 154.778 722.683 154.384 723.304C154.002 723.925 153.47 724.415 152.789 724.774C152.108 725.12 151.331 725.293 150.459 725.293ZM148.166 719.326L147.252 718.412L147.807 712.678H149.348L148.721 718.573L148.166 719.326ZM148.148 714.183L147.807 712.678H154.348V714.183H148.148Z" fill="#7E92A2"/>
</g>
<g clip-path="url(#clip13_110_18701)">
<rect x="202.861" y="712.948" width="185.379" height="12.0376" rx="6.01881" fill="#CADDEC"/>
</g>
<g clip-path="url(#clip14_110_18701)">
<path d="M61.5103 786.506V774.069H63.1769V786.506H61.5103ZM58.9657 775.575V774.069H62.9977V775.575H58.9657ZM65.214 782.223L69.7478 774.069H71.6473L67.0239 782.223H65.214ZM65.214 783.262V782.223L65.9308 781.757H74.7475V783.262H65.214ZM71.2889 786.506V778.281H72.9555V786.506H71.2889ZM80.5296 786.506V774.069H81.7123L86.9808 782.725H86.1744L91.4429 774.069H92.6256V786.506H90.9411V777.026L91.3354 777.134L87.1779 783.961H85.9952L81.8378 777.134L82.2141 777.026V786.506H80.5296ZM98.8952 786.685C98.1187 786.685 97.4138 786.494 96.7807 786.112C96.1475 785.717 95.6457 785.186 95.2754 784.517C94.917 783.848 94.7378 783.095 94.7378 782.259C94.7378 781.423 94.917 780.67 95.2754 780.001C95.6457 779.332 96.1415 778.8 96.7627 778.406C97.3959 778.012 98.1067 777.815 98.8952 777.815C99.5403 777.815 100.114 777.952 100.616 778.227C101.129 778.49 101.541 778.86 101.852 779.338C102.163 779.804 102.336 780.347 102.372 780.969V783.531C102.336 784.14 102.163 784.684 101.852 785.162C101.553 785.64 101.147 786.016 100.633 786.291C100.132 786.554 99.5523 786.685 98.8952 786.685ZM99.164 785.162C99.9644 785.162 100.61 784.893 101.099 784.355C101.589 783.806 101.834 783.107 101.834 782.259C101.834 781.673 101.721 781.166 101.494 780.736C101.279 780.294 100.968 779.953 100.562 779.714C100.156 779.463 99.6837 779.338 99.1461 779.338C98.6085 779.338 98.1306 779.463 97.7125 779.714C97.3063 779.965 96.9837 780.312 96.7448 780.754C96.5178 781.184 96.4043 781.679 96.4043 782.241C96.4043 782.814 96.5178 783.322 96.7448 783.764C96.9837 784.194 97.3123 784.535 97.7304 784.786C98.1485 785.036 98.6264 785.162 99.164 785.162ZM101.727 786.506V784.212L102.031 782.133L101.727 780.073V777.994H103.357V786.506H101.727ZM105.705 786.506V777.994H107.318V786.506H105.705ZM107.318 781.65L106.709 781.381C106.709 780.294 106.96 779.427 107.462 778.782C107.963 778.137 108.686 777.815 109.63 777.815C110.06 777.815 110.448 777.892 110.795 778.048C111.141 778.191 111.464 778.436 111.762 778.782L110.705 779.875C110.526 779.684 110.329 779.547 110.114 779.463C109.899 779.38 109.648 779.338 109.361 779.338C108.764 779.338 108.274 779.529 107.892 779.911C107.509 780.294 107.318 780.873 107.318 781.65ZM116.349 785.484L120.937 780.646C121.402 780.168 121.767 779.756 122.03 779.41C122.292 779.051 122.478 778.723 122.585 778.424C122.705 778.125 122.764 777.815 122.764 777.492C122.764 776.859 122.561 776.363 122.155 776.005C121.749 775.646 121.223 775.467 120.578 775.467C119.945 775.467 119.389 775.622 118.912 775.933C118.434 776.232 118.01 776.698 117.639 777.331L116.457 776.345C116.946 775.533 117.538 774.924 118.231 774.517C118.924 774.099 119.724 773.89 120.632 773.89C121.396 773.89 122.06 774.04 122.621 774.338C123.194 774.637 123.636 775.055 123.947 775.593C124.258 776.13 124.413 776.757 124.413 777.474C124.413 777.988 124.347 778.448 124.216 778.854C124.096 779.26 123.875 779.678 123.553 780.108C123.242 780.527 122.806 781.028 122.245 781.614L118.535 785.431L116.349 785.484ZM116.349 786.506V785.484L117.783 785.001H124.7V786.506H116.349ZM131.366 786.685C130.434 786.685 129.58 786.422 128.804 785.897C128.039 785.371 127.43 784.63 126.976 783.674C126.522 782.707 126.295 781.572 126.295 780.27C126.295 778.968 126.516 777.839 126.958 776.883C127.412 775.927 128.021 775.192 128.786 774.679C129.55 774.153 130.393 773.89 131.313 773.89C132.256 773.89 133.11 774.153 133.875 774.679C134.64 775.192 135.243 775.927 135.685 776.883C136.139 777.839 136.366 778.973 136.366 780.288C136.366 781.59 136.139 782.725 135.685 783.692C135.243 784.648 134.64 785.389 133.875 785.914C133.122 786.428 132.286 786.685 131.366 786.685ZM131.33 785.09C131.987 785.09 132.561 784.911 133.051 784.553C133.553 784.182 133.947 783.639 134.233 782.922C134.52 782.205 134.664 781.321 134.664 780.27C134.664 779.218 134.52 778.34 134.233 777.635C133.947 776.919 133.553 776.381 133.051 776.023C132.549 775.652 131.97 775.467 131.313 775.467C130.667 775.467 130.094 775.652 129.592 776.023C129.09 776.381 128.696 776.919 128.409 777.635C128.135 778.34 127.997 779.218 127.997 780.27C127.997 781.321 128.135 782.205 128.409 782.922C128.696 783.639 129.09 784.182 129.592 784.553C130.094 784.911 130.673 785.09 131.33 785.09ZM137.769 785.484L142.357 780.646C142.822 780.168 143.187 779.756 143.45 779.41C143.712 779.051 143.898 778.723 144.005 778.424C144.125 778.125 144.184 777.815 144.184 777.492C144.184 776.859 143.981 776.363 143.575 776.005C143.169 775.646 142.643 775.467 141.998 775.467C141.365 775.467 140.809 775.622 140.332 775.933C139.854 776.232 139.43 776.698 139.059 777.331L137.877 776.345C138.366 775.533 138.958 774.924 139.651 774.517C140.344 774.099 141.144 773.89 142.052 773.89C142.816 773.89 143.48 774.04 144.041 774.338C144.614 774.637 145.056 775.055 145.367 775.593C145.678 776.13 145.833 776.757 145.833 777.474C145.833 777.988 145.767 778.448 145.636 778.854C145.516 779.26 145.295 779.678 144.973 780.108C144.662 780.527 144.226 781.028 143.665 781.614L139.955 785.431L137.769 785.484ZM137.769 786.506V785.484L139.203 785.001H146.12V786.506H137.769ZM151.317 786.685C150.469 786.685 149.71 786.536 149.041 786.237C148.384 785.926 147.828 785.478 147.374 784.893L148.521 783.746C148.796 784.164 149.172 784.499 149.65 784.75C150.14 784.989 150.684 785.108 151.281 785.108C151.842 785.108 152.332 785.001 152.75 784.786C153.18 784.57 153.515 784.272 153.754 783.89C154.005 783.495 154.13 783.029 154.13 782.492C154.13 781.942 154.011 781.476 153.772 781.094C153.533 780.712 153.21 780.425 152.804 780.234C152.41 780.031 151.974 779.929 151.496 779.929C151.006 779.929 150.558 779.989 150.152 780.108C149.758 780.228 149.381 780.431 149.023 780.718L149.041 779.642C149.244 779.392 149.477 779.189 149.74 779.033C150.003 778.878 150.301 778.758 150.636 778.675C150.97 778.591 151.359 778.549 151.801 778.549C152.661 778.549 153.39 778.729 153.987 779.087C154.584 779.445 155.038 779.929 155.349 780.538C155.671 781.148 155.833 781.829 155.833 782.581C155.833 783.37 155.636 784.075 155.241 784.696C154.859 785.317 154.327 785.807 153.646 786.165C152.965 786.512 152.189 786.685 151.317 786.685ZM149.023 780.718L148.109 779.804L148.665 774.069H150.206L149.579 779.965L149.023 780.718ZM149.005 775.575L148.665 774.069H155.205V775.575H149.005Z" fill="#7E92A2"/>
</g>
<g clip-path="url(#clip15_110_18701)">
<rect x="202.861" y="774.34" width="151.674" height="12.0376" rx="6.01881" fill="#CADDEC"/>
</g>
<g clip-path="url(#clip16_110_18701)">
<path d="M59.0015 846.876L63.589 842.038C64.055 841.56 64.4193 841.148 64.6822 840.801C64.945 840.443 65.1302 840.114 65.2377 839.816C65.3571 839.517 65.4169 839.207 65.4169 838.884C65.4169 838.251 65.2138 837.755 64.8076 837.397C64.4014 837.038 63.8758 836.859 63.2306 836.859C62.5975 836.859 62.0419 837.014 61.5641 837.325C61.0862 837.624 60.6621 838.089 60.2918 838.723L59.109 837.737C59.5988 836.925 60.1902 836.315 60.8831 835.909C61.576 835.491 62.3764 835.282 63.2844 835.282C64.049 835.282 64.712 835.431 65.2735 835.73C65.847 836.029 66.289 836.447 66.5996 836.984C66.9102 837.522 67.0655 838.149 67.0655 838.866C67.0655 839.38 66.9998 839.84 66.8684 840.246C66.7489 840.652 66.5279 841.07 66.2054 841.5C65.8947 841.918 65.4587 842.42 64.8972 843.006L61.1878 846.823L59.0015 846.876ZM59.0015 847.898V846.876L60.4351 846.392H67.3522V847.898H59.0015ZM74.0188 848.077C73.0869 848.077 72.2327 847.814 71.4562 847.288C70.6916 846.763 70.0823 846.022 69.6284 845.066C69.1744 844.099 68.9474 842.964 68.9474 841.662C68.9474 840.359 69.1684 839.23 69.6104 838.275C70.0644 837.319 70.6737 836.584 71.4383 836.071C72.2029 835.545 73.0451 835.282 73.965 835.282C74.9088 835.282 75.763 835.545 76.5276 836.071C77.2921 836.584 77.8955 837.319 78.3375 838.275C78.7914 839.23 79.0184 840.365 79.0184 841.679C79.0184 842.982 78.7914 844.117 78.3375 845.084C77.8955 846.04 77.2921 846.781 76.5276 847.306C75.7749 847.82 74.9386 848.077 74.0188 848.077ZM73.9829 846.482C74.64 846.482 75.2134 846.303 75.7032 845.944C76.205 845.574 76.5992 845.031 76.886 844.314C77.1727 843.597 77.316 842.713 77.316 841.662C77.316 840.61 77.1727 839.732 76.886 839.027C76.5992 838.311 76.205 837.773 75.7032 837.415C75.2015 837.044 74.6221 836.859 73.965 836.859C73.3199 836.859 72.7464 837.044 72.2447 837.415C71.7429 837.773 71.3487 838.311 71.062 839.027C70.7872 839.732 70.6498 840.61 70.6498 841.662C70.6498 842.713 70.7872 843.597 71.062 844.314C71.3487 845.031 71.7429 845.574 72.2447 845.944C72.7464 846.303 73.3258 846.482 73.9829 846.482ZM85.0621 847.898V835.461H86.2448L91.5133 844.117H90.7069L95.9754 835.461H97.1581V847.898H95.4736V838.418L95.8679 838.526L91.7104 845.353H90.5277L86.3703 838.526L86.7466 838.418V847.898H85.0621ZM103.428 848.077C102.651 848.077 101.946 847.886 101.313 847.503C100.68 847.109 100.178 846.578 99.8079 845.909C99.4495 845.24 99.2703 844.487 99.2703 843.651C99.2703 842.814 99.4495 842.062 99.8079 841.393C100.178 840.724 100.674 840.192 101.295 839.798C101.928 839.404 102.639 839.207 103.428 839.207C104.073 839.207 104.646 839.344 105.148 839.619C105.662 839.881 106.074 840.252 106.385 840.73C106.695 841.196 106.868 841.739 106.904 842.36V844.923C106.868 845.532 106.695 846.076 106.385 846.554C106.086 847.032 105.68 847.408 105.166 847.683C104.664 847.945 104.085 848.077 103.428 848.077ZM103.697 846.554C104.497 846.554 105.142 846.285 105.632 845.747C106.122 845.198 106.367 844.499 106.367 843.651C106.367 843.065 106.253 842.558 106.026 842.127C105.811 841.685 105.5 841.345 105.094 841.106C104.688 840.855 104.216 840.73 103.679 840.73C103.141 840.73 102.663 840.855 102.245 841.106C101.839 841.357 101.516 841.703 101.277 842.145C101.05 842.575 100.937 843.071 100.937 843.633C100.937 844.206 101.05 844.714 101.277 845.156C101.516 845.586 101.845 845.927 102.263 846.177C102.681 846.428 103.159 846.554 103.697 846.554ZM106.259 847.898V845.604L106.564 843.525L106.259 841.464V839.386H107.89V847.898H106.259ZM110.238 847.898V839.386H111.851V847.898H110.238ZM111.851 843.041L111.241 842.773C111.241 841.685 111.492 840.819 111.994 840.174C112.496 839.529 113.219 839.207 114.162 839.207C114.592 839.207 114.981 839.284 115.327 839.439C115.674 839.583 115.996 839.828 116.295 840.174L115.238 841.267C115.058 841.076 114.861 840.939 114.646 840.855C114.431 840.772 114.18 840.73 113.894 840.73C113.296 840.73 112.806 840.921 112.424 841.303C112.042 841.685 111.851 842.265 111.851 843.041ZM120.882 846.876L125.469 842.038C125.935 841.56 126.299 841.148 126.562 840.801C126.825 840.443 127.01 840.114 127.118 839.816C127.237 839.517 127.297 839.207 127.297 838.884C127.297 838.251 127.094 837.755 126.688 837.397C126.281 837.038 125.756 836.859 125.111 836.859C124.477 836.859 123.922 837.014 123.444 837.325C122.966 837.624 122.542 838.089 122.172 838.723L120.989 837.737C121.479 836.925 122.07 836.315 122.763 835.909C123.456 835.491 124.256 835.282 125.164 835.282C125.929 835.282 126.592 835.431 127.154 835.73C127.727 836.029 128.169 836.447 128.48 836.984C128.79 837.522 128.946 838.149 128.946 838.866C128.946 839.38 128.88 839.84 128.748 840.246C128.629 840.652 128.408 841.07 128.085 841.5C127.775 841.918 127.339 842.42 126.777 843.006L123.068 846.823L120.882 846.876ZM120.882 847.898V846.876L122.315 846.392H129.232V847.898H120.882ZM135.899 848.077C134.967 848.077 134.113 847.814 133.336 847.288C132.572 846.763 131.962 846.022 131.508 845.066C131.054 844.099 130.827 842.964 130.827 841.662C130.827 840.359 131.048 839.23 131.49 838.275C131.944 837.319 132.554 836.584 133.318 836.071C134.083 835.545 134.925 835.282 135.845 835.282C136.789 835.282 137.643 835.545 138.408 836.071C139.172 836.584 139.775 837.319 140.217 838.275C140.671 839.23 140.898 840.365 140.898 841.679C140.898 842.982 140.671 844.117 140.217 845.084C139.775 846.04 139.172 846.781 138.408 847.306C137.655 847.82 136.819 848.077 135.899 848.077ZM135.863 846.482C136.52 846.482 137.093 846.303 137.583 845.944C138.085 845.574 138.479 845.031 138.766 844.314C139.053 843.597 139.196 842.713 139.196 841.662C139.196 840.61 139.053 839.732 138.766 839.027C138.479 838.311 138.085 837.773 137.583 837.415C137.081 837.044 136.502 836.859 135.845 836.859C135.2 836.859 134.626 837.044 134.125 837.415C133.623 837.773 133.229 838.311 132.942 839.027C132.667 839.732 132.53 840.61 132.53 841.662C132.53 842.713 132.667 843.597 132.942 844.314C133.229 845.031 133.623 845.574 134.125 845.944C134.626 846.303 135.206 846.482 135.863 846.482ZM142.302 846.876L146.889 842.038C147.355 841.56 147.719 841.148 147.982 840.801C148.245 840.443 148.43 840.114 148.538 839.816C148.657 839.517 148.717 839.207 148.717 838.884C148.717 838.251 148.514 837.755 148.108 837.397C147.701 837.038 147.176 836.859 146.531 836.859C145.897 836.859 145.342 837.014 144.864 837.325C144.386 837.624 143.962 838.089 143.592 838.723L142.409 837.737C142.899 836.925 143.49 836.315 144.183 835.909C144.876 835.491 145.676 835.282 146.584 835.282C147.349 835.282 148.012 835.431 148.574 835.73C149.147 836.029 149.589 836.447 149.9 836.984C150.21 837.522 150.366 838.149 150.366 838.866C150.366 839.38 150.3 839.84 150.168 840.246C150.049 840.652 149.828 841.07 149.505 841.5C149.195 841.918 148.759 842.42 148.197 843.006L144.488 846.823L142.302 846.876ZM142.302 847.898V846.876L143.735 846.392H150.652V847.898H142.302ZM155.849 848.077C155.001 848.077 154.242 847.928 153.573 847.629C152.916 847.318 152.361 846.87 151.907 846.285L153.054 845.138C153.329 845.556 153.705 845.891 154.183 846.142C154.673 846.38 155.216 846.5 155.813 846.5C156.375 846.5 156.865 846.392 157.283 846.177C157.713 845.962 158.048 845.664 158.286 845.281C158.537 844.887 158.663 844.421 158.663 843.884C158.663 843.334 158.543 842.868 158.304 842.486C158.065 842.104 157.743 841.817 157.337 841.626C156.942 841.423 156.506 841.321 156.029 841.321C155.539 841.321 155.091 841.381 154.685 841.5C154.29 841.62 153.914 841.823 153.556 842.11L153.573 841.034C153.777 840.783 154.01 840.58 154.272 840.425C154.535 840.27 154.834 840.15 155.168 840.067C155.503 839.983 155.891 839.941 156.333 839.941C157.193 839.941 157.922 840.12 158.519 840.479C159.117 840.837 159.571 841.321 159.881 841.93C160.204 842.54 160.365 843.221 160.365 843.973C160.365 844.762 160.168 845.467 159.774 846.088C159.392 846.709 158.86 847.199 158.179 847.557C157.498 847.904 156.721 848.077 155.849 848.077ZM153.556 842.11L152.642 841.196L153.197 835.461H154.738L154.111 841.357L153.556 842.11ZM153.538 836.967L153.197 835.461H159.738V836.967H153.538Z" fill="#7E92A2"/>
</g>
<g clip-path="url(#clip17_110_18701)">
<rect x="202.861" y="835.731" width="169.73" height="12.0376" rx="6.01881" fill="#CADDEC"/>
</g>
<g clip-path="url(#clip18_110_18701)">
<path d="M59.0015 908.268L63.589 903.43C64.055 902.952 64.4193 902.54 64.6822 902.193C64.945 901.835 65.1302 901.507 65.2377 901.208C65.3571 900.909 65.4169 900.599 65.4169 900.276C65.4169 899.643 65.2138 899.147 64.8076 898.789C64.4014 898.43 63.8758 898.251 63.2306 898.251C62.5975 898.251 62.0419 898.406 61.5641 898.717C61.0862 899.016 60.6621 899.482 60.2918 900.115L59.109 899.129C59.5988 898.317 60.1902 897.708 60.8831 897.301C61.576 896.883 62.3764 896.674 63.2844 896.674C64.049 896.674 64.712 896.823 65.2735 897.122C65.847 897.421 66.289 897.839 66.5996 898.377C66.9102 898.914 67.0655 899.541 67.0655 900.258C67.0655 900.772 66.9998 901.232 66.8684 901.638C66.7489 902.044 66.5279 902.462 66.2054 902.892C65.8947 903.31 65.4587 903.812 64.8972 904.398L61.1878 908.215L59.0015 908.268ZM59.0015 909.29V908.268L60.4351 907.785H67.3522V909.29H59.0015ZM70.7394 909.29L74.4847 904.183L75.094 903.86C74.9506 904.099 74.7774 904.308 74.5743 904.487C74.3712 904.666 74.1203 904.804 73.8216 904.899C73.5349 904.995 73.1825 905.043 72.7644 905.043C72.0476 905.043 71.3845 904.87 70.7752 904.523C70.1779 904.177 69.7 903.699 69.3416 903.089C68.9832 902.468 68.804 901.769 68.804 900.993C68.804 900.192 69.0012 899.47 69.3954 898.825C69.7896 898.167 70.3153 897.648 70.9724 897.265C71.6294 896.871 72.3582 896.674 73.1586 896.674C73.971 896.674 74.7057 896.865 75.3628 897.248C76.0198 897.63 76.5395 898.144 76.9218 898.789C77.3041 899.422 77.4952 900.139 77.4952 900.939C77.4952 902.038 77.1129 903.131 76.3484 904.218L72.6927 909.29H70.7394ZM73.1586 903.717C73.6604 903.717 74.1084 903.597 74.5026 903.358C74.9088 903.107 75.2254 902.779 75.4524 902.373C75.6913 901.955 75.8108 901.495 75.8108 900.993C75.8108 900.467 75.6913 900.001 75.4524 899.595C75.2254 899.177 74.9088 898.848 74.5026 898.609C74.1084 898.371 73.6604 898.251 73.1586 898.251C72.6568 898.251 72.2029 898.371 71.7967 898.609C71.4024 898.848 71.0858 899.177 70.8469 899.595C70.608 900.001 70.4885 900.467 70.4885 900.993C70.4885 901.507 70.608 901.966 70.8469 902.373C71.0858 902.779 71.4084 903.107 71.8146 903.358C72.2208 903.597 72.6688 903.717 73.1586 903.717ZM83.4171 909.29V896.853H85.1016V909.29H83.4171ZM84.564 903.824V902.283H91.051V903.824H84.564ZM84.564 898.394V896.853H91.3557V898.394H84.564ZM96.8728 909.469C96.0246 909.469 95.26 909.278 94.579 908.896C93.8981 908.501 93.3605 907.97 92.9662 907.301C92.572 906.632 92.3749 905.873 92.3749 905.025C92.3749 904.189 92.566 903.436 92.9483 902.767C93.3425 902.098 93.8682 901.572 94.5253 901.19C95.1943 900.796 95.9409 900.599 96.7653 900.599C97.5537 900.599 98.2466 900.778 98.844 901.136C99.4533 901.495 99.9252 901.99 100.26 902.624C100.606 903.257 100.779 903.974 100.779 904.774C100.779 904.893 100.773 905.025 100.761 905.168C100.749 905.3 100.726 905.455 100.69 905.634H93.5038V904.29H99.8296L99.2382 904.81C99.2382 904.236 99.1367 903.753 98.9336 903.358C98.7305 902.952 98.4438 902.641 98.0734 902.426C97.7031 902.199 97.2551 902.086 96.7294 902.086C96.1799 902.086 95.696 902.205 95.2779 902.444C94.8598 902.683 94.5372 903.018 94.3102 903.448C94.0832 903.878 93.9697 904.386 93.9697 904.971C93.9697 905.568 94.0892 906.094 94.3281 906.548C94.5671 906.99 94.9076 907.337 95.3496 907.587C95.7916 907.826 96.2993 907.946 96.8728 907.946C97.3506 907.946 97.7867 907.862 98.1809 907.695C98.5871 907.528 98.9336 907.277 99.2203 906.942L100.26 908C99.8535 908.477 99.3517 908.842 98.7544 909.093C98.169 909.344 97.5418 909.469 96.8728 909.469ZM107.018 909.469C106.373 909.469 105.787 909.338 105.262 909.075C104.748 908.8 104.336 908.424 104.025 907.946C103.715 907.468 103.541 906.924 103.506 906.315V903.753C103.541 903.131 103.715 902.588 104.025 902.122C104.348 901.644 104.766 901.274 105.28 901.011C105.805 900.736 106.385 900.599 107.018 900.599C107.794 900.599 108.493 900.796 109.115 901.19C109.748 901.584 110.243 902.116 110.602 902.785C110.96 903.454 111.139 904.206 111.139 905.043C111.139 905.879 110.96 906.632 110.602 907.301C110.243 907.97 109.748 908.501 109.115 908.896C108.493 909.278 107.794 909.469 107.018 909.469ZM102.538 909.29V896.495H104.151V902.857L103.846 904.917L104.151 906.996V909.29H102.538ZM106.749 907.946C107.287 907.946 107.759 907.82 108.165 907.569C108.571 907.319 108.894 906.978 109.132 906.548C109.371 906.106 109.491 905.598 109.491 905.025C109.491 904.463 109.371 903.962 109.132 903.52C108.894 903.078 108.571 902.737 108.165 902.498C107.759 902.247 107.293 902.122 106.767 902.122C106.229 902.122 105.758 902.247 105.351 902.498C104.945 902.737 104.629 903.078 104.402 903.52C104.175 903.962 104.061 904.469 104.061 905.043C104.061 905.604 104.169 906.106 104.384 906.548C104.611 906.978 104.927 907.319 105.333 907.569C105.752 907.82 106.223 907.946 106.749 907.946ZM116.104 908.268L120.692 903.43C121.157 902.952 121.522 902.54 121.785 902.193C122.047 901.835 122.233 901.507 122.34 901.208C122.46 900.909 122.519 900.599 122.519 900.276C122.519 899.643 122.316 899.147 121.91 898.789C121.504 898.43 120.978 898.251 120.333 898.251C119.7 898.251 119.144 898.406 118.667 898.717C118.189 899.016 117.765 899.482 117.394 900.115L116.212 899.129C116.701 898.317 117.293 897.708 117.986 897.301C118.679 896.883 119.479 896.674 120.387 896.674C121.151 896.674 121.815 896.823 122.376 897.122C122.949 897.421 123.391 897.839 123.702 898.377C124.013 898.914 124.168 899.541 124.168 900.258C124.168 900.772 124.102 901.232 123.971 901.638C123.851 902.044 123.63 902.462 123.308 902.892C122.997 903.31 122.561 903.812 122 904.398L118.29 908.215L116.104 908.268ZM116.104 909.29V908.268L117.538 907.785H124.455V909.29H116.104ZM131.121 909.469C130.189 909.469 129.335 909.206 128.559 908.681C127.794 908.155 127.185 907.414 126.731 906.458C126.277 905.491 126.05 904.356 126.05 903.054C126.05 901.751 126.271 900.622 126.713 899.667C127.167 898.711 127.776 897.976 128.541 897.463C129.305 896.937 130.148 896.674 131.067 896.674C132.011 896.674 132.865 896.937 133.63 897.463C134.395 897.976 134.998 898.711 135.44 899.667C135.894 900.622 136.121 901.757 136.121 903.072C136.121 904.374 135.894 905.509 135.44 906.476C134.998 907.432 134.395 908.173 133.63 908.698C132.877 909.212 132.041 909.469 131.121 909.469ZM131.085 907.874C131.742 907.874 132.316 907.695 132.806 907.337C133.307 906.966 133.702 906.423 133.988 905.706C134.275 904.989 134.419 904.105 134.419 903.054C134.419 902.002 134.275 901.124 133.988 900.419C133.702 899.703 133.307 899.165 132.806 898.807C132.304 898.436 131.725 898.251 131.067 898.251C130.422 898.251 129.849 898.436 129.347 898.807C128.845 899.165 128.451 899.703 128.164 900.419C127.89 901.124 127.752 902.002 127.752 903.054C127.752 904.105 127.89 904.989 128.164 905.706C128.451 906.423 128.845 906.966 129.347 907.337C129.849 907.695 130.428 907.874 131.085 907.874ZM137.524 908.268L142.112 903.43C142.577 902.952 142.942 902.54 143.205 902.193C143.467 901.835 143.653 901.507 143.76 901.208C143.88 900.909 143.939 900.599 143.939 900.276C143.939 899.643 143.736 899.147 143.33 898.789C142.924 898.43 142.398 898.251 141.753 898.251C141.12 898.251 140.564 898.406 140.087 898.717C139.609 899.016 139.185 899.482 138.814 900.115L137.632 899.129C138.121 898.317 138.713 897.708 139.406 897.301C140.099 896.883 140.899 896.674 141.807 896.674C142.571 896.674 143.235 896.823 143.796 897.122C144.369 897.421 144.811 897.839 145.122 898.377C145.433 898.914 145.588 899.541 145.588 900.258C145.588 900.772 145.522 901.232 145.391 901.638C145.271 902.044 145.05 902.462 144.728 902.892C144.417 903.31 143.981 903.812 143.42 904.398L139.71 908.215L137.524 908.268ZM137.524 909.29V908.268L138.958 907.785H145.875V909.29H137.524ZM151.072 909.469C150.224 909.469 149.465 909.32 148.796 909.021C148.139 908.71 147.583 908.262 147.129 907.677L148.276 906.53C148.551 906.948 148.927 907.283 149.405 907.534C149.895 907.773 150.439 907.892 151.036 907.892C151.597 907.892 152.087 907.785 152.505 907.569C152.935 907.354 153.27 907.056 153.509 906.673C153.76 906.279 153.885 905.813 153.885 905.276C153.885 904.726 153.766 904.26 153.527 903.878C153.288 903.496 152.965 903.209 152.559 903.018C152.165 902.815 151.729 902.713 151.251 902.713C150.761 902.713 150.313 902.773 149.907 902.892C149.513 903.012 149.136 903.215 148.778 903.502L148.796 902.426C148.999 902.176 149.232 901.972 149.495 901.817C149.758 901.662 150.056 901.542 150.391 901.459C150.725 901.375 151.114 901.333 151.556 901.333C152.416 901.333 153.145 901.513 153.742 901.871C154.339 902.229 154.793 902.713 155.104 903.322C155.426 903.932 155.588 904.613 155.588 905.365C155.588 906.154 155.391 906.859 154.996 907.48C154.614 908.101 154.082 908.591 153.401 908.949C152.72 909.296 151.944 909.469 151.072 909.469ZM148.778 903.502L147.864 902.588L148.42 896.853H149.961L149.334 902.749L148.778 903.502ZM148.76 898.359L148.42 896.853H154.96V898.359H148.76Z" fill="#FF8000"/>
<path d="M187.22 898.207L182.453 895.454C181.675 895.005 180.712 895.005 179.925 895.454L175.166 898.207C174.388 898.656 173.906 899.491 173.906 900.398V905.887C173.906 906.786 174.388 907.621 175.166 908.078L179.933 910.831C180.712 911.28 181.675 911.28 182.461 910.831L187.228 908.078C188.006 907.629 188.488 906.794 188.488 905.887V900.398C188.48 899.491 187.998 898.665 187.22 898.207ZM180.591 899.732C180.591 899.403 180.864 899.13 181.193 899.13C181.522 899.13 181.795 899.403 181.795 899.732V903.945C181.795 904.274 181.522 904.547 181.193 904.547C180.864 904.547 180.591 904.274 180.591 903.945V899.732ZM181.931 906.858C181.891 906.954 181.835 907.043 181.763 907.123C181.61 907.275 181.41 907.356 181.193 907.356C181.089 907.356 180.984 907.332 180.888 907.291C180.784 907.251 180.703 907.195 180.623 907.123C180.551 907.043 180.495 906.954 180.447 906.858C180.407 906.762 180.391 906.657 180.391 906.553C180.391 906.345 180.471 906.136 180.623 905.983C180.703 905.911 180.784 905.855 180.888 905.815C181.185 905.686 181.538 905.759 181.763 905.983C181.835 906.064 181.891 906.144 181.931 906.248C181.971 906.345 181.996 906.449 181.996 906.553C181.996 906.657 181.971 906.762 181.931 906.858Z" fill="#FF8000"/>
</g>
<g clip-path="url(#clip19_110_18701)">
<rect x="202.861" y="897.124" width="169.73" height="12.0376" rx="6.01881" fill="#CADDEC"/>
</g>
</g>
</g>
<rect x="30.1214" y="410.202" width="442.956" height="531.276" rx="13.8433" stroke="#EAEEF4" stroke-width="1.20376"/>
<defs>
<clipPath id="clip0_110_18701">
<rect width="501.969" height="286.495" fill="white" transform="translate(0.0800781 93.8934)"/>
</clipPath>
<clipPath id="clip1_110_18701">
<rect x="28.9707" y="108.339" width="52.9655" height="52.9655" rx="26.4828" fill="white"/>
</clipPath>
<clipPath id="clip2_110_18701">
<rect x="28.9707" y="193.806" width="52.9655" height="52.9655" rx="26.4828" fill="white"/>
</clipPath>
<clipPath id="clip3_110_18701">
<rect x="28.9707" y="279.273" width="52.9655" height="52.9655" rx="26.4828" fill="white"/>
</clipPath>
<clipPath id="clip4_110_18701">
<rect x="29.5195" y="409.6" width="444.16" height="532.48" rx="14.4451" fill="white"/>
</clipPath>
<clipPath id="clip5_110_18701">
<rect width="444.16" height="438.587" fill="white" transform="translate(29.5195 503.493)"/>
</clipPath>
<clipPath id="clip6_110_18701">
<rect width="132.414" height="32.5016" fill="white" transform="translate(58.4102 517.939)"/>
</clipPath>
<clipPath id="clip7_110_18701">
<rect width="241.956" height="32.5016" fill="white" transform="translate(202.861 517.939)"/>
</clipPath>
<clipPath id="clip8_110_18701">
<rect width="132.414" height="32.5016" fill="white" transform="translate(58.4102 579.33)"/>
</clipPath>
<clipPath id="clip9_110_18701">
<rect width="241.956" height="32.5016" fill="white" transform="translate(202.861 579.33)"/>
</clipPath>
<clipPath id="clip10_110_18701">
<rect width="132.414" height="32.5016" fill="white" transform="translate(58.4102 640.722)"/>
</clipPath>
<clipPath id="clip11_110_18701">
<rect width="241.956" height="32.5016" fill="white" transform="translate(202.861 640.722)"/>
</clipPath>
<clipPath id="clip12_110_18701">
<rect width="132.414" height="32.5016" fill="white" transform="translate(58.4102 702.114)"/>
</clipPath>
<clipPath id="clip13_110_18701">
<rect width="241.956" height="32.5016" fill="white" transform="translate(202.861 702.114)"/>
</clipPath>
<clipPath id="clip14_110_18701">
<rect width="132.414" height="32.5016" fill="white" transform="translate(58.4102 763.506)"/>
</clipPath>
<clipPath id="clip15_110_18701">
<rect width="241.956" height="32.5016" fill="white" transform="translate(202.861 763.506)"/>
</clipPath>
<clipPath id="clip16_110_18701">
<rect width="132.414" height="32.5016" fill="white" transform="translate(58.4102 824.898)"/>
</clipPath>
<clipPath id="clip17_110_18701">
<rect width="241.956" height="32.5016" fill="white" transform="translate(202.861 824.898)"/>
</clipPath>
<clipPath id="clip18_110_18701">
<rect width="132.414" height="32.5016" fill="white" transform="translate(58.4102 886.29)"/>
</clipPath>
<clipPath id="clip19_110_18701">
<rect width="241.956" height="32.5016" fill="white" transform="translate(202.861 886.29)"/>
</clipPath>
</defs>
</svg>
