<svg width="616" height="473" viewBox="0 0 616 473" fill="none" xmlns="http://www.w3.org/2000/svg">
<rect x="0.601881" y="1.36189" width="613.919" height="470.671" rx="13.8433" fill="white"/>
<rect x="0.601881" y="1.36189" width="613.919" height="470.671" rx="13.8433" stroke="#EAEEF4" stroke-width="1.20376"/>
<path d="M32.6165 49.28V46.9832H36.1483C36.8706 46.9832 37.4267 46.8026 37.8167 46.4415C38.2212 46.0659 38.4234 45.5531 38.4234 44.9031C38.4234 44.3108 38.2212 43.8197 37.8167 43.4297C37.4267 43.0252 36.8706 42.823 36.1483 42.823H32.6165V40.4179H36.4083C37.3906 40.4179 38.2501 40.6129 38.9868 41.0029C39.7379 41.3785 40.3158 41.8985 40.7202 42.563C41.1391 43.2274 41.3486 43.993 41.3486 44.8597C41.3486 45.7553 41.1391 46.5354 40.7202 47.1999C40.3158 47.8499 39.7379 48.3627 38.9868 48.7383C38.2357 49.0994 37.3617 49.28 36.365 49.28H32.6165ZM30.4497 55.6503V40.4179H33.3965V55.6503H30.4497ZM38.7701 55.6503L33.7432 49.0633L36.4517 48.2182L42.3453 55.6503H38.7701ZM48.4189 55.8669C47.321 55.8669 46.346 55.6358 45.4937 55.1736C44.6415 54.6969 43.9625 54.0469 43.457 53.2235C42.9658 52.4001 42.7203 51.4612 42.7203 50.4067C42.7203 49.3666 42.9586 48.4421 43.4353 47.6332C43.9264 46.8098 44.5909 46.1598 45.4287 45.6831C46.2665 45.192 47.1982 44.9464 48.2238 44.9464C49.235 44.9464 50.1234 45.1775 50.889 45.6398C51.669 46.0876 52.2757 46.7087 52.7091 47.5032C53.1569 48.2832 53.3808 49.1716 53.3808 50.1683C53.3808 50.3561 53.3663 50.5511 53.3374 50.7534C53.323 50.9412 53.2869 51.1578 53.2291 51.4034L44.432 51.4251V49.3016L51.9074 49.28L50.759 50.1683C50.7301 49.5472 50.6145 49.0272 50.4123 48.6083C50.2245 48.1894 49.9428 47.8716 49.5672 47.6549C49.2061 47.4238 48.7583 47.3082 48.2238 47.3082C47.6605 47.3082 47.1694 47.4382 46.7504 47.6982C46.3315 47.9438 46.0065 48.2977 45.7754 48.7599C45.5587 49.2077 45.4504 49.7422 45.4504 50.3633C45.4504 50.9989 45.5659 51.5551 45.7971 52.0318C46.0426 52.494 46.3893 52.8551 46.8371 53.1151C47.2849 53.3607 47.8049 53.4835 48.3972 53.4835C48.9317 53.4835 49.4156 53.3968 49.8489 53.2235C50.2823 53.0357 50.6579 52.7612 50.9756 52.4001L52.6441 54.0685C52.1385 54.6608 51.5173 55.1086 50.7806 55.4119C50.0584 55.7153 49.2711 55.8669 48.4189 55.8669ZM60.0764 55.8669C59.0075 55.8669 58.0469 55.6286 57.1946 55.1519C56.3424 54.6752 55.6707 54.0252 55.1795 53.2018C54.6884 52.3784 54.4428 51.454 54.4428 50.4283C54.4428 49.3883 54.6884 48.4566 55.1795 47.6332C55.6707 46.8098 56.3424 46.1598 57.1946 45.6831C58.0613 45.192 59.0219 44.9464 60.0764 44.9464C60.8998 44.9464 61.6582 45.0981 62.3515 45.4014C63.0449 45.7048 63.6444 46.1381 64.15 46.7015L62.3299 48.5433C62.0554 48.2399 61.7232 48.0088 61.3332 47.8499C60.9576 47.691 60.5387 47.6115 60.0764 47.6115C59.5564 47.6115 59.0869 47.7343 58.668 47.9799C58.2636 48.211 57.9385 48.536 57.693 48.9549C57.4619 49.3594 57.3463 49.8433 57.3463 50.4067C57.3463 50.9556 57.4619 51.4467 57.693 51.8801C57.9385 52.299 58.2636 52.6312 58.668 52.8768C59.0869 53.1079 59.5564 53.2235 60.0764 53.2235C60.5531 53.2235 60.9792 53.144 61.3548 52.9851C61.7448 52.8118 62.0771 52.5662 62.3515 52.2484L64.1933 54.0902C63.6588 54.668 63.0449 55.1086 62.3515 55.4119C61.6582 55.7153 60.8998 55.8669 60.0764 55.8669ZM70.5732 55.8669C69.4754 55.8669 68.5004 55.6358 67.6481 55.1736C66.7958 54.6969 66.1169 54.0469 65.6113 53.2235C65.1202 52.4001 64.8746 51.4612 64.8746 50.4067C64.8746 49.3666 65.113 48.4421 65.5897 47.6332C66.0808 46.8098 66.7453 46.1598 67.5831 45.6831C68.4209 45.192 69.3526 44.9464 70.3782 44.9464C71.3894 44.9464 72.2778 45.1775 73.0434 45.6398C73.8234 46.0876 74.4301 46.7087 74.8635 47.5032C75.3113 48.2832 75.5352 49.1716 75.5352 50.1683C75.5352 50.3561 75.5207 50.5511 75.4918 50.7534C75.4774 50.9412 75.4413 51.1578 75.3835 51.4034L66.5864 51.4251V49.3016L74.0617 49.28L72.9134 50.1683C72.8845 49.5472 72.7689 49.0272 72.5667 48.6083C72.3789 48.1894 72.0972 47.8716 71.7216 47.6549C71.3605 47.4238 70.9127 47.3082 70.3782 47.3082C69.8149 47.3082 69.3237 47.4382 68.9048 47.6982C68.4859 47.9438 68.1609 48.2977 67.9298 48.7599C67.7131 49.2077 67.6048 49.7422 67.6048 50.3633C67.6048 50.9989 67.7203 51.5551 67.9515 52.0318C68.197 52.494 68.5437 52.8551 68.9915 53.1151C69.4393 53.3607 69.9593 53.4835 70.5516 53.4835C71.0861 53.4835 71.57 53.3968 72.0033 53.2235C72.4367 53.0357 72.8122 52.7612 73.13 52.4001L74.7985 54.0685C74.2929 54.6608 73.6717 55.1086 72.935 55.4119C72.2128 55.7153 71.4255 55.8669 70.5732 55.8669ZM84.3326 55.6503V49.6483C84.3326 49.0272 84.1376 48.5216 83.7476 48.1316C83.3575 47.7416 82.852 47.5465 82.2308 47.5465C81.8263 47.5465 81.4652 47.6332 81.1474 47.8066C80.8296 47.9799 80.5768 48.2255 80.3891 48.5433C80.2157 48.8611 80.129 49.2294 80.129 49.6483L79.024 49.085C79.024 48.2616 79.1973 47.5465 79.544 46.9398C79.9051 46.3187 80.3963 45.8348 81.0174 45.4881C81.653 45.1414 82.368 44.9681 83.1625 44.9681C83.9281 44.9681 84.6143 45.1631 85.221 45.5531C85.8277 45.9287 86.3043 46.427 86.651 47.0482C86.9977 47.6549 87.1711 48.3121 87.1711 49.0199V55.6503H84.3326ZM77.2906 55.6503V45.1848H80.129V55.6503H77.2906ZM90.869 55.6503V40.8296H93.7074V55.6503H90.869ZM88.4205 47.6766V45.1848H96.1559V47.6766H88.4205ZM104.303 55.6503V53.0285H108.181C109.163 53.0285 110.023 52.8262 110.76 52.4218C111.496 52.0029 112.067 51.4178 112.471 50.6667C112.89 49.9155 113.1 49.0272 113.1 48.0016C113.1 47.0049 112.89 46.1381 112.471 45.4014C112.052 44.6503 111.475 44.0725 110.738 43.668C110.001 43.2491 109.149 43.0397 108.181 43.0397H104.238V40.4179H108.224C109.351 40.4179 110.391 40.6057 111.345 40.9812C112.312 41.3568 113.15 41.8913 113.858 42.5846C114.58 43.2636 115.136 44.0653 115.526 44.9898C115.931 45.9142 116.133 46.9254 116.133 48.0232C116.133 49.1211 115.931 50.1394 115.526 51.0784C115.136 52.0029 114.588 52.8118 113.88 53.5052C113.172 54.1841 112.334 54.7113 111.366 55.0869C110.413 55.4625 109.38 55.6503 108.268 55.6503H104.303ZM102.287 55.6503V40.4179H105.234V55.6503H102.287ZM123.177 55.8669C122.079 55.8669 121.104 55.6358 120.252 55.1736C119.399 54.6969 118.72 54.0469 118.215 53.2235C117.724 52.4001 117.478 51.4612 117.478 50.4067C117.478 49.3666 117.716 48.4421 118.193 47.6332C118.684 46.8098 119.349 46.1598 120.187 45.6831C121.024 45.192 121.956 44.9464 122.982 44.9464C123.993 44.9464 124.881 45.1775 125.647 45.6398C126.427 46.0876 127.034 46.7087 127.467 47.5032C127.915 48.2832 128.139 49.1716 128.139 50.1683C128.139 50.3561 128.124 50.5511 128.095 50.7534C128.081 50.9412 128.045 51.1578 127.987 51.4034L119.19 51.4251V49.3016L126.665 49.28L125.517 50.1683C125.488 49.5472 125.372 49.0272 125.17 48.6083C124.982 48.1894 124.701 47.8716 124.325 47.6549C123.964 47.4238 123.516 47.3082 122.982 47.3082C122.418 47.3082 121.927 47.4382 121.508 47.6982C121.089 47.9438 120.764 48.2977 120.533 48.7599C120.317 49.2077 120.208 49.7422 120.208 50.3633C120.208 50.9989 120.324 51.5551 120.555 52.0318C120.8 52.494 121.147 52.8551 121.595 53.1151C122.043 53.3607 122.563 53.4835 123.155 53.4835C123.689 53.4835 124.173 53.3968 124.607 53.2235C125.04 53.0357 125.416 52.7612 125.733 52.4001L127.402 54.0685C126.896 54.6608 126.275 55.1086 125.538 55.4119C124.816 55.7153 124.029 55.8669 123.177 55.8669ZM134.271 55.8669C133.318 55.8669 132.458 55.6286 131.692 55.1519C130.927 54.6752 130.327 54.0252 129.894 53.2018C129.461 52.3784 129.244 51.454 129.244 50.4283C129.244 49.3883 129.461 48.4566 129.894 47.6332C130.327 46.8098 130.927 46.1598 131.692 45.6831C132.458 45.2064 133.318 44.9681 134.271 44.9681C135.022 44.9681 135.694 45.1198 136.286 45.4231C136.878 45.7265 137.348 46.1526 137.694 46.7015C138.056 47.236 138.251 47.8427 138.279 48.5216V52.2918C138.251 52.9851 138.056 53.5991 137.694 54.1335C137.348 54.668 136.878 55.0941 136.286 55.4119C135.694 55.7153 135.022 55.8669 134.271 55.8669ZM134.791 53.2452C135.585 53.2452 136.228 52.9851 136.719 52.4651C137.21 51.9306 137.456 51.2445 137.456 50.4067C137.456 49.8578 137.34 49.3739 137.109 48.9549C136.893 48.5216 136.582 48.1894 136.178 47.9582C135.788 47.7127 135.325 47.5899 134.791 47.5899C134.271 47.5899 133.809 47.7127 133.404 47.9582C133.014 48.1894 132.704 48.5216 132.472 48.9549C132.256 49.3739 132.147 49.8578 132.147 50.4067C132.147 50.97 132.256 51.4684 132.472 51.9018C132.704 52.3207 133.014 52.6529 133.404 52.8985C133.809 53.1296 134.271 53.2452 134.791 53.2452ZM137.304 55.6503V52.8335L137.759 50.2767L137.304 47.7632V45.1848H140.121V55.6503H137.304ZM142.632 55.6503V39.9845H145.471V55.6503H142.632ZM151.583 55.8886C150.99 55.8886 150.405 55.8092 149.827 55.6503C149.264 55.4914 148.744 55.2747 148.267 55.0002C147.791 54.7113 147.379 54.3647 147.032 53.9602L148.722 52.2484C149.084 52.6529 149.502 52.9562 149.979 53.1585C150.456 53.3607 150.983 53.4618 151.561 53.4618C152.023 53.4618 152.37 53.3968 152.601 53.2668C152.847 53.1368 152.969 52.9418 152.969 52.6818C152.969 52.3929 152.839 52.169 152.579 52.0101C152.334 51.8512 152.009 51.7212 151.604 51.6201C151.2 51.5045 150.774 51.3817 150.326 51.2517C149.892 51.1073 149.474 50.9267 149.069 50.71C148.665 50.4789 148.332 50.1683 148.072 49.7783C147.827 49.3739 147.704 48.8538 147.704 48.2182C147.704 47.5538 147.863 46.976 148.181 46.4848C148.513 45.9937 148.982 45.6109 149.589 45.3364C150.196 45.062 150.911 44.9248 151.734 44.9248C152.601 44.9248 153.381 45.0764 154.074 45.3798C154.782 45.6831 155.367 46.1381 155.829 46.7448L154.118 48.4566C153.8 48.0666 153.439 47.7849 153.034 47.6115C152.644 47.4382 152.218 47.3515 151.756 47.3515C151.337 47.3515 151.012 47.4165 150.781 47.5465C150.564 47.6766 150.456 47.8571 150.456 48.0882C150.456 48.3482 150.579 48.5505 150.824 48.6949C151.084 48.8394 151.416 48.9694 151.821 49.085C152.225 49.1861 152.644 49.3089 153.078 49.4533C153.525 49.5833 153.944 49.7711 154.334 50.0167C154.739 50.2622 155.064 50.5872 155.309 50.9917C155.569 51.3962 155.699 51.9162 155.699 52.5518C155.699 53.5774 155.331 54.3935 154.594 55.0002C153.858 55.5925 152.854 55.8886 151.583 55.8886Z" fill="#092C4C"/>
<path d="M523.67 41.3938L526.859 51.041H526.985L530.169 41.3938H532.611L528.29 53.6503H525.549L521.234 41.3938H523.67ZM534.129 53.6503V44.4579H536.296V53.6503H534.129ZM535.218 43.1533C534.875 43.1533 534.58 43.0396 534.333 42.8121C534.085 42.5807 533.962 42.3034 533.962 41.9803C533.962 41.6531 534.085 41.3758 534.333 41.1484C534.58 40.917 534.875 40.8013 535.218 40.8013C535.565 40.8013 535.861 40.917 536.104 41.1484C536.351 41.3758 536.475 41.6531 536.475 41.9803C536.475 42.3034 536.351 42.5807 536.104 42.8121C535.861 43.0396 535.565 43.1533 535.218 43.1533ZM542.593 53.8298C541.671 53.8298 540.875 53.6383 540.205 53.2553C539.539 52.8683 539.026 52.3217 538.667 51.6155C538.308 50.9053 538.128 50.0695 538.128 49.1079C538.128 48.1624 538.308 47.3325 538.667 46.6184C539.03 45.9002 539.537 45.3416 540.187 44.9427C540.837 44.5397 541.601 44.3382 542.479 44.3382C543.046 44.3382 543.58 44.43 544.083 44.6135C544.59 44.793 545.037 45.0723 545.424 45.4514C545.815 45.8304 546.122 46.3131 546.345 46.8996C546.569 47.4821 546.68 48.1763 546.68 48.9823V49.6466H539.146V48.1863H544.604C544.6 47.7714 544.51 47.4023 544.334 47.0792C544.159 46.752 543.913 46.4947 543.598 46.3072C543.287 46.1196 542.924 46.0259 542.509 46.0259C542.066 46.0259 541.677 46.1336 541.342 46.349C541.007 46.5605 540.746 46.8398 540.558 47.1869C540.375 47.53 540.281 47.907 540.277 48.318V49.5927C540.277 50.1273 540.375 50.5861 540.57 50.9692C540.766 51.3482 541.039 51.6394 541.39 51.8429C541.741 52.0424 542.152 52.1421 542.623 52.1421C542.938 52.1421 543.223 52.0983 543.479 52.0105C543.734 51.9187 543.955 51.7851 544.143 51.6095C544.33 51.434 544.472 51.2165 544.568 50.9572L546.591 51.1846C546.463 51.7192 546.22 52.186 545.86 52.585C545.505 52.98 545.051 53.2872 544.496 53.5066C543.941 53.7221 543.307 53.8298 542.593 53.8298ZM550.361 53.6503L547.764 44.4579H549.972L551.588 50.9213H551.672L553.323 44.4579H555.508L557.159 50.8854H557.249L558.841 44.4579H561.055L558.452 53.6503H556.196L554.472 47.4382H554.347L552.623 53.6503H550.361ZM568.418 53.6503H566.048L570.363 41.3938H573.104L577.425 53.6503H575.055L571.781 43.9073H571.686L568.418 53.6503ZM568.496 48.8446H574.959V50.628H568.496V48.8446ZM581.11 41.3938V53.6503H578.943V41.3938H581.11ZM585.504 41.3938V53.6503H583.338V41.3938H585.504Z" fill="#FF8000"/>
<g clip-path="url(#clip0_110_18824)">
<g clip-path="url(#clip1_110_18824)">
<rect x="28.8901" y="105.487" width="52.9655" height="52.9655" rx="26.4828" fill="#EAEEF4"/>
</g>
<rect x="101.116" y="114.516" width="196.213" height="15.6489" rx="7.82445" fill="#7F9CB5"/>
<path d="M496.009 127.84L500.778 115.993H502.649L507.401 127.84H504.958L501.284 118.116H502.126L498.402 127.84H496.009ZM498.537 125.632V123.711H504.907V125.632H498.537ZM508.801 127.84V115.993H511.093V127.84H508.801ZM510.486 127.84V125.818H517.042V127.84H510.486ZM510.486 122.767V120.812H516.452V122.767H510.486ZM510.486 118.015V115.993H516.957V118.015H510.486ZM520.506 127.84V125.801H523.522C524.286 125.801 524.955 125.644 525.528 125.329C526.101 125.003 526.545 124.548 526.859 123.964C527.185 123.38 527.348 122.689 527.348 121.891C527.348 121.116 527.185 120.442 526.859 119.869C526.533 119.284 526.084 118.835 525.511 118.52C524.938 118.195 524.275 118.032 523.522 118.032H520.455V115.993H523.556C524.433 115.993 525.241 116.139 525.983 116.431C526.736 116.723 527.387 117.139 527.938 117.678C528.5 118.206 528.932 118.829 529.236 119.548C529.55 120.268 529.707 121.054 529.707 121.908C529.707 122.762 529.55 123.554 529.236 124.284C528.932 125.003 528.505 125.632 527.955 126.172C527.404 126.7 526.753 127.11 526 127.402C525.258 127.694 524.455 127.84 523.59 127.84H520.506ZM518.939 127.84V115.993H521.231V127.84H518.939Z" fill="#092C4C"/>
<path d="M535.945 127.84V115.993H538.203V127.84H535.945ZM533.62 117.981V115.993H538.035V117.981H533.62ZM544.206 128.008C543.397 128.008 542.667 127.829 542.015 127.469C541.375 127.098 540.864 126.604 540.482 125.986C540.111 125.357 539.926 124.66 539.926 123.896C539.926 122.852 540.285 121.801 541.004 120.745L544.29 115.993H546.919L543.33 121.015L542.487 121.251C542.611 120.992 542.757 120.767 542.925 120.576C543.105 120.385 543.335 120.239 543.616 120.138C543.897 120.037 544.251 119.987 544.678 119.987C545.386 119.987 546.026 120.155 546.599 120.492C547.172 120.818 547.633 121.273 547.981 121.857C548.329 122.43 548.504 123.093 548.504 123.846C548.504 124.621 548.313 125.323 547.931 125.952C547.549 126.582 547.032 127.082 546.38 127.452C545.729 127.823 545.004 128.008 544.206 128.008ZM544.206 125.952C544.599 125.952 544.948 125.863 545.251 125.683C545.554 125.492 545.796 125.239 545.976 124.924C546.155 124.599 546.245 124.233 546.245 123.829C546.245 123.425 546.155 123.065 545.976 122.75C545.796 122.425 545.554 122.172 545.251 121.992C544.948 121.812 544.599 121.722 544.206 121.722C543.813 121.722 543.459 121.818 543.144 122.009C542.841 122.189 542.6 122.436 542.42 122.75C542.251 123.065 542.167 123.425 542.167 123.829C542.167 124.233 542.251 124.599 542.42 124.924C542.6 125.239 542.841 125.492 543.144 125.683C543.459 125.863 543.813 125.952 544.206 125.952ZM549.959 129.845L551.156 127.621L551.846 127.436C551.768 127.582 551.678 127.705 551.577 127.806C551.476 127.907 551.358 127.958 551.223 127.958C550.942 127.958 550.678 127.834 550.431 127.587C550.184 127.34 550.06 127.031 550.06 126.66C550.06 126.256 550.195 125.913 550.465 125.632C550.734 125.351 551.071 125.211 551.476 125.211C551.846 125.211 552.172 125.351 552.453 125.632C552.734 125.913 552.875 126.256 552.875 126.66C552.875 126.818 552.841 127.009 552.773 127.233C552.706 127.447 552.582 127.722 552.403 128.059L551.105 130.452L549.959 129.845ZM558.407 128.008C557.564 128.008 556.834 127.862 556.216 127.57C555.609 127.278 555.132 126.868 554.783 126.34C554.446 125.812 554.278 125.217 554.278 124.554C554.278 124.003 554.385 123.503 554.598 123.054C554.812 122.604 555.115 122.228 555.508 121.925C555.913 121.61 556.384 121.391 556.924 121.267L556.873 121.824C556.424 121.711 556.042 121.515 555.727 121.234C555.413 120.953 555.177 120.621 555.019 120.239C554.862 119.846 554.783 119.442 554.783 119.026C554.783 118.386 554.935 117.824 555.238 117.341C555.553 116.858 555.98 116.481 556.519 116.212C557.07 115.942 557.699 115.807 558.407 115.807C559.115 115.807 559.738 115.942 560.277 116.212C560.817 116.481 561.238 116.858 561.541 117.341C561.856 117.824 562.013 118.386 562.013 119.026C562.013 119.442 561.935 119.846 561.777 120.239C561.62 120.621 561.384 120.953 561.07 121.234C560.766 121.515 560.384 121.711 559.924 121.824L559.873 121.267C560.423 121.391 560.895 121.61 561.289 121.925C561.682 122.228 561.985 122.604 562.199 123.054C562.412 123.503 562.519 124.003 562.519 124.554C562.519 125.217 562.35 125.812 562.013 126.34C561.676 126.868 561.199 127.278 560.581 127.57C559.963 127.862 559.238 128.008 558.407 128.008ZM558.407 126.003C558.778 126.003 559.109 125.93 559.401 125.784C559.693 125.627 559.918 125.413 560.075 125.144C560.244 124.874 560.328 124.571 560.328 124.233C560.328 123.885 560.244 123.582 560.075 123.323C559.918 123.054 559.693 122.846 559.401 122.7C559.109 122.543 558.778 122.464 558.407 122.464C558.025 122.464 557.688 122.543 557.396 122.7C557.115 122.846 556.89 123.054 556.722 123.323C556.553 123.582 556.469 123.885 556.469 124.233C556.469 124.571 556.553 124.874 556.722 125.144C556.89 125.413 557.115 125.627 557.396 125.784C557.688 125.93 558.025 126.003 558.407 126.003ZM558.407 120.728C558.845 120.728 559.204 120.588 559.485 120.307C559.766 120.026 559.907 119.666 559.907 119.228C559.907 118.779 559.766 118.414 559.485 118.133C559.204 117.852 558.845 117.712 558.407 117.712C557.969 117.712 557.603 117.852 557.311 118.133C557.03 118.414 556.89 118.773 556.89 119.211C556.89 119.661 557.03 120.026 557.311 120.307C557.603 120.588 557.969 120.728 558.407 120.728ZM568.665 128.008C567.732 128.008 566.89 127.756 566.137 127.25C565.384 126.745 564.783 126.031 564.334 125.11C563.895 124.189 563.676 123.116 563.676 121.891C563.676 120.666 563.895 119.599 564.334 118.689C564.772 117.779 565.362 117.071 566.103 116.566C566.856 116.06 567.693 115.807 568.614 115.807C569.558 115.807 570.401 116.06 571.142 116.566C571.895 117.071 572.49 117.785 572.929 118.706C573.367 119.616 573.586 120.689 573.586 121.925C573.586 123.149 573.367 124.222 572.929 125.144C572.49 126.054 571.901 126.761 571.159 127.267C570.417 127.761 569.586 128.008 568.665 128.008ZM568.631 125.936C569.17 125.936 569.637 125.784 570.03 125.481C570.423 125.177 570.726 124.728 570.94 124.132C571.165 123.537 571.277 122.795 571.277 121.908C571.277 121.02 571.165 120.279 570.94 119.683C570.726 119.088 570.417 118.644 570.013 118.352C569.62 118.049 569.154 117.897 568.614 117.897C568.086 117.897 567.626 118.049 567.232 118.352C566.839 118.644 566.53 119.088 566.305 119.683C566.092 120.268 565.985 121.003 565.985 121.891C565.985 122.79 566.092 123.537 566.305 124.132C566.53 124.728 566.839 125.177 567.232 125.481C567.626 125.784 568.092 125.936 568.631 125.936ZM579.79 128.008C578.858 128.008 578.015 127.756 577.262 127.25C576.51 126.745 575.908 126.031 575.459 125.11C575.021 124.189 574.802 123.116 574.802 121.891C574.802 120.666 575.021 119.599 575.459 118.689C575.897 117.779 576.487 117.071 577.229 116.566C577.981 116.06 578.818 115.807 579.74 115.807C580.683 115.807 581.526 116.06 582.268 116.566C583.02 117.071 583.616 117.785 584.054 118.706C584.492 119.616 584.711 120.689 584.711 121.925C584.711 123.149 584.492 124.222 584.054 125.144C583.616 126.054 583.026 126.761 582.284 127.267C581.543 127.761 580.711 128.008 579.79 128.008ZM579.756 125.936C580.296 125.936 580.762 125.784 581.155 125.481C581.548 125.177 581.852 124.728 582.065 124.132C582.29 123.537 582.402 122.795 582.402 121.908C582.402 121.02 582.29 120.279 582.065 119.683C581.852 119.088 581.543 118.644 581.138 118.352C580.745 118.049 580.279 117.897 579.74 117.897C579.212 117.897 578.751 118.049 578.358 118.352C577.964 118.644 577.656 119.088 577.431 119.683C577.217 120.268 577.111 121.003 577.111 121.891C577.111 122.79 577.217 123.537 577.431 124.132C577.656 124.728 577.964 125.177 578.358 125.481C578.751 125.784 579.217 125.936 579.756 125.936Z" fill="#092C4C"/>
<rect x="101.116" y="142.451" width="127.599" height="12.0376" rx="6.01881" fill="#CADDEC"/>
<rect x="458.633" y="142.451" width="127.599" height="12.0376" rx="6.01881" fill="#D3E1EB"/>
<g clip-path="url(#clip2_110_18824)">
<rect x="28.8901" y="194.566" width="52.9655" height="52.9655" rx="26.4828" fill="#EAEEF4"/>
</g>
<rect x="101.116" y="203.594" width="162.508" height="15.6489" rx="7.82445" fill="#7F9CB5"/>
<path d="M506.009 216.918L510.778 205.071H512.649L517.401 216.918H514.958L511.284 207.194H512.126L508.402 216.918H506.009ZM508.537 214.711V212.789H514.907V214.711H508.537ZM518.801 216.918V205.071H521.093V216.918H518.801ZM520.486 216.918V214.896H527.042V216.918H520.486ZM520.486 211.846V209.891H526.452V211.846H520.486ZM520.486 207.093V205.071H526.957V207.093H520.486ZM530.506 216.918V214.879H533.522C534.286 214.879 534.955 214.722 535.528 214.407C536.101 214.081 536.545 213.626 536.859 213.042C537.185 212.458 537.348 211.767 537.348 210.969C537.348 210.194 537.185 209.52 536.859 208.947C536.533 208.363 536.084 207.913 535.511 207.599C534.938 207.273 534.275 207.11 533.522 207.11H530.455V205.071H533.556C534.433 205.071 535.241 205.217 535.983 205.509C536.736 205.801 537.387 206.217 537.938 206.756C538.5 207.284 538.932 207.908 539.236 208.627C539.55 209.346 539.707 210.132 539.707 210.986C539.707 211.84 539.55 212.632 539.236 213.362C538.932 214.081 538.505 214.711 537.955 215.25C537.404 215.778 536.753 216.188 536 216.48C535.258 216.772 534.455 216.918 533.59 216.918H530.506ZM528.939 216.918V205.071H531.231V216.918H528.939Z" fill="#092C4C"/>
<path d="M547.445 217.087C546.625 217.087 545.878 216.946 545.204 216.666C544.53 216.373 543.968 215.958 543.518 215.418L545.035 213.919C545.26 214.256 545.58 214.525 545.996 214.727C546.423 214.93 546.889 215.031 547.395 215.031C547.855 215.031 548.254 214.947 548.591 214.778C548.939 214.61 549.209 214.374 549.4 214.07C549.602 213.756 549.703 213.391 549.703 212.975C549.703 212.537 549.602 212.166 549.4 211.863C549.209 211.559 548.951 211.329 548.625 211.172C548.299 211.014 547.934 210.936 547.529 210.936C547.102 210.936 546.715 210.992 546.367 211.104C546.029 211.205 545.704 211.374 545.389 211.61L545.524 210.16C545.737 209.936 545.962 209.756 546.198 209.621C546.434 209.475 546.698 209.368 546.99 209.301C547.293 209.222 547.647 209.183 548.052 209.183C548.917 209.183 549.636 209.363 550.209 209.722C550.793 210.071 551.237 210.542 551.54 211.138C551.844 211.722 551.995 212.368 551.995 213.076C551.995 213.851 551.804 214.542 551.422 215.149C551.04 215.756 550.507 216.233 549.821 216.581C549.147 216.918 548.355 217.087 547.445 217.087ZM545.389 211.61L544.294 210.531L544.833 205.071H546.906L546.299 210.615L545.389 211.61ZM545.187 207.06L544.833 205.071H551.338V207.06H545.187ZM553.146 218.924L554.342 216.699L555.033 216.514C554.954 216.66 554.864 216.784 554.763 216.885C554.662 216.986 554.544 217.036 554.409 217.036C554.129 217.036 553.865 216.913 553.617 216.666C553.37 216.418 553.247 216.109 553.247 215.739C553.247 215.334 553.381 214.992 553.651 214.711C553.921 214.43 554.258 214.289 554.662 214.289C555.033 214.289 555.359 214.43 555.64 214.711C555.921 214.992 556.061 215.334 556.061 215.739C556.061 215.896 556.027 216.087 555.96 216.312C555.892 216.525 555.769 216.8 555.589 217.137L554.291 219.53L553.146 218.924ZM558.025 216.918L562.188 206.402H564.446L560.402 216.918H558.025ZM556.391 207.06V205.071H564.446V206.402L563.587 207.06H556.391ZM569.07 217.087C568.25 217.087 567.503 216.946 566.829 216.666C566.155 216.373 565.593 215.958 565.144 215.418L566.661 213.919C566.885 214.256 567.205 214.525 567.621 214.727C568.048 214.93 568.514 215.031 569.02 215.031C569.481 215.031 569.879 214.947 570.216 214.778C570.565 214.61 570.834 214.374 571.025 214.07C571.228 213.756 571.329 213.391 571.329 212.975C571.329 212.537 571.228 212.166 571.025 211.863C570.834 211.559 570.576 211.329 570.25 211.172C569.924 211.014 569.559 210.936 569.155 210.936C568.728 210.936 568.34 210.992 567.992 211.104C567.655 211.205 567.329 211.374 567.014 211.61L567.149 210.16C567.363 209.936 567.587 209.756 567.823 209.621C568.059 209.475 568.323 209.368 568.615 209.301C568.919 209.222 569.273 209.183 569.677 209.183C570.542 209.183 571.261 209.363 571.834 209.722C572.419 210.071 572.862 210.542 573.166 211.138C573.469 211.722 573.621 212.368 573.621 213.076C573.621 213.851 573.43 214.542 573.048 215.149C572.666 215.756 572.132 216.233 571.447 216.581C570.773 216.918 569.981 217.087 569.07 217.087ZM567.014 211.61L565.919 210.531L566.458 205.071H568.531L567.925 210.615L567.014 211.61ZM566.812 207.06L566.458 205.071H572.963V207.06H566.812ZM579.767 217.087C578.835 217.087 577.992 216.834 577.24 216.328C576.487 215.823 575.886 215.109 575.436 214.188C574.998 213.267 574.779 212.194 574.779 210.969C574.779 209.745 574.998 208.677 575.436 207.767C575.874 206.857 576.464 206.149 577.206 205.644C577.959 205.138 578.796 204.886 579.717 204.886C580.661 204.886 581.503 205.138 582.245 205.644C582.998 206.149 583.593 206.863 584.031 207.784C584.469 208.694 584.688 209.767 584.688 211.003C584.688 212.228 584.469 213.301 584.031 214.222C583.593 215.132 583.003 215.84 582.262 216.345C581.52 216.84 580.689 217.087 579.767 217.087ZM579.734 215.014C580.273 215.014 580.739 214.862 581.133 214.559C581.526 214.256 581.829 213.806 582.043 213.211C582.267 212.615 582.38 211.874 582.38 210.986C582.38 210.099 582.267 209.357 582.043 208.762C581.829 208.166 581.52 207.722 581.116 207.43C580.722 207.127 580.256 206.975 579.717 206.975C579.189 206.975 578.728 207.127 578.335 207.43C577.942 207.722 577.633 208.166 577.408 208.762C577.195 209.346 577.088 210.082 577.088 210.969C577.088 211.868 577.195 212.615 577.408 213.211C577.633 213.806 577.942 214.256 578.335 214.559C578.728 214.862 579.194 215.014 579.734 215.014Z" fill="#092C4C"/>
<rect x="101.116" y="231.53" width="193.806" height="12.0376" rx="6.01881" fill="#CADDEC"/>
<rect x="458.633" y="231.53" width="127.599" height="12.0376" rx="6.01881" fill="#D3E1EB"/>
<g clip-path="url(#clip3_110_18824)">
<rect x="28.8901" y="283.644" width="52.9655" height="52.9655" rx="26.4828" fill="#EAEEF4"/>
</g>
<rect x="101.116" y="292.672" width="229.919" height="15.6489" rx="7.82445" fill="#7F9CB5"/>
<path d="M496.009 305.997L500.778 294.149H502.649L507.401 305.997H504.958L501.284 296.273H502.126L498.402 305.997H496.009ZM498.537 303.789V301.868H504.907V303.789H498.537ZM508.801 305.997V294.149H511.093V305.997H508.801ZM510.486 305.997V303.974H517.042V305.997H510.486ZM510.486 300.924V298.969H516.452V300.924H510.486ZM510.486 296.172V294.149H516.957V296.172H510.486ZM520.506 305.997V303.958H523.522C524.286 303.958 524.955 303.8 525.528 303.486C526.101 303.16 526.545 302.705 526.859 302.121C527.185 301.536 527.348 300.845 527.348 300.048C527.348 299.272 527.185 298.598 526.859 298.025C526.533 297.441 526.084 296.992 525.511 296.677C524.938 296.351 524.275 296.188 523.522 296.188H520.455V294.149H523.556C524.433 294.149 525.241 294.295 525.983 294.587C526.736 294.88 527.387 295.295 527.938 295.835C528.5 296.363 528.932 296.986 529.236 297.705C529.55 298.424 529.707 299.211 529.707 300.065C529.707 300.918 529.55 301.711 529.236 302.441C528.932 303.16 528.505 303.789 527.955 304.328C527.404 304.856 526.753 305.266 526 305.559C525.258 305.851 524.455 305.997 523.59 305.997H520.506ZM518.939 305.997V294.149H521.231V305.997H518.939Z" fill="#092C4C"/>
<path d="M535.945 305.997V294.149H538.203V305.997H535.945ZM533.62 296.138V294.149H538.035V296.138H533.62ZM539.858 304.682L544.324 300.014C544.639 299.677 544.892 299.379 545.083 299.121C545.285 298.851 545.431 298.598 545.521 298.362C545.611 298.115 545.656 297.868 545.656 297.621C545.656 297.127 545.493 296.739 545.167 296.458C544.852 296.177 544.442 296.037 543.937 296.037C543.42 296.037 542.959 296.172 542.555 296.441C542.161 296.711 541.791 297.138 541.442 297.722L539.875 296.391C540.347 295.593 540.931 294.992 541.628 294.587C542.336 294.172 543.144 293.964 544.055 293.964C544.83 293.964 545.504 294.116 546.077 294.419C546.661 294.722 547.11 295.144 547.425 295.683C547.74 296.222 547.897 296.851 547.897 297.57C547.897 298.053 547.835 298.492 547.712 298.885C547.599 299.278 547.403 299.671 547.122 300.065C546.852 300.447 546.476 300.879 545.993 301.362L542.74 304.682H539.858ZM539.858 305.997V304.682L541.813 304.008H548.15V305.997H539.858ZM549.696 308.002L550.892 305.778L551.583 305.592C551.505 305.738 551.415 305.862 551.314 305.963C551.212 306.064 551.094 306.115 550.96 306.115C550.679 306.115 550.415 305.991 550.168 305.744C549.92 305.497 549.797 305.188 549.797 304.817C549.797 304.413 549.932 304.07 550.201 303.789C550.471 303.508 550.808 303.368 551.212 303.368C551.583 303.368 551.909 303.508 552.19 303.789C552.471 304.07 552.611 304.413 552.611 304.817C552.611 304.974 552.577 305.165 552.51 305.39C552.443 305.603 552.319 305.879 552.139 306.216L550.842 308.609L549.696 308.002ZM558.691 306.165C557.759 306.165 556.916 305.912 556.164 305.407C555.411 304.901 554.81 304.188 554.36 303.267C553.922 302.345 553.703 301.272 553.703 300.048C553.703 298.823 553.922 297.756 554.36 296.846C554.798 295.936 555.388 295.228 556.13 294.722C556.883 294.217 557.72 293.964 558.641 293.964C559.585 293.964 560.427 294.217 561.169 294.722C561.922 295.228 562.517 295.941 562.955 296.863C563.393 297.773 563.612 298.846 563.612 300.081C563.612 301.306 563.393 302.379 562.955 303.3C562.517 304.21 561.927 304.918 561.186 305.424C560.444 305.918 559.613 306.165 558.691 306.165ZM558.658 304.092C559.197 304.092 559.663 303.941 560.057 303.637C560.45 303.334 560.753 302.885 560.967 302.289C561.191 301.694 561.304 300.952 561.304 300.065C561.304 299.177 561.191 298.435 560.967 297.84C560.753 297.245 560.444 296.801 560.04 296.509C559.646 296.205 559.18 296.054 558.641 296.054C558.113 296.054 557.652 296.205 557.259 296.509C556.866 296.801 556.557 297.245 556.332 297.84C556.119 298.424 556.012 299.16 556.012 300.048C556.012 300.947 556.119 301.694 556.332 302.289C556.557 302.885 556.866 303.334 557.259 303.637C557.652 303.941 558.118 304.092 558.658 304.092ZM564.643 301.817L568.688 294.149H571.216L567.07 301.817H564.643ZM564.643 303.165V301.817L565.486 301.16H573.979V303.165H564.643ZM570.238 305.997V298.447H572.496V305.997H570.238ZM579.988 306.165C579.055 306.165 578.213 305.912 577.46 305.407C576.707 304.901 576.106 304.188 575.657 303.267C575.218 302.345 574.999 301.272 574.999 300.048C574.999 298.823 575.218 297.756 575.657 296.846C576.095 295.936 576.685 295.228 577.426 294.722C578.179 294.217 579.016 293.964 579.937 293.964C580.881 293.964 581.724 294.217 582.465 294.722C583.218 295.228 583.813 295.941 584.251 296.863C584.69 297.773 584.909 298.846 584.909 300.081C584.909 301.306 584.69 302.379 584.251 303.3C583.813 304.21 583.223 304.918 582.482 305.424C581.74 305.918 580.909 306.165 579.988 306.165ZM579.954 304.092C580.493 304.092 580.96 303.941 581.353 303.637C581.746 303.334 582.049 302.885 582.263 302.289C582.487 301.694 582.6 300.952 582.6 300.065C582.6 299.177 582.487 298.435 582.263 297.84C582.049 297.245 581.74 296.801 581.336 296.509C580.943 296.205 580.476 296.054 579.937 296.054C579.409 296.054 578.948 296.205 578.555 296.509C578.162 296.801 577.853 297.245 577.628 297.84C577.415 298.424 577.308 299.16 577.308 300.048C577.308 300.947 577.415 301.694 577.628 302.289C577.853 302.885 578.162 303.334 578.555 303.637C578.948 303.941 579.415 304.092 579.954 304.092Z" fill="#092C4C"/>
<rect x="101.116" y="320.608" width="166.119" height="12.0376" rx="6.01881" fill="#CADDEC"/>
<rect x="458.633" y="320.608" width="127.599" height="12.0376" rx="6.01881" fill="#D3E1EB"/>
<g clip-path="url(#clip4_110_18824)">
<rect x="28.8901" y="372.722" width="52.9655" height="52.9655" rx="26.4828" fill="#EAEEF4"/>
</g>
<rect x="101.116" y="381.751" width="229.919" height="15.6489" rx="7.82445" fill="#7F9CB5"/>
<path d="M504.009 395.075L508.778 383.228H510.649L515.401 395.075H512.958L509.284 385.351H510.126L506.402 395.075H504.009ZM506.537 392.867V390.946H512.907V392.867H506.537ZM516.801 395.075V383.228H519.093V395.075H516.801ZM518.486 395.075V393.053H525.042V395.075H518.486ZM518.486 390.002V388.048H524.452V390.002H518.486ZM518.486 385.25V383.228H524.957V385.25H518.486ZM528.506 395.075V393.036H531.522C532.286 393.036 532.955 392.879 533.528 392.564C534.101 392.238 534.545 391.783 534.859 391.199C535.185 390.615 535.348 389.924 535.348 389.126C535.348 388.351 535.185 387.677 534.859 387.104C534.533 386.52 534.084 386.07 533.511 385.756C532.938 385.43 532.275 385.267 531.522 385.267H528.455V383.228H531.556C532.433 383.228 533.241 383.374 533.983 383.666C534.736 383.958 535.387 384.374 535.938 384.913C536.5 385.441 536.932 386.065 537.236 386.784C537.55 387.503 537.707 388.289 537.707 389.143C537.707 389.997 537.55 390.789 537.236 391.519C536.932 392.238 536.505 392.867 535.955 393.407C535.404 393.935 534.753 394.345 534 394.637C533.258 394.929 532.455 395.075 531.59 395.075H528.506ZM526.939 395.075V383.228H529.231V395.075H526.939Z" fill="#092C4C"/>
<path d="M546.018 395.244C545.209 395.244 544.479 395.064 543.827 394.704C543.187 394.334 542.676 393.839 542.294 393.221C541.923 392.592 541.738 391.896 541.738 391.132C541.738 390.087 542.097 389.036 542.816 387.98L546.102 383.228H548.731L545.142 388.25L544.299 388.486C544.423 388.227 544.569 388.003 544.737 387.812C544.917 387.621 545.147 387.475 545.428 387.373C545.709 387.272 546.063 387.222 546.49 387.222C547.198 387.222 547.838 387.39 548.411 387.727C548.984 388.053 549.445 388.508 549.793 389.092C550.141 389.665 550.316 390.328 550.316 391.081C550.316 391.856 550.125 392.558 549.743 393.188C549.361 393.817 548.844 394.317 548.192 394.687C547.54 395.058 546.816 395.244 546.018 395.244ZM546.018 393.188C546.411 393.188 546.76 393.098 547.063 392.918C547.366 392.727 547.608 392.474 547.788 392.16C547.967 391.834 548.057 391.469 548.057 391.064C548.057 390.66 547.967 390.3 547.788 389.986C547.608 389.66 547.366 389.407 547.063 389.227C546.76 389.047 546.411 388.958 546.018 388.958C545.625 388.958 545.271 389.053 544.956 389.244C544.653 389.424 544.411 389.671 544.232 389.986C544.063 390.3 543.979 390.66 543.979 391.064C543.979 391.469 544.063 391.834 544.232 392.16C544.411 392.474 544.653 392.727 544.956 392.918C545.271 393.098 545.625 393.188 546.018 393.188ZM551.771 397.081L552.967 394.856L553.658 394.671C553.58 394.817 553.49 394.94 553.389 395.041C553.288 395.142 553.17 395.193 553.035 395.193C552.754 395.193 552.49 395.069 552.243 394.822C551.996 394.575 551.872 394.266 551.872 393.895C551.872 393.491 552.007 393.148 552.276 392.867C552.546 392.586 552.883 392.446 553.288 392.446C553.658 392.446 553.984 392.586 554.265 392.867C554.546 393.148 554.686 393.491 554.686 393.895C554.686 394.053 554.653 394.244 554.585 394.468C554.518 394.682 554.394 394.957 554.215 395.294L552.917 397.687L551.771 397.081ZM559.747 395.244C558.927 395.244 558.18 395.103 557.505 394.822C556.831 394.53 556.27 394.114 555.82 393.575L557.337 392.075C557.562 392.412 557.882 392.682 558.297 392.884C558.724 393.086 559.191 393.188 559.696 393.188C560.157 393.188 560.556 393.103 560.893 392.935C561.241 392.766 561.511 392.53 561.702 392.227C561.904 391.912 562.005 391.547 562.005 391.132C562.005 390.693 561.904 390.323 561.702 390.019C561.511 389.716 561.252 389.486 560.927 389.328C560.601 389.171 560.236 389.092 559.831 389.092C559.404 389.092 559.017 389.149 558.668 389.261C558.331 389.362 558.005 389.531 557.691 389.766L557.826 388.317C558.039 388.092 558.264 387.913 558.5 387.778C558.736 387.632 559 387.525 559.292 387.458C559.595 387.379 559.949 387.34 560.354 387.34C561.219 387.34 561.938 387.519 562.511 387.879C563.095 388.227 563.539 388.699 563.842 389.295C564.145 389.879 564.297 390.525 564.297 391.233C564.297 392.008 564.106 392.699 563.724 393.306C563.342 393.912 562.808 394.39 562.123 394.738C561.449 395.075 560.657 395.244 559.747 395.244ZM557.691 389.766L556.595 388.688L557.135 383.228H559.208L558.601 388.772L557.691 389.766ZM557.489 385.216L557.135 383.228H563.64V385.216H557.489ZM569.534 395.244C568.691 395.244 567.961 395.098 567.343 394.805C566.736 394.513 566.259 394.103 565.91 393.575C565.573 393.047 565.405 392.452 565.405 391.789C565.405 391.238 565.512 390.738 565.725 390.289C565.939 389.84 566.242 389.463 566.635 389.16C567.04 388.845 567.511 388.626 568.051 388.503L568 389.059C567.551 388.946 567.169 388.75 566.854 388.469C566.54 388.188 566.304 387.857 566.146 387.475C565.989 387.081 565.91 386.677 565.91 386.261C565.91 385.621 566.062 385.059 566.365 384.576C566.68 384.093 567.107 383.716 567.646 383.447C568.197 383.177 568.826 383.042 569.534 383.042C570.242 383.042 570.865 383.177 571.404 383.447C571.944 383.716 572.365 384.093 572.668 384.576C572.983 385.059 573.14 385.621 573.14 386.261C573.14 386.677 573.062 387.081 572.904 387.475C572.747 387.857 572.511 388.188 572.196 388.469C571.893 388.75 571.511 388.946 571.05 389.059L571 388.503C571.55 388.626 572.022 388.845 572.416 389.16C572.809 389.463 573.112 389.84 573.326 390.289C573.539 390.738 573.646 391.238 573.646 391.789C573.646 392.452 573.477 393.047 573.14 393.575C572.803 394.103 572.326 394.513 571.708 394.805C571.09 395.098 570.365 395.244 569.534 395.244ZM569.534 393.238C569.905 393.238 570.236 393.165 570.528 393.019C570.82 392.862 571.045 392.648 571.202 392.379C571.371 392.109 571.455 391.806 571.455 391.469C571.455 391.12 571.371 390.817 571.202 390.559C571.045 390.289 570.82 390.081 570.528 389.935C570.236 389.778 569.905 389.699 569.534 389.699C569.152 389.699 568.815 389.778 568.523 389.935C568.242 390.081 568.017 390.289 567.848 390.559C567.68 390.817 567.596 391.12 567.596 391.469C567.596 391.806 567.68 392.109 567.848 392.379C568.017 392.648 568.242 392.862 568.523 393.019C568.815 393.165 569.152 393.238 569.534 393.238ZM569.534 387.963C569.972 387.963 570.331 387.823 570.612 387.542C570.893 387.261 571.034 386.902 571.034 386.463C571.034 386.014 570.893 385.649 570.612 385.368C570.331 385.087 569.972 384.947 569.534 384.947C569.096 384.947 568.73 385.087 568.438 385.368C568.157 385.649 568.017 386.008 568.017 386.447C568.017 386.896 568.157 387.261 568.438 387.542C568.73 387.823 569.096 387.963 569.534 387.963ZM579.792 395.244C578.859 395.244 578.017 394.991 577.264 394.485C576.511 393.98 575.91 393.266 575.461 392.345C575.022 391.424 574.803 390.351 574.803 389.126C574.803 387.901 575.022 386.834 575.461 385.924C575.899 385.014 576.489 384.306 577.23 383.801C577.983 383.295 578.82 383.042 579.741 383.042C580.685 383.042 581.528 383.295 582.269 383.801C583.022 384.306 583.617 385.02 584.055 385.941C584.494 386.851 584.713 387.924 584.713 389.16C584.713 390.384 584.494 391.457 584.055 392.379C583.617 393.289 583.027 393.997 582.286 394.502C581.544 394.996 580.713 395.244 579.792 395.244ZM579.758 393.171C580.297 393.171 580.764 393.019 581.157 392.716C581.55 392.412 581.853 391.963 582.067 391.367C582.292 390.772 582.404 390.031 582.404 389.143C582.404 388.255 582.292 387.514 582.067 386.918C581.853 386.323 581.544 385.879 581.14 385.587C580.747 385.284 580.28 385.132 579.741 385.132C579.213 385.132 578.753 385.284 578.359 385.587C577.966 385.879 577.657 386.323 577.432 386.918C577.219 387.503 577.112 388.239 577.112 389.126C577.112 390.025 577.219 390.772 577.432 391.367C577.657 391.963 577.966 392.412 578.359 392.716C578.753 393.019 579.219 393.171 579.758 393.171Z" fill="#092C4C"/>
<rect x="101.116" y="409.686" width="166.119" height="12.0376" rx="6.01881" fill="#CADDEC"/>
<rect x="458.633" y="409.686" width="127.599" height="12.0376" rx="6.01881" fill="#D3E1EB"/>
</g>
<defs>
<clipPath id="clip0_110_18824">
<rect width="615.122" height="377.981" fill="white" transform="translate(0 94.6534)"/>
</clipPath>
<clipPath id="clip1_110_18824">
<rect x="28.8901" y="105.487" width="52.9655" height="52.9655" rx="26.4828" fill="white"/>
</clipPath>
<clipPath id="clip2_110_18824">
<rect x="28.8901" y="194.566" width="52.9655" height="52.9655" rx="26.4828" fill="white"/>
</clipPath>
<clipPath id="clip3_110_18824">
<rect x="28.8901" y="283.644" width="52.9655" height="52.9655" rx="26.4828" fill="white"/>
</clipPath>
<clipPath id="clip4_110_18824">
<rect x="28.8901" y="372.722" width="52.9655" height="52.9655" rx="26.4828" fill="white"/>
</clipPath>
</defs>
</svg>
