<svg width="151" height="36" viewBox="0 0 151 36" fill="none" xmlns="http://www.w3.org/2000/svg">
<path d="M24.7728 6.37482H37.4975V10.8755H29.7832V15.5754H37.4975V20.1159H29.7832V24.6166H37.4975V29.2767H24.7728V6.37482ZM52.1707 26.5683V19.5982L48.4328 17.8457L52.1707 16.0533V9.12304L47.6773 6.37482H39.446V10.8755H47.1603V15.5754H39.446V20.1159H47.1603V24.6166H39.446V29.2767H47.6773L52.1707 26.5683Z" fill="#1F2F56"/>
<path d="M56.0922 9.12304V29.2767H61.1025V20.1159H68.8169V15.5754H61.1025V10.8755H68.8169V6.37482H60.6254L56.0922 9.12304ZM83.4901 9.12304V29.2767H78.4797V20.1159H70.6063V15.5754H78.4797V10.8755H70.6063V6.37482H78.7978L83.4901 9.12304Z" fill="#1F2F56"/>
<path d="M89.4402 9.12304V17.527L93.9734 20.2354H102.165V15.5754H94.2915V11.0747H102.165V6.37482H93.9734L89.4402 9.12304ZM116.838 18.3236V26.5683L112.146 29.2767H104.113V24.776H111.828V20.2354H103.954V15.5754H112.146L116.838 18.3236ZM94.4505 22.0277H89.4402V26.5683L94.0926 29.2767H102.165V24.776H94.4505V22.0277ZM116.838 13.7831H111.828V11.0747H103.954V6.37482H112.146L116.838 9.12304V13.7831Z" fill="#1F2F56"/>
<path d="M123.602 6.37482H136.327V11.0747H128.612V15.5754H136.327V20.1159H128.612V24.776H136.168V29.2767H123.602V6.37482ZM138.275 24.776V29.2767H151V24.776H138.275ZM151 11.0747V6.37482H138.116V11.0747H151ZM144.558 20.1159V15.5754H138.116V20.1159H144.558Z" fill="#1F2F56"/>
<path d="M9.1726 15.2368L12.3451 6.87829L6.02311 13.1184L3.79318 14.8224L0.965537 10.5625L13.7934 0.5L19.2878 0.960526L14.0233 30.8947H19.6096L18.782 35.5H0L0.827604 30.8947H6.41393L9.1726 15.2368Z" fill="#FF8000"/>
</svg>
