<svg width="151" height="36" viewBox="0 0 151 36" fill="none" xmlns="http://www.w3.org/2000/svg">
<g clip-path="url(#clip0_87_17476)">
<path d="M24.7729 6.375H37.4977V10.8757H29.7833V15.5756H37.4977V20.1161H29.7833V24.6168H37.4977V29.2769H24.7729V6.375ZM52.1708 26.5685V19.5984L48.4329 17.8459L52.1708 16.0535V9.12322L47.6774 6.375H39.4461V10.8757H47.1604V15.5756H39.4461V20.1161H47.1604V24.6168H39.4461V29.2769H47.6774L52.1708 26.5685Z" fill="white"/>
<path d="M56.0923 9.12322V29.2769H61.1026V20.1161H68.817V15.5756H61.1026V10.8757H68.817V6.375H60.6255L56.0923 9.12322ZM83.4902 9.12322V29.2769H78.4798V20.1161H70.6064V15.5756H78.4798V10.8757H70.6064V6.375H78.7979L83.4902 9.12322Z" fill="white"/>
<path d="M89.4404 9.12322V17.5272L93.9736 20.2356H102.165V15.5756H94.2917V11.0749H102.165V6.375H93.9736L89.4404 9.12322ZM116.838 18.3238V26.5685L112.146 29.2769H104.113V24.7762H111.828V20.2356H103.954V15.5756H112.146L116.838 18.3238ZM94.4507 22.0279H89.4404V26.5685L94.0928 29.2769H102.165V24.7762H94.4507V22.0279ZM116.838 13.7833H111.828V11.0749H103.954V6.375H112.146L116.838 9.12322V13.7833Z" fill="white"/>
<path d="M123.602 6.375H136.327V11.0749H128.612V15.5756H136.327V20.1161H128.612V24.7762H136.168V29.2769H123.602V6.375ZM138.275 24.7762V29.2769H151V24.7762H138.275ZM151 11.0749V6.375H138.116V11.0749H151ZM144.558 20.1161V15.5756H138.116V20.1161H144.558Z" fill="white"/>
<path d="M9.1726 15.2368L12.3451 6.87829L6.02311 13.1184L3.79318 14.8224L0.965537 10.5625L13.7934 0.5L19.2878 0.960526L14.0233 30.8947H19.6096L18.782 35.5H0L0.827604 30.8947H6.41393L9.1726 15.2368Z" fill="#FF8000"/>
</g>
<defs>
<clipPath id="clip0_87_17476">
<rect width="151" height="36" fill="white"/>
</clipPath>
</defs>
</svg>
