<svg width="144" height="35" viewBox="0 0 144 35" fill="none" xmlns="http://www.w3.org/2000/svg">
<path d="M9.19718 14.7368L12.3782 6.37829L6.03925 12.6184L3.80335 14.3224L0.968124 10.0625L13.8304 0L19.3394 0.460526L14.0609 30.3947H19.6621L18.8323 35H0L0.829821 30.3947H6.43111L9.19718 14.7368Z" fill="#FF8000"/>
<path d="M24.0747 30.0658V5.04825L45.2198 4.97807C48.0063 4.97807 50.067 5.56287 51.4017 6.73246C52.7599 7.87866 53.4389 9.60965 53.4389 11.9254C53.4389 14.2412 52.6662 15.9371 51.1207 17.0132C52.151 17.5746 52.9121 18.3231 53.4038 19.2588C53.8956 20.1711 54.1414 21.3523 54.1414 22.8026C54.1414 25.1652 53.4624 26.9664 52.1042 28.2061C50.7695 29.4225 48.7088 30.0307 45.9223 30.0307L24.0747 30.0658ZM44.5524 9.4693H29.6946V15.0833H44.5524C46.6833 15.0833 47.7487 14.1243 47.7487 12.2061C47.7487 10.3816 46.6833 9.4693 44.5524 9.4693ZM45.2549 19.5746H29.6946V25.5395H45.2549C47.3858 25.5395 48.4512 24.5336 48.4512 22.5219C48.4512 20.557 47.3858 19.5746 45.2549 19.5746Z" fill="white"/>
<path d="M54.1351 30.0658L65.4453 4.97807H74.1211L85.4312 30.0658H79.3195L76.931 24.7675H62.6353L60.2468 30.0658H54.1351ZM64.6725 20.2061H74.8938L70.0115 9.36404H69.5549L64.6725 20.2061Z" fill="white"/>
<path d="M85.6818 30.2412V25.6798L105.878 25.7149C106.909 25.7149 107.693 25.481 108.232 25.0132C108.794 24.5219 109.075 23.7383 109.075 22.6623C109.075 21.5863 108.794 20.8143 108.232 20.3465C107.693 19.8553 106.909 19.6097 105.878 19.6097H93.3038C90.7046 19.6097 88.6791 18.9898 87.2272 17.75C85.7988 16.4868 85.0846 14.6389 85.0846 12.2061C85.0846 9.77339 85.7988 7.93714 87.2272 6.69737C88.6791 5.43421 90.7046 4.80263 93.3038 4.80263H113.044V9.36404L93.9009 9.32895C92.894 9.32895 92.1096 9.56287 91.5476 10.0307C90.9856 10.4751 90.7046 11.2003 90.7046 12.2061C90.7046 13.212 90.9856 13.9488 91.5476 14.4167C92.1096 14.8611 92.894 15.0833 93.9009 15.0833H106.476C109.075 15.0833 111.089 15.7266 112.517 17.0132C113.969 18.2763 114.695 20.1594 114.695 22.6623C114.695 25.1418 113.969 27.0249 112.517 28.3114C111.089 29.598 109.075 30.2412 106.476 30.2412H85.6818Z" fill="white"/>
<path d="M116.462 30.0658V4.97807H144V9.53947H122.082V15.0833H141.963V19.6447H122.082V25.5044H144V30.0658H116.462Z" fill="white"/>
</svg>
