<svg width="144" height="36" viewBox="0 0 144 36" fill="none" xmlns="http://www.w3.org/2000/svg">
<path d="M9.19718 15.0568L12.3782 6.6983L6.03925 12.9384L3.80335 14.6424L0.968124 10.3825L13.8304 0.320007L19.3394 0.780533L14.0609 30.7147H19.6621L18.8323 35.32H0L0.829821 30.7147H6.43111L9.19718 15.0568Z" fill="#FF8000"/>
<path d="M24.0747 30.3858V5.36825L45.2198 5.29808C48.0063 5.29808 50.067 5.88287 51.4017 7.05246C52.7599 8.19866 53.4389 9.92966 53.4389 12.2454C53.4389 14.5612 52.6662 16.2571 51.1207 17.3332C52.151 17.8946 52.9121 18.6431 53.4038 19.5788C53.8956 20.4911 54.1414 21.6723 54.1414 23.1226C54.1414 25.4852 53.4624 27.2864 52.1042 28.5262C50.7695 29.7425 48.7088 30.3507 45.9223 30.3507L24.0747 30.3858ZM44.5524 9.78931H29.6946V15.4033H44.5524C46.6833 15.4033 47.7487 14.4443 47.7487 12.5261C47.7487 10.7016 46.6833 9.78931 44.5524 9.78931ZM45.2549 19.8946H29.6946V25.8595H45.2549C47.3858 25.8595 48.4512 24.8536 48.4512 22.8419C48.4512 20.877 47.3858 19.8946 45.2549 19.8946Z" fill="black"/>
<path d="M54.1351 30.3858L65.4453 5.29808H74.1211L85.4312 30.3858H79.3195L76.931 25.0876H62.6353L60.2468 30.3858H54.1351ZM64.6725 20.5261H74.8938L70.0115 9.68404H69.5549L64.6725 20.5261Z" fill="black"/>
<path d="M85.6818 30.5612V25.9998L105.878 26.0349C106.909 26.0349 107.693 25.801 108.232 25.3332C108.794 24.8419 109.075 24.0583 109.075 22.9823C109.075 21.9063 108.794 21.1343 108.232 20.6665C107.693 20.1753 106.909 19.9297 105.878 19.9297H93.3038C90.7046 19.9297 88.6791 19.3098 87.2272 18.07C85.7988 16.8069 85.0846 14.9589 85.0846 12.5261C85.0846 10.0934 85.7988 8.25714 87.2272 7.01738C88.6791 5.75422 90.7046 5.12264 93.3038 5.12264H113.044V9.68404L93.9009 9.64896C92.894 9.64896 92.1096 9.88287 91.5476 10.3507C90.9856 10.7952 90.7046 11.5203 90.7046 12.5261C90.7046 13.532 90.9856 14.2688 91.5476 14.7367C92.1096 15.1811 92.894 15.4033 93.9009 15.4033H106.476C109.075 15.4033 111.089 16.0466 112.517 17.3332C113.969 18.5963 114.695 20.4794 114.695 22.9823C114.695 25.4618 113.969 27.3449 112.517 28.6314C111.089 29.918 109.075 30.5612 106.476 30.5612H85.6818Z" fill="black"/>
<path d="M116.462 30.3858V5.29808H144V9.85948H122.082V15.4033H141.963V19.9647H122.082V25.8244H144V30.3858H116.462Z" fill="black"/>
</svg>
